<svg xmlns="http://www.w3.org/2000/svg" xmlns:xlink="http://www.w3.org/1999/xlink" width="1920" zoomAndPan="magnify" viewBox="0 0 1440 809.999993" height="1080" preserveAspectRatio="xMidYMid meet" version="1.0"><defs><g/><clipPath id="ffc99c26e8"><path d="M 23.128906 725 L 726.871094 725 L 726.871094 725.910156 L 23.128906 725.910156 Z M 23.128906 725 " clip-rule="nonzero"/></clipPath><clipPath id="7428837825"><path d="M 23.128906 584 L 726.871094 584 L 726.871094 586 L 23.128906 586 Z M 23.128906 584 " clip-rule="nonzero"/></clipPath><clipPath id="3670e9631b"><path d="M 23.128906 443 L 726.871094 443 L 726.871094 445 L 23.128906 445 Z M 23.128906 443 " clip-rule="nonzero"/></clipPath><clipPath id="cb0c21147d"><path d="M 23.128906 303 L 726.871094 303 L 726.871094 305 L 23.128906 305 Z M 23.128906 303 " clip-rule="nonzero"/></clipPath><clipPath id="d1e0f55027"><path d="M 23.128906 162 L 726.871094 162 L 726.871094 164 L 23.128906 164 Z M 23.128906 162 " clip-rule="nonzero"/></clipPath><clipPath id="bd3086aa91"><path d="M 23.128906 22.164062 L 726.871094 22.164062 L 726.871094 23 L 23.128906 23 Z M 23.128906 22.164062 " clip-rule="nonzero"/></clipPath><clipPath id="f6f6ae35ba"><rect x="0" width="751" y="0" height="750"/></clipPath></defs><g transform="matrix(1, 0, 0, 1, 345, 0.000000000000039746)"><g clip-path="url(#f6f6ae35ba)"><g clip-path="url(#ffc99c26e8)"><path stroke-linecap="butt" transform="matrix(0.86882, 0, 0, 0.86882, 23.12782, 22.165194)" fill="none" stroke-linejoin="miter" d="M 0.00125051 810.000769 L 809.998826 810.000769 " stroke="#000000" stroke-width="1" stroke-opacity="0.6" stroke-miterlimit="4"/></g><g clip-path="url(#7428837825)"><path stroke-linecap="butt" transform="matrix(0.86882, 0, 0, 0.86882, 23.12782, 22.165194)" fill="none" stroke-linejoin="miter" d="M 0.00125051 647.999455 L 809.998826 647.999455 " stroke="#000000" stroke-width="1" stroke-opacity="0.251" stroke-miterlimit="4"/></g><g clip-path="url(#3670e9631b)"><path stroke-linecap="butt" transform="matrix(0.86882, 0, 0, 0.86882, 23.12782, 22.165194)" fill="none" stroke-linejoin="miter" d="M 0.00125051 485.998142 L 809.998826 485.998142 " stroke="#000000" stroke-width="1" stroke-opacity="0.251" stroke-miterlimit="4"/></g><g clip-path="url(#cb0c21147d)"><path stroke-linecap="butt" transform="matrix(0.86882, 0, 0, 0.86882, 23.12782, 22.165194)" fill="none" stroke-linejoin="miter" d="M 0.00125051 324.001324 L 809.998826 324.001324 " stroke="#000000" stroke-width="1" stroke-opacity="0.251" stroke-miterlimit="4"/></g><g clip-path="url(#d1e0f55027)"><path stroke-linecap="butt" transform="matrix(0.86882, 0, 0, 0.86882, 23.12782, 22.165194)" fill="none" stroke-linejoin="miter" d="M 0.00125051 162.000011 L 809.998826 162.000011 " stroke="#000000" stroke-width="1" stroke-opacity="0.251" stroke-miterlimit="4"/></g><g clip-path="url(#bd3086aa91)"><path stroke-linecap="butt" transform="matrix(0.86882, 0, 0, 0.86882, 23.12782, 22.165194)" fill="none" stroke-linejoin="miter" d="M 0.00125051 -0.00130253 L 809.998826 -0.00130253 " stroke="#000000" stroke-width="1" stroke-opacity="0.251" stroke-miterlimit="4"/></g><path fill="#00bf63" d="M 94.039062 158.777344 L 177.398438 171.855469 L 234.773438 180.589844 C 235.230469 180.660156 235.65625 180.8125 236.050781 181.050781 C 236.445312 181.289062 236.777344 181.59375 237.050781 181.96875 C 237.324219 182.339844 237.515625 182.746094 237.625 183.195312 C 237.734375 183.640625 237.757812 184.09375 237.6875 184.550781 C 237.617188 185.003906 237.464844 185.429688 237.226562 185.824219 C 236.988281 186.21875 236.683594 186.550781 236.3125 186.824219 C 235.9375 187.097656 235.53125 187.289062 235.082031 187.402344 C 234.636719 187.511719 234.183594 187.53125 233.726562 187.460938 L 176.320312 178.722656 L 92.964844 165.644531 C 92.507812 165.570312 92.085938 165.417969 91.691406 165.175781 C 91.296875 164.9375 90.964844 164.628906 90.695312 164.257812 C 90.421875 163.882812 90.230469 163.472656 90.125 163.027344 C 90.015625 162.578125 89.996094 162.128906 90.070312 161.671875 C 90.140625 161.214844 90.296875 160.792969 90.535156 160.398438 C 90.777344 160.003906 91.082031 159.671875 91.457031 159.402344 C 91.828125 159.128906 92.238281 158.941406 92.6875 158.832031 C 93.132812 158.722656 93.585938 158.707031 94.039062 158.777344 Z M 94.039062 158.777344 " fill-opacity="1" fill-rule="nonzero"/><path fill="#00bf63" d="M 234.734375 180.585938 L 354.851562 197.457031 L 375.472656 200.289062 C 375.929688 200.351562 376.355469 200.5 376.753906 200.730469 C 377.152344 200.964844 377.488281 201.261719 377.769531 201.628906 C 378.046875 201.996094 378.246094 202.40625 378.363281 202.851562 C 378.480469 203.296875 378.503906 203.746094 378.441406 204.203125 C 378.378906 204.660156 378.234375 205.085938 378 205.484375 C 377.765625 205.882812 377.46875 206.222656 377.101562 206.5 C 376.734375 206.777344 376.328125 206.976562 375.882812 207.09375 C 375.433594 207.210938 374.984375 207.238281 374.527344 207.175781 L 353.882812 204.339844 L 233.769531 187.46875 C 233.3125 187.402344 232.882812 187.253906 232.488281 187.019531 C 232.089844 186.785156 231.753906 186.484375 231.476562 186.117188 C 231.199219 185.75 231.003906 185.34375 230.886719 184.898438 C 230.769531 184.449219 230.746094 184 230.808594 183.542969 C 230.875 183.085938 231.023438 182.660156 231.257812 182.261719 C 231.492188 181.867188 231.792969 181.527344 232.160156 181.25 C 232.527344 180.972656 232.933594 180.777344 233.378906 180.660156 C 233.828125 180.546875 234.277344 180.519531 234.734375 180.585938 Z M 234.734375 180.585938 " fill-opacity="1" fill-rule="nonzero"/><path fill="#00bf63" d="M 375.472656 200.289062 C 386.933594 201.863281 404.136719 204.113281 427.085938 207.039062 C 466.75 212.09375 496.484375 216.183594 516.289062 219.300781 C 516.746094 219.371094 517.167969 219.527344 517.5625 219.765625 C 517.953125 220.007812 518.289062 220.3125 518.558594 220.6875 C 518.828125 221.058594 519.019531 221.46875 519.128906 221.917969 C 519.234375 222.367188 519.253906 222.816406 519.183594 223.273438 C 519.109375 223.726562 518.953125 224.152344 518.714844 224.546875 C 518.472656 224.9375 518.167969 225.269531 517.792969 225.542969 C 517.421875 225.8125 517.011719 226.003906 516.5625 226.109375 C 516.113281 226.21875 515.664062 226.238281 515.207031 226.164062 C 495.472656 223.058594 465.804688 218.980469 426.207031 213.933594 C 403.234375 211.007812 386.007812 208.753906 374.527344 207.175781 C 374.070312 207.109375 373.644531 206.964844 373.246094 206.730469 C 372.847656 206.5 372.507812 206.199219 372.230469 205.832031 C 371.953125 205.464844 371.753906 205.058594 371.636719 204.613281 C 371.519531 204.164062 371.496094 203.714844 371.558594 203.257812 C 371.621094 202.800781 371.769531 202.375 372 201.976562 C 372.234375 201.578125 372.53125 201.242188 372.898438 200.960938 C 373.265625 200.683594 373.675781 200.484375 374.121094 200.371094 C 374.566406 200.253906 375.015625 200.226562 375.472656 200.289062 Z M 375.472656 200.289062 " fill-opacity="1" fill-rule="nonzero"/><path fill="#00bf63" d="M 516.289062 219.300781 C 547.664062 224.238281 594.617188 232.691406 657.152344 244.652344 C 657.601562 244.742188 658.023438 244.910156 658.40625 245.164062 C 658.792969 245.417969 659.113281 245.734375 659.375 246.117188 C 659.632812 246.496094 659.808594 246.914062 659.902344 247.363281 C 659.996094 247.816406 659.996094 248.265625 659.910156 248.71875 C 659.824219 249.171875 659.65625 249.589844 659.402344 249.976562 C 659.148438 250.363281 658.832031 250.683594 658.449219 250.941406 C 658.066406 251.203125 657.652344 251.378906 657.199219 251.46875 C 656.75 251.5625 656.296875 251.566406 655.84375 251.480469 C 593.386719 239.53125 546.507812 231.09375 515.207031 226.164062 C 514.753906 226.09375 514.328125 225.9375 513.9375 225.695312 C 513.542969 225.457031 513.210938 225.148438 512.9375 224.777344 C 512.667969 224.40625 512.476562 223.996094 512.371094 223.546875 C 512.261719 223.097656 512.242188 222.648438 512.316406 222.191406 C 512.386719 221.738281 512.542969 221.3125 512.785156 220.917969 C 513.023438 220.527344 513.332031 220.195312 513.703125 219.921875 C 514.074219 219.652344 514.484375 219.460938 514.933594 219.355469 C 515.382812 219.246094 515.832031 219.226562 516.289062 219.300781 Z M 516.289062 219.300781 " fill-opacity="1" fill-rule="nonzero"/><path fill="#00bf63" d="M 102.191406 170.898438 L 102.191406 153.523438 L 84.8125 153.523438 L 84.8125 170.898438 Z M 102.191406 170.898438 " fill-opacity="1" fill-rule="nonzero"/><path fill="#00bf63" d="M 242.9375 192.714844 L 242.9375 175.339844 L 225.5625 175.339844 L 225.5625 192.714844 Z M 242.9375 192.714844 " fill-opacity="1" fill-rule="nonzero"/><path fill="#00bf63" d="M 383.6875 212.417969 L 383.6875 195.042969 L 366.3125 195.042969 L 366.3125 212.417969 Z M 383.6875 212.417969 " fill-opacity="1" fill-rule="nonzero"/><path fill="#00bf63" d="M 524.4375 231.421875 L 524.4375 214.042969 L 507.0625 214.042969 L 507.0625 231.421875 Z M 524.4375 231.421875 " fill-opacity="1" fill-rule="nonzero"/><path fill="#00bf63" d="M 665.1875 256.753906 L 665.1875 239.378906 L 647.808594 239.378906 L 647.808594 256.753906 Z M 665.1875 256.753906 " fill-opacity="1" fill-rule="nonzero"/></g></g><g fill="#000000" fill-opacity="1"><g transform="translate(373.920748, 767.416277)"><g><path d="M 6.328125 -20.09375 C 7.734375 -20.5625 9.21875 -20.707031 10.78125 -20.53125 C 12.5625 -20.363281 14.113281 -19.566406 15.4375 -18.140625 C 16.0625 -17.316406 16.414062 -16.535156 16.5 -15.796875 C 16.84375 -14.078125 16.453125 -12.28125 15.328125 -10.40625 C 13.796875 -7.925781 11.539062 -5.285156 8.5625 -2.484375 C 8.070312 -2.003906 8.070312 -1.765625 8.5625 -1.765625 L 16 -1.765625 C 16.601562 -1.765625 16.90625 -1.46875 16.90625 -0.875 L 16.90625 0.9375 C 16.90625 1.539062 16.613281 1.84375 16.03125 1.84375 L 3.140625 1.84375 C 2.535156 1.84375 2.234375 1.550781 2.234375 0.96875 L 2.234375 -0.53125 C 2.234375 -1.113281 2.523438 -1.679688 3.109375 -2.234375 C 7.710938 -6.328125 10.835938 -9.921875 12.484375 -13.015625 C 12.867188 -14.109375 12.835938 -15.046875 12.390625 -15.828125 C 12.078125 -16.410156 11.539062 -16.800781 10.78125 -17 C 9.726562 -17.1875 8.878906 -17.175781 8.234375 -16.96875 C 7.046875 -16.570312 6.441406 -15.660156 6.421875 -14.234375 C 6.421875 -13.535156 6.125 -13.1875 5.53125 -13.1875 L 3.375 -13.1875 C 2.78125 -13.1875 2.484375 -13.476562 2.484375 -14.0625 C 2.523438 -15.5625 3.046875 -17.023438 4.046875 -18.453125 C 4.648438 -19.203125 5.410156 -19.75 6.328125 -20.09375 Z M 6.328125 -20.09375 "/></g></g><g transform="translate(393.02231, 767.416277)"><g><path d="M 2.9375 -19.125 C 2.96875 -19.8125 3.257812 -20.15625 3.8125 -20.15625 L 15.265625 -20.15625 C 15.867188 -20.15625 16.171875 -19.863281 16.171875 -19.28125 L 16.171875 -17.609375 C 16.171875 -17.003906 15.878906 -16.703125 15.296875 -16.703125 L 7.265625 -16.703125 C 6.773438 -16.703125 6.53125 -16.46875 6.53125 -16 L 6.453125 -13.09375 C 6.453125 -12.625 6.742188 -12.519531 7.328125 -12.78125 C 8.753906 -13.382812 10.453125 -13.429688 12.421875 -12.921875 C 14.203125 -12.367188 15.5625 -11.117188 16.5 -9.171875 C 17.550781 -6.296875 17.441406 -3.6875 16.171875 -1.34375 C 15.078125 0.488281 13.59375 1.617188 11.71875 2.046875 C 8.90625 2.617188 6.414062 2.171875 4.25 0.703125 C 3 -0.472656 2.257812 -1.988281 2.03125 -3.84375 C 1.988281 -4.46875 2.25 -4.78125 2.8125 -4.78125 L 4.953125 -4.78125 C 5.535156 -4.78125 5.890625 -4.484375 6.015625 -3.890625 C 6.203125 -2.796875 6.753906 -2.015625 7.671875 -1.546875 C 8.492188 -1.222656 9.441406 -1.164062 10.515625 -1.375 C 12.179688 -1.957031 13.109375 -3.207031 13.296875 -5.125 C 13.398438 -6.039062 13.238281 -6.953125 12.8125 -7.859375 C 11.8125 -9.421875 10.316406 -9.957031 8.328125 -9.46875 C 7.578125 -9.269531 6.910156 -8.679688 6.328125 -7.703125 C 6.054688 -7.003906 5.628906 -6.65625 5.046875 -6.65625 L 3.3125 -6.65625 C 2.726562 -6.65625 2.4375 -6.992188 2.4375 -7.671875 Z M 2.9375 -19.125 "/></g></g><g transform="translate(412.123871, 767.416277)"><g><path d="M 11.84375 -22.390625 C 12.09375 -23.023438 12.507812 -23.34375 13.09375 -23.34375 L 14.53125 -23.34375 C 15.113281 -23.34375 15.300781 -23.050781 15.09375 -22.46875 L 4.59375 4.1875 C 4.320312 4.832031 3.894531 5.15625 3.3125 5.15625 L 1.875 5.15625 C 1.289062 5.15625 1.113281 4.863281 1.34375 4.28125 Z M 11.84375 -22.390625 "/></g></g><g transform="translate(428.06137, 767.416277)"><g><path d="M 8.375 -19.3125 C 8.945312 -19.875 9.503906 -20.15625 10.046875 -20.15625 L 10.84375 -20.15625 C 11.445312 -20.15625 11.75 -19.863281 11.75 -19.28125 L 11.75 0.96875 C 11.75 1.570312 11.457031 1.875 10.875 1.875 L 8.875 1.875 C 8.269531 1.875 7.96875 1.582031 7.96875 1 L 7.96875 -13.796875 C 7.96875 -14.285156 7.664062 -14.328125 7.0625 -13.921875 C 6.5 -13.585938 5.921875 -13.300781 5.328125 -13.0625 C 4.742188 -12.832031 4.453125 -13.007812 4.453125 -13.59375 L 4.453125 -15.875 C 4.453125 -16.46875 4.742188 -16.921875 5.328125 -17.234375 C 6.460938 -17.816406 7.476562 -18.507812 8.375 -19.3125 Z M 8.375 -19.3125 "/></g></g><g transform="translate(447.162932, 767.416277)"><g><path d="M 6.328125 -20.09375 C 7.734375 -20.5625 9.21875 -20.707031 10.78125 -20.53125 C 12.5625 -20.363281 14.113281 -19.566406 15.4375 -18.140625 C 16.0625 -17.316406 16.414062 -16.535156 16.5 -15.796875 C 16.84375 -14.078125 16.453125 -12.28125 15.328125 -10.40625 C 13.796875 -7.925781 11.539062 -5.285156 8.5625 -2.484375 C 8.070312 -2.003906 8.070312 -1.765625 8.5625 -1.765625 L 16 -1.765625 C 16.601562 -1.765625 16.90625 -1.46875 16.90625 -0.875 L 16.90625 0.9375 C 16.90625 1.539062 16.613281 1.84375 16.03125 1.84375 L 3.140625 1.84375 C 2.535156 1.84375 2.234375 1.550781 2.234375 0.96875 L 2.234375 -0.53125 C 2.234375 -1.113281 2.523438 -1.679688 3.109375 -2.234375 C 7.710938 -6.328125 10.835938 -9.921875 12.484375 -13.015625 C 12.867188 -14.109375 12.835938 -15.046875 12.390625 -15.828125 C 12.078125 -16.410156 11.539062 -16.800781 10.78125 -17 C 9.726562 -17.1875 8.878906 -17.175781 8.234375 -16.96875 C 7.046875 -16.570312 6.441406 -15.660156 6.421875 -14.234375 C 6.421875 -13.535156 6.125 -13.1875 5.53125 -13.1875 L 3.375 -13.1875 C 2.78125 -13.1875 2.484375 -13.476562 2.484375 -14.0625 C 2.523438 -15.5625 3.046875 -17.023438 4.046875 -18.453125 C 4.648438 -19.203125 5.410156 -19.75 6.328125 -20.09375 Z M 6.328125 -20.09375 "/></g></g><g transform="translate(466.264494, 767.416277)"><g><path d="M 11.84375 -22.390625 C 12.09375 -23.023438 12.507812 -23.34375 13.09375 -23.34375 L 14.53125 -23.34375 C 15.113281 -23.34375 15.300781 -23.050781 15.09375 -22.46875 L 4.59375 4.1875 C 4.320312 4.832031 3.894531 5.15625 3.3125 5.15625 L 1.875 5.15625 C 1.289062 5.15625 1.113281 4.863281 1.34375 4.28125 Z M 11.84375 -22.390625 "/></g></g><g transform="translate(482.201993, 767.416277)"><g><path d="M 3.90625 -18.84375 C 5.851562 -20.34375 8.125 -20.90625 10.71875 -20.53125 C 15.21875 -19.90625 17.378906 -17.640625 17.203125 -13.734375 C 17.222656 -12.722656 16.65625 -11.59375 15.5 -10.34375 C 14.96875 -9.9375 14.988281 -9.488281 15.5625 -9 C 16.300781 -8.332031 16.804688 -7.628906 17.078125 -6.890625 C 18.210938 -3.941406 17.429688 -1.367188 14.734375 0.828125 C 12.335938 2.265625 9.703125 2.660156 6.828125 2.015625 C 3.628906 1.160156 1.921875 -0.859375 1.703125 -4.046875 C 1.660156 -4.785156 1.929688 -5.15625 2.515625 -5.15625 L 4.65625 -5.15625 C 5.25 -5.15625 5.582031 -4.863281 5.65625 -4.28125 C 6.1875 -1.644531 8.015625 -0.726562 11.140625 -1.53125 C 13.191406 -2.3125 13.960938 -3.71875 13.453125 -5.75 C 13.023438 -6.695312 12.359375 -7.289062 11.453125 -7.53125 C 10.484375 -7.820312 9.476562 -7.921875 8.4375 -7.828125 C 7.832031 -7.742188 7.53125 -7.992188 7.53125 -8.578125 L 7.53125 -10.578125 C 7.53125 -11.160156 7.820312 -11.429688 8.40625 -11.390625 C 9.425781 -11.273438 10.335938 -11.351562 11.140625 -11.625 C 12.078125 -11.863281 12.75 -12.441406 13.15625 -13.359375 C 13.71875 -15.273438 12.890625 -16.488281 10.671875 -17 C 9.578125 -17.164062 8.640625 -17.132812 7.859375 -16.90625 C 6.765625 -16.550781 6.140625 -15.726562 5.984375 -14.4375 C 5.878906 -13.851562 5.535156 -13.5625 4.953125 -13.5625 L 2.90625 -13.5625 C 2.320312 -13.5625 2.03125 -13.851562 2.03125 -14.4375 C 2.101562 -16.101562 2.726562 -17.570312 3.90625 -18.84375 Z M 3.90625 -18.84375 "/></g></g></g><g fill="#000000" fill-opacity="1"><g transform="translate(516.353188, 767.416277)"><g><path d="M 6.328125 -20.09375 C 7.734375 -20.5625 9.21875 -20.707031 10.78125 -20.53125 C 12.5625 -20.363281 14.113281 -19.566406 15.4375 -18.140625 C 16.0625 -17.316406 16.414062 -16.535156 16.5 -15.796875 C 16.84375 -14.078125 16.453125 -12.28125 15.328125 -10.40625 C 13.796875 -7.925781 11.539062 -5.285156 8.5625 -2.484375 C 8.070312 -2.003906 8.070312 -1.765625 8.5625 -1.765625 L 16 -1.765625 C 16.601562 -1.765625 16.90625 -1.46875 16.90625 -0.875 L 16.90625 0.9375 C 16.90625 1.539062 16.613281 1.84375 16.03125 1.84375 L 3.140625 1.84375 C 2.535156 1.84375 2.234375 1.550781 2.234375 0.96875 L 2.234375 -0.53125 C 2.234375 -1.113281 2.523438 -1.679688 3.109375 -2.234375 C 7.710938 -6.328125 10.835938 -9.921875 12.484375 -13.015625 C 12.867188 -14.109375 12.835938 -15.046875 12.390625 -15.828125 C 12.078125 -16.410156 11.539062 -16.800781 10.78125 -17 C 9.726562 -17.1875 8.878906 -17.175781 8.234375 -16.96875 C 7.046875 -16.570312 6.441406 -15.660156 6.421875 -14.234375 C 6.421875 -13.535156 6.125 -13.1875 5.53125 -13.1875 L 3.375 -13.1875 C 2.78125 -13.1875 2.484375 -13.476562 2.484375 -14.0625 C 2.523438 -15.5625 3.046875 -17.023438 4.046875 -18.453125 C 4.648438 -19.203125 5.410156 -19.75 6.328125 -20.09375 Z M 6.328125 -20.09375 "/></g></g><g transform="translate(535.45475, 767.416277)"><g><path d="M 7.109375 -19.984375 C 9.828125 -20.898438 12.359375 -20.800781 14.703125 -19.6875 C 15.710938 -19.039062 16.382812 -18.347656 16.71875 -17.609375 C 17.164062 -16.742188 17.429688 -15.835938 17.515625 -14.890625 C 17.554688 -14.242188 17.300781 -13.921875 16.75 -13.921875 L 14.640625 -13.921875 C 14.054688 -13.921875 13.71875 -14.210938 13.625 -14.796875 C 13.113281 -16.734375 11.785156 -17.484375 9.640625 -17.046875 C 8.835938 -16.929688 8.082031 -16.425781 7.375 -15.53125 C 6.90625 -14.882812 6.515625 -13.925781 6.203125 -12.65625 C 6.109375 -12.144531 6.351562 -12.054688 6.9375 -12.390625 C 8.269531 -13.078125 9.84375 -13.332031 11.65625 -13.15625 C 14.488281 -12.820312 16.421875 -11.203125 17.453125 -8.296875 C 17.921875 -6.867188 17.960938 -5.117188 17.578125 -3.046875 C 17.023438 -1.148438 15.929688 0.3125 14.296875 1.34375 C 12.203125 2.519531 9.691406 2.597656 6.765625 1.578125 C 5.941406 1.234375 5.160156 0.660156 4.421875 -0.140625 C 3.347656 -1.546875 2.632812 -3.109375 2.28125 -4.828125 C 1.8125 -7.941406 1.898438 -10.882812 2.546875 -13.65625 C 3.054688 -16.539062 4.578125 -18.648438 7.109375 -19.984375 Z M 9.890625 -9.734375 C 8.878906 -9.628906 8.019531 -9.175781 7.3125 -8.375 C 6.125 -6.78125 5.882812 -5.179688 6.59375 -3.578125 C 7.644531 -1.679688 9.085938 -0.921875 10.921875 -1.296875 C 12.753906 -1.859375 13.769531 -3.035156 13.96875 -4.828125 C 14.0625 -5.847656 13.894531 -6.816406 13.46875 -7.734375 C 12.632812 -9.296875 11.441406 -9.960938 9.890625 -9.734375 Z M 9.890625 -9.734375 "/></g></g><g transform="translate(554.556311, 767.416277)"><g><path d="M 11.84375 -22.390625 C 12.09375 -23.023438 12.507812 -23.34375 13.09375 -23.34375 L 14.53125 -23.34375 C 15.113281 -23.34375 15.300781 -23.050781 15.09375 -22.46875 L 4.59375 4.1875 C 4.320312 4.832031 3.894531 5.15625 3.3125 5.15625 L 1.875 5.15625 C 1.289062 5.15625 1.113281 4.863281 1.34375 4.28125 Z M 11.84375 -22.390625 "/></g></g><g transform="translate(570.493811, 767.416277)"><g><path d="M 7.140625 -20.046875 C 8.335938 -20.515625 9.570312 -20.695312 10.84375 -20.59375 C 11.738281 -20.5 12.519531 -20.320312 13.1875 -20.0625 C 15.375 -19.070312 16.828125 -17.375 17.546875 -14.96875 C 18.484375 -11.457031 18.597656 -8.007812 17.890625 -4.625 C 17.546875 -2.875 16.84375 -1.351562 15.78125 -0.0625 C 13.769531 1.9375 11.457031 2.691406 8.84375 2.203125 C 7.082031 2.046875 5.5625 1.15625 4.28125 -0.46875 C 3.320312 -1.832031 2.6875 -3.394531 2.375 -5.15625 C 1.6875 -9.0625 1.976562 -12.695312 3.25 -16.0625 C 3.875 -17.738281 5.171875 -19.066406 7.140625 -20.046875 Z M 9.8125 -17.203125 C 8.382812 -17.046875 7.347656 -16.144531 6.703125 -14.5 C 5.847656 -11.789062 5.691406 -8.765625 6.234375 -5.421875 C 7.015625 -1.867188 8.851562 -0.570312 11.75 -1.53125 C 12.757812 -2.113281 13.382812 -2.804688 13.625 -3.609375 C 14.125 -4.796875 14.40625 -6.296875 14.46875 -8.109375 C 14.582031 -10.472656 14.347656 -12.523438 13.765625 -14.265625 C 12.984375 -16.410156 11.664062 -17.390625 9.8125 -17.203125 Z M 9.8125 -17.203125 "/></g></g><g transform="translate(589.595372, 767.416277)"><g><path d="M 8.375 -19.3125 C 8.945312 -19.875 9.503906 -20.15625 10.046875 -20.15625 L 10.84375 -20.15625 C 11.445312 -20.15625 11.75 -19.863281 11.75 -19.28125 L 11.75 0.96875 C 11.75 1.570312 11.457031 1.875 10.875 1.875 L 8.875 1.875 C 8.269531 1.875 7.96875 1.582031 7.96875 1 L 7.96875 -13.796875 C 7.96875 -14.285156 7.664062 -14.328125 7.0625 -13.921875 C 6.5 -13.585938 5.921875 -13.300781 5.328125 -13.0625 C 4.742188 -12.832031 4.453125 -13.007812 4.453125 -13.59375 L 4.453125 -15.875 C 4.453125 -16.46875 4.742188 -16.921875 5.328125 -17.234375 C 6.460938 -17.816406 7.476562 -18.507812 8.375 -19.3125 Z M 8.375 -19.3125 "/></g></g><g transform="translate(608.696934, 767.416277)"><g><path d="M 11.84375 -22.390625 C 12.09375 -23.023438 12.507812 -23.34375 13.09375 -23.34375 L 14.53125 -23.34375 C 15.113281 -23.34375 15.300781 -23.050781 15.09375 -22.46875 L 4.59375 4.1875 C 4.320312 4.832031 3.894531 5.15625 3.3125 5.15625 L 1.875 5.15625 C 1.289062 5.15625 1.113281 4.863281 1.34375 4.28125 Z M 11.84375 -22.390625 "/></g></g><g transform="translate(624.634433, 767.416277)"><g><path d="M 3.90625 -18.84375 C 5.851562 -20.34375 8.125 -20.90625 10.71875 -20.53125 C 15.21875 -19.90625 17.378906 -17.640625 17.203125 -13.734375 C 17.222656 -12.722656 16.65625 -11.59375 15.5 -10.34375 C 14.96875 -9.9375 14.988281 -9.488281 15.5625 -9 C 16.300781 -8.332031 16.804688 -7.628906 17.078125 -6.890625 C 18.210938 -3.941406 17.429688 -1.367188 14.734375 0.828125 C 12.335938 2.265625 9.703125 2.660156 6.828125 2.015625 C 3.628906 1.160156 1.921875 -0.859375 1.703125 -4.046875 C 1.660156 -4.785156 1.929688 -5.15625 2.515625 -5.15625 L 4.65625 -5.15625 C 5.25 -5.15625 5.582031 -4.863281 5.65625 -4.28125 C 6.1875 -1.644531 8.015625 -0.726562 11.140625 -1.53125 C 13.191406 -2.3125 13.960938 -3.71875 13.453125 -5.75 C 13.023438 -6.695312 12.359375 -7.289062 11.453125 -7.53125 C 10.484375 -7.820312 9.476562 -7.921875 8.4375 -7.828125 C 7.832031 -7.742188 7.53125 -7.992188 7.53125 -8.578125 L 7.53125 -10.578125 C 7.53125 -11.160156 7.820312 -11.429688 8.40625 -11.390625 C 9.425781 -11.273438 10.335938 -11.351562 11.140625 -11.625 C 12.078125 -11.863281 12.75 -12.441406 13.15625 -13.359375 C 13.71875 -15.273438 12.890625 -16.488281 10.671875 -17 C 9.578125 -17.164062 8.640625 -17.132812 7.859375 -16.90625 C 6.765625 -16.550781 6.140625 -15.726562 5.984375 -14.4375 C 5.878906 -13.851562 5.535156 -13.5625 4.953125 -13.5625 L 2.90625 -13.5625 C 2.320312 -13.5625 2.03125 -13.851562 2.03125 -14.4375 C 2.101562 -16.101562 2.726562 -17.570312 3.90625 -18.84375 Z M 3.90625 -18.84375 "/></g></g></g><g fill="#000000" fill-opacity="1"><g transform="translate(659.134437, 767.416277)"><g><path d="M 6.328125 -20.09375 C 7.734375 -20.5625 9.21875 -20.707031 10.78125 -20.53125 C 12.5625 -20.363281 14.113281 -19.566406 15.4375 -18.140625 C 16.0625 -17.316406 16.414062 -16.535156 16.5 -15.796875 C 16.84375 -14.078125 16.453125 -12.28125 15.328125 -10.40625 C 13.796875 -7.925781 11.539062 -5.285156 8.5625 -2.484375 C 8.070312 -2.003906 8.070312 -1.765625 8.5625 -1.765625 L 16 -1.765625 C 16.601562 -1.765625 16.90625 -1.46875 16.90625 -0.875 L 16.90625 0.9375 C 16.90625 1.539062 16.613281 1.84375 16.03125 1.84375 L 3.140625 1.84375 C 2.535156 1.84375 2.234375 1.550781 2.234375 0.96875 L 2.234375 -0.53125 C 2.234375 -1.113281 2.523438 -1.679688 3.109375 -2.234375 C 7.710938 -6.328125 10.835938 -9.921875 12.484375 -13.015625 C 12.867188 -14.109375 12.835938 -15.046875 12.390625 -15.828125 C 12.078125 -16.410156 11.539062 -16.800781 10.78125 -17 C 9.726562 -17.1875 8.878906 -17.175781 8.234375 -16.96875 C 7.046875 -16.570312 6.441406 -15.660156 6.421875 -14.234375 C 6.421875 -13.535156 6.125 -13.1875 5.53125 -13.1875 L 3.375 -13.1875 C 2.78125 -13.1875 2.484375 -13.476562 2.484375 -14.0625 C 2.523438 -15.5625 3.046875 -17.023438 4.046875 -18.453125 C 4.648438 -19.203125 5.410156 -19.75 6.328125 -20.09375 Z M 6.328125 -20.09375 "/></g></g><g transform="translate(678.235999, 767.416277)"><g><path d="M 7.109375 -19.984375 C 9.828125 -20.898438 12.359375 -20.800781 14.703125 -19.6875 C 15.710938 -19.039062 16.382812 -18.347656 16.71875 -17.609375 C 17.164062 -16.742188 17.429688 -15.835938 17.515625 -14.890625 C 17.554688 -14.242188 17.300781 -13.921875 16.75 -13.921875 L 14.640625 -13.921875 C 14.054688 -13.921875 13.71875 -14.210938 13.625 -14.796875 C 13.113281 -16.734375 11.785156 -17.484375 9.640625 -17.046875 C 8.835938 -16.929688 8.082031 -16.425781 7.375 -15.53125 C 6.90625 -14.882812 6.515625 -13.925781 6.203125 -12.65625 C 6.109375 -12.144531 6.351562 -12.054688 6.9375 -12.390625 C 8.269531 -13.078125 9.84375 -13.332031 11.65625 -13.15625 C 14.488281 -12.820312 16.421875 -11.203125 17.453125 -8.296875 C 17.921875 -6.867188 17.960938 -5.117188 17.578125 -3.046875 C 17.023438 -1.148438 15.929688 0.3125 14.296875 1.34375 C 12.203125 2.519531 9.691406 2.597656 6.765625 1.578125 C 5.941406 1.234375 5.160156 0.660156 4.421875 -0.140625 C 3.347656 -1.546875 2.632812 -3.109375 2.28125 -4.828125 C 1.8125 -7.941406 1.898438 -10.882812 2.546875 -13.65625 C 3.054688 -16.539062 4.578125 -18.648438 7.109375 -19.984375 Z M 9.890625 -9.734375 C 8.878906 -9.628906 8.019531 -9.175781 7.3125 -8.375 C 6.125 -6.78125 5.882812 -5.179688 6.59375 -3.578125 C 7.644531 -1.679688 9.085938 -0.921875 10.921875 -1.296875 C 12.753906 -1.859375 13.769531 -3.035156 13.96875 -4.828125 C 14.0625 -5.847656 13.894531 -6.816406 13.46875 -7.734375 C 12.632812 -9.296875 11.441406 -9.960938 9.890625 -9.734375 Z M 9.890625 -9.734375 "/></g></g><g transform="translate(697.33756, 767.416277)"><g><path d="M 11.84375 -22.390625 C 12.09375 -23.023438 12.507812 -23.34375 13.09375 -23.34375 L 14.53125 -23.34375 C 15.113281 -23.34375 15.300781 -23.050781 15.09375 -22.46875 L 4.59375 4.1875 C 4.320312 4.832031 3.894531 5.15625 3.3125 5.15625 L 1.875 5.15625 C 1.289062 5.15625 1.113281 4.863281 1.34375 4.28125 Z M 11.84375 -22.390625 "/></g></g><g transform="translate(713.275059, 767.416277)"><g><path d="M 7.140625 -20.046875 C 8.335938 -20.515625 9.570312 -20.695312 10.84375 -20.59375 C 11.738281 -20.5 12.519531 -20.320312 13.1875 -20.0625 C 15.375 -19.070312 16.828125 -17.375 17.546875 -14.96875 C 18.484375 -11.457031 18.597656 -8.007812 17.890625 -4.625 C 17.546875 -2.875 16.84375 -1.351562 15.78125 -0.0625 C 13.769531 1.9375 11.457031 2.691406 8.84375 2.203125 C 7.082031 2.046875 5.5625 1.15625 4.28125 -0.46875 C 3.320312 -1.832031 2.6875 -3.394531 2.375 -5.15625 C 1.6875 -9.0625 1.976562 -12.695312 3.25 -16.0625 C 3.875 -17.738281 5.171875 -19.066406 7.140625 -20.046875 Z M 9.8125 -17.203125 C 8.382812 -17.046875 7.347656 -16.144531 6.703125 -14.5 C 5.847656 -11.789062 5.691406 -8.765625 6.234375 -5.421875 C 7.015625 -1.867188 8.851562 -0.570312 11.75 -1.53125 C 12.757812 -2.113281 13.382812 -2.804688 13.625 -3.609375 C 14.125 -4.796875 14.40625 -6.296875 14.46875 -8.109375 C 14.582031 -10.472656 14.347656 -12.523438 13.765625 -14.265625 C 12.984375 -16.410156 11.664062 -17.390625 9.8125 -17.203125 Z M 9.8125 -17.203125 "/></g></g><g transform="translate(732.376621, 767.416277)"><g><path d="M 6.328125 -20.09375 C 7.734375 -20.5625 9.21875 -20.707031 10.78125 -20.53125 C 12.5625 -20.363281 14.113281 -19.566406 15.4375 -18.140625 C 16.0625 -17.316406 16.414062 -16.535156 16.5 -15.796875 C 16.84375 -14.078125 16.453125 -12.28125 15.328125 -10.40625 C 13.796875 -7.925781 11.539062 -5.285156 8.5625 -2.484375 C 8.070312 -2.003906 8.070312 -1.765625 8.5625 -1.765625 L 16 -1.765625 C 16.601562 -1.765625 16.90625 -1.46875 16.90625 -0.875 L 16.90625 0.9375 C 16.90625 1.539062 16.613281 1.84375 16.03125 1.84375 L 3.140625 1.84375 C 2.535156 1.84375 2.234375 1.550781 2.234375 0.96875 L 2.234375 -0.53125 C 2.234375 -1.113281 2.523438 -1.679688 3.109375 -2.234375 C 7.710938 -6.328125 10.835938 -9.921875 12.484375 -13.015625 C 12.867188 -14.109375 12.835938 -15.046875 12.390625 -15.828125 C 12.078125 -16.410156 11.539062 -16.800781 10.78125 -17 C 9.726562 -17.1875 8.878906 -17.175781 8.234375 -16.96875 C 7.046875 -16.570312 6.441406 -15.660156 6.421875 -14.234375 C 6.421875 -13.535156 6.125 -13.1875 5.53125 -13.1875 L 3.375 -13.1875 C 2.78125 -13.1875 2.484375 -13.476562 2.484375 -14.0625 C 2.523438 -15.5625 3.046875 -17.023438 4.046875 -18.453125 C 4.648438 -19.203125 5.410156 -19.75 6.328125 -20.09375 Z M 6.328125 -20.09375 "/></g></g><g transform="translate(751.478182, 767.416277)"><g><path d="M 11.84375 -22.390625 C 12.09375 -23.023438 12.507812 -23.34375 13.09375 -23.34375 L 14.53125 -23.34375 C 15.113281 -23.34375 15.300781 -23.050781 15.09375 -22.46875 L 4.59375 4.1875 C 4.320312 4.832031 3.894531 5.15625 3.3125 5.15625 L 1.875 5.15625 C 1.289062 5.15625 1.113281 4.863281 1.34375 4.28125 Z M 11.84375 -22.390625 "/></g></g><g transform="translate(767.415682, 767.416277)"><g><path d="M 3.90625 -18.84375 C 5.851562 -20.34375 8.125 -20.90625 10.71875 -20.53125 C 15.21875 -19.90625 17.378906 -17.640625 17.203125 -13.734375 C 17.222656 -12.722656 16.65625 -11.59375 15.5 -10.34375 C 14.96875 -9.9375 14.988281 -9.488281 15.5625 -9 C 16.300781 -8.332031 16.804688 -7.628906 17.078125 -6.890625 C 18.210938 -3.941406 17.429688 -1.367188 14.734375 0.828125 C 12.335938 2.265625 9.703125 2.660156 6.828125 2.015625 C 3.628906 1.160156 1.921875 -0.859375 1.703125 -4.046875 C 1.660156 -4.785156 1.929688 -5.15625 2.515625 -5.15625 L 4.65625 -5.15625 C 5.25 -5.15625 5.582031 -4.863281 5.65625 -4.28125 C 6.1875 -1.644531 8.015625 -0.726562 11.140625 -1.53125 C 13.191406 -2.3125 13.960938 -3.71875 13.453125 -5.75 C 13.023438 -6.695312 12.359375 -7.289062 11.453125 -7.53125 C 10.484375 -7.820312 9.476562 -7.921875 8.4375 -7.828125 C 7.832031 -7.742188 7.53125 -7.992188 7.53125 -8.578125 L 7.53125 -10.578125 C 7.53125 -11.160156 7.820312 -11.429688 8.40625 -11.390625 C 9.425781 -11.273438 10.335938 -11.351562 11.140625 -11.625 C 12.078125 -11.863281 12.75 -12.441406 13.15625 -13.359375 C 13.71875 -15.273438 12.890625 -16.488281 10.671875 -17 C 9.578125 -17.164062 8.640625 -17.132812 7.859375 -16.90625 C 6.765625 -16.550781 6.140625 -15.726562 5.984375 -14.4375 C 5.878906 -13.851562 5.535156 -13.5625 4.953125 -13.5625 L 2.90625 -13.5625 C 2.320312 -13.5625 2.03125 -13.851562 2.03125 -14.4375 C 2.101562 -16.101562 2.726562 -17.570312 3.90625 -18.84375 Z M 3.90625 -18.84375 "/></g></g></g><g fill="#000000" fill-opacity="1"><g transform="translate(801.915662, 767.416277)"><g><path d="M 6.328125 -20.09375 C 7.734375 -20.5625 9.21875 -20.707031 10.78125 -20.53125 C 12.5625 -20.363281 14.113281 -19.566406 15.4375 -18.140625 C 16.0625 -17.316406 16.414062 -16.535156 16.5 -15.796875 C 16.84375 -14.078125 16.453125 -12.28125 15.328125 -10.40625 C 13.796875 -7.925781 11.539062 -5.285156 8.5625 -2.484375 C 8.070312 -2.003906 8.070312 -1.765625 8.5625 -1.765625 L 16 -1.765625 C 16.601562 -1.765625 16.90625 -1.46875 16.90625 -0.875 L 16.90625 0.9375 C 16.90625 1.539062 16.613281 1.84375 16.03125 1.84375 L 3.140625 1.84375 C 2.535156 1.84375 2.234375 1.550781 2.234375 0.96875 L 2.234375 -0.53125 C 2.234375 -1.113281 2.523438 -1.679688 3.109375 -2.234375 C 7.710938 -6.328125 10.835938 -9.921875 12.484375 -13.015625 C 12.867188 -14.109375 12.835938 -15.046875 12.390625 -15.828125 C 12.078125 -16.410156 11.539062 -16.800781 10.78125 -17 C 9.726562 -17.1875 8.878906 -17.175781 8.234375 -16.96875 C 7.046875 -16.570312 6.441406 -15.660156 6.421875 -14.234375 C 6.421875 -13.535156 6.125 -13.1875 5.53125 -13.1875 L 3.375 -13.1875 C 2.78125 -13.1875 2.484375 -13.476562 2.484375 -14.0625 C 2.523438 -15.5625 3.046875 -17.023438 4.046875 -18.453125 C 4.648438 -19.203125 5.410156 -19.75 6.328125 -20.09375 Z M 6.328125 -20.09375 "/></g></g><g transform="translate(821.017223, 767.416277)"><g><path d="M 7.109375 -19.984375 C 9.828125 -20.898438 12.359375 -20.800781 14.703125 -19.6875 C 15.710938 -19.039062 16.382812 -18.347656 16.71875 -17.609375 C 17.164062 -16.742188 17.429688 -15.835938 17.515625 -14.890625 C 17.554688 -14.242188 17.300781 -13.921875 16.75 -13.921875 L 14.640625 -13.921875 C 14.054688 -13.921875 13.71875 -14.210938 13.625 -14.796875 C 13.113281 -16.734375 11.785156 -17.484375 9.640625 -17.046875 C 8.835938 -16.929688 8.082031 -16.425781 7.375 -15.53125 C 6.90625 -14.882812 6.515625 -13.925781 6.203125 -12.65625 C 6.109375 -12.144531 6.351562 -12.054688 6.9375 -12.390625 C 8.269531 -13.078125 9.84375 -13.332031 11.65625 -13.15625 C 14.488281 -12.820312 16.421875 -11.203125 17.453125 -8.296875 C 17.921875 -6.867188 17.960938 -5.117188 17.578125 -3.046875 C 17.023438 -1.148438 15.929688 0.3125 14.296875 1.34375 C 12.203125 2.519531 9.691406 2.597656 6.765625 1.578125 C 5.941406 1.234375 5.160156 0.660156 4.421875 -0.140625 C 3.347656 -1.546875 2.632812 -3.109375 2.28125 -4.828125 C 1.8125 -7.941406 1.898438 -10.882812 2.546875 -13.65625 C 3.054688 -16.539062 4.578125 -18.648438 7.109375 -19.984375 Z M 9.890625 -9.734375 C 8.878906 -9.628906 8.019531 -9.175781 7.3125 -8.375 C 6.125 -6.78125 5.882812 -5.179688 6.59375 -3.578125 C 7.644531 -1.679688 9.085938 -0.921875 10.921875 -1.296875 C 12.753906 -1.859375 13.769531 -3.035156 13.96875 -4.828125 C 14.0625 -5.847656 13.894531 -6.816406 13.46875 -7.734375 C 12.632812 -9.296875 11.441406 -9.960938 9.890625 -9.734375 Z M 9.890625 -9.734375 "/></g></g><g transform="translate(840.118785, 767.416277)"><g><path d="M 11.84375 -22.390625 C 12.09375 -23.023438 12.507812 -23.34375 13.09375 -23.34375 L 14.53125 -23.34375 C 15.113281 -23.34375 15.300781 -23.050781 15.09375 -22.46875 L 4.59375 4.1875 C 4.320312 4.832031 3.894531 5.15625 3.3125 5.15625 L 1.875 5.15625 C 1.289062 5.15625 1.113281 4.863281 1.34375 4.28125 Z M 11.84375 -22.390625 "/></g></g><g transform="translate(856.056284, 767.416277)"><g><path d="M 7.140625 -20.046875 C 8.335938 -20.515625 9.570312 -20.695312 10.84375 -20.59375 C 11.738281 -20.5 12.519531 -20.320312 13.1875 -20.0625 C 15.375 -19.070312 16.828125 -17.375 17.546875 -14.96875 C 18.484375 -11.457031 18.597656 -8.007812 17.890625 -4.625 C 17.546875 -2.875 16.84375 -1.351562 15.78125 -0.0625 C 13.769531 1.9375 11.457031 2.691406 8.84375 2.203125 C 7.082031 2.046875 5.5625 1.15625 4.28125 -0.46875 C 3.320312 -1.832031 2.6875 -3.394531 2.375 -5.15625 C 1.6875 -9.0625 1.976562 -12.695312 3.25 -16.0625 C 3.875 -17.738281 5.171875 -19.066406 7.140625 -20.046875 Z M 9.8125 -17.203125 C 8.382812 -17.046875 7.347656 -16.144531 6.703125 -14.5 C 5.847656 -11.789062 5.691406 -8.765625 6.234375 -5.421875 C 7.015625 -1.867188 8.851562 -0.570312 11.75 -1.53125 C 12.757812 -2.113281 13.382812 -2.804688 13.625 -3.609375 C 14.125 -4.796875 14.40625 -6.296875 14.46875 -8.109375 C 14.582031 -10.472656 14.347656 -12.523438 13.765625 -14.265625 C 12.984375 -16.410156 11.664062 -17.390625 9.8125 -17.203125 Z M 9.8125 -17.203125 "/></g></g><g transform="translate(875.157846, 767.416277)"><g><path d="M 3.90625 -18.84375 C 5.851562 -20.34375 8.125 -20.90625 10.71875 -20.53125 C 15.21875 -19.90625 17.378906 -17.640625 17.203125 -13.734375 C 17.222656 -12.722656 16.65625 -11.59375 15.5 -10.34375 C 14.96875 -9.9375 14.988281 -9.488281 15.5625 -9 C 16.300781 -8.332031 16.804688 -7.628906 17.078125 -6.890625 C 18.210938 -3.941406 17.429688 -1.367188 14.734375 0.828125 C 12.335938 2.265625 9.703125 2.660156 6.828125 2.015625 C 3.628906 1.160156 1.921875 -0.859375 1.703125 -4.046875 C 1.660156 -4.785156 1.929688 -5.15625 2.515625 -5.15625 L 4.65625 -5.15625 C 5.25 -5.15625 5.582031 -4.863281 5.65625 -4.28125 C 6.1875 -1.644531 8.015625 -0.726562 11.140625 -1.53125 C 13.191406 -2.3125 13.960938 -3.71875 13.453125 -5.75 C 13.023438 -6.695312 12.359375 -7.289062 11.453125 -7.53125 C 10.484375 -7.820312 9.476562 -7.921875 8.4375 -7.828125 C 7.832031 -7.742188 7.53125 -7.992188 7.53125 -8.578125 L 7.53125 -10.578125 C 7.53125 -11.160156 7.820312 -11.429688 8.40625 -11.390625 C 9.425781 -11.273438 10.335938 -11.351562 11.140625 -11.625 C 12.078125 -11.863281 12.75 -12.441406 13.15625 -13.359375 C 13.71875 -15.273438 12.890625 -16.488281 10.671875 -17 C 9.578125 -17.164062 8.640625 -17.132812 7.859375 -16.90625 C 6.765625 -16.550781 6.140625 -15.726562 5.984375 -14.4375 C 5.878906 -13.851562 5.535156 -13.5625 4.953125 -13.5625 L 2.90625 -13.5625 C 2.320312 -13.5625 2.03125 -13.851562 2.03125 -14.4375 C 2.101562 -16.101562 2.726562 -17.570312 3.90625 -18.84375 Z M 3.90625 -18.84375 "/></g></g><g transform="translate(894.259407, 767.416277)"><g><path d="M 11.84375 -22.390625 C 12.09375 -23.023438 12.507812 -23.34375 13.09375 -23.34375 L 14.53125 -23.34375 C 15.113281 -23.34375 15.300781 -23.050781 15.09375 -22.46875 L 4.59375 4.1875 C 4.320312 4.832031 3.894531 5.15625 3.3125 5.15625 L 1.875 5.15625 C 1.289062 5.15625 1.113281 4.863281 1.34375 4.28125 Z M 11.84375 -22.390625 "/></g></g><g transform="translate(910.196906, 767.416277)"><g><path d="M 3.90625 -18.84375 C 5.851562 -20.34375 8.125 -20.90625 10.71875 -20.53125 C 15.21875 -19.90625 17.378906 -17.640625 17.203125 -13.734375 C 17.222656 -12.722656 16.65625 -11.59375 15.5 -10.34375 C 14.96875 -9.9375 14.988281 -9.488281 15.5625 -9 C 16.300781 -8.332031 16.804688 -7.628906 17.078125 -6.890625 C 18.210938 -3.941406 17.429688 -1.367188 14.734375 0.828125 C 12.335938 2.265625 9.703125 2.660156 6.828125 2.015625 C 3.628906 1.160156 1.921875 -0.859375 1.703125 -4.046875 C 1.660156 -4.785156 1.929688 -5.15625 2.515625 -5.15625 L 4.65625 -5.15625 C 5.25 -5.15625 5.582031 -4.863281 5.65625 -4.28125 C 6.1875 -1.644531 8.015625 -0.726562 11.140625 -1.53125 C 13.191406 -2.3125 13.960938 -3.71875 13.453125 -5.75 C 13.023438 -6.695312 12.359375 -7.289062 11.453125 -7.53125 C 10.484375 -7.820312 9.476562 -7.921875 8.4375 -7.828125 C 7.832031 -7.742188 7.53125 -7.992188 7.53125 -8.578125 L 7.53125 -10.578125 C 7.53125 -11.160156 7.820312 -11.429688 8.40625 -11.390625 C 9.425781 -11.273438 10.335938 -11.351562 11.140625 -11.625 C 12.078125 -11.863281 12.75 -12.441406 13.15625 -13.359375 C 13.71875 -15.273438 12.890625 -16.488281 10.671875 -17 C 9.578125 -17.164062 8.640625 -17.132812 7.859375 -16.90625 C 6.765625 -16.550781 6.140625 -15.726562 5.984375 -14.4375 C 5.878906 -13.851562 5.535156 -13.5625 4.953125 -13.5625 L 2.90625 -13.5625 C 2.320312 -13.5625 2.03125 -13.851562 2.03125 -14.4375 C 2.101562 -16.101562 2.726562 -17.570312 3.90625 -18.84375 Z M 3.90625 -18.84375 "/></g></g></g><g fill="#000000" fill-opacity="1"><g transform="translate(944.696911, 767.416277)"><g><path d="M 6.328125 -20.09375 C 7.734375 -20.5625 9.21875 -20.707031 10.78125 -20.53125 C 12.5625 -20.363281 14.113281 -19.566406 15.4375 -18.140625 C 16.0625 -17.316406 16.414062 -16.535156 16.5 -15.796875 C 16.84375 -14.078125 16.453125 -12.28125 15.328125 -10.40625 C 13.796875 -7.925781 11.539062 -5.285156 8.5625 -2.484375 C 8.070312 -2.003906 8.070312 -1.765625 8.5625 -1.765625 L 16 -1.765625 C 16.601562 -1.765625 16.90625 -1.46875 16.90625 -0.875 L 16.90625 0.9375 C 16.90625 1.539062 16.613281 1.84375 16.03125 1.84375 L 3.140625 1.84375 C 2.535156 1.84375 2.234375 1.550781 2.234375 0.96875 L 2.234375 -0.53125 C 2.234375 -1.113281 2.523438 -1.679688 3.109375 -2.234375 C 7.710938 -6.328125 10.835938 -9.921875 12.484375 -13.015625 C 12.867188 -14.109375 12.835938 -15.046875 12.390625 -15.828125 C 12.078125 -16.410156 11.539062 -16.800781 10.78125 -17 C 9.726562 -17.1875 8.878906 -17.175781 8.234375 -16.96875 C 7.046875 -16.570312 6.441406 -15.660156 6.421875 -14.234375 C 6.421875 -13.535156 6.125 -13.1875 5.53125 -13.1875 L 3.375 -13.1875 C 2.78125 -13.1875 2.484375 -13.476562 2.484375 -14.0625 C 2.523438 -15.5625 3.046875 -17.023438 4.046875 -18.453125 C 4.648438 -19.203125 5.410156 -19.75 6.328125 -20.09375 Z M 6.328125 -20.09375 "/></g></g><g transform="translate(963.798472, 767.416277)"><g><path d="M 7.109375 -19.984375 C 9.828125 -20.898438 12.359375 -20.800781 14.703125 -19.6875 C 15.710938 -19.039062 16.382812 -18.347656 16.71875 -17.609375 C 17.164062 -16.742188 17.429688 -15.835938 17.515625 -14.890625 C 17.554688 -14.242188 17.300781 -13.921875 16.75 -13.921875 L 14.640625 -13.921875 C 14.054688 -13.921875 13.71875 -14.210938 13.625 -14.796875 C 13.113281 -16.734375 11.785156 -17.484375 9.640625 -17.046875 C 8.835938 -16.929688 8.082031 -16.425781 7.375 -15.53125 C 6.90625 -14.882812 6.515625 -13.925781 6.203125 -12.65625 C 6.109375 -12.144531 6.351562 -12.054688 6.9375 -12.390625 C 8.269531 -13.078125 9.84375 -13.332031 11.65625 -13.15625 C 14.488281 -12.820312 16.421875 -11.203125 17.453125 -8.296875 C 17.921875 -6.867188 17.960938 -5.117188 17.578125 -3.046875 C 17.023438 -1.148438 15.929688 0.3125 14.296875 1.34375 C 12.203125 2.519531 9.691406 2.597656 6.765625 1.578125 C 5.941406 1.234375 5.160156 0.660156 4.421875 -0.140625 C 3.347656 -1.546875 2.632812 -3.109375 2.28125 -4.828125 C 1.8125 -7.941406 1.898438 -10.882812 2.546875 -13.65625 C 3.054688 -16.539062 4.578125 -18.648438 7.109375 -19.984375 Z M 9.890625 -9.734375 C 8.878906 -9.628906 8.019531 -9.175781 7.3125 -8.375 C 6.125 -6.78125 5.882812 -5.179688 6.59375 -3.578125 C 7.644531 -1.679688 9.085938 -0.921875 10.921875 -1.296875 C 12.753906 -1.859375 13.769531 -3.035156 13.96875 -4.828125 C 14.0625 -5.847656 13.894531 -6.816406 13.46875 -7.734375 C 12.632812 -9.296875 11.441406 -9.960938 9.890625 -9.734375 Z M 9.890625 -9.734375 "/></g></g><g transform="translate(982.900034, 767.416277)"><g><path d="M 11.84375 -22.390625 C 12.09375 -23.023438 12.507812 -23.34375 13.09375 -23.34375 L 14.53125 -23.34375 C 15.113281 -23.34375 15.300781 -23.050781 15.09375 -22.46875 L 4.59375 4.1875 C 4.320312 4.832031 3.894531 5.15625 3.3125 5.15625 L 1.875 5.15625 C 1.289062 5.15625 1.113281 4.863281 1.34375 4.28125 Z M 11.84375 -22.390625 "/></g></g><g transform="translate(998.837533, 767.416277)"><g><path d="M 7.140625 -20.046875 C 8.335938 -20.515625 9.570312 -20.695312 10.84375 -20.59375 C 11.738281 -20.5 12.519531 -20.320312 13.1875 -20.0625 C 15.375 -19.070312 16.828125 -17.375 17.546875 -14.96875 C 18.484375 -11.457031 18.597656 -8.007812 17.890625 -4.625 C 17.546875 -2.875 16.84375 -1.351562 15.78125 -0.0625 C 13.769531 1.9375 11.457031 2.691406 8.84375 2.203125 C 7.082031 2.046875 5.5625 1.15625 4.28125 -0.46875 C 3.320312 -1.832031 2.6875 -3.394531 2.375 -5.15625 C 1.6875 -9.0625 1.976562 -12.695312 3.25 -16.0625 C 3.875 -17.738281 5.171875 -19.066406 7.140625 -20.046875 Z M 9.8125 -17.203125 C 8.382812 -17.046875 7.347656 -16.144531 6.703125 -14.5 C 5.847656 -11.789062 5.691406 -8.765625 6.234375 -5.421875 C 7.015625 -1.867188 8.851562 -0.570312 11.75 -1.53125 C 12.757812 -2.113281 13.382812 -2.804688 13.625 -3.609375 C 14.125 -4.796875 14.40625 -6.296875 14.46875 -8.109375 C 14.582031 -10.472656 14.347656 -12.523438 13.765625 -14.265625 C 12.984375 -16.410156 11.664062 -17.390625 9.8125 -17.203125 Z M 9.8125 -17.203125 "/></g></g><g transform="translate(1017.939095, 767.416277)"><g><path d="M 10.515625 -19.15625 C 10.984375 -19.820312 11.460938 -20.15625 11.953125 -20.15625 L 13.625 -20.15625 C 14.226562 -20.15625 14.53125 -19.863281 14.53125 -19.28125 L 14.53125 -6.890625 C 14.53125 -6.398438 14.765625 -6.15625 15.234375 -6.15625 L 16.96875 -6.15625 C 17.570312 -6.15625 17.875 -5.863281 17.875 -5.28125 L 17.875 -3.6875 C 17.875 -3.082031 17.582031 -2.78125 17 -2.78125 L 15.265625 -2.78125 C 14.773438 -2.78125 14.53125 -2.546875 14.53125 -2.078125 L 14.53125 0.96875 C 14.53125 1.570312 14.238281 1.875 13.65625 1.875 L 11.71875 1.875 C 11.113281 1.875 10.8125 1.582031 10.8125 1 L 10.8125 -2.046875 C 10.8125 -2.535156 10.578125 -2.78125 10.109375 -2.78125 L 2.109375 -2.78125 C 1.503906 -2.78125 1.203125 -3.070312 1.203125 -3.65625 L 1.203125 -4.484375 C 1.203125 -5.066406 1.335938 -5.554688 1.609375 -5.953125 C 4.535156 -10.347656 7.503906 -14.75 10.515625 -19.15625 Z M 10.8125 -12.421875 C 10.8125 -12.953125 10.632812 -12.953125 10.28125 -12.421875 L 6.5 -6.890625 C 6.15625 -6.398438 6.222656 -6.15625 6.703125 -6.15625 L 10.078125 -6.15625 C 10.566406 -6.15625 10.8125 -6.390625 10.8125 -6.859375 Z M 10.8125 -12.421875 "/></g></g><g transform="translate(1037.040656, 767.416277)"><g><path d="M 11.84375 -22.390625 C 12.09375 -23.023438 12.507812 -23.34375 13.09375 -23.34375 L 14.53125 -23.34375 C 15.113281 -23.34375 15.300781 -23.050781 15.09375 -22.46875 L 4.59375 4.1875 C 4.320312 4.832031 3.894531 5.15625 3.3125 5.15625 L 1.875 5.15625 C 1.289062 5.15625 1.113281 4.863281 1.34375 4.28125 Z M 11.84375 -22.390625 "/></g></g><g transform="translate(1052.978155, 767.416277)"><g><path d="M 3.90625 -18.84375 C 5.851562 -20.34375 8.125 -20.90625 10.71875 -20.53125 C 15.21875 -19.90625 17.378906 -17.640625 17.203125 -13.734375 C 17.222656 -12.722656 16.65625 -11.59375 15.5 -10.34375 C 14.96875 -9.9375 14.988281 -9.488281 15.5625 -9 C 16.300781 -8.332031 16.804688 -7.628906 17.078125 -6.890625 C 18.210938 -3.941406 17.429688 -1.367188 14.734375 0.828125 C 12.335938 2.265625 9.703125 2.660156 6.828125 2.015625 C 3.628906 1.160156 1.921875 -0.859375 1.703125 -4.046875 C 1.660156 -4.785156 1.929688 -5.15625 2.515625 -5.15625 L 4.65625 -5.15625 C 5.25 -5.15625 5.582031 -4.863281 5.65625 -4.28125 C 6.1875 -1.644531 8.015625 -0.726562 11.140625 -1.53125 C 13.191406 -2.3125 13.960938 -3.71875 13.453125 -5.75 C 13.023438 -6.695312 12.359375 -7.289062 11.453125 -7.53125 C 10.484375 -7.820312 9.476562 -7.921875 8.4375 -7.828125 C 7.832031 -7.742188 7.53125 -7.992188 7.53125 -8.578125 L 7.53125 -10.578125 C 7.53125 -11.160156 7.820312 -11.429688 8.40625 -11.390625 C 9.425781 -11.273438 10.335938 -11.351562 11.140625 -11.625 C 12.078125 -11.863281 12.75 -12.441406 13.15625 -13.359375 C 13.71875 -15.273438 12.890625 -16.488281 10.671875 -17 C 9.578125 -17.164062 8.640625 -17.132812 7.859375 -16.90625 C 6.765625 -16.550781 6.140625 -15.726562 5.984375 -14.4375 C 5.878906 -13.851562 5.535156 -13.5625 4.953125 -13.5625 L 2.90625 -13.5625 C 2.320312 -13.5625 2.03125 -13.851562 2.03125 -14.4375 C 2.101562 -16.101562 2.726562 -17.570312 3.90625 -18.84375 Z M 3.90625 -18.84375 "/></g></g></g><g fill="#000000" fill-opacity="1"><g transform="translate(411.06476, 124.816567)"><g><path d="M 4.65625 -16.265625 C 6.757812 -17.335938 9.019531 -17.46875 11.4375 -16.65625 C 13.039062 -16.03125 14.117188 -14.988281 14.671875 -13.53125 C 15.335938 -11.6875 14.960938 -10 13.546875 -8.46875 C 13.148438 -8.113281 13.207031 -7.734375 13.71875 -7.328125 C 15.34375 -5.660156 15.707031 -3.726562 14.8125 -1.53125 C 14.125 -0.0507812 12.992188 0.945312 11.421875 1.46875 C 10.023438 1.957031 8.46875 2.0625 6.75 1.78125 C 3.039062 0.882812 1.390625 -1.3125 1.796875 -4.8125 C 1.992188 -5.820312 2.554688 -6.722656 3.484375 -7.515625 C 3.835938 -7.796875 3.804688 -8.109375 3.390625 -8.453125 C 2.234375 -9.640625 1.789062 -11.046875 2.0625 -12.671875 C 2.25 -14.140625 3.113281 -15.335938 4.65625 -16.265625 Z M 9.046875 -14.203125 C 8.316406 -14.253906 7.550781 -14.164062 6.75 -13.9375 C 5.488281 -13.320312 5.046875 -12.304688 5.421875 -10.890625 C 5.546875 -10.398438 5.941406 -10 6.609375 -9.6875 C 7.453125 -9.3125 8.566406 -9.265625 9.953125 -9.546875 C 11.046875 -9.859375 11.625 -10.484375 11.6875 -11.421875 C 11.75 -13.066406 10.867188 -13.992188 9.046875 -14.203125 Z M 7.984375 -6.5 C 7.210938 -6.445312 6.550781 -6.257812 6 -5.9375 C 5.332031 -5.425781 5 -4.789062 5 -4.03125 C 4.9375 -2.582031 5.617188 -1.644531 7.046875 -1.21875 C 7.648438 -0.988281 8.457031 -0.945312 9.46875 -1.09375 C 11.207031 -1.457031 12.035156 -2.492188 11.953125 -4.203125 C 11.890625 -4.753906 11.664062 -5.242188 11.28125 -5.671875 C 10.59375 -6.265625 9.492188 -6.539062 7.984375 -6.5 Z M 7.984375 -6.5 "/></g></g></g><g fill="#000000" fill-opacity="1"><g transform="translate(426.980241, 124.816567)"><g><path d="M 5.953125 -16.703125 C 6.941406 -17.085938 7.96875 -17.238281 9.03125 -17.15625 C 9.78125 -17.082031 10.429688 -16.9375 10.984375 -16.71875 C 12.804688 -15.894531 14.019531 -14.476562 14.625 -12.46875 C 15.40625 -9.539062 15.5 -6.671875 14.90625 -3.859375 C 14.613281 -2.390625 14.03125 -1.117188 13.15625 -0.046875 C 11.476562 1.609375 9.550781 2.234375 7.375 1.828125 C 5.90625 1.703125 4.632812 0.960938 3.5625 -0.390625 C 2.757812 -1.523438 2.226562 -2.828125 1.96875 -4.296875 C 1.40625 -7.554688 1.648438 -10.582031 2.703125 -13.375 C 3.222656 -14.78125 4.304688 -15.890625 5.953125 -16.703125 Z M 8.171875 -14.328125 C 6.984375 -14.203125 6.117188 -13.453125 5.578125 -12.078125 C 4.867188 -9.816406 4.738281 -7.296875 5.1875 -4.515625 C 5.84375 -1.554688 7.375 -0.472656 9.78125 -1.265625 C 10.625 -1.753906 11.144531 -2.332031 11.34375 -3 C 11.769531 -4 12.007812 -5.253906 12.0625 -6.765625 C 12.15625 -8.734375 11.957031 -10.441406 11.46875 -11.890625 C 10.820312 -13.679688 9.722656 -14.492188 8.171875 -14.328125 Z M 8.171875 -14.328125 "/></g></g></g><g fill="#000000" fill-opacity="1"><g transform="translate(442.895722, 124.816567)"><g><path d="M 0.75 -1.609375 C 0.75 -2.117188 0.992188 -2.375 1.484375 -2.375 L 3.78125 -2.375 C 4.289062 -2.375 4.546875 -2.128906 4.546875 -1.640625 L 4.546875 0.6875 C 4.546875 1.1875 4.300781 1.4375 3.8125 1.4375 L 1.484375 1.4375 C 0.992188 1.4375 0.75 1.191406 0.75 0.703125 Z M 0.75 -1.609375 "/></g></g></g><g fill="#000000" fill-opacity="1"><g transform="translate(448.217156, 124.816567)"><g><path d="M 6.984375 -16.09375 C 7.453125 -16.5625 7.914062 -16.796875 8.375 -16.796875 L 9.03125 -16.796875 C 9.539062 -16.796875 9.796875 -16.550781 9.796875 -16.0625 L 9.796875 0.8125 C 9.796875 1.3125 9.550781 1.5625 9.0625 1.5625 L 7.390625 1.5625 C 6.890625 1.5625 6.640625 1.316406 6.640625 0.828125 L 6.640625 -11.5 C 6.640625 -11.90625 6.390625 -11.9375 5.890625 -11.59375 C 5.410156 -11.320312 4.925781 -11.085938 4.4375 -10.890625 C 3.957031 -10.691406 3.71875 -10.835938 3.71875 -11.328125 L 3.71875 -13.234375 C 3.71875 -13.722656 3.957031 -14.097656 4.4375 -14.359375 C 5.382812 -14.847656 6.234375 -15.425781 6.984375 -16.09375 Z M 6.984375 -16.09375 "/></g></g></g><g fill="#000000" fill-opacity="1"><g transform="translate(553.497162, 154.316571)"><g><path d="M 1.765625 -16.015625 C 1.765625 -16.535156 1.988281 -16.796875 2.4375 -16.796875 L 13.421875 -16.796875 C 13.929688 -16.796875 14.1875 -16.550781 14.1875 -16.0625 C 14.269531 -15.101562 14.195312 -14.460938 13.96875 -14.140625 L 7.515625 0.78125 C 7.285156 1.300781 6.9375 1.5625 6.46875 1.5625 L 4.421875 1.5625 C 3.929688 1.5625 3.785156 1.316406 3.984375 0.828125 C 6.046875 -3.867188 8.132812 -8.582031 10.25 -13.3125 C 10.394531 -13.695312 10.273438 -13.890625 9.890625 -13.890625 L 2.515625 -13.890625 C 2.015625 -13.890625 1.765625 -14.132812 1.765625 -14.625 Z M 1.765625 -16.015625 "/></g></g></g><g fill="#000000" fill-opacity="1"><g transform="translate(569.412643, 154.316571)"><g><path d="M 1.765625 -16.015625 C 1.765625 -16.535156 1.988281 -16.796875 2.4375 -16.796875 L 13.421875 -16.796875 C 13.929688 -16.796875 14.1875 -16.550781 14.1875 -16.0625 C 14.269531 -15.101562 14.195312 -14.460938 13.96875 -14.140625 L 7.515625 0.78125 C 7.285156 1.300781 6.9375 1.5625 6.46875 1.5625 L 4.421875 1.5625 C 3.929688 1.5625 3.785156 1.316406 3.984375 0.828125 C 6.046875 -3.867188 8.132812 -8.582031 10.25 -13.3125 C 10.394531 -13.695312 10.273438 -13.890625 9.890625 -13.890625 L 2.515625 -13.890625 C 2.015625 -13.890625 1.765625 -14.132812 1.765625 -14.625 Z M 1.765625 -16.015625 "/></g></g></g><g fill="#000000" fill-opacity="1"><g transform="translate(585.328124, 154.316571)"><g><path d="M 0.75 -1.609375 C 0.75 -2.117188 0.992188 -2.375 1.484375 -2.375 L 3.78125 -2.375 C 4.289062 -2.375 4.546875 -2.128906 4.546875 -1.640625 L 4.546875 0.6875 C 4.546875 1.1875 4.300781 1.4375 3.8125 1.4375 L 1.484375 1.4375 C 0.992188 1.4375 0.75 1.191406 0.75 0.703125 Z M 0.75 -1.609375 "/></g></g></g><g fill="#000000" fill-opacity="1"><g transform="translate(590.649557, 154.316571)"><g><path d="M 5.953125 -16.703125 C 6.941406 -17.085938 7.96875 -17.238281 9.03125 -17.15625 C 9.78125 -17.082031 10.429688 -16.9375 10.984375 -16.71875 C 12.804688 -15.894531 14.019531 -14.476562 14.625 -12.46875 C 15.40625 -9.539062 15.5 -6.671875 14.90625 -3.859375 C 14.613281 -2.390625 14.03125 -1.117188 13.15625 -0.046875 C 11.476562 1.609375 9.550781 2.234375 7.375 1.828125 C 5.90625 1.703125 4.632812 0.960938 3.5625 -0.390625 C 2.757812 -1.523438 2.226562 -2.828125 1.96875 -4.296875 C 1.40625 -7.554688 1.648438 -10.582031 2.703125 -13.375 C 3.222656 -14.78125 4.304688 -15.890625 5.953125 -16.703125 Z M 8.171875 -14.328125 C 6.984375 -14.203125 6.117188 -13.453125 5.578125 -12.078125 C 4.867188 -9.816406 4.738281 -7.296875 5.1875 -4.515625 C 5.84375 -1.554688 7.375 -0.472656 9.78125 -1.265625 C 10.625 -1.753906 11.144531 -2.332031 11.34375 -3 C 11.769531 -4 12.007812 -5.253906 12.0625 -6.765625 C 12.15625 -8.734375 11.957031 -10.441406 11.46875 -11.890625 C 10.820312 -13.679688 9.722656 -14.492188 8.171875 -14.328125 Z M 8.171875 -14.328125 "/></g></g></g><g fill="#000000" fill-opacity="1"><g transform="translate(693.452555, 183.816587)"><g><path d="M 1.765625 -16.015625 C 1.765625 -16.535156 1.988281 -16.796875 2.4375 -16.796875 L 13.421875 -16.796875 C 13.929688 -16.796875 14.1875 -16.550781 14.1875 -16.0625 C 14.269531 -15.101562 14.195312 -14.460938 13.96875 -14.140625 L 7.515625 0.78125 C 7.285156 1.300781 6.9375 1.5625 6.46875 1.5625 L 4.421875 1.5625 C 3.929688 1.5625 3.785156 1.316406 3.984375 0.828125 C 6.046875 -3.867188 8.132812 -8.582031 10.25 -13.3125 C 10.394531 -13.695312 10.273438 -13.890625 9.890625 -13.890625 L 2.515625 -13.890625 C 2.015625 -13.890625 1.765625 -14.132812 1.765625 -14.625 Z M 1.765625 -16.015625 "/></g></g></g><g fill="#000000" fill-opacity="1"><g transform="translate(709.368036, 183.816587)"><g><path d="M 8.765625 -15.96875 C 9.148438 -16.519531 9.550781 -16.796875 9.96875 -16.796875 L 11.359375 -16.796875 C 11.859375 -16.796875 12.109375 -16.550781 12.109375 -16.0625 L 12.109375 -5.734375 C 12.109375 -5.328125 12.304688 -5.125 12.703125 -5.125 L 14.140625 -5.125 C 14.640625 -5.125 14.890625 -4.878906 14.890625 -4.390625 L 14.890625 -3.078125 C 14.890625 -2.566406 14.644531 -2.3125 14.15625 -2.3125 L 12.71875 -2.3125 C 12.3125 -2.3125 12.109375 -2.117188 12.109375 -1.734375 L 12.109375 0.8125 C 12.109375 1.3125 11.863281 1.5625 11.375 1.5625 L 9.765625 1.5625 C 9.265625 1.5625 9.015625 1.316406 9.015625 0.828125 L 9.015625 -1.703125 C 9.015625 -2.109375 8.816406 -2.3125 8.421875 -2.3125 L 1.765625 -2.3125 C 1.253906 -2.3125 1 -2.554688 1 -3.046875 L 1 -3.734375 C 1 -4.222656 1.113281 -4.628906 1.34375 -4.953125 C 3.78125 -8.617188 6.253906 -12.289062 8.765625 -15.96875 Z M 9.015625 -10.359375 C 9.015625 -10.796875 8.863281 -10.796875 8.5625 -10.359375 L 5.421875 -5.734375 C 5.128906 -5.328125 5.1875 -5.125 5.59375 -5.125 L 8.40625 -5.125 C 8.8125 -5.125 9.015625 -5.320312 9.015625 -5.71875 Z M 9.015625 -10.359375 "/></g></g></g><g fill="#000000" fill-opacity="1"><g transform="translate(725.283516, 183.816587)"><g><path d="M 0.75 -1.609375 C 0.75 -2.117188 0.992188 -2.375 1.484375 -2.375 L 3.78125 -2.375 C 4.289062 -2.375 4.546875 -2.128906 4.546875 -1.640625 L 4.546875 0.6875 C 4.546875 1.1875 4.300781 1.4375 3.8125 1.4375 L 1.484375 1.4375 C 0.992188 1.4375 0.75 1.191406 0.75 0.703125 Z M 0.75 -1.609375 "/></g></g></g><g fill="#000000" fill-opacity="1"><g transform="translate(730.60495, 183.816587)"><g><path d="M 5.28125 -16.75 C 6.445312 -17.132812 7.679688 -17.253906 8.984375 -17.109375 C 10.460938 -16.960938 11.753906 -16.296875 12.859375 -15.109375 C 13.378906 -14.429688 13.675781 -13.78125 13.75 -13.15625 C 14.039062 -11.726562 13.710938 -10.234375 12.765625 -8.671875 C 11.492188 -6.597656 9.613281 -4.398438 7.125 -2.078125 C 6.71875 -1.671875 6.71875 -1.46875 7.125 -1.46875 L 13.328125 -1.46875 C 13.835938 -1.46875 14.09375 -1.222656 14.09375 -0.734375 L 14.09375 0.78125 C 14.09375 1.28125 13.847656 1.53125 13.359375 1.53125 L 2.609375 1.53125 C 2.109375 1.53125 1.859375 1.289062 1.859375 0.8125 L 1.859375 -0.4375 C 1.859375 -0.925781 2.101562 -1.398438 2.59375 -1.859375 C 6.425781 -5.273438 9.03125 -8.269531 10.40625 -10.84375 C 10.726562 -11.75 10.703125 -12.53125 10.328125 -13.1875 C 10.066406 -13.675781 9.617188 -14 8.984375 -14.15625 C 8.109375 -14.320312 7.398438 -14.316406 6.859375 -14.140625 C 5.867188 -13.804688 5.363281 -13.046875 5.34375 -11.859375 C 5.34375 -11.273438 5.097656 -10.984375 4.609375 -10.984375 L 2.8125 -10.984375 C 2.320312 -10.984375 2.078125 -11.226562 2.078125 -11.71875 C 2.109375 -12.96875 2.539062 -14.1875 3.375 -15.375 C 3.875 -16 4.507812 -16.457031 5.28125 -16.75 Z M 5.28125 -16.75 "/></g></g></g><g fill="#000000" fill-opacity="1"><g transform="translate(830.743804, 198.566583)"><g><path d="M 1.765625 -16.015625 C 1.765625 -16.535156 1.988281 -16.796875 2.4375 -16.796875 L 13.421875 -16.796875 C 13.929688 -16.796875 14.1875 -16.550781 14.1875 -16.0625 C 14.269531 -15.101562 14.195312 -14.460938 13.96875 -14.140625 L 7.515625 0.78125 C 7.285156 1.300781 6.9375 1.5625 6.46875 1.5625 L 4.421875 1.5625 C 3.929688 1.5625 3.785156 1.316406 3.984375 0.828125 C 6.046875 -3.867188 8.132812 -8.582031 10.25 -13.3125 C 10.394531 -13.695312 10.273438 -13.890625 9.890625 -13.890625 L 2.515625 -13.890625 C 2.015625 -13.890625 1.765625 -14.132812 1.765625 -14.625 Z M 1.765625 -16.015625 "/></g></g></g><g fill="#000000" fill-opacity="1"><g transform="translate(846.659285, 198.566583)"><g><path d="M 6.984375 -16.09375 C 7.453125 -16.5625 7.914062 -16.796875 8.375 -16.796875 L 9.03125 -16.796875 C 9.539062 -16.796875 9.796875 -16.550781 9.796875 -16.0625 L 9.796875 0.8125 C 9.796875 1.3125 9.550781 1.5625 9.0625 1.5625 L 7.390625 1.5625 C 6.890625 1.5625 6.640625 1.316406 6.640625 0.828125 L 6.640625 -11.5 C 6.640625 -11.90625 6.390625 -11.9375 5.890625 -11.59375 C 5.410156 -11.320312 4.925781 -11.085938 4.4375 -10.890625 C 3.957031 -10.691406 3.71875 -10.835938 3.71875 -11.328125 L 3.71875 -13.234375 C 3.71875 -13.722656 3.957031 -14.097656 4.4375 -14.359375 C 5.382812 -14.847656 6.234375 -15.425781 6.984375 -16.09375 Z M 6.984375 -16.09375 "/></g></g></g><g fill="#000000" fill-opacity="1"><g transform="translate(862.574766, 198.566583)"><g><path d="M 0.75 -1.609375 C 0.75 -2.117188 0.992188 -2.375 1.484375 -2.375 L 3.78125 -2.375 C 4.289062 -2.375 4.546875 -2.128906 4.546875 -1.640625 L 4.546875 0.6875 C 4.546875 1.1875 4.300781 1.4375 3.8125 1.4375 L 1.484375 1.4375 C 0.992188 1.4375 0.75 1.191406 0.75 0.703125 Z M 0.75 -1.609375 "/></g></g></g><g fill="#000000" fill-opacity="1"><g transform="translate(867.896199, 198.566583)"><g><path d="M 2.453125 -15.9375 C 2.484375 -16.507812 2.726562 -16.796875 3.1875 -16.796875 L 12.734375 -16.796875 C 13.234375 -16.796875 13.484375 -16.550781 13.484375 -16.0625 L 13.484375 -14.671875 C 13.484375 -14.171875 13.238281 -13.921875 12.75 -13.921875 L 6.0625 -13.921875 C 5.65625 -13.921875 5.453125 -13.722656 5.453125 -13.328125 L 5.375 -10.90625 C 5.375 -10.519531 5.617188 -10.429688 6.109375 -10.640625 C 7.296875 -11.148438 8.710938 -11.191406 10.359375 -10.765625 C 11.835938 -10.304688 12.96875 -9.265625 13.75 -7.640625 C 14.632812 -5.242188 14.546875 -3.070312 13.484375 -1.125 C 12.566406 0.40625 11.328125 1.347656 9.765625 1.703125 C 7.421875 2.179688 5.347656 1.8125 3.546875 0.59375 C 2.503906 -0.382812 1.882812 -1.648438 1.6875 -3.203125 C 1.65625 -3.722656 1.875 -3.984375 2.34375 -3.984375 L 4.140625 -3.984375 C 4.617188 -3.984375 4.910156 -3.738281 5.015625 -3.25 C 5.171875 -2.332031 5.632812 -1.679688 6.40625 -1.296875 C 7.082031 -1.015625 7.867188 -0.960938 8.765625 -1.140625 C 10.148438 -1.628906 10.925781 -2.671875 11.09375 -4.265625 C 11.175781 -5.035156 11.035156 -5.796875 10.671875 -6.546875 C 9.847656 -7.847656 8.601562 -8.296875 6.9375 -7.890625 C 6.320312 -7.722656 5.769531 -7.234375 5.28125 -6.421875 C 5.050781 -5.835938 4.691406 -5.546875 4.203125 -5.546875 L 2.765625 -5.546875 C 2.273438 -5.546875 2.03125 -5.828125 2.03125 -6.390625 Z M 2.453125 -15.9375 "/></g></g></g><g fill="#000000" fill-opacity="1"><g transform="translate(973.525029, 228.06657)"><g><path d="M 5.921875 -16.65625 C 8.191406 -17.414062 10.300781 -17.332031 12.25 -16.40625 C 13.09375 -15.863281 13.65625 -15.285156 13.9375 -14.671875 C 14.3125 -13.953125 14.53125 -13.195312 14.59375 -12.40625 C 14.625 -11.863281 14.410156 -11.59375 13.953125 -11.59375 L 12.203125 -11.59375 C 11.710938 -11.59375 11.425781 -11.835938 11.34375 -12.328125 C 10.925781 -13.941406 9.820312 -14.566406 8.03125 -14.203125 C 7.363281 -14.109375 6.734375 -13.6875 6.140625 -12.9375 C 5.753906 -12.40625 5.429688 -11.609375 5.171875 -10.546875 C 5.085938 -10.117188 5.289062 -10.046875 5.78125 -10.328125 C 6.882812 -10.898438 8.195312 -11.113281 9.71875 -10.96875 C 12.070312 -10.6875 13.679688 -9.332031 14.546875 -6.90625 C 14.929688 -5.71875 14.960938 -4.265625 14.640625 -2.546875 C 14.179688 -0.960938 13.269531 0.257812 11.90625 1.125 C 10.164062 2.101562 8.078125 2.164062 5.640625 1.3125 C 4.953125 1.019531 4.300781 0.539062 3.6875 -0.125 C 2.789062 -1.289062 2.195312 -2.59375 1.90625 -4.03125 C 1.507812 -6.613281 1.582031 -9.0625 2.125 -11.375 C 2.539062 -13.78125 3.804688 -15.539062 5.921875 -16.65625 Z M 8.25 -8.109375 C 7.40625 -8.023438 6.6875 -7.648438 6.09375 -6.984375 C 5.101562 -5.648438 4.898438 -4.316406 5.484375 -2.984375 C 6.367188 -1.398438 7.578125 -0.765625 9.109375 -1.078125 C 10.628906 -1.546875 11.472656 -2.53125 11.640625 -4.03125 C 11.722656 -4.875 11.582031 -5.679688 11.21875 -6.453125 C 10.519531 -7.753906 9.53125 -8.304688 8.25 -8.109375 Z M 8.25 -8.109375 "/></g></g></g><g fill="#000000" fill-opacity="1"><g transform="translate(989.44051, 228.06657)"><g><path d="M 1.765625 -16.015625 C 1.765625 -16.535156 1.988281 -16.796875 2.4375 -16.796875 L 13.421875 -16.796875 C 13.929688 -16.796875 14.1875 -16.550781 14.1875 -16.0625 C 14.269531 -15.101562 14.195312 -14.460938 13.96875 -14.140625 L 7.515625 0.78125 C 7.285156 1.300781 6.9375 1.5625 6.46875 1.5625 L 4.421875 1.5625 C 3.929688 1.5625 3.785156 1.316406 3.984375 0.828125 C 6.046875 -3.867188 8.132812 -8.582031 10.25 -13.3125 C 10.394531 -13.695312 10.273438 -13.890625 9.890625 -13.890625 L 2.515625 -13.890625 C 2.015625 -13.890625 1.765625 -14.132812 1.765625 -14.625 Z M 1.765625 -16.015625 "/></g></g></g><g fill="#000000" fill-opacity="1"><g transform="translate(1005.35599, 228.06657)"><g><path d="M 0.75 -1.609375 C 0.75 -2.117188 0.992188 -2.375 1.484375 -2.375 L 3.78125 -2.375 C 4.289062 -2.375 4.546875 -2.128906 4.546875 -1.640625 L 4.546875 0.6875 C 4.546875 1.1875 4.300781 1.4375 3.8125 1.4375 L 1.484375 1.4375 C 0.992188 1.4375 0.75 1.191406 0.75 0.703125 Z M 0.75 -1.609375 "/></g></g></g><g fill="#000000" fill-opacity="1"><g transform="translate(1010.677424, 228.06657)"><g><path d="M 3.59375 -15.71875 C 5.675781 -17.21875 7.984375 -17.566406 10.515625 -16.765625 C 11.867188 -16.328125 12.960938 -15.304688 13.796875 -13.703125 C 14.847656 -11.015625 15.097656 -7.992188 14.546875 -4.640625 C 14.421875 -3.984375 14.257812 -3.332031 14.0625 -2.6875 C 13.539062 -1.101562 12.601562 0.125 11.25 1 C 10.0625 1.6875 8.585938 1.988281 6.828125 1.90625 C 3.816406 1.789062 2.078125 0.0859375 1.609375 -3.203125 C 1.578125 -3.691406 1.804688 -3.9375 2.296875 -3.9375 L 4.03125 -3.9375 C 4.519531 -3.9375 4.785156 -3.691406 4.828125 -3.203125 C 5.023438 -1.765625 5.785156 -1.039062 7.109375 -1.03125 C 9.453125 -0.75 10.882812 -2.164062 11.40625 -5.28125 C 11.46875 -5.664062 11.253906 -5.738281 10.765625 -5.5 C 8.304688 -4.457031 6.082031 -4.546875 4.09375 -5.765625 C 3.300781 -6.296875 2.734375 -6.890625 2.390625 -7.546875 C 1.660156 -8.710938 1.394531 -10.132812 1.59375 -11.8125 C 1.769531 -13.3125 2.4375 -14.613281 3.59375 -15.71875 Z M 7.609375 -14.265625 C 6.648438 -14.191406 5.863281 -13.691406 5.25 -12.765625 C 4.851562 -12.015625 4.695312 -11.226562 4.78125 -10.40625 C 4.863281 -9.175781 5.566406 -8.300781 6.890625 -7.78125 C 7.628906 -7.601562 8.28125 -7.613281 8.84375 -7.8125 C 10.675781 -8.53125 11.515625 -9.691406 11.359375 -11.296875 C 10.878906 -13.304688 9.628906 -14.296875 7.609375 -14.265625 Z M 7.609375 -14.265625 "/></g></g></g><g fill="#000000" fill-opacity="1"><g transform="translate(267.857191, 594.60023)"><g><path d="M 6.328125 -20.09375 C 7.734375 -20.5625 9.21875 -20.707031 10.78125 -20.53125 C 12.5625 -20.363281 14.113281 -19.566406 15.4375 -18.140625 C 16.0625 -17.316406 16.414062 -16.535156 16.5 -15.796875 C 16.84375 -14.078125 16.453125 -12.28125 15.328125 -10.40625 C 13.796875 -7.925781 11.539062 -5.285156 8.5625 -2.484375 C 8.070312 -2.003906 8.070312 -1.765625 8.5625 -1.765625 L 16 -1.765625 C 16.601562 -1.765625 16.90625 -1.46875 16.90625 -0.875 L 16.90625 0.9375 C 16.90625 1.539062 16.613281 1.84375 16.03125 1.84375 L 3.140625 1.84375 C 2.535156 1.84375 2.234375 1.550781 2.234375 0.96875 L 2.234375 -0.53125 C 2.234375 -1.113281 2.523438 -1.679688 3.109375 -2.234375 C 7.710938 -6.328125 10.835938 -9.921875 12.484375 -13.015625 C 12.867188 -14.109375 12.835938 -15.046875 12.390625 -15.828125 C 12.078125 -16.410156 11.539062 -16.800781 10.78125 -17 C 9.726562 -17.1875 8.878906 -17.175781 8.234375 -16.96875 C 7.046875 -16.570312 6.441406 -15.660156 6.421875 -14.234375 C 6.421875 -13.535156 6.125 -13.1875 5.53125 -13.1875 L 3.375 -13.1875 C 2.78125 -13.1875 2.484375 -13.476562 2.484375 -14.0625 C 2.523438 -15.5625 3.046875 -17.023438 4.046875 -18.453125 C 4.648438 -19.203125 5.410156 -19.75 6.328125 -20.09375 Z M 6.328125 -20.09375 "/></g></g><g transform="translate(286.958753, 594.60023)"><g><path d="M 7.140625 -20.046875 C 8.335938 -20.515625 9.570312 -20.695312 10.84375 -20.59375 C 11.738281 -20.5 12.519531 -20.320312 13.1875 -20.0625 C 15.375 -19.070312 16.828125 -17.375 17.546875 -14.96875 C 18.484375 -11.457031 18.597656 -8.007812 17.890625 -4.625 C 17.546875 -2.875 16.84375 -1.351562 15.78125 -0.0625 C 13.769531 1.9375 11.457031 2.691406 8.84375 2.203125 C 7.082031 2.046875 5.5625 1.15625 4.28125 -0.46875 C 3.320312 -1.832031 2.6875 -3.394531 2.375 -5.15625 C 1.6875 -9.0625 1.976562 -12.695312 3.25 -16.0625 C 3.875 -17.738281 5.171875 -19.066406 7.140625 -20.046875 Z M 9.8125 -17.203125 C 8.382812 -17.046875 7.347656 -16.144531 6.703125 -14.5 C 5.847656 -11.789062 5.691406 -8.765625 6.234375 -5.421875 C 7.015625 -1.867188 8.851562 -0.570312 11.75 -1.53125 C 12.757812 -2.113281 13.382812 -2.804688 13.625 -3.609375 C 14.125 -4.796875 14.40625 -6.296875 14.46875 -8.109375 C 14.582031 -10.472656 14.347656 -12.523438 13.765625 -14.265625 C 12.984375 -16.410156 11.664062 -17.390625 9.8125 -17.203125 Z M 9.8125 -17.203125 "/></g></g><g transform="translate(306.060314, 594.60023)"><g><path d="M 1.5 -19.21875 C 1.5 -19.84375 1.769531 -20.15625 2.3125 -20.15625 L 4.34375 -20.15625 C 4.945312 -20.15625 5.25 -19.863281 5.25 -19.28125 L 5.25 -13.484375 C 5.25 -12.972656 5.484375 -12.953125 5.953125 -13.421875 L 11.921875 -19.28125 C 12.503906 -19.863281 13.09375 -20.15625 13.6875 -20.15625 L 17.078125 -20.15625 C 17.660156 -20.15625 17.582031 -19.785156 16.84375 -19.046875 L 8.734375 -11.21875 C 8.265625 -10.75 8.273438 -10.222656 8.765625 -9.640625 L 17.8125 0.9375 C 18.363281 1.5625 18.34375 1.875 17.75 1.875 L 14.421875 1.875 C 13.828125 1.875 13.269531 1.582031 12.75 1 L 6.125 -6.921875 C 5.539062 -7.617188 5.25 -7.734375 5.25 -7.265625 L 5.25 0.96875 C 5.25 1.570312 4.953125 1.875 4.359375 1.875 L 2.40625 1.875 C 1.800781 1.875 1.5 1.582031 1.5 1 Z M 1.5 -19.21875 "/></g></g><g transform="translate(325.425548, 594.60023)"><g><path d="M 7.90625 -20.09375 C 9.351562 -20.5625 10.914062 -20.707031 12.59375 -20.53125 C 14.25 -20.363281 15.722656 -19.789062 17.015625 -18.8125 C 18.378906 -17.519531 19.160156 -15.90625 19.359375 -13.96875 C 19.378906 -13.3125 19.097656 -12.984375 18.515625 -12.984375 L 16.375 -12.984375 C 15.789062 -12.984375 15.445312 -13.273438 15.34375 -13.859375 C 14.875 -15.910156 13.675781 -16.945312 11.75 -16.96875 C 10.789062 -17.039062 9.867188 -16.882812 8.984375 -16.5 C 8.035156 -15.96875 7.316406 -15.320312 6.828125 -14.5625 C 5.441406 -12.175781 5.066406 -9.441406 5.703125 -6.359375 C 6.035156 -4.347656 7.125 -2.875 8.96875 -1.9375 C 10.695312 -1.195312 12.675781 -1.117188 14.90625 -1.703125 C 15.375 -1.878906 15.609375 -2.203125 15.609375 -2.671875 L 15.609375 -5.859375 C 15.609375 -6.347656 15.375 -6.59375 14.90625 -6.59375 L 11.28125 -6.59375 C 10.675781 -6.59375 10.375 -6.882812 10.375 -7.46875 L 10.375 -9.28125 C 10.375 -9.894531 10.664062 -10.203125 11.25 -10.203125 L 18.578125 -10.203125 C 19.179688 -10.203125 19.484375 -9.90625 19.484375 -9.3125 L 19.484375 -0.375 C 19.484375 0.207031 19.1875 0.65625 18.59375 0.96875 C 17.332031 1.550781 15.867188 1.941406 14.203125 2.140625 C 11.765625 2.429688 9.753906 2.332031 8.171875 1.84375 C 5.609375 1.082031 3.6875 -0.722656 2.40625 -3.578125 C 1.851562 -4.960938 1.507812 -6.492188 1.375 -8.171875 C 1.21875 -10.160156 1.488281 -12.179688 2.1875 -14.234375 C 3.070312 -16.929688 4.976562 -18.882812 7.90625 -20.09375 Z M 7.90625 -20.09375 "/></g></g></g><g fill="#000000" fill-opacity="1"><g transform="translate(267.857191, 453.406317)"><g><path d="M 10.515625 -19.15625 C 10.984375 -19.820312 11.460938 -20.15625 11.953125 -20.15625 L 13.625 -20.15625 C 14.226562 -20.15625 14.53125 -19.863281 14.53125 -19.28125 L 14.53125 -6.890625 C 14.53125 -6.398438 14.765625 -6.15625 15.234375 -6.15625 L 16.96875 -6.15625 C 17.570312 -6.15625 17.875 -5.863281 17.875 -5.28125 L 17.875 -3.6875 C 17.875 -3.082031 17.582031 -2.78125 17 -2.78125 L 15.265625 -2.78125 C 14.773438 -2.78125 14.53125 -2.546875 14.53125 -2.078125 L 14.53125 0.96875 C 14.53125 1.570312 14.238281 1.875 13.65625 1.875 L 11.71875 1.875 C 11.113281 1.875 10.8125 1.582031 10.8125 1 L 10.8125 -2.046875 C 10.8125 -2.535156 10.578125 -2.78125 10.109375 -2.78125 L 2.109375 -2.78125 C 1.503906 -2.78125 1.203125 -3.070312 1.203125 -3.65625 L 1.203125 -4.484375 C 1.203125 -5.066406 1.335938 -5.554688 1.609375 -5.953125 C 4.535156 -10.347656 7.503906 -14.75 10.515625 -19.15625 Z M 10.8125 -12.421875 C 10.8125 -12.953125 10.632812 -12.953125 10.28125 -12.421875 L 6.5 -6.890625 C 6.15625 -6.398438 6.222656 -6.15625 6.703125 -6.15625 L 10.078125 -6.15625 C 10.566406 -6.15625 10.8125 -6.390625 10.8125 -6.859375 Z M 10.8125 -12.421875 "/></g></g><g transform="translate(286.958753, 453.406317)"><g><path d="M 7.140625 -20.046875 C 8.335938 -20.515625 9.570312 -20.695312 10.84375 -20.59375 C 11.738281 -20.5 12.519531 -20.320312 13.1875 -20.0625 C 15.375 -19.070312 16.828125 -17.375 17.546875 -14.96875 C 18.484375 -11.457031 18.597656 -8.007812 17.890625 -4.625 C 17.546875 -2.875 16.84375 -1.351562 15.78125 -0.0625 C 13.769531 1.9375 11.457031 2.691406 8.84375 2.203125 C 7.082031 2.046875 5.5625 1.15625 4.28125 -0.46875 C 3.320312 -1.832031 2.6875 -3.394531 2.375 -5.15625 C 1.6875 -9.0625 1.976562 -12.695312 3.25 -16.0625 C 3.875 -17.738281 5.171875 -19.066406 7.140625 -20.046875 Z M 9.8125 -17.203125 C 8.382812 -17.046875 7.347656 -16.144531 6.703125 -14.5 C 5.847656 -11.789062 5.691406 -8.765625 6.234375 -5.421875 C 7.015625 -1.867188 8.851562 -0.570312 11.75 -1.53125 C 12.757812 -2.113281 13.382812 -2.804688 13.625 -3.609375 C 14.125 -4.796875 14.40625 -6.296875 14.46875 -8.109375 C 14.582031 -10.472656 14.347656 -12.523438 13.765625 -14.265625 C 12.984375 -16.410156 11.664062 -17.390625 9.8125 -17.203125 Z M 9.8125 -17.203125 "/></g></g><g transform="translate(306.060314, 453.406317)"><g><path d="M 1.5 -19.21875 C 1.5 -19.84375 1.769531 -20.15625 2.3125 -20.15625 L 4.34375 -20.15625 C 4.945312 -20.15625 5.25 -19.863281 5.25 -19.28125 L 5.25 -13.484375 C 5.25 -12.972656 5.484375 -12.953125 5.953125 -13.421875 L 11.921875 -19.28125 C 12.503906 -19.863281 13.09375 -20.15625 13.6875 -20.15625 L 17.078125 -20.15625 C 17.660156 -20.15625 17.582031 -19.785156 16.84375 -19.046875 L 8.734375 -11.21875 C 8.265625 -10.75 8.273438 -10.222656 8.765625 -9.640625 L 17.8125 0.9375 C 18.363281 1.5625 18.34375 1.875 17.75 1.875 L 14.421875 1.875 C 13.828125 1.875 13.269531 1.582031 12.75 1 L 6.125 -6.921875 C 5.539062 -7.617188 5.25 -7.734375 5.25 -7.265625 L 5.25 0.96875 C 5.25 1.570312 4.953125 1.875 4.359375 1.875 L 2.40625 1.875 C 1.800781 1.875 1.5 1.582031 1.5 1 Z M 1.5 -19.21875 "/></g></g><g transform="translate(325.425548, 453.406317)"><g><path d="M 7.90625 -20.09375 C 9.351562 -20.5625 10.914062 -20.707031 12.59375 -20.53125 C 14.25 -20.363281 15.722656 -19.789062 17.015625 -18.8125 C 18.378906 -17.519531 19.160156 -15.90625 19.359375 -13.96875 C 19.378906 -13.3125 19.097656 -12.984375 18.515625 -12.984375 L 16.375 -12.984375 C 15.789062 -12.984375 15.445312 -13.273438 15.34375 -13.859375 C 14.875 -15.910156 13.675781 -16.945312 11.75 -16.96875 C 10.789062 -17.039062 9.867188 -16.882812 8.984375 -16.5 C 8.035156 -15.96875 7.316406 -15.320312 6.828125 -14.5625 C 5.441406 -12.175781 5.066406 -9.441406 5.703125 -6.359375 C 6.035156 -4.347656 7.125 -2.875 8.96875 -1.9375 C 10.695312 -1.195312 12.675781 -1.117188 14.90625 -1.703125 C 15.375 -1.878906 15.609375 -2.203125 15.609375 -2.671875 L 15.609375 -5.859375 C 15.609375 -6.347656 15.375 -6.59375 14.90625 -6.59375 L 11.28125 -6.59375 C 10.675781 -6.59375 10.375 -6.882812 10.375 -7.46875 L 10.375 -9.28125 C 10.375 -9.894531 10.664062 -10.203125 11.25 -10.203125 L 18.578125 -10.203125 C 19.179688 -10.203125 19.484375 -9.90625 19.484375 -9.3125 L 19.484375 -0.375 C 19.484375 0.207031 19.1875 0.65625 18.59375 0.96875 C 17.332031 1.550781 15.867188 1.941406 14.203125 2.140625 C 11.765625 2.429688 9.753906 2.332031 8.171875 1.84375 C 5.609375 1.082031 3.6875 -0.722656 2.40625 -3.578125 C 1.851562 -4.960938 1.507812 -6.492188 1.375 -8.171875 C 1.21875 -10.160156 1.488281 -12.179688 2.1875 -14.234375 C 3.070312 -16.929688 4.976562 -18.882812 7.90625 -20.09375 Z M 7.90625 -20.09375 "/></g></g></g><g fill="#000000" fill-opacity="1"><g transform="translate(267.857191, 312.406293)"><g><path d="M 7.109375 -19.984375 C 9.828125 -20.898438 12.359375 -20.800781 14.703125 -19.6875 C 15.710938 -19.039062 16.382812 -18.347656 16.71875 -17.609375 C 17.164062 -16.742188 17.429688 -15.835938 17.515625 -14.890625 C 17.554688 -14.242188 17.300781 -13.921875 16.75 -13.921875 L 14.640625 -13.921875 C 14.054688 -13.921875 13.71875 -14.210938 13.625 -14.796875 C 13.113281 -16.734375 11.785156 -17.484375 9.640625 -17.046875 C 8.835938 -16.929688 8.082031 -16.425781 7.375 -15.53125 C 6.90625 -14.882812 6.515625 -13.925781 6.203125 -12.65625 C 6.109375 -12.144531 6.351562 -12.054688 6.9375 -12.390625 C 8.269531 -13.078125 9.84375 -13.332031 11.65625 -13.15625 C 14.488281 -12.820312 16.421875 -11.203125 17.453125 -8.296875 C 17.921875 -6.867188 17.960938 -5.117188 17.578125 -3.046875 C 17.023438 -1.148438 15.929688 0.3125 14.296875 1.34375 C 12.203125 2.519531 9.691406 2.597656 6.765625 1.578125 C 5.941406 1.234375 5.160156 0.660156 4.421875 -0.140625 C 3.347656 -1.546875 2.632812 -3.109375 2.28125 -4.828125 C 1.8125 -7.941406 1.898438 -10.882812 2.546875 -13.65625 C 3.054688 -16.539062 4.578125 -18.648438 7.109375 -19.984375 Z M 9.890625 -9.734375 C 8.878906 -9.628906 8.019531 -9.175781 7.3125 -8.375 C 6.125 -6.78125 5.882812 -5.179688 6.59375 -3.578125 C 7.644531 -1.679688 9.085938 -0.921875 10.921875 -1.296875 C 12.753906 -1.859375 13.769531 -3.035156 13.96875 -4.828125 C 14.0625 -5.847656 13.894531 -6.816406 13.46875 -7.734375 C 12.632812 -9.296875 11.441406 -9.960938 9.890625 -9.734375 Z M 9.890625 -9.734375 "/></g></g><g transform="translate(286.958753, 312.406293)"><g><path d="M 7.140625 -20.046875 C 8.335938 -20.515625 9.570312 -20.695312 10.84375 -20.59375 C 11.738281 -20.5 12.519531 -20.320312 13.1875 -20.0625 C 15.375 -19.070312 16.828125 -17.375 17.546875 -14.96875 C 18.484375 -11.457031 18.597656 -8.007812 17.890625 -4.625 C 17.546875 -2.875 16.84375 -1.351562 15.78125 -0.0625 C 13.769531 1.9375 11.457031 2.691406 8.84375 2.203125 C 7.082031 2.046875 5.5625 1.15625 4.28125 -0.46875 C 3.320312 -1.832031 2.6875 -3.394531 2.375 -5.15625 C 1.6875 -9.0625 1.976562 -12.695312 3.25 -16.0625 C 3.875 -17.738281 5.171875 -19.066406 7.140625 -20.046875 Z M 9.8125 -17.203125 C 8.382812 -17.046875 7.347656 -16.144531 6.703125 -14.5 C 5.847656 -11.789062 5.691406 -8.765625 6.234375 -5.421875 C 7.015625 -1.867188 8.851562 -0.570312 11.75 -1.53125 C 12.757812 -2.113281 13.382812 -2.804688 13.625 -3.609375 C 14.125 -4.796875 14.40625 -6.296875 14.46875 -8.109375 C 14.582031 -10.472656 14.347656 -12.523438 13.765625 -14.265625 C 12.984375 -16.410156 11.664062 -17.390625 9.8125 -17.203125 Z M 9.8125 -17.203125 "/></g></g><g transform="translate(306.060314, 312.406293)"><g><path d="M 1.5 -19.21875 C 1.5 -19.84375 1.769531 -20.15625 2.3125 -20.15625 L 4.34375 -20.15625 C 4.945312 -20.15625 5.25 -19.863281 5.25 -19.28125 L 5.25 -13.484375 C 5.25 -12.972656 5.484375 -12.953125 5.953125 -13.421875 L 11.921875 -19.28125 C 12.503906 -19.863281 13.09375 -20.15625 13.6875 -20.15625 L 17.078125 -20.15625 C 17.660156 -20.15625 17.582031 -19.785156 16.84375 -19.046875 L 8.734375 -11.21875 C 8.265625 -10.75 8.273438 -10.222656 8.765625 -9.640625 L 17.8125 0.9375 C 18.363281 1.5625 18.34375 1.875 17.75 1.875 L 14.421875 1.875 C 13.828125 1.875 13.269531 1.582031 12.75 1 L 6.125 -6.921875 C 5.539062 -7.617188 5.25 -7.734375 5.25 -7.265625 L 5.25 0.96875 C 5.25 1.570312 4.953125 1.875 4.359375 1.875 L 2.40625 1.875 C 1.800781 1.875 1.5 1.582031 1.5 1 Z M 1.5 -19.21875 "/></g></g><g transform="translate(325.425548, 312.406293)"><g><path d="M 7.90625 -20.09375 C 9.351562 -20.5625 10.914062 -20.707031 12.59375 -20.53125 C 14.25 -20.363281 15.722656 -19.789062 17.015625 -18.8125 C 18.378906 -17.519531 19.160156 -15.90625 19.359375 -13.96875 C 19.378906 -13.3125 19.097656 -12.984375 18.515625 -12.984375 L 16.375 -12.984375 C 15.789062 -12.984375 15.445312 -13.273438 15.34375 -13.859375 C 14.875 -15.910156 13.675781 -16.945312 11.75 -16.96875 C 10.789062 -17.039062 9.867188 -16.882812 8.984375 -16.5 C 8.035156 -15.96875 7.316406 -15.320312 6.828125 -14.5625 C 5.441406 -12.175781 5.066406 -9.441406 5.703125 -6.359375 C 6.035156 -4.347656 7.125 -2.875 8.96875 -1.9375 C 10.695312 -1.195312 12.675781 -1.117188 14.90625 -1.703125 C 15.375 -1.878906 15.609375 -2.203125 15.609375 -2.671875 L 15.609375 -5.859375 C 15.609375 -6.347656 15.375 -6.59375 14.90625 -6.59375 L 11.28125 -6.59375 C 10.675781 -6.59375 10.375 -6.882812 10.375 -7.46875 L 10.375 -9.28125 C 10.375 -9.894531 10.664062 -10.203125 11.25 -10.203125 L 18.578125 -10.203125 C 19.179688 -10.203125 19.484375 -9.90625 19.484375 -9.3125 L 19.484375 -0.375 C 19.484375 0.207031 19.1875 0.65625 18.59375 0.96875 C 17.332031 1.550781 15.867188 1.941406 14.203125 2.140625 C 11.765625 2.429688 9.753906 2.332031 8.171875 1.84375 C 5.609375 1.082031 3.6875 -0.722656 2.40625 -3.578125 C 1.851562 -4.960938 1.507812 -6.492188 1.375 -8.171875 C 1.21875 -10.160156 1.488281 -12.179688 2.1875 -14.234375 C 3.070312 -16.929688 4.976562 -18.882812 7.90625 -20.09375 Z M 7.90625 -20.09375 "/></g></g></g><g fill="#000000" fill-opacity="1"><g transform="translate(267.857191, 173.81657)"><g><path d="M 5.59375 -19.515625 C 8.113281 -20.804688 10.828125 -20.960938 13.734375 -19.984375 C 15.648438 -19.242188 16.941406 -17.992188 17.609375 -16.234375 C 18.410156 -14.023438 17.957031 -12.003906 16.25 -10.171875 C 15.78125 -9.734375 15.851562 -9.273438 16.46875 -8.796875 C 18.414062 -6.796875 18.851562 -4.476562 17.78125 -1.84375 C 16.957031 -0.0625 15.597656 1.140625 13.703125 1.765625 C 12.023438 2.347656 10.160156 2.472656 8.109375 2.140625 C 3.660156 1.066406 1.679688 -1.566406 2.171875 -5.765625 C 2.398438 -6.984375 3.070312 -8.070312 4.1875 -9.03125 C 4.613281 -9.351562 4.570312 -9.722656 4.0625 -10.140625 C 2.675781 -11.566406 2.148438 -13.253906 2.484375 -15.203125 C 2.703125 -16.960938 3.738281 -18.398438 5.59375 -19.515625 Z M 10.859375 -17.046875 C 9.984375 -17.109375 9.066406 -17.003906 8.109375 -16.734375 C 6.585938 -15.984375 6.050781 -14.757812 6.5 -13.0625 C 6.65625 -12.476562 7.132812 -12 7.9375 -11.625 C 8.945312 -11.175781 10.285156 -11.117188 11.953125 -11.453125 C 13.253906 -11.828125 13.945312 -12.582031 14.03125 -13.71875 C 14.101562 -15.6875 13.046875 -16.796875 10.859375 -17.046875 Z M 9.578125 -7.796875 C 8.660156 -7.734375 7.867188 -7.507812 7.203125 -7.125 C 6.398438 -6.519531 6 -5.753906 6 -4.828125 C 5.925781 -3.097656 6.75 -1.976562 8.46875 -1.46875 C 9.1875 -1.195312 10.148438 -1.144531 11.359375 -1.3125 C 13.453125 -1.75 14.453125 -2.992188 14.359375 -5.046875 C 14.273438 -5.703125 14 -6.285156 13.53125 -6.796875 C 12.707031 -7.515625 11.390625 -7.847656 9.578125 -7.796875 Z M 9.578125 -7.796875 "/></g></g><g transform="translate(286.958753, 173.81657)"><g><path d="M 7.140625 -20.046875 C 8.335938 -20.515625 9.570312 -20.695312 10.84375 -20.59375 C 11.738281 -20.5 12.519531 -20.320312 13.1875 -20.0625 C 15.375 -19.070312 16.828125 -17.375 17.546875 -14.96875 C 18.484375 -11.457031 18.597656 -8.007812 17.890625 -4.625 C 17.546875 -2.875 16.84375 -1.351562 15.78125 -0.0625 C 13.769531 1.9375 11.457031 2.691406 8.84375 2.203125 C 7.082031 2.046875 5.5625 1.15625 4.28125 -0.46875 C 3.320312 -1.832031 2.6875 -3.394531 2.375 -5.15625 C 1.6875 -9.0625 1.976562 -12.695312 3.25 -16.0625 C 3.875 -17.738281 5.171875 -19.066406 7.140625 -20.046875 Z M 9.8125 -17.203125 C 8.382812 -17.046875 7.347656 -16.144531 6.703125 -14.5 C 5.847656 -11.789062 5.691406 -8.765625 6.234375 -5.421875 C 7.015625 -1.867188 8.851562 -0.570312 11.75 -1.53125 C 12.757812 -2.113281 13.382812 -2.804688 13.625 -3.609375 C 14.125 -4.796875 14.40625 -6.296875 14.46875 -8.109375 C 14.582031 -10.472656 14.347656 -12.523438 13.765625 -14.265625 C 12.984375 -16.410156 11.664062 -17.390625 9.8125 -17.203125 Z M 9.8125 -17.203125 "/></g></g><g transform="translate(306.060314, 173.81657)"><g><path d="M 1.5 -19.21875 C 1.5 -19.84375 1.769531 -20.15625 2.3125 -20.15625 L 4.34375 -20.15625 C 4.945312 -20.15625 5.25 -19.863281 5.25 -19.28125 L 5.25 -13.484375 C 5.25 -12.972656 5.484375 -12.953125 5.953125 -13.421875 L 11.921875 -19.28125 C 12.503906 -19.863281 13.09375 -20.15625 13.6875 -20.15625 L 17.078125 -20.15625 C 17.660156 -20.15625 17.582031 -19.785156 16.84375 -19.046875 L 8.734375 -11.21875 C 8.265625 -10.75 8.273438 -10.222656 8.765625 -9.640625 L 17.8125 0.9375 C 18.363281 1.5625 18.34375 1.875 17.75 1.875 L 14.421875 1.875 C 13.828125 1.875 13.269531 1.582031 12.75 1 L 6.125 -6.921875 C 5.539062 -7.617188 5.25 -7.734375 5.25 -7.265625 L 5.25 0.96875 C 5.25 1.570312 4.953125 1.875 4.359375 1.875 L 2.40625 1.875 C 1.800781 1.875 1.5 1.582031 1.5 1 Z M 1.5 -19.21875 "/></g></g><g transform="translate(325.425548, 173.81657)"><g><path d="M 7.90625 -20.09375 C 9.351562 -20.5625 10.914062 -20.707031 12.59375 -20.53125 C 14.25 -20.363281 15.722656 -19.789062 17.015625 -18.8125 C 18.378906 -17.519531 19.160156 -15.90625 19.359375 -13.96875 C 19.378906 -13.3125 19.097656 -12.984375 18.515625 -12.984375 L 16.375 -12.984375 C 15.789062 -12.984375 15.445312 -13.273438 15.34375 -13.859375 C 14.875 -15.910156 13.675781 -16.945312 11.75 -16.96875 C 10.789062 -17.039062 9.867188 -16.882812 8.984375 -16.5 C 8.035156 -15.96875 7.316406 -15.320312 6.828125 -14.5625 C 5.441406 -12.175781 5.066406 -9.441406 5.703125 -6.359375 C 6.035156 -4.347656 7.125 -2.875 8.96875 -1.9375 C 10.695312 -1.195312 12.675781 -1.117188 14.90625 -1.703125 C 15.375 -1.878906 15.609375 -2.203125 15.609375 -2.671875 L 15.609375 -5.859375 C 15.609375 -6.347656 15.375 -6.59375 14.90625 -6.59375 L 11.28125 -6.59375 C 10.675781 -6.59375 10.375 -6.882812 10.375 -7.46875 L 10.375 -9.28125 C 10.375 -9.894531 10.664062 -10.203125 11.25 -10.203125 L 18.578125 -10.203125 C 19.179688 -10.203125 19.484375 -9.90625 19.484375 -9.3125 L 19.484375 -0.375 C 19.484375 0.207031 19.1875 0.65625 18.59375 0.96875 C 17.332031 1.550781 15.867188 1.941406 14.203125 2.140625 C 11.765625 2.429688 9.753906 2.332031 8.171875 1.84375 C 5.609375 1.082031 3.6875 -0.722656 2.40625 -3.578125 C 1.851562 -4.960938 1.507812 -6.492188 1.375 -8.171875 C 1.21875 -10.160156 1.488281 -12.179688 2.1875 -14.234375 C 3.070312 -16.929688 4.976562 -18.882812 7.90625 -20.09375 Z M 7.90625 -20.09375 "/></g></g></g></svg>