<svg xmlns="http://www.w3.org/2000/svg" xmlns:xlink="http://www.w3.org/1999/xlink" width="1920" zoomAndPan="magnify" viewBox="0 0 1440 809.999993" height="1080" preserveAspectRatio="xMidYMid meet" version="1.0"><defs><g/><clipPath id="22d63e3da4"><path d="M 23.128906 530 L 726.871094 530 L 726.871094 530.878906 L 23.128906 530.878906 Z M 23.128906 530 " clip-rule="nonzero"/></clipPath><clipPath id="5f0998f62b"><path d="M 23.128906 445 L 726.871094 445 L 726.871094 447 L 23.128906 447 Z M 23.128906 445 " clip-rule="nonzero"/></clipPath><clipPath id="4cd24bb438"><path d="M 23.128906 361 L 726.871094 361 L 726.871094 362 L 23.128906 362 Z M 23.128906 361 " clip-rule="nonzero"/></clipPath><clipPath id="258833b350"><path d="M 23.128906 276 L 726.871094 276 L 726.871094 278 L 23.128906 278 Z M 23.128906 276 " clip-rule="nonzero"/></clipPath><clipPath id="b9d72ff385"><path d="M 23.128906 191 L 726.871094 191 L 726.871094 193 L 23.128906 193 Z M 23.128906 191 " clip-rule="nonzero"/></clipPath><clipPath id="f1820b94d8"><path d="M 23.128906 107 L 726.871094 107 L 726.871094 108 L 23.128906 108 Z M 23.128906 107 " clip-rule="nonzero"/></clipPath><clipPath id="b05f387d4a"><path d="M 23.128906 22.824219 L 726.871094 22.824219 L 726.871094 24 L 23.128906 24 Z M 23.128906 22.824219 " clip-rule="nonzero"/></clipPath><clipPath id="eec6d6aa76"><rect x="0" width="751" y="0" height="554"/></clipPath></defs><g transform="matrix(1, 0, 0, 1, 345, 97)"><g clip-path="url(#eec6d6aa76)"><g clip-path="url(#22d63e3da4)"><path stroke-linecap="butt" transform="matrix(0.86882, 0, 0, 0.86882, 23.12782, 22.825449)" fill="none" stroke-linejoin="miter" d="M 0.00125051 584.76254 L 809.998826 584.76254 " stroke="#000000" stroke-width="1" stroke-opacity="0.6" stroke-miterlimit="4"/></g><g clip-path="url(#5f0998f62b)"><path stroke-linecap="butt" transform="matrix(0.86882, 0, 0, 0.86882, 23.12782, 22.825449)" fill="none" stroke-linejoin="miter" d="M 0.00125051 487.30188 L 809.998826 487.30188 " stroke="#000000" stroke-width="1" stroke-opacity="0.251" stroke-miterlimit="4"/></g><g clip-path="url(#4cd24bb438)"><path stroke-linecap="butt" transform="matrix(0.86882, 0, 0, 0.86882, 23.12782, 22.825449)" fill="none" stroke-linejoin="miter" d="M 0.00125051 389.841221 L 809.998826 389.841221 " stroke="#000000" stroke-width="1" stroke-opacity="0.251" stroke-miterlimit="4"/></g><g clip-path="url(#258833b350)"><path stroke-linecap="butt" transform="matrix(0.86882, 0, 0, 0.86882, 23.12782, 22.825449)" fill="none" stroke-linejoin="miter" d="M 0.00125051 292.380562 L 809.998826 292.380562 " stroke="#000000" stroke-width="1" stroke-opacity="0.251" stroke-miterlimit="4"/></g><g clip-path="url(#b9d72ff385)"><path stroke-linecap="butt" transform="matrix(0.86882, 0, 0, 0.86882, 23.12782, 22.825449)" fill="none" stroke-linejoin="miter" d="M 0.00125051 194.919903 L 809.998826 194.919903 " stroke="#000000" stroke-width="1" stroke-opacity="0.251" stroke-miterlimit="4"/></g><g clip-path="url(#f1820b94d8)"><path stroke-linecap="butt" transform="matrix(0.86882, 0, 0, 0.86882, 23.12782, 22.825449)" fill="none" stroke-linejoin="miter" d="M 0.00125051 97.459244 L 809.998826 97.459244 " stroke="#000000" stroke-width="1" stroke-opacity="0.251" stroke-miterlimit="4"/></g><g clip-path="url(#b05f387d4a)"><path stroke-linecap="butt" transform="matrix(0.86882, 0, 0, 0.86882, 23.12782, 22.825449)" fill="none" stroke-linejoin="miter" d="M 0.00125051 -0.00141546 L 809.998826 -0.00141546 " stroke="#000000" stroke-width="1" stroke-opacity="0.251" stroke-miterlimit="4"/></g><path fill="#ffde59" d="M 94.46875 37.816406 C 156.820312 68.78125 203.714844 91.351562 235.144531 105.519531 C 235.40625 105.640625 235.636719 105.804688 235.832031 106.011719 C 236.03125 106.222656 236.179688 106.464844 236.28125 106.730469 C 236.382812 107 236.429688 107.28125 236.421875 107.566406 C 236.414062 107.855469 236.347656 108.132812 236.230469 108.394531 C 236.113281 108.65625 235.949219 108.886719 235.738281 109.082031 C 235.527344 109.28125 235.289062 109.429688 235.019531 109.53125 C 234.75 109.632812 234.472656 109.679688 234.183594 109.671875 C 233.894531 109.664062 233.621094 109.601562 233.359375 109.480469 C 201.878906 95.289062 154.9375 72.695312 92.535156 41.707031 C 92.277344 41.578125 92.054688 41.40625 91.863281 41.1875 C 91.675781 40.972656 91.535156 40.726562 91.445312 40.453125 C 91.351562 40.179688 91.316406 39.898438 91.335938 39.613281 C 91.355469 39.324219 91.429688 39.050781 91.558594 38.792969 C 91.683594 38.535156 91.859375 38.3125 92.074219 38.125 C 92.292969 37.933594 92.535156 37.792969 92.808594 37.703125 C 93.082031 37.609375 93.363281 37.574219 93.648438 37.59375 C 93.9375 37.613281 94.210938 37.6875 94.46875 37.816406 Z M 94.46875 37.816406 " fill-opacity="1" fill-rule="nonzero"/><path fill="#ffde59" d="M 235.144531 105.519531 C 282.53125 126.886719 329.414062 146.628906 375.789062 164.75 C 376.058594 164.855469 376.296875 165.007812 376.503906 165.207031 C 376.710938 165.40625 376.875 165.640625 376.988281 165.902344 C 377.105469 166.167969 377.164062 166.441406 377.171875 166.730469 C 377.175781 167.019531 377.128906 167.296875 377.023438 167.566406 C 376.917969 167.832031 376.765625 168.070312 376.566406 168.277344 C 376.367188 168.488281 376.136719 168.648438 375.871094 168.765625 C 375.609375 168.878906 375.332031 168.941406 375.042969 168.945312 C 374.753906 168.953125 374.476562 168.902344 374.210938 168.796875 C 327.761719 150.648438 280.8125 130.875 233.359375 109.480469 C 233.097656 109.363281 232.867188 109.199219 232.667969 108.988281 C 232.472656 108.777344 232.320312 108.539062 232.21875 108.269531 C 232.117188 108 232.070312 107.722656 232.078125 107.433594 C 232.089844 107.144531 232.152344 106.871094 232.269531 106.609375 C 232.390625 106.347656 232.554688 106.117188 232.761719 105.917969 C 232.972656 105.722656 233.210938 105.570312 233.480469 105.46875 C 233.75 105.367188 234.03125 105.320312 234.316406 105.332031 C 234.605469 105.339844 234.882812 105.402344 235.144531 105.519531 Z M 235.144531 105.519531 " fill-opacity="1" fill-rule="nonzero"/><path fill="#ffde59" d="M 375.789062 164.75 C 423.121094 183.246094 470 200.167969 516.429688 215.515625 C 516.703125 215.609375 516.949219 215.746094 517.167969 215.933594 C 517.386719 216.125 517.558594 216.347656 517.6875 216.605469 C 517.820312 216.859375 517.894531 217.132812 517.914062 217.421875 C 517.9375 217.707031 517.902344 217.988281 517.8125 218.261719 C 517.71875 218.535156 517.582031 218.78125 517.394531 219 C 517.203125 219.21875 516.980469 219.390625 516.726562 219.519531 C 516.46875 219.648438 516.195312 219.726562 515.90625 219.746094 C 515.621094 219.765625 515.339844 219.730469 515.066406 219.640625 C 468.5625 204.265625 421.613281 187.320312 374.210938 168.796875 C 373.941406 168.691406 373.703125 168.539062 373.496094 168.339844 C 373.289062 168.140625 373.125 167.910156 373.011719 167.644531 C 372.894531 167.382812 372.835938 167.105469 372.828125 166.816406 C 372.824219 166.53125 372.871094 166.253906 372.976562 165.984375 C 373.082031 165.714844 373.234375 165.476562 373.433594 165.269531 C 373.632812 165.0625 373.863281 164.898438 374.128906 164.785156 C 374.390625 164.667969 374.667969 164.609375 374.957031 164.601562 C 375.242188 164.597656 375.523438 164.644531 375.789062 164.75 Z M 375.789062 164.75 " fill-opacity="1" fill-rule="nonzero"/><path fill="#ffde59" d="M 516.429688 215.515625 C 547.542969 225.804688 594.429688 239.90625 657.09375 257.828125 C 657.371094 257.910156 657.625 258.039062 657.847656 258.214844 C 658.074219 258.394531 658.257812 258.613281 658.398438 258.863281 C 658.535156 259.113281 658.621094 259.382812 658.65625 259.671875 C 658.6875 259.957031 658.664062 260.238281 658.585938 260.515625 C 658.507812 260.792969 658.378906 261.042969 658.199219 261.269531 C 658.019531 261.492188 657.804688 261.675781 657.550781 261.816406 C 657.300781 261.957031 657.03125 262.042969 656.746094 262.074219 C 656.457031 262.109375 656.175781 262.085938 655.902344 262.007812 C 593.179688 244.066406 546.234375 229.945312 515.066406 219.640625 C 514.792969 219.550781 514.546875 219.414062 514.328125 219.222656 C 514.113281 219.035156 513.9375 218.8125 513.808594 218.554688 C 513.679688 218.296875 513.605469 218.027344 513.582031 217.738281 C 513.5625 217.453125 513.597656 217.171875 513.6875 216.898438 C 513.777344 216.625 513.917969 216.378906 514.105469 216.160156 C 514.292969 215.941406 514.515625 215.769531 514.773438 215.640625 C 515.03125 215.511719 515.300781 215.433594 515.589844 215.414062 C 515.875 215.390625 516.15625 215.425781 516.429688 215.515625 Z M 516.429688 215.515625 " fill-opacity="1" fill-rule="nonzero"/><path fill="#ffde59" d="M 102.191406 48.449219 L 102.191406 31.074219 L 84.8125 31.074219 L 84.8125 48.449219 Z M 102.191406 48.449219 " fill-opacity="1" fill-rule="nonzero"/><path fill="#ffde59" d="M 242.9375 116.1875 L 242.9375 98.8125 L 225.5625 98.8125 L 225.5625 116.1875 Z M 242.9375 116.1875 " fill-opacity="1" fill-rule="nonzero"/><path fill="#ffde59" d="M 383.6875 175.460938 L 383.6875 158.085938 L 366.3125 158.085938 L 366.3125 175.460938 Z M 383.6875 175.460938 " fill-opacity="1" fill-rule="nonzero"/><path fill="#ffde59" d="M 524.4375 226.269531 L 524.4375 208.890625 L 507.0625 208.890625 L 507.0625 226.269531 Z M 524.4375 226.269531 " fill-opacity="1" fill-rule="nonzero"/><path fill="#ffde59" d="M 665.1875 268.605469 L 665.1875 251.230469 L 647.808594 251.230469 L 647.808594 268.605469 Z M 665.1875 268.605469 " fill-opacity="1" fill-rule="nonzero"/></g></g><g fill="#000000" fill-opacity="1"><g transform="translate(373.920748, 684.509986)"><g><path d="M 6.328125 -20.09375 C 7.734375 -20.5625 9.21875 -20.707031 10.78125 -20.53125 C 12.5625 -20.363281 14.113281 -19.566406 15.4375 -18.140625 C 16.0625 -17.316406 16.414062 -16.535156 16.5 -15.796875 C 16.84375 -14.078125 16.453125 -12.28125 15.328125 -10.40625 C 13.796875 -7.925781 11.539062 -5.285156 8.5625 -2.484375 C 8.070312 -2.003906 8.070312 -1.765625 8.5625 -1.765625 L 16 -1.765625 C 16.601562 -1.765625 16.90625 -1.46875 16.90625 -0.875 L 16.90625 0.9375 C 16.90625 1.539062 16.613281 1.84375 16.03125 1.84375 L 3.140625 1.84375 C 2.535156 1.84375 2.234375 1.550781 2.234375 0.96875 L 2.234375 -0.53125 C 2.234375 -1.113281 2.523438 -1.679688 3.109375 -2.234375 C 7.710938 -6.328125 10.835938 -9.921875 12.484375 -13.015625 C 12.867188 -14.109375 12.835938 -15.046875 12.390625 -15.828125 C 12.078125 -16.410156 11.539062 -16.800781 10.78125 -17 C 9.726562 -17.1875 8.878906 -17.175781 8.234375 -16.96875 C 7.046875 -16.570312 6.441406 -15.660156 6.421875 -14.234375 C 6.421875 -13.535156 6.125 -13.1875 5.53125 -13.1875 L 3.375 -13.1875 C 2.78125 -13.1875 2.484375 -13.476562 2.484375 -14.0625 C 2.523438 -15.5625 3.046875 -17.023438 4.046875 -18.453125 C 4.648438 -19.203125 5.410156 -19.75 6.328125 -20.09375 Z M 6.328125 -20.09375 "/></g></g><g transform="translate(393.02231, 684.509986)"><g><path d="M 2.9375 -19.125 C 2.96875 -19.8125 3.257812 -20.15625 3.8125 -20.15625 L 15.265625 -20.15625 C 15.867188 -20.15625 16.171875 -19.863281 16.171875 -19.28125 L 16.171875 -17.609375 C 16.171875 -17.003906 15.878906 -16.703125 15.296875 -16.703125 L 7.265625 -16.703125 C 6.773438 -16.703125 6.53125 -16.46875 6.53125 -16 L 6.453125 -13.09375 C 6.453125 -12.625 6.742188 -12.519531 7.328125 -12.78125 C 8.753906 -13.382812 10.453125 -13.429688 12.421875 -12.921875 C 14.203125 -12.367188 15.5625 -11.117188 16.5 -9.171875 C 17.550781 -6.296875 17.441406 -3.6875 16.171875 -1.34375 C 15.078125 0.488281 13.59375 1.617188 11.71875 2.046875 C 8.90625 2.617188 6.414062 2.171875 4.25 0.703125 C 3 -0.472656 2.257812 -1.988281 2.03125 -3.84375 C 1.988281 -4.46875 2.25 -4.78125 2.8125 -4.78125 L 4.953125 -4.78125 C 5.535156 -4.78125 5.890625 -4.484375 6.015625 -3.890625 C 6.203125 -2.796875 6.753906 -2.015625 7.671875 -1.546875 C 8.492188 -1.222656 9.441406 -1.164062 10.515625 -1.375 C 12.179688 -1.957031 13.109375 -3.207031 13.296875 -5.125 C 13.398438 -6.039062 13.238281 -6.953125 12.8125 -7.859375 C 11.8125 -9.421875 10.316406 -9.957031 8.328125 -9.46875 C 7.578125 -9.269531 6.910156 -8.679688 6.328125 -7.703125 C 6.054688 -7.003906 5.628906 -6.65625 5.046875 -6.65625 L 3.3125 -6.65625 C 2.726562 -6.65625 2.4375 -6.992188 2.4375 -7.671875 Z M 2.9375 -19.125 "/></g></g><g transform="translate(412.123871, 684.509986)"><g><path d="M 11.84375 -22.390625 C 12.09375 -23.023438 12.507812 -23.34375 13.09375 -23.34375 L 14.53125 -23.34375 C 15.113281 -23.34375 15.300781 -23.050781 15.09375 -22.46875 L 4.59375 4.1875 C 4.320312 4.832031 3.894531 5.15625 3.3125 5.15625 L 1.875 5.15625 C 1.289062 5.15625 1.113281 4.863281 1.34375 4.28125 Z M 11.84375 -22.390625 "/></g></g><g transform="translate(428.06137, 684.509986)"><g><path d="M 8.375 -19.3125 C 8.945312 -19.875 9.503906 -20.15625 10.046875 -20.15625 L 10.84375 -20.15625 C 11.445312 -20.15625 11.75 -19.863281 11.75 -19.28125 L 11.75 0.96875 C 11.75 1.570312 11.457031 1.875 10.875 1.875 L 8.875 1.875 C 8.269531 1.875 7.96875 1.582031 7.96875 1 L 7.96875 -13.796875 C 7.96875 -14.285156 7.664062 -14.328125 7.0625 -13.921875 C 6.5 -13.585938 5.921875 -13.300781 5.328125 -13.0625 C 4.742188 -12.832031 4.453125 -13.007812 4.453125 -13.59375 L 4.453125 -15.875 C 4.453125 -16.46875 4.742188 -16.921875 5.328125 -17.234375 C 6.460938 -17.816406 7.476562 -18.507812 8.375 -19.3125 Z M 8.375 -19.3125 "/></g></g><g transform="translate(447.162932, 684.509986)"><g><path d="M 6.328125 -20.09375 C 7.734375 -20.5625 9.21875 -20.707031 10.78125 -20.53125 C 12.5625 -20.363281 14.113281 -19.566406 15.4375 -18.140625 C 16.0625 -17.316406 16.414062 -16.535156 16.5 -15.796875 C 16.84375 -14.078125 16.453125 -12.28125 15.328125 -10.40625 C 13.796875 -7.925781 11.539062 -5.285156 8.5625 -2.484375 C 8.070312 -2.003906 8.070312 -1.765625 8.5625 -1.765625 L 16 -1.765625 C 16.601562 -1.765625 16.90625 -1.46875 16.90625 -0.875 L 16.90625 0.9375 C 16.90625 1.539062 16.613281 1.84375 16.03125 1.84375 L 3.140625 1.84375 C 2.535156 1.84375 2.234375 1.550781 2.234375 0.96875 L 2.234375 -0.53125 C 2.234375 -1.113281 2.523438 -1.679688 3.109375 -2.234375 C 7.710938 -6.328125 10.835938 -9.921875 12.484375 -13.015625 C 12.867188 -14.109375 12.835938 -15.046875 12.390625 -15.828125 C 12.078125 -16.410156 11.539062 -16.800781 10.78125 -17 C 9.726562 -17.1875 8.878906 -17.175781 8.234375 -16.96875 C 7.046875 -16.570312 6.441406 -15.660156 6.421875 -14.234375 C 6.421875 -13.535156 6.125 -13.1875 5.53125 -13.1875 L 3.375 -13.1875 C 2.78125 -13.1875 2.484375 -13.476562 2.484375 -14.0625 C 2.523438 -15.5625 3.046875 -17.023438 4.046875 -18.453125 C 4.648438 -19.203125 5.410156 -19.75 6.328125 -20.09375 Z M 6.328125 -20.09375 "/></g></g><g transform="translate(466.264494, 684.509986)"><g><path d="M 11.84375 -22.390625 C 12.09375 -23.023438 12.507812 -23.34375 13.09375 -23.34375 L 14.53125 -23.34375 C 15.113281 -23.34375 15.300781 -23.050781 15.09375 -22.46875 L 4.59375 4.1875 C 4.320312 4.832031 3.894531 5.15625 3.3125 5.15625 L 1.875 5.15625 C 1.289062 5.15625 1.113281 4.863281 1.34375 4.28125 Z M 11.84375 -22.390625 "/></g></g><g transform="translate(482.201993, 684.509986)"><g><path d="M 3.90625 -18.84375 C 5.851562 -20.34375 8.125 -20.90625 10.71875 -20.53125 C 15.21875 -19.90625 17.378906 -17.640625 17.203125 -13.734375 C 17.222656 -12.722656 16.65625 -11.59375 15.5 -10.34375 C 14.96875 -9.9375 14.988281 -9.488281 15.5625 -9 C 16.300781 -8.332031 16.804688 -7.628906 17.078125 -6.890625 C 18.210938 -3.941406 17.429688 -1.367188 14.734375 0.828125 C 12.335938 2.265625 9.703125 2.660156 6.828125 2.015625 C 3.628906 1.160156 1.921875 -0.859375 1.703125 -4.046875 C 1.660156 -4.785156 1.929688 -5.15625 2.515625 -5.15625 L 4.65625 -5.15625 C 5.25 -5.15625 5.582031 -4.863281 5.65625 -4.28125 C 6.1875 -1.644531 8.015625 -0.726562 11.140625 -1.53125 C 13.191406 -2.3125 13.960938 -3.71875 13.453125 -5.75 C 13.023438 -6.695312 12.359375 -7.289062 11.453125 -7.53125 C 10.484375 -7.820312 9.476562 -7.921875 8.4375 -7.828125 C 7.832031 -7.742188 7.53125 -7.992188 7.53125 -8.578125 L 7.53125 -10.578125 C 7.53125 -11.160156 7.820312 -11.429688 8.40625 -11.390625 C 9.425781 -11.273438 10.335938 -11.351562 11.140625 -11.625 C 12.078125 -11.863281 12.75 -12.441406 13.15625 -13.359375 C 13.71875 -15.273438 12.890625 -16.488281 10.671875 -17 C 9.578125 -17.164062 8.640625 -17.132812 7.859375 -16.90625 C 6.765625 -16.550781 6.140625 -15.726562 5.984375 -14.4375 C 5.878906 -13.851562 5.535156 -13.5625 4.953125 -13.5625 L 2.90625 -13.5625 C 2.320312 -13.5625 2.03125 -13.851562 2.03125 -14.4375 C 2.101562 -16.101562 2.726562 -17.570312 3.90625 -18.84375 Z M 3.90625 -18.84375 "/></g></g></g><g fill="#000000" fill-opacity="1"><g transform="translate(516.353188, 684.509986)"><g><path d="M 6.328125 -20.09375 C 7.734375 -20.5625 9.21875 -20.707031 10.78125 -20.53125 C 12.5625 -20.363281 14.113281 -19.566406 15.4375 -18.140625 C 16.0625 -17.316406 16.414062 -16.535156 16.5 -15.796875 C 16.84375 -14.078125 16.453125 -12.28125 15.328125 -10.40625 C 13.796875 -7.925781 11.539062 -5.285156 8.5625 -2.484375 C 8.070312 -2.003906 8.070312 -1.765625 8.5625 -1.765625 L 16 -1.765625 C 16.601562 -1.765625 16.90625 -1.46875 16.90625 -0.875 L 16.90625 0.9375 C 16.90625 1.539062 16.613281 1.84375 16.03125 1.84375 L 3.140625 1.84375 C 2.535156 1.84375 2.234375 1.550781 2.234375 0.96875 L 2.234375 -0.53125 C 2.234375 -1.113281 2.523438 -1.679688 3.109375 -2.234375 C 7.710938 -6.328125 10.835938 -9.921875 12.484375 -13.015625 C 12.867188 -14.109375 12.835938 -15.046875 12.390625 -15.828125 C 12.078125 -16.410156 11.539062 -16.800781 10.78125 -17 C 9.726562 -17.1875 8.878906 -17.175781 8.234375 -16.96875 C 7.046875 -16.570312 6.441406 -15.660156 6.421875 -14.234375 C 6.421875 -13.535156 6.125 -13.1875 5.53125 -13.1875 L 3.375 -13.1875 C 2.78125 -13.1875 2.484375 -13.476562 2.484375 -14.0625 C 2.523438 -15.5625 3.046875 -17.023438 4.046875 -18.453125 C 4.648438 -19.203125 5.410156 -19.75 6.328125 -20.09375 Z M 6.328125 -20.09375 "/></g></g><g transform="translate(535.45475, 684.509986)"><g><path d="M 7.109375 -19.984375 C 9.828125 -20.898438 12.359375 -20.800781 14.703125 -19.6875 C 15.710938 -19.039062 16.382812 -18.347656 16.71875 -17.609375 C 17.164062 -16.742188 17.429688 -15.835938 17.515625 -14.890625 C 17.554688 -14.242188 17.300781 -13.921875 16.75 -13.921875 L 14.640625 -13.921875 C 14.054688 -13.921875 13.71875 -14.210938 13.625 -14.796875 C 13.113281 -16.734375 11.785156 -17.484375 9.640625 -17.046875 C 8.835938 -16.929688 8.082031 -16.425781 7.375 -15.53125 C 6.90625 -14.882812 6.515625 -13.925781 6.203125 -12.65625 C 6.109375 -12.144531 6.351562 -12.054688 6.9375 -12.390625 C 8.269531 -13.078125 9.84375 -13.332031 11.65625 -13.15625 C 14.488281 -12.820312 16.421875 -11.203125 17.453125 -8.296875 C 17.921875 -6.867188 17.960938 -5.117188 17.578125 -3.046875 C 17.023438 -1.148438 15.929688 0.3125 14.296875 1.34375 C 12.203125 2.519531 9.691406 2.597656 6.765625 1.578125 C 5.941406 1.234375 5.160156 0.660156 4.421875 -0.140625 C 3.347656 -1.546875 2.632812 -3.109375 2.28125 -4.828125 C 1.8125 -7.941406 1.898438 -10.882812 2.546875 -13.65625 C 3.054688 -16.539062 4.578125 -18.648438 7.109375 -19.984375 Z M 9.890625 -9.734375 C 8.878906 -9.628906 8.019531 -9.175781 7.3125 -8.375 C 6.125 -6.78125 5.882812 -5.179688 6.59375 -3.578125 C 7.644531 -1.679688 9.085938 -0.921875 10.921875 -1.296875 C 12.753906 -1.859375 13.769531 -3.035156 13.96875 -4.828125 C 14.0625 -5.847656 13.894531 -6.816406 13.46875 -7.734375 C 12.632812 -9.296875 11.441406 -9.960938 9.890625 -9.734375 Z M 9.890625 -9.734375 "/></g></g><g transform="translate(554.556311, 684.509986)"><g><path d="M 11.84375 -22.390625 C 12.09375 -23.023438 12.507812 -23.34375 13.09375 -23.34375 L 14.53125 -23.34375 C 15.113281 -23.34375 15.300781 -23.050781 15.09375 -22.46875 L 4.59375 4.1875 C 4.320312 4.832031 3.894531 5.15625 3.3125 5.15625 L 1.875 5.15625 C 1.289062 5.15625 1.113281 4.863281 1.34375 4.28125 Z M 11.84375 -22.390625 "/></g></g><g transform="translate(570.493811, 684.509986)"><g><path d="M 7.140625 -20.046875 C 8.335938 -20.515625 9.570312 -20.695312 10.84375 -20.59375 C 11.738281 -20.5 12.519531 -20.320312 13.1875 -20.0625 C 15.375 -19.070312 16.828125 -17.375 17.546875 -14.96875 C 18.484375 -11.457031 18.597656 -8.007812 17.890625 -4.625 C 17.546875 -2.875 16.84375 -1.351562 15.78125 -0.0625 C 13.769531 1.9375 11.457031 2.691406 8.84375 2.203125 C 7.082031 2.046875 5.5625 1.15625 4.28125 -0.46875 C 3.320312 -1.832031 2.6875 -3.394531 2.375 -5.15625 C 1.6875 -9.0625 1.976562 -12.695312 3.25 -16.0625 C 3.875 -17.738281 5.171875 -19.066406 7.140625 -20.046875 Z M 9.8125 -17.203125 C 8.382812 -17.046875 7.347656 -16.144531 6.703125 -14.5 C 5.847656 -11.789062 5.691406 -8.765625 6.234375 -5.421875 C 7.015625 -1.867188 8.851562 -0.570312 11.75 -1.53125 C 12.757812 -2.113281 13.382812 -2.804688 13.625 -3.609375 C 14.125 -4.796875 14.40625 -6.296875 14.46875 -8.109375 C 14.582031 -10.472656 14.347656 -12.523438 13.765625 -14.265625 C 12.984375 -16.410156 11.664062 -17.390625 9.8125 -17.203125 Z M 9.8125 -17.203125 "/></g></g><g transform="translate(589.595372, 684.509986)"><g><path d="M 8.375 -19.3125 C 8.945312 -19.875 9.503906 -20.15625 10.046875 -20.15625 L 10.84375 -20.15625 C 11.445312 -20.15625 11.75 -19.863281 11.75 -19.28125 L 11.75 0.96875 C 11.75 1.570312 11.457031 1.875 10.875 1.875 L 8.875 1.875 C 8.269531 1.875 7.96875 1.582031 7.96875 1 L 7.96875 -13.796875 C 7.96875 -14.285156 7.664062 -14.328125 7.0625 -13.921875 C 6.5 -13.585938 5.921875 -13.300781 5.328125 -13.0625 C 4.742188 -12.832031 4.453125 -13.007812 4.453125 -13.59375 L 4.453125 -15.875 C 4.453125 -16.46875 4.742188 -16.921875 5.328125 -17.234375 C 6.460938 -17.816406 7.476562 -18.507812 8.375 -19.3125 Z M 8.375 -19.3125 "/></g></g><g transform="translate(608.696934, 684.509986)"><g><path d="M 11.84375 -22.390625 C 12.09375 -23.023438 12.507812 -23.34375 13.09375 -23.34375 L 14.53125 -23.34375 C 15.113281 -23.34375 15.300781 -23.050781 15.09375 -22.46875 L 4.59375 4.1875 C 4.320312 4.832031 3.894531 5.15625 3.3125 5.15625 L 1.875 5.15625 C 1.289062 5.15625 1.113281 4.863281 1.34375 4.28125 Z M 11.84375 -22.390625 "/></g></g><g transform="translate(624.634433, 684.509986)"><g><path d="M 3.90625 -18.84375 C 5.851562 -20.34375 8.125 -20.90625 10.71875 -20.53125 C 15.21875 -19.90625 17.378906 -17.640625 17.203125 -13.734375 C 17.222656 -12.722656 16.65625 -11.59375 15.5 -10.34375 C 14.96875 -9.9375 14.988281 -9.488281 15.5625 -9 C 16.300781 -8.332031 16.804688 -7.628906 17.078125 -6.890625 C 18.210938 -3.941406 17.429688 -1.367188 14.734375 0.828125 C 12.335938 2.265625 9.703125 2.660156 6.828125 2.015625 C 3.628906 1.160156 1.921875 -0.859375 1.703125 -4.046875 C 1.660156 -4.785156 1.929688 -5.15625 2.515625 -5.15625 L 4.65625 -5.15625 C 5.25 -5.15625 5.582031 -4.863281 5.65625 -4.28125 C 6.1875 -1.644531 8.015625 -0.726562 11.140625 -1.53125 C 13.191406 -2.3125 13.960938 -3.71875 13.453125 -5.75 C 13.023438 -6.695312 12.359375 -7.289062 11.453125 -7.53125 C 10.484375 -7.820312 9.476562 -7.921875 8.4375 -7.828125 C 7.832031 -7.742188 7.53125 -7.992188 7.53125 -8.578125 L 7.53125 -10.578125 C 7.53125 -11.160156 7.820312 -11.429688 8.40625 -11.390625 C 9.425781 -11.273438 10.335938 -11.351562 11.140625 -11.625 C 12.078125 -11.863281 12.75 -12.441406 13.15625 -13.359375 C 13.71875 -15.273438 12.890625 -16.488281 10.671875 -17 C 9.578125 -17.164062 8.640625 -17.132812 7.859375 -16.90625 C 6.765625 -16.550781 6.140625 -15.726562 5.984375 -14.4375 C 5.878906 -13.851562 5.535156 -13.5625 4.953125 -13.5625 L 2.90625 -13.5625 C 2.320312 -13.5625 2.03125 -13.851562 2.03125 -14.4375 C 2.101562 -16.101562 2.726562 -17.570312 3.90625 -18.84375 Z M 3.90625 -18.84375 "/></g></g></g><g fill="#000000" fill-opacity="1"><g transform="translate(659.134437, 684.509986)"><g><path d="M 6.328125 -20.09375 C 7.734375 -20.5625 9.21875 -20.707031 10.78125 -20.53125 C 12.5625 -20.363281 14.113281 -19.566406 15.4375 -18.140625 C 16.0625 -17.316406 16.414062 -16.535156 16.5 -15.796875 C 16.84375 -14.078125 16.453125 -12.28125 15.328125 -10.40625 C 13.796875 -7.925781 11.539062 -5.285156 8.5625 -2.484375 C 8.070312 -2.003906 8.070312 -1.765625 8.5625 -1.765625 L 16 -1.765625 C 16.601562 -1.765625 16.90625 -1.46875 16.90625 -0.875 L 16.90625 0.9375 C 16.90625 1.539062 16.613281 1.84375 16.03125 1.84375 L 3.140625 1.84375 C 2.535156 1.84375 2.234375 1.550781 2.234375 0.96875 L 2.234375 -0.53125 C 2.234375 -1.113281 2.523438 -1.679688 3.109375 -2.234375 C 7.710938 -6.328125 10.835938 -9.921875 12.484375 -13.015625 C 12.867188 -14.109375 12.835938 -15.046875 12.390625 -15.828125 C 12.078125 -16.410156 11.539062 -16.800781 10.78125 -17 C 9.726562 -17.1875 8.878906 -17.175781 8.234375 -16.96875 C 7.046875 -16.570312 6.441406 -15.660156 6.421875 -14.234375 C 6.421875 -13.535156 6.125 -13.1875 5.53125 -13.1875 L 3.375 -13.1875 C 2.78125 -13.1875 2.484375 -13.476562 2.484375 -14.0625 C 2.523438 -15.5625 3.046875 -17.023438 4.046875 -18.453125 C 4.648438 -19.203125 5.410156 -19.75 6.328125 -20.09375 Z M 6.328125 -20.09375 "/></g></g><g transform="translate(678.235999, 684.509986)"><g><path d="M 7.109375 -19.984375 C 9.828125 -20.898438 12.359375 -20.800781 14.703125 -19.6875 C 15.710938 -19.039062 16.382812 -18.347656 16.71875 -17.609375 C 17.164062 -16.742188 17.429688 -15.835938 17.515625 -14.890625 C 17.554688 -14.242188 17.300781 -13.921875 16.75 -13.921875 L 14.640625 -13.921875 C 14.054688 -13.921875 13.71875 -14.210938 13.625 -14.796875 C 13.113281 -16.734375 11.785156 -17.484375 9.640625 -17.046875 C 8.835938 -16.929688 8.082031 -16.425781 7.375 -15.53125 C 6.90625 -14.882812 6.515625 -13.925781 6.203125 -12.65625 C 6.109375 -12.144531 6.351562 -12.054688 6.9375 -12.390625 C 8.269531 -13.078125 9.84375 -13.332031 11.65625 -13.15625 C 14.488281 -12.820312 16.421875 -11.203125 17.453125 -8.296875 C 17.921875 -6.867188 17.960938 -5.117188 17.578125 -3.046875 C 17.023438 -1.148438 15.929688 0.3125 14.296875 1.34375 C 12.203125 2.519531 9.691406 2.597656 6.765625 1.578125 C 5.941406 1.234375 5.160156 0.660156 4.421875 -0.140625 C 3.347656 -1.546875 2.632812 -3.109375 2.28125 -4.828125 C 1.8125 -7.941406 1.898438 -10.882812 2.546875 -13.65625 C 3.054688 -16.539062 4.578125 -18.648438 7.109375 -19.984375 Z M 9.890625 -9.734375 C 8.878906 -9.628906 8.019531 -9.175781 7.3125 -8.375 C 6.125 -6.78125 5.882812 -5.179688 6.59375 -3.578125 C 7.644531 -1.679688 9.085938 -0.921875 10.921875 -1.296875 C 12.753906 -1.859375 13.769531 -3.035156 13.96875 -4.828125 C 14.0625 -5.847656 13.894531 -6.816406 13.46875 -7.734375 C 12.632812 -9.296875 11.441406 -9.960938 9.890625 -9.734375 Z M 9.890625 -9.734375 "/></g></g><g transform="translate(697.33756, 684.509986)"><g><path d="M 11.84375 -22.390625 C 12.09375 -23.023438 12.507812 -23.34375 13.09375 -23.34375 L 14.53125 -23.34375 C 15.113281 -23.34375 15.300781 -23.050781 15.09375 -22.46875 L 4.59375 4.1875 C 4.320312 4.832031 3.894531 5.15625 3.3125 5.15625 L 1.875 5.15625 C 1.289062 5.15625 1.113281 4.863281 1.34375 4.28125 Z M 11.84375 -22.390625 "/></g></g><g transform="translate(713.275059, 684.509986)"><g><path d="M 7.140625 -20.046875 C 8.335938 -20.515625 9.570312 -20.695312 10.84375 -20.59375 C 11.738281 -20.5 12.519531 -20.320312 13.1875 -20.0625 C 15.375 -19.070312 16.828125 -17.375 17.546875 -14.96875 C 18.484375 -11.457031 18.597656 -8.007812 17.890625 -4.625 C 17.546875 -2.875 16.84375 -1.351562 15.78125 -0.0625 C 13.769531 1.9375 11.457031 2.691406 8.84375 2.203125 C 7.082031 2.046875 5.5625 1.15625 4.28125 -0.46875 C 3.320312 -1.832031 2.6875 -3.394531 2.375 -5.15625 C 1.6875 -9.0625 1.976562 -12.695312 3.25 -16.0625 C 3.875 -17.738281 5.171875 -19.066406 7.140625 -20.046875 Z M 9.8125 -17.203125 C 8.382812 -17.046875 7.347656 -16.144531 6.703125 -14.5 C 5.847656 -11.789062 5.691406 -8.765625 6.234375 -5.421875 C 7.015625 -1.867188 8.851562 -0.570312 11.75 -1.53125 C 12.757812 -2.113281 13.382812 -2.804688 13.625 -3.609375 C 14.125 -4.796875 14.40625 -6.296875 14.46875 -8.109375 C 14.582031 -10.472656 14.347656 -12.523438 13.765625 -14.265625 C 12.984375 -16.410156 11.664062 -17.390625 9.8125 -17.203125 Z M 9.8125 -17.203125 "/></g></g><g transform="translate(732.376621, 684.509986)"><g><path d="M 6.328125 -20.09375 C 7.734375 -20.5625 9.21875 -20.707031 10.78125 -20.53125 C 12.5625 -20.363281 14.113281 -19.566406 15.4375 -18.140625 C 16.0625 -17.316406 16.414062 -16.535156 16.5 -15.796875 C 16.84375 -14.078125 16.453125 -12.28125 15.328125 -10.40625 C 13.796875 -7.925781 11.539062 -5.285156 8.5625 -2.484375 C 8.070312 -2.003906 8.070312 -1.765625 8.5625 -1.765625 L 16 -1.765625 C 16.601562 -1.765625 16.90625 -1.46875 16.90625 -0.875 L 16.90625 0.9375 C 16.90625 1.539062 16.613281 1.84375 16.03125 1.84375 L 3.140625 1.84375 C 2.535156 1.84375 2.234375 1.550781 2.234375 0.96875 L 2.234375 -0.53125 C 2.234375 -1.113281 2.523438 -1.679688 3.109375 -2.234375 C 7.710938 -6.328125 10.835938 -9.921875 12.484375 -13.015625 C 12.867188 -14.109375 12.835938 -15.046875 12.390625 -15.828125 C 12.078125 -16.410156 11.539062 -16.800781 10.78125 -17 C 9.726562 -17.1875 8.878906 -17.175781 8.234375 -16.96875 C 7.046875 -16.570312 6.441406 -15.660156 6.421875 -14.234375 C 6.421875 -13.535156 6.125 -13.1875 5.53125 -13.1875 L 3.375 -13.1875 C 2.78125 -13.1875 2.484375 -13.476562 2.484375 -14.0625 C 2.523438 -15.5625 3.046875 -17.023438 4.046875 -18.453125 C 4.648438 -19.203125 5.410156 -19.75 6.328125 -20.09375 Z M 6.328125 -20.09375 "/></g></g><g transform="translate(751.478182, 684.509986)"><g><path d="M 11.84375 -22.390625 C 12.09375 -23.023438 12.507812 -23.34375 13.09375 -23.34375 L 14.53125 -23.34375 C 15.113281 -23.34375 15.300781 -23.050781 15.09375 -22.46875 L 4.59375 4.1875 C 4.320312 4.832031 3.894531 5.15625 3.3125 5.15625 L 1.875 5.15625 C 1.289062 5.15625 1.113281 4.863281 1.34375 4.28125 Z M 11.84375 -22.390625 "/></g></g><g transform="translate(767.415682, 684.509986)"><g><path d="M 3.90625 -18.84375 C 5.851562 -20.34375 8.125 -20.90625 10.71875 -20.53125 C 15.21875 -19.90625 17.378906 -17.640625 17.203125 -13.734375 C 17.222656 -12.722656 16.65625 -11.59375 15.5 -10.34375 C 14.96875 -9.9375 14.988281 -9.488281 15.5625 -9 C 16.300781 -8.332031 16.804688 -7.628906 17.078125 -6.890625 C 18.210938 -3.941406 17.429688 -1.367188 14.734375 0.828125 C 12.335938 2.265625 9.703125 2.660156 6.828125 2.015625 C 3.628906 1.160156 1.921875 -0.859375 1.703125 -4.046875 C 1.660156 -4.785156 1.929688 -5.15625 2.515625 -5.15625 L 4.65625 -5.15625 C 5.25 -5.15625 5.582031 -4.863281 5.65625 -4.28125 C 6.1875 -1.644531 8.015625 -0.726562 11.140625 -1.53125 C 13.191406 -2.3125 13.960938 -3.71875 13.453125 -5.75 C 13.023438 -6.695312 12.359375 -7.289062 11.453125 -7.53125 C 10.484375 -7.820312 9.476562 -7.921875 8.4375 -7.828125 C 7.832031 -7.742188 7.53125 -7.992188 7.53125 -8.578125 L 7.53125 -10.578125 C 7.53125 -11.160156 7.820312 -11.429688 8.40625 -11.390625 C 9.425781 -11.273438 10.335938 -11.351562 11.140625 -11.625 C 12.078125 -11.863281 12.75 -12.441406 13.15625 -13.359375 C 13.71875 -15.273438 12.890625 -16.488281 10.671875 -17 C 9.578125 -17.164062 8.640625 -17.132812 7.859375 -16.90625 C 6.765625 -16.550781 6.140625 -15.726562 5.984375 -14.4375 C 5.878906 -13.851562 5.535156 -13.5625 4.953125 -13.5625 L 2.90625 -13.5625 C 2.320312 -13.5625 2.03125 -13.851562 2.03125 -14.4375 C 2.101562 -16.101562 2.726562 -17.570312 3.90625 -18.84375 Z M 3.90625 -18.84375 "/></g></g></g><g fill="#000000" fill-opacity="1"><g transform="translate(801.915662, 684.509986)"><g><path d="M 6.328125 -20.09375 C 7.734375 -20.5625 9.21875 -20.707031 10.78125 -20.53125 C 12.5625 -20.363281 14.113281 -19.566406 15.4375 -18.140625 C 16.0625 -17.316406 16.414062 -16.535156 16.5 -15.796875 C 16.84375 -14.078125 16.453125 -12.28125 15.328125 -10.40625 C 13.796875 -7.925781 11.539062 -5.285156 8.5625 -2.484375 C 8.070312 -2.003906 8.070312 -1.765625 8.5625 -1.765625 L 16 -1.765625 C 16.601562 -1.765625 16.90625 -1.46875 16.90625 -0.875 L 16.90625 0.9375 C 16.90625 1.539062 16.613281 1.84375 16.03125 1.84375 L 3.140625 1.84375 C 2.535156 1.84375 2.234375 1.550781 2.234375 0.96875 L 2.234375 -0.53125 C 2.234375 -1.113281 2.523438 -1.679688 3.109375 -2.234375 C 7.710938 -6.328125 10.835938 -9.921875 12.484375 -13.015625 C 12.867188 -14.109375 12.835938 -15.046875 12.390625 -15.828125 C 12.078125 -16.410156 11.539062 -16.800781 10.78125 -17 C 9.726562 -17.1875 8.878906 -17.175781 8.234375 -16.96875 C 7.046875 -16.570312 6.441406 -15.660156 6.421875 -14.234375 C 6.421875 -13.535156 6.125 -13.1875 5.53125 -13.1875 L 3.375 -13.1875 C 2.78125 -13.1875 2.484375 -13.476562 2.484375 -14.0625 C 2.523438 -15.5625 3.046875 -17.023438 4.046875 -18.453125 C 4.648438 -19.203125 5.410156 -19.75 6.328125 -20.09375 Z M 6.328125 -20.09375 "/></g></g><g transform="translate(821.017223, 684.509986)"><g><path d="M 7.109375 -19.984375 C 9.828125 -20.898438 12.359375 -20.800781 14.703125 -19.6875 C 15.710938 -19.039062 16.382812 -18.347656 16.71875 -17.609375 C 17.164062 -16.742188 17.429688 -15.835938 17.515625 -14.890625 C 17.554688 -14.242188 17.300781 -13.921875 16.75 -13.921875 L 14.640625 -13.921875 C 14.054688 -13.921875 13.71875 -14.210938 13.625 -14.796875 C 13.113281 -16.734375 11.785156 -17.484375 9.640625 -17.046875 C 8.835938 -16.929688 8.082031 -16.425781 7.375 -15.53125 C 6.90625 -14.882812 6.515625 -13.925781 6.203125 -12.65625 C 6.109375 -12.144531 6.351562 -12.054688 6.9375 -12.390625 C 8.269531 -13.078125 9.84375 -13.332031 11.65625 -13.15625 C 14.488281 -12.820312 16.421875 -11.203125 17.453125 -8.296875 C 17.921875 -6.867188 17.960938 -5.117188 17.578125 -3.046875 C 17.023438 -1.148438 15.929688 0.3125 14.296875 1.34375 C 12.203125 2.519531 9.691406 2.597656 6.765625 1.578125 C 5.941406 1.234375 5.160156 0.660156 4.421875 -0.140625 C 3.347656 -1.546875 2.632812 -3.109375 2.28125 -4.828125 C 1.8125 -7.941406 1.898438 -10.882812 2.546875 -13.65625 C 3.054688 -16.539062 4.578125 -18.648438 7.109375 -19.984375 Z M 9.890625 -9.734375 C 8.878906 -9.628906 8.019531 -9.175781 7.3125 -8.375 C 6.125 -6.78125 5.882812 -5.179688 6.59375 -3.578125 C 7.644531 -1.679688 9.085938 -0.921875 10.921875 -1.296875 C 12.753906 -1.859375 13.769531 -3.035156 13.96875 -4.828125 C 14.0625 -5.847656 13.894531 -6.816406 13.46875 -7.734375 C 12.632812 -9.296875 11.441406 -9.960938 9.890625 -9.734375 Z M 9.890625 -9.734375 "/></g></g><g transform="translate(840.118785, 684.509986)"><g><path d="M 11.84375 -22.390625 C 12.09375 -23.023438 12.507812 -23.34375 13.09375 -23.34375 L 14.53125 -23.34375 C 15.113281 -23.34375 15.300781 -23.050781 15.09375 -22.46875 L 4.59375 4.1875 C 4.320312 4.832031 3.894531 5.15625 3.3125 5.15625 L 1.875 5.15625 C 1.289062 5.15625 1.113281 4.863281 1.34375 4.28125 Z M 11.84375 -22.390625 "/></g></g><g transform="translate(856.056284, 684.509986)"><g><path d="M 7.140625 -20.046875 C 8.335938 -20.515625 9.570312 -20.695312 10.84375 -20.59375 C 11.738281 -20.5 12.519531 -20.320312 13.1875 -20.0625 C 15.375 -19.070312 16.828125 -17.375 17.546875 -14.96875 C 18.484375 -11.457031 18.597656 -8.007812 17.890625 -4.625 C 17.546875 -2.875 16.84375 -1.351562 15.78125 -0.0625 C 13.769531 1.9375 11.457031 2.691406 8.84375 2.203125 C 7.082031 2.046875 5.5625 1.15625 4.28125 -0.46875 C 3.320312 -1.832031 2.6875 -3.394531 2.375 -5.15625 C 1.6875 -9.0625 1.976562 -12.695312 3.25 -16.0625 C 3.875 -17.738281 5.171875 -19.066406 7.140625 -20.046875 Z M 9.8125 -17.203125 C 8.382812 -17.046875 7.347656 -16.144531 6.703125 -14.5 C 5.847656 -11.789062 5.691406 -8.765625 6.234375 -5.421875 C 7.015625 -1.867188 8.851562 -0.570312 11.75 -1.53125 C 12.757812 -2.113281 13.382812 -2.804688 13.625 -3.609375 C 14.125 -4.796875 14.40625 -6.296875 14.46875 -8.109375 C 14.582031 -10.472656 14.347656 -12.523438 13.765625 -14.265625 C 12.984375 -16.410156 11.664062 -17.390625 9.8125 -17.203125 Z M 9.8125 -17.203125 "/></g></g><g transform="translate(875.157846, 684.509986)"><g><path d="M 3.90625 -18.84375 C 5.851562 -20.34375 8.125 -20.90625 10.71875 -20.53125 C 15.21875 -19.90625 17.378906 -17.640625 17.203125 -13.734375 C 17.222656 -12.722656 16.65625 -11.59375 15.5 -10.34375 C 14.96875 -9.9375 14.988281 -9.488281 15.5625 -9 C 16.300781 -8.332031 16.804688 -7.628906 17.078125 -6.890625 C 18.210938 -3.941406 17.429688 -1.367188 14.734375 0.828125 C 12.335938 2.265625 9.703125 2.660156 6.828125 2.015625 C 3.628906 1.160156 1.921875 -0.859375 1.703125 -4.046875 C 1.660156 -4.785156 1.929688 -5.15625 2.515625 -5.15625 L 4.65625 -5.15625 C 5.25 -5.15625 5.582031 -4.863281 5.65625 -4.28125 C 6.1875 -1.644531 8.015625 -0.726562 11.140625 -1.53125 C 13.191406 -2.3125 13.960938 -3.71875 13.453125 -5.75 C 13.023438 -6.695312 12.359375 -7.289062 11.453125 -7.53125 C 10.484375 -7.820312 9.476562 -7.921875 8.4375 -7.828125 C 7.832031 -7.742188 7.53125 -7.992188 7.53125 -8.578125 L 7.53125 -10.578125 C 7.53125 -11.160156 7.820312 -11.429688 8.40625 -11.390625 C 9.425781 -11.273438 10.335938 -11.351562 11.140625 -11.625 C 12.078125 -11.863281 12.75 -12.441406 13.15625 -13.359375 C 13.71875 -15.273438 12.890625 -16.488281 10.671875 -17 C 9.578125 -17.164062 8.640625 -17.132812 7.859375 -16.90625 C 6.765625 -16.550781 6.140625 -15.726562 5.984375 -14.4375 C 5.878906 -13.851562 5.535156 -13.5625 4.953125 -13.5625 L 2.90625 -13.5625 C 2.320312 -13.5625 2.03125 -13.851562 2.03125 -14.4375 C 2.101562 -16.101562 2.726562 -17.570312 3.90625 -18.84375 Z M 3.90625 -18.84375 "/></g></g><g transform="translate(894.259407, 684.509986)"><g><path d="M 11.84375 -22.390625 C 12.09375 -23.023438 12.507812 -23.34375 13.09375 -23.34375 L 14.53125 -23.34375 C 15.113281 -23.34375 15.300781 -23.050781 15.09375 -22.46875 L 4.59375 4.1875 C 4.320312 4.832031 3.894531 5.15625 3.3125 5.15625 L 1.875 5.15625 C 1.289062 5.15625 1.113281 4.863281 1.34375 4.28125 Z M 11.84375 -22.390625 "/></g></g><g transform="translate(910.196906, 684.509986)"><g><path d="M 3.90625 -18.84375 C 5.851562 -20.34375 8.125 -20.90625 10.71875 -20.53125 C 15.21875 -19.90625 17.378906 -17.640625 17.203125 -13.734375 C 17.222656 -12.722656 16.65625 -11.59375 15.5 -10.34375 C 14.96875 -9.9375 14.988281 -9.488281 15.5625 -9 C 16.300781 -8.332031 16.804688 -7.628906 17.078125 -6.890625 C 18.210938 -3.941406 17.429688 -1.367188 14.734375 0.828125 C 12.335938 2.265625 9.703125 2.660156 6.828125 2.015625 C 3.628906 1.160156 1.921875 -0.859375 1.703125 -4.046875 C 1.660156 -4.785156 1.929688 -5.15625 2.515625 -5.15625 L 4.65625 -5.15625 C 5.25 -5.15625 5.582031 -4.863281 5.65625 -4.28125 C 6.1875 -1.644531 8.015625 -0.726562 11.140625 -1.53125 C 13.191406 -2.3125 13.960938 -3.71875 13.453125 -5.75 C 13.023438 -6.695312 12.359375 -7.289062 11.453125 -7.53125 C 10.484375 -7.820312 9.476562 -7.921875 8.4375 -7.828125 C 7.832031 -7.742188 7.53125 -7.992188 7.53125 -8.578125 L 7.53125 -10.578125 C 7.53125 -11.160156 7.820312 -11.429688 8.40625 -11.390625 C 9.425781 -11.273438 10.335938 -11.351562 11.140625 -11.625 C 12.078125 -11.863281 12.75 -12.441406 13.15625 -13.359375 C 13.71875 -15.273438 12.890625 -16.488281 10.671875 -17 C 9.578125 -17.164062 8.640625 -17.132812 7.859375 -16.90625 C 6.765625 -16.550781 6.140625 -15.726562 5.984375 -14.4375 C 5.878906 -13.851562 5.535156 -13.5625 4.953125 -13.5625 L 2.90625 -13.5625 C 2.320312 -13.5625 2.03125 -13.851562 2.03125 -14.4375 C 2.101562 -16.101562 2.726562 -17.570312 3.90625 -18.84375 Z M 3.90625 -18.84375 "/></g></g></g><g fill="#000000" fill-opacity="1"><g transform="translate(944.696911, 684.509986)"><g><path d="M 6.328125 -20.09375 C 7.734375 -20.5625 9.21875 -20.707031 10.78125 -20.53125 C 12.5625 -20.363281 14.113281 -19.566406 15.4375 -18.140625 C 16.0625 -17.316406 16.414062 -16.535156 16.5 -15.796875 C 16.84375 -14.078125 16.453125 -12.28125 15.328125 -10.40625 C 13.796875 -7.925781 11.539062 -5.285156 8.5625 -2.484375 C 8.070312 -2.003906 8.070312 -1.765625 8.5625 -1.765625 L 16 -1.765625 C 16.601562 -1.765625 16.90625 -1.46875 16.90625 -0.875 L 16.90625 0.9375 C 16.90625 1.539062 16.613281 1.84375 16.03125 1.84375 L 3.140625 1.84375 C 2.535156 1.84375 2.234375 1.550781 2.234375 0.96875 L 2.234375 -0.53125 C 2.234375 -1.113281 2.523438 -1.679688 3.109375 -2.234375 C 7.710938 -6.328125 10.835938 -9.921875 12.484375 -13.015625 C 12.867188 -14.109375 12.835938 -15.046875 12.390625 -15.828125 C 12.078125 -16.410156 11.539062 -16.800781 10.78125 -17 C 9.726562 -17.1875 8.878906 -17.175781 8.234375 -16.96875 C 7.046875 -16.570312 6.441406 -15.660156 6.421875 -14.234375 C 6.421875 -13.535156 6.125 -13.1875 5.53125 -13.1875 L 3.375 -13.1875 C 2.78125 -13.1875 2.484375 -13.476562 2.484375 -14.0625 C 2.523438 -15.5625 3.046875 -17.023438 4.046875 -18.453125 C 4.648438 -19.203125 5.410156 -19.75 6.328125 -20.09375 Z M 6.328125 -20.09375 "/></g></g><g transform="translate(963.798472, 684.509986)"><g><path d="M 7.109375 -19.984375 C 9.828125 -20.898438 12.359375 -20.800781 14.703125 -19.6875 C 15.710938 -19.039062 16.382812 -18.347656 16.71875 -17.609375 C 17.164062 -16.742188 17.429688 -15.835938 17.515625 -14.890625 C 17.554688 -14.242188 17.300781 -13.921875 16.75 -13.921875 L 14.640625 -13.921875 C 14.054688 -13.921875 13.71875 -14.210938 13.625 -14.796875 C 13.113281 -16.734375 11.785156 -17.484375 9.640625 -17.046875 C 8.835938 -16.929688 8.082031 -16.425781 7.375 -15.53125 C 6.90625 -14.882812 6.515625 -13.925781 6.203125 -12.65625 C 6.109375 -12.144531 6.351562 -12.054688 6.9375 -12.390625 C 8.269531 -13.078125 9.84375 -13.332031 11.65625 -13.15625 C 14.488281 -12.820312 16.421875 -11.203125 17.453125 -8.296875 C 17.921875 -6.867188 17.960938 -5.117188 17.578125 -3.046875 C 17.023438 -1.148438 15.929688 0.3125 14.296875 1.34375 C 12.203125 2.519531 9.691406 2.597656 6.765625 1.578125 C 5.941406 1.234375 5.160156 0.660156 4.421875 -0.140625 C 3.347656 -1.546875 2.632812 -3.109375 2.28125 -4.828125 C 1.8125 -7.941406 1.898438 -10.882812 2.546875 -13.65625 C 3.054688 -16.539062 4.578125 -18.648438 7.109375 -19.984375 Z M 9.890625 -9.734375 C 8.878906 -9.628906 8.019531 -9.175781 7.3125 -8.375 C 6.125 -6.78125 5.882812 -5.179688 6.59375 -3.578125 C 7.644531 -1.679688 9.085938 -0.921875 10.921875 -1.296875 C 12.753906 -1.859375 13.769531 -3.035156 13.96875 -4.828125 C 14.0625 -5.847656 13.894531 -6.816406 13.46875 -7.734375 C 12.632812 -9.296875 11.441406 -9.960938 9.890625 -9.734375 Z M 9.890625 -9.734375 "/></g></g><g transform="translate(982.900034, 684.509986)"><g><path d="M 11.84375 -22.390625 C 12.09375 -23.023438 12.507812 -23.34375 13.09375 -23.34375 L 14.53125 -23.34375 C 15.113281 -23.34375 15.300781 -23.050781 15.09375 -22.46875 L 4.59375 4.1875 C 4.320312 4.832031 3.894531 5.15625 3.3125 5.15625 L 1.875 5.15625 C 1.289062 5.15625 1.113281 4.863281 1.34375 4.28125 Z M 11.84375 -22.390625 "/></g></g><g transform="translate(998.837533, 684.509986)"><g><path d="M 7.140625 -20.046875 C 8.335938 -20.515625 9.570312 -20.695312 10.84375 -20.59375 C 11.738281 -20.5 12.519531 -20.320312 13.1875 -20.0625 C 15.375 -19.070312 16.828125 -17.375 17.546875 -14.96875 C 18.484375 -11.457031 18.597656 -8.007812 17.890625 -4.625 C 17.546875 -2.875 16.84375 -1.351562 15.78125 -0.0625 C 13.769531 1.9375 11.457031 2.691406 8.84375 2.203125 C 7.082031 2.046875 5.5625 1.15625 4.28125 -0.46875 C 3.320312 -1.832031 2.6875 -3.394531 2.375 -5.15625 C 1.6875 -9.0625 1.976562 -12.695312 3.25 -16.0625 C 3.875 -17.738281 5.171875 -19.066406 7.140625 -20.046875 Z M 9.8125 -17.203125 C 8.382812 -17.046875 7.347656 -16.144531 6.703125 -14.5 C 5.847656 -11.789062 5.691406 -8.765625 6.234375 -5.421875 C 7.015625 -1.867188 8.851562 -0.570312 11.75 -1.53125 C 12.757812 -2.113281 13.382812 -2.804688 13.625 -3.609375 C 14.125 -4.796875 14.40625 -6.296875 14.46875 -8.109375 C 14.582031 -10.472656 14.347656 -12.523438 13.765625 -14.265625 C 12.984375 -16.410156 11.664062 -17.390625 9.8125 -17.203125 Z M 9.8125 -17.203125 "/></g></g><g transform="translate(1017.939095, 684.509986)"><g><path d="M 10.515625 -19.15625 C 10.984375 -19.820312 11.460938 -20.15625 11.953125 -20.15625 L 13.625 -20.15625 C 14.226562 -20.15625 14.53125 -19.863281 14.53125 -19.28125 L 14.53125 -6.890625 C 14.53125 -6.398438 14.765625 -6.15625 15.234375 -6.15625 L 16.96875 -6.15625 C 17.570312 -6.15625 17.875 -5.863281 17.875 -5.28125 L 17.875 -3.6875 C 17.875 -3.082031 17.582031 -2.78125 17 -2.78125 L 15.265625 -2.78125 C 14.773438 -2.78125 14.53125 -2.546875 14.53125 -2.078125 L 14.53125 0.96875 C 14.53125 1.570312 14.238281 1.875 13.65625 1.875 L 11.71875 1.875 C 11.113281 1.875 10.8125 1.582031 10.8125 1 L 10.8125 -2.046875 C 10.8125 -2.535156 10.578125 -2.78125 10.109375 -2.78125 L 2.109375 -2.78125 C 1.503906 -2.78125 1.203125 -3.070312 1.203125 -3.65625 L 1.203125 -4.484375 C 1.203125 -5.066406 1.335938 -5.554688 1.609375 -5.953125 C 4.535156 -10.347656 7.503906 -14.75 10.515625 -19.15625 Z M 10.8125 -12.421875 C 10.8125 -12.953125 10.632812 -12.953125 10.28125 -12.421875 L 6.5 -6.890625 C 6.15625 -6.398438 6.222656 -6.15625 6.703125 -6.15625 L 10.078125 -6.15625 C 10.566406 -6.15625 10.8125 -6.390625 10.8125 -6.859375 Z M 10.8125 -12.421875 "/></g></g><g transform="translate(1037.040656, 684.509986)"><g><path d="M 11.84375 -22.390625 C 12.09375 -23.023438 12.507812 -23.34375 13.09375 -23.34375 L 14.53125 -23.34375 C 15.113281 -23.34375 15.300781 -23.050781 15.09375 -22.46875 L 4.59375 4.1875 C 4.320312 4.832031 3.894531 5.15625 3.3125 5.15625 L 1.875 5.15625 C 1.289062 5.15625 1.113281 4.863281 1.34375 4.28125 Z M 11.84375 -22.390625 "/></g></g><g transform="translate(1052.978155, 684.509986)"><g><path d="M 3.90625 -18.84375 C 5.851562 -20.34375 8.125 -20.90625 10.71875 -20.53125 C 15.21875 -19.90625 17.378906 -17.640625 17.203125 -13.734375 C 17.222656 -12.722656 16.65625 -11.59375 15.5 -10.34375 C 14.96875 -9.9375 14.988281 -9.488281 15.5625 -9 C 16.300781 -8.332031 16.804688 -7.628906 17.078125 -6.890625 C 18.210938 -3.941406 17.429688 -1.367188 14.734375 0.828125 C 12.335938 2.265625 9.703125 2.660156 6.828125 2.015625 C 3.628906 1.160156 1.921875 -0.859375 1.703125 -4.046875 C 1.660156 -4.785156 1.929688 -5.15625 2.515625 -5.15625 L 4.65625 -5.15625 C 5.25 -5.15625 5.582031 -4.863281 5.65625 -4.28125 C 6.1875 -1.644531 8.015625 -0.726562 11.140625 -1.53125 C 13.191406 -2.3125 13.960938 -3.71875 13.453125 -5.75 C 13.023438 -6.695312 12.359375 -7.289062 11.453125 -7.53125 C 10.484375 -7.820312 9.476562 -7.921875 8.4375 -7.828125 C 7.832031 -7.742188 7.53125 -7.992188 7.53125 -8.578125 L 7.53125 -10.578125 C 7.53125 -11.160156 7.820312 -11.429688 8.40625 -11.390625 C 9.425781 -11.273438 10.335938 -11.351562 11.140625 -11.625 C 12.078125 -11.863281 12.75 -12.441406 13.15625 -13.359375 C 13.71875 -15.273438 12.890625 -16.488281 10.671875 -17 C 9.578125 -17.164062 8.640625 -17.132812 7.859375 -16.90625 C 6.765625 -16.550781 6.140625 -15.726562 5.984375 -14.4375 C 5.878906 -13.851562 5.535156 -13.5625 4.953125 -13.5625 L 2.90625 -13.5625 C 2.320312 -13.5625 2.03125 -13.851562 2.03125 -14.4375 C 2.101562 -16.101562 2.726562 -17.570312 3.90625 -18.84375 Z M 3.90625 -18.84375 "/></g></g></g><g fill="#000000" fill-opacity="1"><g transform="translate(411.06476, 122.160278)"><g><path d="M 5.28125 -16.75 C 6.445312 -17.132812 7.679688 -17.253906 8.984375 -17.109375 C 10.460938 -16.960938 11.753906 -16.296875 12.859375 -15.109375 C 13.378906 -14.429688 13.675781 -13.78125 13.75 -13.15625 C 14.039062 -11.726562 13.710938 -10.234375 12.765625 -8.671875 C 11.492188 -6.597656 9.613281 -4.398438 7.125 -2.078125 C 6.71875 -1.671875 6.71875 -1.46875 7.125 -1.46875 L 13.328125 -1.46875 C 13.835938 -1.46875 14.09375 -1.222656 14.09375 -0.734375 L 14.09375 0.78125 C 14.09375 1.28125 13.847656 1.53125 13.359375 1.53125 L 2.609375 1.53125 C 2.109375 1.53125 1.859375 1.289062 1.859375 0.8125 L 1.859375 -0.4375 C 1.859375 -0.925781 2.101562 -1.398438 2.59375 -1.859375 C 6.425781 -5.273438 9.03125 -8.269531 10.40625 -10.84375 C 10.726562 -11.75 10.703125 -12.53125 10.328125 -13.1875 C 10.066406 -13.675781 9.617188 -14 8.984375 -14.15625 C 8.109375 -14.320312 7.398438 -14.316406 6.859375 -14.140625 C 5.867188 -13.804688 5.363281 -13.046875 5.34375 -11.859375 C 5.34375 -11.273438 5.097656 -10.984375 4.609375 -10.984375 L 2.8125 -10.984375 C 2.320312 -10.984375 2.078125 -11.226562 2.078125 -11.71875 C 2.109375 -12.96875 2.539062 -14.1875 3.375 -15.375 C 3.875 -16 4.507812 -16.457031 5.28125 -16.75 Z M 5.28125 -16.75 "/></g></g></g><g fill="#000000" fill-opacity="1"><g transform="translate(426.980241, 122.160278)"><g><path d="M 3.59375 -15.71875 C 5.675781 -17.21875 7.984375 -17.566406 10.515625 -16.765625 C 11.867188 -16.328125 12.960938 -15.304688 13.796875 -13.703125 C 14.847656 -11.015625 15.097656 -7.992188 14.546875 -4.640625 C 14.421875 -3.984375 14.257812 -3.332031 14.0625 -2.6875 C 13.539062 -1.101562 12.601562 0.125 11.25 1 C 10.0625 1.6875 8.585938 1.988281 6.828125 1.90625 C 3.816406 1.789062 2.078125 0.0859375 1.609375 -3.203125 C 1.578125 -3.691406 1.804688 -3.9375 2.296875 -3.9375 L 4.03125 -3.9375 C 4.519531 -3.9375 4.785156 -3.691406 4.828125 -3.203125 C 5.023438 -1.765625 5.785156 -1.039062 7.109375 -1.03125 C 9.453125 -0.75 10.882812 -2.164062 11.40625 -5.28125 C 11.46875 -5.664062 11.253906 -5.738281 10.765625 -5.5 C 8.304688 -4.457031 6.082031 -4.546875 4.09375 -5.765625 C 3.300781 -6.296875 2.734375 -6.890625 2.390625 -7.546875 C 1.660156 -8.710938 1.394531 -10.132812 1.59375 -11.8125 C 1.769531 -13.3125 2.4375 -14.613281 3.59375 -15.71875 Z M 7.609375 -14.265625 C 6.648438 -14.191406 5.863281 -13.691406 5.25 -12.765625 C 4.851562 -12.015625 4.695312 -11.226562 4.78125 -10.40625 C 4.863281 -9.175781 5.566406 -8.300781 6.890625 -7.78125 C 7.628906 -7.601562 8.28125 -7.613281 8.84375 -7.8125 C 10.675781 -8.53125 11.515625 -9.691406 11.359375 -11.296875 C 10.878906 -13.304688 9.628906 -14.296875 7.609375 -14.265625 Z M 7.609375 -14.265625 "/></g></g></g><g fill="#000000" fill-opacity="1"><g transform="translate(442.895722, 122.160278)"><g><path d="M 0.75 -1.609375 C 0.75 -2.117188 0.992188 -2.375 1.484375 -2.375 L 3.78125 -2.375 C 4.289062 -2.375 4.546875 -2.128906 4.546875 -1.640625 L 4.546875 0.6875 C 4.546875 1.1875 4.300781 1.4375 3.8125 1.4375 L 1.484375 1.4375 C 0.992188 1.4375 0.75 1.191406 0.75 0.703125 Z M 0.75 -1.609375 "/></g></g></g><g fill="#000000" fill-opacity="1"><g transform="translate(448.217156, 122.160278)"><g><path d="M 5.953125 -16.703125 C 6.941406 -17.085938 7.96875 -17.238281 9.03125 -17.15625 C 9.78125 -17.082031 10.429688 -16.9375 10.984375 -16.71875 C 12.804688 -15.894531 14.019531 -14.476562 14.625 -12.46875 C 15.40625 -9.539062 15.5 -6.671875 14.90625 -3.859375 C 14.613281 -2.390625 14.03125 -1.117188 13.15625 -0.046875 C 11.476562 1.609375 9.550781 2.234375 7.375 1.828125 C 5.90625 1.703125 4.632812 0.960938 3.5625 -0.390625 C 2.757812 -1.523438 2.226562 -2.828125 1.96875 -4.296875 C 1.40625 -7.554688 1.648438 -10.582031 2.703125 -13.375 C 3.222656 -14.78125 4.304688 -15.890625 5.953125 -16.703125 Z M 8.171875 -14.328125 C 6.984375 -14.203125 6.117188 -13.453125 5.578125 -12.078125 C 4.867188 -9.816406 4.738281 -7.296875 5.1875 -4.515625 C 5.84375 -1.554688 7.375 -0.472656 9.78125 -1.265625 C 10.625 -1.753906 11.144531 -2.332031 11.34375 -3 C 11.769531 -4 12.007812 -5.253906 12.0625 -6.765625 C 12.15625 -8.734375 11.957031 -10.441406 11.46875 -11.890625 C 10.820312 -13.679688 9.722656 -14.492188 8.171875 -14.328125 Z M 8.171875 -14.328125 "/></g></g></g><g fill="#000000" fill-opacity="1"><g transform="translate(553.497162, 180.500005)"><g><path d="M 5.28125 -16.75 C 6.445312 -17.132812 7.679688 -17.253906 8.984375 -17.109375 C 10.460938 -16.960938 11.753906 -16.296875 12.859375 -15.109375 C 13.378906 -14.429688 13.675781 -13.78125 13.75 -13.15625 C 14.039062 -11.726562 13.710938 -10.234375 12.765625 -8.671875 C 11.492188 -6.597656 9.613281 -4.398438 7.125 -2.078125 C 6.71875 -1.671875 6.71875 -1.46875 7.125 -1.46875 L 13.328125 -1.46875 C 13.835938 -1.46875 14.09375 -1.222656 14.09375 -0.734375 L 14.09375 0.78125 C 14.09375 1.28125 13.847656 1.53125 13.359375 1.53125 L 2.609375 1.53125 C 2.109375 1.53125 1.859375 1.289062 1.859375 0.8125 L 1.859375 -0.4375 C 1.859375 -0.925781 2.101562 -1.398438 2.59375 -1.859375 C 6.425781 -5.273438 9.03125 -8.269531 10.40625 -10.84375 C 10.726562 -11.75 10.703125 -12.53125 10.328125 -13.1875 C 10.066406 -13.675781 9.617188 -14 8.984375 -14.15625 C 8.109375 -14.320312 7.398438 -14.316406 6.859375 -14.140625 C 5.867188 -13.804688 5.363281 -13.046875 5.34375 -11.859375 C 5.34375 -11.273438 5.097656 -10.984375 4.609375 -10.984375 L 2.8125 -10.984375 C 2.320312 -10.984375 2.078125 -11.226562 2.078125 -11.71875 C 2.109375 -12.96875 2.539062 -14.1875 3.375 -15.375 C 3.875 -16 4.507812 -16.457031 5.28125 -16.75 Z M 5.28125 -16.75 "/></g></g></g><g fill="#000000" fill-opacity="1"><g transform="translate(569.412643, 180.500005)"><g><path d="M 2.453125 -15.9375 C 2.484375 -16.507812 2.726562 -16.796875 3.1875 -16.796875 L 12.734375 -16.796875 C 13.234375 -16.796875 13.484375 -16.550781 13.484375 -16.0625 L 13.484375 -14.671875 C 13.484375 -14.171875 13.238281 -13.921875 12.75 -13.921875 L 6.0625 -13.921875 C 5.65625 -13.921875 5.453125 -13.722656 5.453125 -13.328125 L 5.375 -10.90625 C 5.375 -10.519531 5.617188 -10.429688 6.109375 -10.640625 C 7.296875 -11.148438 8.710938 -11.191406 10.359375 -10.765625 C 11.835938 -10.304688 12.96875 -9.265625 13.75 -7.640625 C 14.632812 -5.242188 14.546875 -3.070312 13.484375 -1.125 C 12.566406 0.40625 11.328125 1.347656 9.765625 1.703125 C 7.421875 2.179688 5.347656 1.8125 3.546875 0.59375 C 2.503906 -0.382812 1.882812 -1.648438 1.6875 -3.203125 C 1.65625 -3.722656 1.875 -3.984375 2.34375 -3.984375 L 4.140625 -3.984375 C 4.617188 -3.984375 4.910156 -3.738281 5.015625 -3.25 C 5.171875 -2.332031 5.632812 -1.679688 6.40625 -1.296875 C 7.082031 -1.015625 7.867188 -0.960938 8.765625 -1.140625 C 10.148438 -1.628906 10.925781 -2.671875 11.09375 -4.265625 C 11.175781 -5.035156 11.035156 -5.796875 10.671875 -6.546875 C 9.847656 -7.847656 8.601562 -8.296875 6.9375 -7.890625 C 6.320312 -7.722656 5.769531 -7.234375 5.28125 -6.421875 C 5.050781 -5.835938 4.691406 -5.546875 4.203125 -5.546875 L 2.765625 -5.546875 C 2.273438 -5.546875 2.03125 -5.828125 2.03125 -6.390625 Z M 2.453125 -15.9375 "/></g></g></g><g fill="#000000" fill-opacity="1"><g transform="translate(585.328124, 180.500005)"><g><path d="M 0.75 -1.609375 C 0.75 -2.117188 0.992188 -2.375 1.484375 -2.375 L 3.78125 -2.375 C 4.289062 -2.375 4.546875 -2.128906 4.546875 -1.640625 L 4.546875 0.6875 C 4.546875 1.1875 4.300781 1.4375 3.8125 1.4375 L 1.484375 1.4375 C 0.992188 1.4375 0.75 1.191406 0.75 0.703125 Z M 0.75 -1.609375 "/></g></g></g><g fill="#000000" fill-opacity="1"><g transform="translate(590.649557, 180.500005)"><g><path d="M 5.953125 -16.703125 C 6.941406 -17.085938 7.96875 -17.238281 9.03125 -17.15625 C 9.78125 -17.082031 10.429688 -16.9375 10.984375 -16.71875 C 12.804688 -15.894531 14.019531 -14.476562 14.625 -12.46875 C 15.40625 -9.539062 15.5 -6.671875 14.90625 -3.859375 C 14.613281 -2.390625 14.03125 -1.117188 13.15625 -0.046875 C 11.476562 1.609375 9.550781 2.234375 7.375 1.828125 C 5.90625 1.703125 4.632812 0.960938 3.5625 -0.390625 C 2.757812 -1.523438 2.226562 -2.828125 1.96875 -4.296875 C 1.40625 -7.554688 1.648438 -10.582031 2.703125 -13.375 C 3.222656 -14.78125 4.304688 -15.890625 5.953125 -16.703125 Z M 8.171875 -14.328125 C 6.984375 -14.203125 6.117188 -13.453125 5.578125 -12.078125 C 4.867188 -9.816406 4.738281 -7.296875 5.1875 -4.515625 C 5.84375 -1.554688 7.375 -0.472656 9.78125 -1.265625 C 10.625 -1.753906 11.144531 -2.332031 11.34375 -3 C 11.769531 -4 12.007812 -5.253906 12.0625 -6.765625 C 12.15625 -8.734375 11.957031 -10.441406 11.46875 -11.890625 C 10.820312 -13.679688 9.722656 -14.492188 8.171875 -14.328125 Z M 8.171875 -14.328125 "/></g></g></g><g fill="#000000" fill-opacity="1"><g transform="translate(693.452555, 246.000008)"><g><path d="M 5.28125 -16.75 C 6.445312 -17.132812 7.679688 -17.253906 8.984375 -17.109375 C 10.460938 -16.960938 11.753906 -16.296875 12.859375 -15.109375 C 13.378906 -14.429688 13.675781 -13.78125 13.75 -13.15625 C 14.039062 -11.726562 13.710938 -10.234375 12.765625 -8.671875 C 11.492188 -6.597656 9.613281 -4.398438 7.125 -2.078125 C 6.71875 -1.671875 6.71875 -1.46875 7.125 -1.46875 L 13.328125 -1.46875 C 13.835938 -1.46875 14.09375 -1.222656 14.09375 -0.734375 L 14.09375 0.78125 C 14.09375 1.28125 13.847656 1.53125 13.359375 1.53125 L 2.609375 1.53125 C 2.109375 1.53125 1.859375 1.289062 1.859375 0.8125 L 1.859375 -0.4375 C 1.859375 -0.925781 2.101562 -1.398438 2.59375 -1.859375 C 6.425781 -5.273438 9.03125 -8.269531 10.40625 -10.84375 C 10.726562 -11.75 10.703125 -12.53125 10.328125 -13.1875 C 10.066406 -13.675781 9.617188 -14 8.984375 -14.15625 C 8.109375 -14.320312 7.398438 -14.316406 6.859375 -14.140625 C 5.867188 -13.804688 5.363281 -13.046875 5.34375 -11.859375 C 5.34375 -11.273438 5.097656 -10.984375 4.609375 -10.984375 L 2.8125 -10.984375 C 2.320312 -10.984375 2.078125 -11.226562 2.078125 -11.71875 C 2.109375 -12.96875 2.539062 -14.1875 3.375 -15.375 C 3.875 -16 4.507812 -16.457031 5.28125 -16.75 Z M 5.28125 -16.75 "/></g></g></g><g fill="#000000" fill-opacity="1"><g transform="translate(709.368036, 246.000008)"><g><path d="M 6.984375 -16.09375 C 7.453125 -16.5625 7.914062 -16.796875 8.375 -16.796875 L 9.03125 -16.796875 C 9.539062 -16.796875 9.796875 -16.550781 9.796875 -16.0625 L 9.796875 0.8125 C 9.796875 1.3125 9.550781 1.5625 9.0625 1.5625 L 7.390625 1.5625 C 6.890625 1.5625 6.640625 1.316406 6.640625 0.828125 L 6.640625 -11.5 C 6.640625 -11.90625 6.390625 -11.9375 5.890625 -11.59375 C 5.410156 -11.320312 4.925781 -11.085938 4.4375 -10.890625 C 3.957031 -10.691406 3.71875 -10.835938 3.71875 -11.328125 L 3.71875 -13.234375 C 3.71875 -13.722656 3.957031 -14.097656 4.4375 -14.359375 C 5.382812 -14.847656 6.234375 -15.425781 6.984375 -16.09375 Z M 6.984375 -16.09375 "/></g></g></g><g fill="#000000" fill-opacity="1"><g transform="translate(725.283516, 246.000008)"><g><path d="M 0.75 -1.609375 C 0.75 -2.117188 0.992188 -2.375 1.484375 -2.375 L 3.78125 -2.375 C 4.289062 -2.375 4.546875 -2.128906 4.546875 -1.640625 L 4.546875 0.6875 C 4.546875 1.1875 4.300781 1.4375 3.8125 1.4375 L 1.484375 1.4375 C 0.992188 1.4375 0.75 1.191406 0.75 0.703125 Z M 0.75 -1.609375 "/></g></g></g><g fill="#000000" fill-opacity="1"><g transform="translate(730.60495, 246.000008)"><g><path d="M 2.453125 -15.9375 C 2.484375 -16.507812 2.726562 -16.796875 3.1875 -16.796875 L 12.734375 -16.796875 C 13.234375 -16.796875 13.484375 -16.550781 13.484375 -16.0625 L 13.484375 -14.671875 C 13.484375 -14.171875 13.238281 -13.921875 12.75 -13.921875 L 6.0625 -13.921875 C 5.65625 -13.921875 5.453125 -13.722656 5.453125 -13.328125 L 5.375 -10.90625 C 5.375 -10.519531 5.617188 -10.429688 6.109375 -10.640625 C 7.296875 -11.148438 8.710938 -11.191406 10.359375 -10.765625 C 11.835938 -10.304688 12.96875 -9.265625 13.75 -7.640625 C 14.632812 -5.242188 14.546875 -3.070312 13.484375 -1.125 C 12.566406 0.40625 11.328125 1.347656 9.765625 1.703125 C 7.421875 2.179688 5.347656 1.8125 3.546875 0.59375 C 2.503906 -0.382812 1.882812 -1.648438 1.6875 -3.203125 C 1.65625 -3.722656 1.875 -3.984375 2.34375 -3.984375 L 4.140625 -3.984375 C 4.617188 -3.984375 4.910156 -3.738281 5.015625 -3.25 C 5.171875 -2.332031 5.632812 -1.679688 6.40625 -1.296875 C 7.082031 -1.015625 7.867188 -0.960938 8.765625 -1.140625 C 10.148438 -1.628906 10.925781 -2.671875 11.09375 -4.265625 C 11.175781 -5.035156 11.035156 -5.796875 10.671875 -6.546875 C 9.847656 -7.847656 8.601562 -8.296875 6.9375 -7.890625 C 6.320312 -7.722656 5.769531 -7.234375 5.28125 -6.421875 C 5.050781 -5.835938 4.691406 -5.546875 4.203125 -5.546875 L 2.765625 -5.546875 C 2.273438 -5.546875 2.03125 -5.828125 2.03125 -6.390625 Z M 2.453125 -15.9375 "/></g></g></g><g fill="#000000" fill-opacity="1"><g transform="translate(830.743804, 297.750005)"><g><path d="M 6.984375 -16.09375 C 7.453125 -16.5625 7.914062 -16.796875 8.375 -16.796875 L 9.03125 -16.796875 C 9.539062 -16.796875 9.796875 -16.550781 9.796875 -16.0625 L 9.796875 0.8125 C 9.796875 1.3125 9.550781 1.5625 9.0625 1.5625 L 7.390625 1.5625 C 6.890625 1.5625 6.640625 1.316406 6.640625 0.828125 L 6.640625 -11.5 C 6.640625 -11.90625 6.390625 -11.9375 5.890625 -11.59375 C 5.410156 -11.320312 4.925781 -11.085938 4.4375 -10.890625 C 3.957031 -10.691406 3.71875 -10.835938 3.71875 -11.328125 L 3.71875 -13.234375 C 3.71875 -13.722656 3.957031 -14.097656 4.4375 -14.359375 C 5.382812 -14.847656 6.234375 -15.425781 6.984375 -16.09375 Z M 6.984375 -16.09375 "/></g></g></g><g fill="#000000" fill-opacity="1"><g transform="translate(846.659285, 297.750005)"><g><path d="M 4.65625 -16.265625 C 6.757812 -17.335938 9.019531 -17.46875 11.4375 -16.65625 C 13.039062 -16.03125 14.117188 -14.988281 14.671875 -13.53125 C 15.335938 -11.6875 14.960938 -10 13.546875 -8.46875 C 13.148438 -8.113281 13.207031 -7.734375 13.71875 -7.328125 C 15.34375 -5.660156 15.707031 -3.726562 14.8125 -1.53125 C 14.125 -0.0507812 12.992188 0.945312 11.421875 1.46875 C 10.023438 1.957031 8.46875 2.0625 6.75 1.78125 C 3.039062 0.882812 1.390625 -1.3125 1.796875 -4.8125 C 1.992188 -5.820312 2.554688 -6.722656 3.484375 -7.515625 C 3.835938 -7.796875 3.804688 -8.109375 3.390625 -8.453125 C 2.234375 -9.640625 1.789062 -11.046875 2.0625 -12.671875 C 2.25 -14.140625 3.113281 -15.335938 4.65625 -16.265625 Z M 9.046875 -14.203125 C 8.316406 -14.253906 7.550781 -14.164062 6.75 -13.9375 C 5.488281 -13.320312 5.046875 -12.304688 5.421875 -10.890625 C 5.546875 -10.398438 5.941406 -10 6.609375 -9.6875 C 7.453125 -9.3125 8.566406 -9.265625 9.953125 -9.546875 C 11.046875 -9.859375 11.625 -10.484375 11.6875 -11.421875 C 11.75 -13.066406 10.867188 -13.992188 9.046875 -14.203125 Z M 7.984375 -6.5 C 7.210938 -6.445312 6.550781 -6.257812 6 -5.9375 C 5.332031 -5.425781 5 -4.789062 5 -4.03125 C 4.9375 -2.582031 5.617188 -1.644531 7.046875 -1.21875 C 7.648438 -0.988281 8.457031 -0.945312 9.46875 -1.09375 C 11.207031 -1.457031 12.035156 -2.492188 11.953125 -4.203125 C 11.890625 -4.753906 11.664062 -5.242188 11.28125 -5.671875 C 10.59375 -6.265625 9.492188 -6.539062 7.984375 -6.5 Z M 7.984375 -6.5 "/></g></g></g><g fill="#000000" fill-opacity="1"><g transform="translate(862.574766, 297.750005)"><g><path d="M 0.75 -1.609375 C 0.75 -2.117188 0.992188 -2.375 1.484375 -2.375 L 3.78125 -2.375 C 4.289062 -2.375 4.546875 -2.128906 4.546875 -1.640625 L 4.546875 0.6875 C 4.546875 1.1875 4.300781 1.4375 3.8125 1.4375 L 1.484375 1.4375 C 0.992188 1.4375 0.75 1.191406 0.75 0.703125 Z M 0.75 -1.609375 "/></g></g></g><g fill="#000000" fill-opacity="1"><g transform="translate(867.896199, 297.750005)"><g><path d="M 2.453125 -15.9375 C 2.484375 -16.507812 2.726562 -16.796875 3.1875 -16.796875 L 12.734375 -16.796875 C 13.234375 -16.796875 13.484375 -16.550781 13.484375 -16.0625 L 13.484375 -14.671875 C 13.484375 -14.171875 13.238281 -13.921875 12.75 -13.921875 L 6.0625 -13.921875 C 5.65625 -13.921875 5.453125 -13.722656 5.453125 -13.328125 L 5.375 -10.90625 C 5.375 -10.519531 5.617188 -10.429688 6.109375 -10.640625 C 7.296875 -11.148438 8.710938 -11.191406 10.359375 -10.765625 C 11.835938 -10.304688 12.96875 -9.265625 13.75 -7.640625 C 14.632812 -5.242188 14.546875 -3.070312 13.484375 -1.125 C 12.566406 0.40625 11.328125 1.347656 9.765625 1.703125 C 7.421875 2.179688 5.347656 1.8125 3.546875 0.59375 C 2.503906 -0.382812 1.882812 -1.648438 1.6875 -3.203125 C 1.65625 -3.722656 1.875 -3.984375 2.34375 -3.984375 L 4.140625 -3.984375 C 4.617188 -3.984375 4.910156 -3.738281 5.015625 -3.25 C 5.171875 -2.332031 5.632812 -1.679688 6.40625 -1.296875 C 7.082031 -1.015625 7.867188 -0.960938 8.765625 -1.140625 C 10.148438 -1.628906 10.925781 -2.671875 11.09375 -4.265625 C 11.175781 -5.035156 11.035156 -5.796875 10.671875 -6.546875 C 9.847656 -7.847656 8.601562 -8.296875 6.9375 -7.890625 C 6.320312 -7.722656 5.769531 -7.234375 5.28125 -6.421875 C 5.050781 -5.835938 4.691406 -5.546875 4.203125 -5.546875 L 2.765625 -5.546875 C 2.273438 -5.546875 2.03125 -5.828125 2.03125 -6.390625 Z M 2.453125 -15.9375 "/></g></g></g><g fill="#000000" fill-opacity="1"><g transform="translate(973.525029, 336.249994)"><g><path d="M 6.984375 -16.09375 C 7.453125 -16.5625 7.914062 -16.796875 8.375 -16.796875 L 9.03125 -16.796875 C 9.539062 -16.796875 9.796875 -16.550781 9.796875 -16.0625 L 9.796875 0.8125 C 9.796875 1.3125 9.550781 1.5625 9.0625 1.5625 L 7.390625 1.5625 C 6.890625 1.5625 6.640625 1.316406 6.640625 0.828125 L 6.640625 -11.5 C 6.640625 -11.90625 6.390625 -11.9375 5.890625 -11.59375 C 5.410156 -11.320312 4.925781 -11.085938 4.4375 -10.890625 C 3.957031 -10.691406 3.71875 -10.835938 3.71875 -11.328125 L 3.71875 -13.234375 C 3.71875 -13.722656 3.957031 -14.097656 4.4375 -14.359375 C 5.382812 -14.847656 6.234375 -15.425781 6.984375 -16.09375 Z M 6.984375 -16.09375 "/></g></g></g><g fill="#000000" fill-opacity="1"><g transform="translate(989.44051, 336.249994)"><g><path d="M 5.921875 -16.65625 C 8.191406 -17.414062 10.300781 -17.332031 12.25 -16.40625 C 13.09375 -15.863281 13.65625 -15.285156 13.9375 -14.671875 C 14.3125 -13.953125 14.53125 -13.195312 14.59375 -12.40625 C 14.625 -11.863281 14.410156 -11.59375 13.953125 -11.59375 L 12.203125 -11.59375 C 11.710938 -11.59375 11.425781 -11.835938 11.34375 -12.328125 C 10.925781 -13.941406 9.820312 -14.566406 8.03125 -14.203125 C 7.363281 -14.109375 6.734375 -13.6875 6.140625 -12.9375 C 5.753906 -12.40625 5.429688 -11.609375 5.171875 -10.546875 C 5.085938 -10.117188 5.289062 -10.046875 5.78125 -10.328125 C 6.882812 -10.898438 8.195312 -11.113281 9.71875 -10.96875 C 12.070312 -10.6875 13.679688 -9.332031 14.546875 -6.90625 C 14.929688 -5.71875 14.960938 -4.265625 14.640625 -2.546875 C 14.179688 -0.960938 13.269531 0.257812 11.90625 1.125 C 10.164062 2.101562 8.078125 2.164062 5.640625 1.3125 C 4.953125 1.019531 4.300781 0.539062 3.6875 -0.125 C 2.789062 -1.289062 2.195312 -2.59375 1.90625 -4.03125 C 1.507812 -6.613281 1.582031 -9.0625 2.125 -11.375 C 2.539062 -13.78125 3.804688 -15.539062 5.921875 -16.65625 Z M 8.25 -8.109375 C 7.40625 -8.023438 6.6875 -7.648438 6.09375 -6.984375 C 5.101562 -5.648438 4.898438 -4.316406 5.484375 -2.984375 C 6.367188 -1.398438 7.578125 -0.765625 9.109375 -1.078125 C 10.628906 -1.546875 11.472656 -2.53125 11.640625 -4.03125 C 11.722656 -4.875 11.582031 -5.679688 11.21875 -6.453125 C 10.519531 -7.753906 9.53125 -8.304688 8.25 -8.109375 Z M 8.25 -8.109375 "/></g></g></g><g fill="#000000" fill-opacity="1"><g transform="translate(1005.35599, 336.249994)"><g><path d="M 0.75 -1.609375 C 0.75 -2.117188 0.992188 -2.375 1.484375 -2.375 L 3.78125 -2.375 C 4.289062 -2.375 4.546875 -2.128906 4.546875 -1.640625 L 4.546875 0.6875 C 4.546875 1.1875 4.300781 1.4375 3.8125 1.4375 L 1.484375 1.4375 C 0.992188 1.4375 0.75 1.191406 0.75 0.703125 Z M 0.75 -1.609375 "/></g></g></g><g fill="#000000" fill-opacity="1"><g transform="translate(1010.677424, 336.249994)"><g><path d="M 5.953125 -16.703125 C 6.941406 -17.085938 7.96875 -17.238281 9.03125 -17.15625 C 9.78125 -17.082031 10.429688 -16.9375 10.984375 -16.71875 C 12.804688 -15.894531 14.019531 -14.476562 14.625 -12.46875 C 15.40625 -9.539062 15.5 -6.671875 14.90625 -3.859375 C 14.613281 -2.390625 14.03125 -1.117188 13.15625 -0.046875 C 11.476562 1.609375 9.550781 2.234375 7.375 1.828125 C 5.90625 1.703125 4.632812 0.960938 3.5625 -0.390625 C 2.757812 -1.523438 2.226562 -2.828125 1.96875 -4.296875 C 1.40625 -7.554688 1.648438 -10.582031 2.703125 -13.375 C 3.222656 -14.78125 4.304688 -15.890625 5.953125 -16.703125 Z M 8.171875 -14.328125 C 6.984375 -14.203125 6.117188 -13.453125 5.578125 -12.078125 C 4.867188 -9.816406 4.738281 -7.296875 5.1875 -4.515625 C 5.84375 -1.554688 7.375 -0.472656 9.78125 -1.265625 C 10.625 -1.753906 11.144531 -2.332031 11.34375 -3 C 11.769531 -4 12.007812 -5.253906 12.0625 -6.765625 C 12.15625 -8.734375 11.957031 -10.441406 11.46875 -11.890625 C 10.820312 -13.679688 9.722656 -14.492188 8.171875 -14.328125 Z M 8.171875 -14.328125 "/></g></g></g><g fill="#000000" fill-opacity="1"><g transform="translate(275.181408, 382.500001)"><g><path d="M 8.375 -19.3125 C 8.945312 -19.875 9.503906 -20.15625 10.046875 -20.15625 L 10.84375 -20.15625 C 11.445312 -20.15625 11.75 -19.863281 11.75 -19.28125 L 11.75 0.96875 C 11.75 1.570312 11.457031 1.875 10.875 1.875 L 8.875 1.875 C 8.269531 1.875 7.96875 1.582031 7.96875 1 L 7.96875 -13.796875 C 7.96875 -14.285156 7.664062 -14.328125 7.0625 -13.921875 C 6.5 -13.585938 5.921875 -13.300781 5.328125 -13.0625 C 4.742188 -12.832031 4.453125 -13.007812 4.453125 -13.59375 L 4.453125 -15.875 C 4.453125 -16.46875 4.742188 -16.921875 5.328125 -17.234375 C 6.460938 -17.816406 7.476562 -18.507812 8.375 -19.3125 Z M 8.375 -19.3125 "/></g></g><g transform="translate(294.282969, 382.500001)"><g><path d="M 2.9375 -19.125 C 2.96875 -19.8125 3.257812 -20.15625 3.8125 -20.15625 L 15.265625 -20.15625 C 15.867188 -20.15625 16.171875 -19.863281 16.171875 -19.28125 L 16.171875 -17.609375 C 16.171875 -17.003906 15.878906 -16.703125 15.296875 -16.703125 L 7.265625 -16.703125 C 6.773438 -16.703125 6.53125 -16.46875 6.53125 -16 L 6.453125 -13.09375 C 6.453125 -12.625 6.742188 -12.519531 7.328125 -12.78125 C 8.753906 -13.382812 10.453125 -13.429688 12.421875 -12.921875 C 14.203125 -12.367188 15.5625 -11.117188 16.5 -9.171875 C 17.550781 -6.296875 17.441406 -3.6875 16.171875 -1.34375 C 15.078125 0.488281 13.59375 1.617188 11.71875 2.046875 C 8.90625 2.617188 6.414062 2.171875 4.25 0.703125 C 3 -0.472656 2.257812 -1.988281 2.03125 -3.84375 C 1.988281 -4.46875 2.25 -4.78125 2.8125 -4.78125 L 4.953125 -4.78125 C 5.535156 -4.78125 5.890625 -4.484375 6.015625 -3.890625 C 6.203125 -2.796875 6.753906 -2.015625 7.671875 -1.546875 C 8.492188 -1.222656 9.441406 -1.164062 10.515625 -1.375 C 12.179688 -1.957031 13.109375 -3.207031 13.296875 -5.125 C 13.398438 -6.039062 13.238281 -6.953125 12.8125 -7.859375 C 11.8125 -9.421875 10.316406 -9.957031 8.328125 -9.46875 C 7.578125 -9.269531 6.910156 -8.679688 6.328125 -7.703125 C 6.054688 -7.003906 5.628906 -6.65625 5.046875 -6.65625 L 3.3125 -6.65625 C 2.726562 -6.65625 2.4375 -6.992188 2.4375 -7.671875 Z M 2.9375 -19.125 "/></g></g><g transform="translate(313.384531, 382.500001)"><g><path d="M 4.140625 -20.71875 C 6.660156 -21.8125 8.875 -21.410156 10.78125 -19.515625 C 12.25 -17.128906 12.390625 -14.734375 11.203125 -12.328125 C 10.492188 -11.222656 9.710938 -10.53125 8.859375 -10.25 C 8.015625 -9.9375 7.09375 -9.820312 6.09375 -9.90625 C 4.207031 -10.082031 2.832031 -11.078125 1.96875 -12.890625 C 1.25 -15.160156 1.304688 -17.078125 2.140625 -18.640625 C 2.492188 -19.421875 3.160156 -20.113281 4.140625 -20.71875 Z M 18.4375 -20.25 C 18.863281 -20.945312 19.367188 -21.296875 19.953125 -21.296875 L 21.5625 -21.296875 C 22.15625 -21.296875 22.273438 -21.003906 21.921875 -20.421875 L 7.953125 2.140625 C 7.492188 2.835938 6.972656 3.1875 6.390625 3.1875 L 4.84375 3.1875 C 4.257812 3.1875 4.148438 2.894531 4.515625 2.3125 C 9.128906 -5.207031 13.769531 -12.726562 18.4375 -20.25 Z M 6.421875 -18.640625 C 5.148438 -18.285156 4.476562 -17.503906 4.40625 -16.296875 C 4.28125 -15.515625 4.367188 -14.722656 4.671875 -13.921875 C 4.804688 -13.472656 5.210938 -13.0625 5.890625 -12.6875 C 7.046875 -12.351562 7.972656 -12.6875 8.671875 -13.6875 C 9.222656 -14.5625 9.265625 -15.742188 8.796875 -17.234375 C 8.390625 -18.242188 7.597656 -18.710938 6.421875 -18.640625 Z M 18.234375 -8.03125 C 18.796875 -8.207031 19.644531 -8.226562 20.78125 -8.09375 C 22.675781 -7.695312 23.945312 -6.550781 24.59375 -4.65625 C 25.09375 -2.757812 24.984375 -1.019531 24.265625 0.5625 C 23.285156 2.300781 21.925781 3.1875 20.1875 3.21875 C 19.113281 3.300781 18.160156 3.15625 17.328125 2.78125 C 16.390625 2.289062 15.6875 1.644531 15.21875 0.84375 C 14.394531 -0.738281 14.195312 -2.4375 14.625 -4.25 C 15.113281 -6.1875 16.316406 -7.445312 18.234375 -8.03125 Z M 19.34375 -5.515625 C 18.113281 -5.179688 17.441406 -4.328125 17.328125 -2.953125 C 17.222656 -1.984375 17.445312 -1.085938 18 -0.265625 C 18.957031 0.773438 20.03125 0.84375 21.21875 -0.0625 C 22.09375 -1.226562 22.269531 -2.582031 21.75 -4.125 C 21.257812 -5.144531 20.457031 -5.609375 19.34375 -5.515625 Z M 19.34375 -5.515625 "/></g></g></g><g fill="#000000" fill-opacity="1"><g transform="translate(275.181408, 470.249996)"><g><path d="M 8.375 -19.3125 C 8.945312 -19.875 9.503906 -20.15625 10.046875 -20.15625 L 10.84375 -20.15625 C 11.445312 -20.15625 11.75 -19.863281 11.75 -19.28125 L 11.75 0.96875 C 11.75 1.570312 11.457031 1.875 10.875 1.875 L 8.875 1.875 C 8.269531 1.875 7.96875 1.582031 7.96875 1 L 7.96875 -13.796875 C 7.96875 -14.285156 7.664062 -14.328125 7.0625 -13.921875 C 6.5 -13.585938 5.921875 -13.300781 5.328125 -13.0625 C 4.742188 -12.832031 4.453125 -13.007812 4.453125 -13.59375 L 4.453125 -15.875 C 4.453125 -16.46875 4.742188 -16.921875 5.328125 -17.234375 C 6.460938 -17.816406 7.476562 -18.507812 8.375 -19.3125 Z M 8.375 -19.3125 "/></g></g><g transform="translate(294.282969, 470.249996)"><g><path d="M 7.140625 -20.046875 C 8.335938 -20.515625 9.570312 -20.695312 10.84375 -20.59375 C 11.738281 -20.5 12.519531 -20.320312 13.1875 -20.0625 C 15.375 -19.070312 16.828125 -17.375 17.546875 -14.96875 C 18.484375 -11.457031 18.597656 -8.007812 17.890625 -4.625 C 17.546875 -2.875 16.84375 -1.351562 15.78125 -0.0625 C 13.769531 1.9375 11.457031 2.691406 8.84375 2.203125 C 7.082031 2.046875 5.5625 1.15625 4.28125 -0.46875 C 3.320312 -1.832031 2.6875 -3.394531 2.375 -5.15625 C 1.6875 -9.0625 1.976562 -12.695312 3.25 -16.0625 C 3.875 -17.738281 5.171875 -19.066406 7.140625 -20.046875 Z M 9.8125 -17.203125 C 8.382812 -17.046875 7.347656 -16.144531 6.703125 -14.5 C 5.847656 -11.789062 5.691406 -8.765625 6.234375 -5.421875 C 7.015625 -1.867188 8.851562 -0.570312 11.75 -1.53125 C 12.757812 -2.113281 13.382812 -2.804688 13.625 -3.609375 C 14.125 -4.796875 14.40625 -6.296875 14.46875 -8.109375 C 14.582031 -10.472656 14.347656 -12.523438 13.765625 -14.265625 C 12.984375 -16.410156 11.664062 -17.390625 9.8125 -17.203125 Z M 9.8125 -17.203125 "/></g></g><g transform="translate(313.384531, 470.249996)"><g><path d="M 4.140625 -20.71875 C 6.660156 -21.8125 8.875 -21.410156 10.78125 -19.515625 C 12.25 -17.128906 12.390625 -14.734375 11.203125 -12.328125 C 10.492188 -11.222656 9.710938 -10.53125 8.859375 -10.25 C 8.015625 -9.9375 7.09375 -9.820312 6.09375 -9.90625 C 4.207031 -10.082031 2.832031 -11.078125 1.96875 -12.890625 C 1.25 -15.160156 1.304688 -17.078125 2.140625 -18.640625 C 2.492188 -19.421875 3.160156 -20.113281 4.140625 -20.71875 Z M 18.4375 -20.25 C 18.863281 -20.945312 19.367188 -21.296875 19.953125 -21.296875 L 21.5625 -21.296875 C 22.15625 -21.296875 22.273438 -21.003906 21.921875 -20.421875 L 7.953125 2.140625 C 7.492188 2.835938 6.972656 3.1875 6.390625 3.1875 L 4.84375 3.1875 C 4.257812 3.1875 4.148438 2.894531 4.515625 2.3125 C 9.128906 -5.207031 13.769531 -12.726562 18.4375 -20.25 Z M 6.421875 -18.640625 C 5.148438 -18.285156 4.476562 -17.503906 4.40625 -16.296875 C 4.28125 -15.515625 4.367188 -14.722656 4.671875 -13.921875 C 4.804688 -13.472656 5.210938 -13.0625 5.890625 -12.6875 C 7.046875 -12.351562 7.972656 -12.6875 8.671875 -13.6875 C 9.222656 -14.5625 9.265625 -15.742188 8.796875 -17.234375 C 8.390625 -18.242188 7.597656 -18.710938 6.421875 -18.640625 Z M 18.234375 -8.03125 C 18.796875 -8.207031 19.644531 -8.226562 20.78125 -8.09375 C 22.675781 -7.695312 23.945312 -6.550781 24.59375 -4.65625 C 25.09375 -2.757812 24.984375 -1.019531 24.265625 0.5625 C 23.285156 2.300781 21.925781 3.1875 20.1875 3.21875 C 19.113281 3.300781 18.160156 3.15625 17.328125 2.78125 C 16.390625 2.289062 15.6875 1.644531 15.21875 0.84375 C 14.394531 -0.738281 14.195312 -2.4375 14.625 -4.25 C 15.113281 -6.1875 16.316406 -7.445312 18.234375 -8.03125 Z M 19.34375 -5.515625 C 18.113281 -5.179688 17.441406 -4.328125 17.328125 -2.953125 C 17.222656 -1.984375 17.445312 -1.085938 18 -0.265625 C 18.957031 0.773438 20.03125 0.84375 21.21875 -0.0625 C 22.09375 -1.226562 22.269531 -2.582031 21.75 -4.125 C 21.257812 -5.144531 20.457031 -5.609375 19.34375 -5.515625 Z M 19.34375 -5.515625 "/></g></g></g><g fill="#000000" fill-opacity="1"><g transform="translate(284.73219, 550.499992)"><g><path d="M 2.9375 -19.125 C 2.96875 -19.8125 3.257812 -20.15625 3.8125 -20.15625 L 15.265625 -20.15625 C 15.867188 -20.15625 16.171875 -19.863281 16.171875 -19.28125 L 16.171875 -17.609375 C 16.171875 -17.003906 15.878906 -16.703125 15.296875 -16.703125 L 7.265625 -16.703125 C 6.773438 -16.703125 6.53125 -16.46875 6.53125 -16 L 6.453125 -13.09375 C 6.453125 -12.625 6.742188 -12.519531 7.328125 -12.78125 C 8.753906 -13.382812 10.453125 -13.429688 12.421875 -12.921875 C 14.203125 -12.367188 15.5625 -11.117188 16.5 -9.171875 C 17.550781 -6.296875 17.441406 -3.6875 16.171875 -1.34375 C 15.078125 0.488281 13.59375 1.617188 11.71875 2.046875 C 8.90625 2.617188 6.414062 2.171875 4.25 0.703125 C 3 -0.472656 2.257812 -1.988281 2.03125 -3.84375 C 1.988281 -4.46875 2.25 -4.78125 2.8125 -4.78125 L 4.953125 -4.78125 C 5.535156 -4.78125 5.890625 -4.484375 6.015625 -3.890625 C 6.203125 -2.796875 6.753906 -2.015625 7.671875 -1.546875 C 8.492188 -1.222656 9.441406 -1.164062 10.515625 -1.375 C 12.179688 -1.957031 13.109375 -3.207031 13.296875 -5.125 C 13.398438 -6.039062 13.238281 -6.953125 12.8125 -7.859375 C 11.8125 -9.421875 10.316406 -9.957031 8.328125 -9.46875 C 7.578125 -9.269531 6.910156 -8.679688 6.328125 -7.703125 C 6.054688 -7.003906 5.628906 -6.65625 5.046875 -6.65625 L 3.3125 -6.65625 C 2.726562 -6.65625 2.4375 -6.992188 2.4375 -7.671875 Z M 2.9375 -19.125 "/></g></g><g transform="translate(303.833752, 550.499992)"><g><path d="M 4.140625 -20.71875 C 6.660156 -21.8125 8.875 -21.410156 10.78125 -19.515625 C 12.25 -17.128906 12.390625 -14.734375 11.203125 -12.328125 C 10.492188 -11.222656 9.710938 -10.53125 8.859375 -10.25 C 8.015625 -9.9375 7.09375 -9.820312 6.09375 -9.90625 C 4.207031 -10.082031 2.832031 -11.078125 1.96875 -12.890625 C 1.25 -15.160156 1.304688 -17.078125 2.140625 -18.640625 C 2.492188 -19.421875 3.160156 -20.113281 4.140625 -20.71875 Z M 18.4375 -20.25 C 18.863281 -20.945312 19.367188 -21.296875 19.953125 -21.296875 L 21.5625 -21.296875 C 22.15625 -21.296875 22.273438 -21.003906 21.921875 -20.421875 L 7.953125 2.140625 C 7.492188 2.835938 6.972656 3.1875 6.390625 3.1875 L 4.84375 3.1875 C 4.257812 3.1875 4.148438 2.894531 4.515625 2.3125 C 9.128906 -5.207031 13.769531 -12.726562 18.4375 -20.25 Z M 6.421875 -18.640625 C 5.148438 -18.285156 4.476562 -17.503906 4.40625 -16.296875 C 4.28125 -15.515625 4.367188 -14.722656 4.671875 -13.921875 C 4.804688 -13.472656 5.210938 -13.0625 5.890625 -12.6875 C 7.046875 -12.351562 7.972656 -12.6875 8.671875 -13.6875 C 9.222656 -14.5625 9.265625 -15.742188 8.796875 -17.234375 C 8.390625 -18.242188 7.597656 -18.710938 6.421875 -18.640625 Z M 18.234375 -8.03125 C 18.796875 -8.207031 19.644531 -8.226562 20.78125 -8.09375 C 22.675781 -7.695312 23.945312 -6.550781 24.59375 -4.65625 C 25.09375 -2.757812 24.984375 -1.019531 24.265625 0.5625 C 23.285156 2.300781 21.925781 3.1875 20.1875 3.21875 C 19.113281 3.300781 18.160156 3.15625 17.328125 2.78125 C 16.390625 2.289062 15.6875 1.644531 15.21875 0.84375 C 14.394531 -0.738281 14.195312 -2.4375 14.625 -4.25 C 15.113281 -6.1875 16.316406 -7.445312 18.234375 -8.03125 Z M 19.34375 -5.515625 C 18.113281 -5.179688 17.441406 -4.328125 17.328125 -2.953125 C 17.222656 -1.984375 17.445312 -1.085938 18 -0.265625 C 18.957031 0.773438 20.03125 0.84375 21.21875 -0.0625 C 22.09375 -1.226562 22.269531 -2.582031 21.75 -4.125 C 21.257812 -5.144531 20.457031 -5.609375 19.34375 -5.515625 Z M 19.34375 -5.515625 "/></g></g></g><g fill="#000000" fill-opacity="1"><g transform="translate(275.181408, 302.500025)"><g><path d="M 6.328125 -20.09375 C 7.734375 -20.5625 9.21875 -20.707031 10.78125 -20.53125 C 12.5625 -20.363281 14.113281 -19.566406 15.4375 -18.140625 C 16.0625 -17.316406 16.414062 -16.535156 16.5 -15.796875 C 16.84375 -14.078125 16.453125 -12.28125 15.328125 -10.40625 C 13.796875 -7.925781 11.539062 -5.285156 8.5625 -2.484375 C 8.070312 -2.003906 8.070312 -1.765625 8.5625 -1.765625 L 16 -1.765625 C 16.601562 -1.765625 16.90625 -1.46875 16.90625 -0.875 L 16.90625 0.9375 C 16.90625 1.539062 16.613281 1.84375 16.03125 1.84375 L 3.140625 1.84375 C 2.535156 1.84375 2.234375 1.550781 2.234375 0.96875 L 2.234375 -0.53125 C 2.234375 -1.113281 2.523438 -1.679688 3.109375 -2.234375 C 7.710938 -6.328125 10.835938 -9.921875 12.484375 -13.015625 C 12.867188 -14.109375 12.835938 -15.046875 12.390625 -15.828125 C 12.078125 -16.410156 11.539062 -16.800781 10.78125 -17 C 9.726562 -17.1875 8.878906 -17.175781 8.234375 -16.96875 C 7.046875 -16.570312 6.441406 -15.660156 6.421875 -14.234375 C 6.421875 -13.535156 6.125 -13.1875 5.53125 -13.1875 L 3.375 -13.1875 C 2.78125 -13.1875 2.484375 -13.476562 2.484375 -14.0625 C 2.523438 -15.5625 3.046875 -17.023438 4.046875 -18.453125 C 4.648438 -19.203125 5.410156 -19.75 6.328125 -20.09375 Z M 6.328125 -20.09375 "/></g></g><g transform="translate(294.282969, 302.500025)"><g><path d="M 7.140625 -20.046875 C 8.335938 -20.515625 9.570312 -20.695312 10.84375 -20.59375 C 11.738281 -20.5 12.519531 -20.320312 13.1875 -20.0625 C 15.375 -19.070312 16.828125 -17.375 17.546875 -14.96875 C 18.484375 -11.457031 18.597656 -8.007812 17.890625 -4.625 C 17.546875 -2.875 16.84375 -1.351562 15.78125 -0.0625 C 13.769531 1.9375 11.457031 2.691406 8.84375 2.203125 C 7.082031 2.046875 5.5625 1.15625 4.28125 -0.46875 C 3.320312 -1.832031 2.6875 -3.394531 2.375 -5.15625 C 1.6875 -9.0625 1.976562 -12.695312 3.25 -16.0625 C 3.875 -17.738281 5.171875 -19.066406 7.140625 -20.046875 Z M 9.8125 -17.203125 C 8.382812 -17.046875 7.347656 -16.144531 6.703125 -14.5 C 5.847656 -11.789062 5.691406 -8.765625 6.234375 -5.421875 C 7.015625 -1.867188 8.851562 -0.570312 11.75 -1.53125 C 12.757812 -2.113281 13.382812 -2.804688 13.625 -3.609375 C 14.125 -4.796875 14.40625 -6.296875 14.46875 -8.109375 C 14.582031 -10.472656 14.347656 -12.523438 13.765625 -14.265625 C 12.984375 -16.410156 11.664062 -17.390625 9.8125 -17.203125 Z M 9.8125 -17.203125 "/></g></g><g transform="translate(313.384531, 302.500025)"><g><path d="M 4.140625 -20.71875 C 6.660156 -21.8125 8.875 -21.410156 10.78125 -19.515625 C 12.25 -17.128906 12.390625 -14.734375 11.203125 -12.328125 C 10.492188 -11.222656 9.710938 -10.53125 8.859375 -10.25 C 8.015625 -9.9375 7.09375 -9.820312 6.09375 -9.90625 C 4.207031 -10.082031 2.832031 -11.078125 1.96875 -12.890625 C 1.25 -15.160156 1.304688 -17.078125 2.140625 -18.640625 C 2.492188 -19.421875 3.160156 -20.113281 4.140625 -20.71875 Z M 18.4375 -20.25 C 18.863281 -20.945312 19.367188 -21.296875 19.953125 -21.296875 L 21.5625 -21.296875 C 22.15625 -21.296875 22.273438 -21.003906 21.921875 -20.421875 L 7.953125 2.140625 C 7.492188 2.835938 6.972656 3.1875 6.390625 3.1875 L 4.84375 3.1875 C 4.257812 3.1875 4.148438 2.894531 4.515625 2.3125 C 9.128906 -5.207031 13.769531 -12.726562 18.4375 -20.25 Z M 6.421875 -18.640625 C 5.148438 -18.285156 4.476562 -17.503906 4.40625 -16.296875 C 4.28125 -15.515625 4.367188 -14.722656 4.671875 -13.921875 C 4.804688 -13.472656 5.210938 -13.0625 5.890625 -12.6875 C 7.046875 -12.351562 7.972656 -12.6875 8.671875 -13.6875 C 9.222656 -14.5625 9.265625 -15.742188 8.796875 -17.234375 C 8.390625 -18.242188 7.597656 -18.710938 6.421875 -18.640625 Z M 18.234375 -8.03125 C 18.796875 -8.207031 19.644531 -8.226562 20.78125 -8.09375 C 22.675781 -7.695312 23.945312 -6.550781 24.59375 -4.65625 C 25.09375 -2.757812 24.984375 -1.019531 24.265625 0.5625 C 23.285156 2.300781 21.925781 3.1875 20.1875 3.21875 C 19.113281 3.300781 18.160156 3.15625 17.328125 2.78125 C 16.390625 2.289062 15.6875 1.644531 15.21875 0.84375 C 14.394531 -0.738281 14.195312 -2.4375 14.625 -4.25 C 15.113281 -6.1875 16.316406 -7.445312 18.234375 -8.03125 Z M 19.34375 -5.515625 C 18.113281 -5.179688 17.441406 -4.328125 17.328125 -2.953125 C 17.222656 -1.984375 17.445312 -1.085938 18 -0.265625 C 18.957031 0.773438 20.03125 0.84375 21.21875 -0.0625 C 22.09375 -1.226562 22.269531 -2.582031 21.75 -4.125 C 21.257812 -5.144531 20.457031 -5.609375 19.34375 -5.515625 Z M 19.34375 -5.515625 "/></g></g></g><g fill="#000000" fill-opacity="1"><g transform="translate(275.181408, 214.75)"><g><path d="M 6.328125 -20.09375 C 7.734375 -20.5625 9.21875 -20.707031 10.78125 -20.53125 C 12.5625 -20.363281 14.113281 -19.566406 15.4375 -18.140625 C 16.0625 -17.316406 16.414062 -16.535156 16.5 -15.796875 C 16.84375 -14.078125 16.453125 -12.28125 15.328125 -10.40625 C 13.796875 -7.925781 11.539062 -5.285156 8.5625 -2.484375 C 8.070312 -2.003906 8.070312 -1.765625 8.5625 -1.765625 L 16 -1.765625 C 16.601562 -1.765625 16.90625 -1.46875 16.90625 -0.875 L 16.90625 0.9375 C 16.90625 1.539062 16.613281 1.84375 16.03125 1.84375 L 3.140625 1.84375 C 2.535156 1.84375 2.234375 1.550781 2.234375 0.96875 L 2.234375 -0.53125 C 2.234375 -1.113281 2.523438 -1.679688 3.109375 -2.234375 C 7.710938 -6.328125 10.835938 -9.921875 12.484375 -13.015625 C 12.867188 -14.109375 12.835938 -15.046875 12.390625 -15.828125 C 12.078125 -16.410156 11.539062 -16.800781 10.78125 -17 C 9.726562 -17.1875 8.878906 -17.175781 8.234375 -16.96875 C 7.046875 -16.570312 6.441406 -15.660156 6.421875 -14.234375 C 6.421875 -13.535156 6.125 -13.1875 5.53125 -13.1875 L 3.375 -13.1875 C 2.78125 -13.1875 2.484375 -13.476562 2.484375 -14.0625 C 2.523438 -15.5625 3.046875 -17.023438 4.046875 -18.453125 C 4.648438 -19.203125 5.410156 -19.75 6.328125 -20.09375 Z M 6.328125 -20.09375 "/></g></g><g transform="translate(294.282969, 214.75)"><g><path d="M 2.9375 -19.125 C 2.96875 -19.8125 3.257812 -20.15625 3.8125 -20.15625 L 15.265625 -20.15625 C 15.867188 -20.15625 16.171875 -19.863281 16.171875 -19.28125 L 16.171875 -17.609375 C 16.171875 -17.003906 15.878906 -16.703125 15.296875 -16.703125 L 7.265625 -16.703125 C 6.773438 -16.703125 6.53125 -16.46875 6.53125 -16 L 6.453125 -13.09375 C 6.453125 -12.625 6.742188 -12.519531 7.328125 -12.78125 C 8.753906 -13.382812 10.453125 -13.429688 12.421875 -12.921875 C 14.203125 -12.367188 15.5625 -11.117188 16.5 -9.171875 C 17.550781 -6.296875 17.441406 -3.6875 16.171875 -1.34375 C 15.078125 0.488281 13.59375 1.617188 11.71875 2.046875 C 8.90625 2.617188 6.414062 2.171875 4.25 0.703125 C 3 -0.472656 2.257812 -1.988281 2.03125 -3.84375 C 1.988281 -4.46875 2.25 -4.78125 2.8125 -4.78125 L 4.953125 -4.78125 C 5.535156 -4.78125 5.890625 -4.484375 6.015625 -3.890625 C 6.203125 -2.796875 6.753906 -2.015625 7.671875 -1.546875 C 8.492188 -1.222656 9.441406 -1.164062 10.515625 -1.375 C 12.179688 -1.957031 13.109375 -3.207031 13.296875 -5.125 C 13.398438 -6.039062 13.238281 -6.953125 12.8125 -7.859375 C 11.8125 -9.421875 10.316406 -9.957031 8.328125 -9.46875 C 7.578125 -9.269531 6.910156 -8.679688 6.328125 -7.703125 C 6.054688 -7.003906 5.628906 -6.65625 5.046875 -6.65625 L 3.3125 -6.65625 C 2.726562 -6.65625 2.4375 -6.992188 2.4375 -7.671875 Z M 2.9375 -19.125 "/></g></g><g transform="translate(313.384531, 214.75)"><g><path d="M 4.140625 -20.71875 C 6.660156 -21.8125 8.875 -21.410156 10.78125 -19.515625 C 12.25 -17.128906 12.390625 -14.734375 11.203125 -12.328125 C 10.492188 -11.222656 9.710938 -10.53125 8.859375 -10.25 C 8.015625 -9.9375 7.09375 -9.820312 6.09375 -9.90625 C 4.207031 -10.082031 2.832031 -11.078125 1.96875 -12.890625 C 1.25 -15.160156 1.304688 -17.078125 2.140625 -18.640625 C 2.492188 -19.421875 3.160156 -20.113281 4.140625 -20.71875 Z M 18.4375 -20.25 C 18.863281 -20.945312 19.367188 -21.296875 19.953125 -21.296875 L 21.5625 -21.296875 C 22.15625 -21.296875 22.273438 -21.003906 21.921875 -20.421875 L 7.953125 2.140625 C 7.492188 2.835938 6.972656 3.1875 6.390625 3.1875 L 4.84375 3.1875 C 4.257812 3.1875 4.148438 2.894531 4.515625 2.3125 C 9.128906 -5.207031 13.769531 -12.726562 18.4375 -20.25 Z M 6.421875 -18.640625 C 5.148438 -18.285156 4.476562 -17.503906 4.40625 -16.296875 C 4.28125 -15.515625 4.367188 -14.722656 4.671875 -13.921875 C 4.804688 -13.472656 5.210938 -13.0625 5.890625 -12.6875 C 7.046875 -12.351562 7.972656 -12.6875 8.671875 -13.6875 C 9.222656 -14.5625 9.265625 -15.742188 8.796875 -17.234375 C 8.390625 -18.242188 7.597656 -18.710938 6.421875 -18.640625 Z M 18.234375 -8.03125 C 18.796875 -8.207031 19.644531 -8.226562 20.78125 -8.09375 C 22.675781 -7.695312 23.945312 -6.550781 24.59375 -4.65625 C 25.09375 -2.757812 24.984375 -1.019531 24.265625 0.5625 C 23.285156 2.300781 21.925781 3.1875 20.1875 3.21875 C 19.113281 3.300781 18.160156 3.15625 17.328125 2.78125 C 16.390625 2.289062 15.6875 1.644531 15.21875 0.84375 C 14.394531 -0.738281 14.195312 -2.4375 14.625 -4.25 C 15.113281 -6.1875 16.316406 -7.445312 18.234375 -8.03125 Z M 19.34375 -5.515625 C 18.113281 -5.179688 17.441406 -4.328125 17.328125 -2.953125 C 17.222656 -1.984375 17.445312 -1.085938 18 -0.265625 C 18.957031 0.773438 20.03125 0.84375 21.21875 -0.0625 C 22.09375 -1.226562 22.269531 -2.582031 21.75 -4.125 C 21.257812 -5.144531 20.457031 -5.609375 19.34375 -5.515625 Z M 19.34375 -5.515625 "/></g></g></g><g fill="#000000" fill-opacity="1"><g transform="translate(275.181408, 126.910276)"><g><path d="M 3.90625 -18.84375 C 5.851562 -20.34375 8.125 -20.90625 10.71875 -20.53125 C 15.21875 -19.90625 17.378906 -17.640625 17.203125 -13.734375 C 17.222656 -12.722656 16.65625 -11.59375 15.5 -10.34375 C 14.96875 -9.9375 14.988281 -9.488281 15.5625 -9 C 16.300781 -8.332031 16.804688 -7.628906 17.078125 -6.890625 C 18.210938 -3.941406 17.429688 -1.367188 14.734375 0.828125 C 12.335938 2.265625 9.703125 2.660156 6.828125 2.015625 C 3.628906 1.160156 1.921875 -0.859375 1.703125 -4.046875 C 1.660156 -4.785156 1.929688 -5.15625 2.515625 -5.15625 L 4.65625 -5.15625 C 5.25 -5.15625 5.582031 -4.863281 5.65625 -4.28125 C 6.1875 -1.644531 8.015625 -0.726562 11.140625 -1.53125 C 13.191406 -2.3125 13.960938 -3.71875 13.453125 -5.75 C 13.023438 -6.695312 12.359375 -7.289062 11.453125 -7.53125 C 10.484375 -7.820312 9.476562 -7.921875 8.4375 -7.828125 C 7.832031 -7.742188 7.53125 -7.992188 7.53125 -8.578125 L 7.53125 -10.578125 C 7.53125 -11.160156 7.820312 -11.429688 8.40625 -11.390625 C 9.425781 -11.273438 10.335938 -11.351562 11.140625 -11.625 C 12.078125 -11.863281 12.75 -12.441406 13.15625 -13.359375 C 13.71875 -15.273438 12.890625 -16.488281 10.671875 -17 C 9.578125 -17.164062 8.640625 -17.132812 7.859375 -16.90625 C 6.765625 -16.550781 6.140625 -15.726562 5.984375 -14.4375 C 5.878906 -13.851562 5.535156 -13.5625 4.953125 -13.5625 L 2.90625 -13.5625 C 2.320312 -13.5625 2.03125 -13.851562 2.03125 -14.4375 C 2.101562 -16.101562 2.726562 -17.570312 3.90625 -18.84375 Z M 3.90625 -18.84375 "/></g></g><g transform="translate(294.282969, 126.910276)"><g><path d="M 7.140625 -20.046875 C 8.335938 -20.515625 9.570312 -20.695312 10.84375 -20.59375 C 11.738281 -20.5 12.519531 -20.320312 13.1875 -20.0625 C 15.375 -19.070312 16.828125 -17.375 17.546875 -14.96875 C 18.484375 -11.457031 18.597656 -8.007812 17.890625 -4.625 C 17.546875 -2.875 16.84375 -1.351562 15.78125 -0.0625 C 13.769531 1.9375 11.457031 2.691406 8.84375 2.203125 C 7.082031 2.046875 5.5625 1.15625 4.28125 -0.46875 C 3.320312 -1.832031 2.6875 -3.394531 2.375 -5.15625 C 1.6875 -9.0625 1.976562 -12.695312 3.25 -16.0625 C 3.875 -17.738281 5.171875 -19.066406 7.140625 -20.046875 Z M 9.8125 -17.203125 C 8.382812 -17.046875 7.347656 -16.144531 6.703125 -14.5 C 5.847656 -11.789062 5.691406 -8.765625 6.234375 -5.421875 C 7.015625 -1.867188 8.851562 -0.570312 11.75 -1.53125 C 12.757812 -2.113281 13.382812 -2.804688 13.625 -3.609375 C 14.125 -4.796875 14.40625 -6.296875 14.46875 -8.109375 C 14.582031 -10.472656 14.347656 -12.523438 13.765625 -14.265625 C 12.984375 -16.410156 11.664062 -17.390625 9.8125 -17.203125 Z M 9.8125 -17.203125 "/></g></g><g transform="translate(313.384531, 126.910276)"><g><path d="M 4.140625 -20.71875 C 6.660156 -21.8125 8.875 -21.410156 10.78125 -19.515625 C 12.25 -17.128906 12.390625 -14.734375 11.203125 -12.328125 C 10.492188 -11.222656 9.710938 -10.53125 8.859375 -10.25 C 8.015625 -9.9375 7.09375 -9.820312 6.09375 -9.90625 C 4.207031 -10.082031 2.832031 -11.078125 1.96875 -12.890625 C 1.25 -15.160156 1.304688 -17.078125 2.140625 -18.640625 C 2.492188 -19.421875 3.160156 -20.113281 4.140625 -20.71875 Z M 18.4375 -20.25 C 18.863281 -20.945312 19.367188 -21.296875 19.953125 -21.296875 L 21.5625 -21.296875 C 22.15625 -21.296875 22.273438 -21.003906 21.921875 -20.421875 L 7.953125 2.140625 C 7.492188 2.835938 6.972656 3.1875 6.390625 3.1875 L 4.84375 3.1875 C 4.257812 3.1875 4.148438 2.894531 4.515625 2.3125 C 9.128906 -5.207031 13.769531 -12.726562 18.4375 -20.25 Z M 6.421875 -18.640625 C 5.148438 -18.285156 4.476562 -17.503906 4.40625 -16.296875 C 4.28125 -15.515625 4.367188 -14.722656 4.671875 -13.921875 C 4.804688 -13.472656 5.210938 -13.0625 5.890625 -12.6875 C 7.046875 -12.351562 7.972656 -12.6875 8.671875 -13.6875 C 9.222656 -14.5625 9.265625 -15.742188 8.796875 -17.234375 C 8.390625 -18.242188 7.597656 -18.710938 6.421875 -18.640625 Z M 18.234375 -8.03125 C 18.796875 -8.207031 19.644531 -8.226562 20.78125 -8.09375 C 22.675781 -7.695312 23.945312 -6.550781 24.59375 -4.65625 C 25.09375 -2.757812 24.984375 -1.019531 24.265625 0.5625 C 23.285156 2.300781 21.925781 3.1875 20.1875 3.21875 C 19.113281 3.300781 18.160156 3.15625 17.328125 2.78125 C 16.390625 2.289062 15.6875 1.644531 15.21875 0.84375 C 14.394531 -0.738281 14.195312 -2.4375 14.625 -4.25 C 15.113281 -6.1875 16.316406 -7.445312 18.234375 -8.03125 Z M 19.34375 -5.515625 C 18.113281 -5.179688 17.441406 -4.328125 17.328125 -2.953125 C 17.222656 -1.984375 17.445312 -1.085938 18 -0.265625 C 18.957031 0.773438 20.03125 0.84375 21.21875 -0.0625 C 22.09375 -1.226562 22.269531 -2.582031 21.75 -4.125 C 21.257812 -5.144531 20.457031 -5.609375 19.34375 -5.515625 Z M 19.34375 -5.515625 "/></g></g></g></svg>