<svg xmlns="http://www.w3.org/2000/svg" xmlns:xlink="http://www.w3.org/1999/xlink" width="1920" zoomAndPan="magnify" viewBox="0 0 1440 809.999993" height="1080" preserveAspectRatio="xMidYMid meet" version="1.0"><defs><g/><clipPath id="ebb4d8ae6e"><path d="M 25.128906 532 L 728.871094 532 L 728.871094 533.21875 L 25.128906 533.21875 Z M 25.128906 532 " clip-rule="nonzero"/></clipPath><clipPath id="ef35ee4216"><path d="M 25.128906 405 L 728.871094 405 L 728.871094 407 L 25.128906 407 Z M 25.128906 405 " clip-rule="nonzero"/></clipPath><clipPath id="0ca18676bb"><path d="M 25.128906 278 L 728.871094 278 L 728.871094 280 L 25.128906 280 Z M 25.128906 278 " clip-rule="nonzero"/></clipPath><clipPath id="21fdb25b62"><path d="M 25.128906 151 L 728.871094 151 L 728.871094 153 L 25.128906 153 Z M 25.128906 151 " clip-rule="nonzero"/></clipPath><clipPath id="960a149af0"><path d="M 25.128906 25.164062 L 728.871094 25.164062 L 728.871094 26 L 25.128906 26 Z M 25.128906 25.164062 " clip-rule="nonzero"/></clipPath><clipPath id="645df4040a"><path d="M 25.128906 126.777344 L 53.816406 126.777344 L 53.816406 533.21875 L 25.128906 533.21875 Z M 25.128906 126.777344 " clip-rule="nonzero"/></clipPath><clipPath id="9ce195f0cd"><path d="M 193.890625 75.96875 L 222.582031 75.96875 L 222.582031 533.21875 L 193.890625 533.21875 Z M 193.890625 75.96875 " clip-rule="nonzero"/></clipPath><clipPath id="e18bc5f9de"><path d="M 362.65625 25.164062 L 391.34375 25.164062 L 391.34375 533.21875 L 362.65625 533.21875 Z M 362.65625 25.164062 " clip-rule="nonzero"/></clipPath><clipPath id="8c952ea216"><path d="M 531.417969 86.132812 L 560.109375 86.132812 L 560.109375 533.21875 L 531.417969 533.21875 Z M 531.417969 86.132812 " clip-rule="nonzero"/></clipPath><clipPath id="1ae950eea4"><path d="M 700.183594 30.246094 L 728.871094 30.246094 L 728.871094 533.21875 L 700.183594 533.21875 Z M 700.183594 30.246094 " clip-rule="nonzero"/></clipPath><clipPath id="8f46ac45f0"><rect x="0" width="754" y="0" height="559"/></clipPath></defs><g transform="matrix(1, 0, 0, 1, 343, 90)"><g clip-path="url(#8f46ac45f0)"><g clip-path="url(#ebb4d8ae6e)"><path stroke-linecap="butt" transform="matrix(0.86882, 0, 0, 0.86882, 25.12782, 25.165188)" fill="none" stroke-linejoin="miter" d="M 0.00125051 584.76266 L 809.998826 584.76266 " stroke="#000000" stroke-width="1" stroke-opacity="0.6" stroke-miterlimit="4"/></g><g clip-path="url(#ef35ee4216)"><path stroke-linecap="butt" transform="matrix(0.86882, 0, 0, 0.86882, 25.12782, 25.165188)" fill="none" stroke-linejoin="miter" d="M 0.00125051 438.573919 L 809.998826 438.573919 " stroke="#000000" stroke-width="1" stroke-opacity="0.251" stroke-miterlimit="4"/></g><g clip-path="url(#0ca18676bb)"><path stroke-linecap="butt" transform="matrix(0.86882, 0, 0, 0.86882, 25.12782, 25.165188)" fill="none" stroke-linejoin="miter" d="M 0.00125051 292.380683 L 809.998826 292.380683 " stroke="#000000" stroke-width="1" stroke-opacity="0.251" stroke-miterlimit="4"/></g><g clip-path="url(#21fdb25b62)"><path stroke-linecap="butt" transform="matrix(0.86882, 0, 0, 0.86882, 25.12782, 25.165188)" fill="none" stroke-linejoin="miter" d="M 0.00125051 146.191942 L 809.998826 146.191942 " stroke="#000000" stroke-width="1" stroke-opacity="0.251" stroke-miterlimit="4"/></g><g clip-path="url(#960a149af0)"><path stroke-linecap="butt" transform="matrix(0.86882, 0, 0, 0.86882, 25.12782, 25.165188)" fill="none" stroke-linejoin="miter" d="M 0.00125051 -0.00129494 L 809.998826 -0.00129494 " stroke="#000000" stroke-width="1" stroke-opacity="0.251" stroke-miterlimit="4"/></g><g clip-path="url(#645df4040a)"><path fill="#ff5757" d="M 32.585938 126.777344 L 46.359375 126.777344 C 46.847656 126.777344 47.332031 126.824219 47.8125 126.917969 C 48.292969 127.015625 48.761719 127.15625 49.210938 127.34375 C 49.664062 127.53125 50.09375 127.761719 50.503906 128.03125 C 50.910156 128.304688 51.285156 128.613281 51.632812 128.960938 C 51.980469 129.308594 52.289062 129.683594 52.558594 130.089844 C 52.832031 130.5 53.0625 130.929688 53.25 131.378906 C 53.4375 131.832031 53.578125 132.300781 53.675781 132.78125 C 53.769531 133.261719 53.816406 133.746094 53.816406 134.234375 L 53.816406 533.21875 C 53.816406 533.710938 53.769531 534.195312 53.675781 534.675781 C 53.578125 535.15625 53.4375 535.621094 53.25 536.074219 C 53.0625 536.527344 52.832031 536.957031 52.558594 537.363281 C 52.289062 537.769531 51.980469 538.148438 51.632812 538.496094 C 51.285156 538.839844 50.910156 539.148438 50.503906 539.421875 C 50.09375 539.695312 49.664062 539.921875 49.210938 540.109375 C 48.761719 540.296875 48.292969 540.441406 47.8125 540.535156 C 47.332031 540.632812 46.847656 540.679688 46.359375 540.679688 L 32.585938 540.679688 C 32.097656 540.679688 31.613281 540.632812 31.132812 540.535156 C 30.652344 540.441406 30.183594 540.296875 29.734375 540.109375 C 29.28125 539.921875 28.851562 539.695312 28.441406 539.421875 C 28.035156 539.148438 27.660156 538.839844 27.3125 538.496094 C 26.964844 538.148438 26.65625 537.769531 26.386719 537.363281 C 26.113281 536.957031 25.882812 536.527344 25.695312 536.074219 C 25.507812 535.621094 25.367188 535.15625 25.269531 534.675781 C 25.175781 534.195312 25.128906 533.710938 25.128906 533.21875 L 25.128906 134.234375 C 25.128906 133.746094 25.175781 133.261719 25.269531 132.78125 C 25.367188 132.300781 25.507812 131.832031 25.695312 131.378906 C 25.882812 130.929688 26.113281 130.5 26.386719 130.089844 C 26.65625 129.683594 26.964844 129.308594 27.3125 128.960938 C 27.660156 128.613281 28.035156 128.304688 28.441406 128.03125 C 28.851562 127.761719 29.28125 127.53125 29.734375 127.34375 C 30.183594 127.15625 30.652344 127.015625 31.132812 126.917969 C 31.613281 126.824219 32.097656 126.777344 32.585938 126.777344 Z M 32.585938 126.777344 " fill-opacity="1" fill-rule="nonzero"/></g><g clip-path="url(#9ce195f0cd)"><path fill="#ff5757" d="M 201.351562 75.96875 L 215.121094 75.96875 C 215.613281 75.96875 216.097656 76.019531 216.578125 76.113281 C 217.058594 76.210938 217.523438 76.351562 217.976562 76.539062 C 218.429688 76.726562 218.859375 76.957031 219.265625 77.226562 C 219.671875 77.5 220.050781 77.808594 220.394531 78.15625 C 220.742188 78.5 221.050781 78.878906 221.324219 79.285156 C 221.597656 79.691406 221.824219 80.121094 222.011719 80.574219 C 222.199219 81.027344 222.34375 81.496094 222.4375 81.976562 C 222.535156 82.457031 222.582031 82.941406 222.582031 83.429688 L 222.582031 533.21875 C 222.582031 533.710938 222.535156 534.195312 222.4375 534.675781 C 222.34375 535.15625 222.199219 535.621094 222.011719 536.074219 C 221.824219 536.527344 221.597656 536.957031 221.324219 537.363281 C 221.050781 537.769531 220.742188 538.148438 220.394531 538.496094 C 220.050781 538.839844 219.671875 539.148438 219.265625 539.421875 C 218.859375 539.695312 218.429688 539.921875 217.976562 540.109375 C 217.523438 540.296875 217.058594 540.441406 216.578125 540.535156 C 216.097656 540.632812 215.613281 540.679688 215.121094 540.679688 L 201.351562 540.679688 C 200.859375 540.679688 200.375 540.632812 199.894531 540.535156 C 199.414062 540.441406 198.949219 540.296875 198.496094 540.109375 C 198.042969 539.921875 197.613281 539.695312 197.207031 539.421875 C 196.800781 539.148438 196.421875 538.839844 196.078125 538.496094 C 195.730469 538.148438 195.421875 537.769531 195.148438 537.363281 C 194.875 536.957031 194.648438 536.527344 194.460938 536.074219 C 194.273438 535.621094 194.128906 535.15625 194.035156 534.675781 C 193.9375 534.195312 193.890625 533.710938 193.890625 533.21875 L 193.890625 83.429688 C 193.890625 82.941406 193.9375 82.457031 194.035156 81.976562 C 194.128906 81.496094 194.273438 81.027344 194.460938 80.574219 C 194.648438 80.121094 194.875 79.691406 195.148438 79.285156 C 195.421875 78.878906 195.730469 78.5 196.078125 78.15625 C 196.421875 77.808594 196.800781 77.5 197.207031 77.226562 C 197.613281 76.957031 198.042969 76.726562 198.496094 76.539062 C 198.949219 76.351562 199.414062 76.210938 199.894531 76.113281 C 200.375 76.019531 200.859375 75.96875 201.351562 75.96875 Z M 201.351562 75.96875 " fill-opacity="1" fill-rule="nonzero"/></g><g clip-path="url(#e18bc5f9de)"><path fill="#ff5757" d="M 370.113281 25.164062 L 383.886719 25.164062 C 384.375 25.164062 384.859375 25.214844 385.339844 25.308594 C 385.820312 25.402344 386.289062 25.546875 386.738281 25.734375 C 387.191406 25.921875 387.621094 26.148438 388.03125 26.421875 C 388.4375 26.695312 388.8125 27.003906 389.160156 27.351562 C 389.507812 27.695312 389.816406 28.074219 390.085938 28.480469 C 390.359375 28.886719 390.589844 29.316406 390.777344 29.769531 C 390.964844 30.222656 391.105469 30.6875 391.203125 31.167969 C 391.296875 31.648438 391.34375 32.132812 391.34375 32.625 L 391.34375 533.21875 C 391.34375 533.710938 391.296875 534.195312 391.203125 534.675781 C 391.105469 535.15625 390.964844 535.621094 390.777344 536.074219 C 390.589844 536.527344 390.359375 536.957031 390.085938 537.363281 C 389.816406 537.769531 389.507812 538.148438 389.160156 538.496094 C 388.8125 538.839844 388.4375 539.148438 388.03125 539.421875 C 387.621094 539.695312 387.191406 539.921875 386.738281 540.109375 C 386.289062 540.296875 385.820312 540.441406 385.339844 540.535156 C 384.859375 540.632812 384.375 540.679688 383.886719 540.679688 L 370.113281 540.679688 C 369.625 540.679688 369.140625 540.632812 368.660156 540.535156 C 368.179688 540.441406 367.710938 540.296875 367.261719 540.109375 C 366.808594 539.921875 366.378906 539.695312 365.96875 539.421875 C 365.5625 539.148438 365.1875 538.839844 364.839844 538.496094 C 364.492188 538.148438 364.183594 537.769531 363.914062 537.363281 C 363.640625 536.957031 363.410156 536.527344 363.222656 536.074219 C 363.035156 535.621094 362.894531 535.15625 362.796875 534.675781 C 362.703125 534.195312 362.65625 533.710938 362.65625 533.21875 L 362.65625 32.625 C 362.65625 32.132812 362.703125 31.648438 362.796875 31.167969 C 362.894531 30.6875 363.035156 30.222656 363.222656 29.769531 C 363.410156 29.316406 363.640625 28.886719 363.914062 28.480469 C 364.183594 28.074219 364.492188 27.695312 364.839844 27.351562 C 365.1875 27.003906 365.5625 26.695312 365.96875 26.421875 C 366.378906 26.148438 366.808594 25.921875 367.261719 25.734375 C 367.710938 25.546875 368.179688 25.402344 368.660156 25.308594 C 369.140625 25.214844 369.625 25.164062 370.113281 25.164062 Z M 370.113281 25.164062 " fill-opacity="1" fill-rule="nonzero"/></g><g clip-path="url(#8c952ea216)"><path fill="#ff5757" d="M 538.878906 86.132812 L 552.648438 86.132812 C 553.140625 86.132812 553.625 86.179688 554.105469 86.273438 C 554.585938 86.371094 555.050781 86.511719 555.503906 86.699219 C 555.957031 86.886719 556.386719 87.117188 556.792969 87.390625 C 557.199219 87.660156 557.578125 87.96875 557.921875 88.316406 C 558.269531 88.664062 558.578125 89.039062 558.851562 89.445312 C 559.125 89.855469 559.351562 90.285156 559.539062 90.738281 C 559.726562 91.1875 559.871094 91.65625 559.964844 92.136719 C 560.0625 92.617188 560.109375 93.101562 560.109375 93.589844 L 560.109375 533.21875 C 560.109375 533.710938 560.0625 534.195312 559.964844 534.675781 C 559.871094 535.15625 559.726562 535.621094 559.539062 536.074219 C 559.351562 536.527344 559.125 536.957031 558.851562 537.363281 C 558.578125 537.769531 558.269531 538.148438 557.921875 538.496094 C 557.578125 538.839844 557.199219 539.148438 556.792969 539.421875 C 556.386719 539.695312 555.957031 539.921875 555.503906 540.109375 C 555.050781 540.296875 554.585938 540.441406 554.105469 540.535156 C 553.625 540.632812 553.140625 540.679688 552.648438 540.679688 L 538.878906 540.679688 C 538.386719 540.679688 537.902344 540.632812 537.421875 540.535156 C 536.941406 540.441406 536.476562 540.296875 536.023438 540.109375 C 535.570312 539.921875 535.140625 539.695312 534.734375 539.421875 C 534.328125 539.148438 533.949219 538.839844 533.601562 538.496094 C 533.257812 538.148438 532.949219 537.769531 532.675781 537.363281 C 532.402344 536.957031 532.175781 536.527344 531.988281 536.074219 C 531.800781 535.621094 531.65625 535.15625 531.5625 534.675781 C 531.464844 534.195312 531.417969 533.710938 531.417969 533.21875 L 531.417969 93.589844 C 531.417969 93.101562 531.464844 92.617188 531.5625 92.136719 C 531.65625 91.65625 531.800781 91.1875 531.988281 90.738281 C 532.175781 90.285156 532.402344 89.855469 532.675781 89.445312 C 532.949219 89.039062 533.257812 88.664062 533.601562 88.316406 C 533.949219 87.96875 534.328125 87.660156 534.734375 87.390625 C 535.140625 87.117188 535.570312 86.886719 536.023438 86.699219 C 536.476562 86.511719 536.941406 86.371094 537.421875 86.273438 C 537.902344 86.179688 538.386719 86.132812 538.878906 86.132812 Z M 538.878906 86.132812 " fill-opacity="1" fill-rule="nonzero"/></g><g clip-path="url(#1ae950eea4)"><path fill="#ff5757" d="M 707.640625 30.246094 L 721.414062 30.246094 C 721.902344 30.246094 722.386719 30.292969 722.867188 30.390625 C 723.347656 30.484375 723.816406 30.625 724.265625 30.8125 C 724.71875 31 725.148438 31.230469 725.558594 31.503906 C 725.964844 31.773438 726.339844 32.085938 726.6875 32.429688 C 727.035156 32.777344 727.34375 33.152344 727.613281 33.5625 C 727.886719 33.96875 728.117188 34.398438 728.304688 34.851562 C 728.492188 35.304688 728.632812 35.769531 728.730469 36.25 C 728.824219 36.730469 728.871094 37.214844 728.871094 37.707031 L 728.871094 533.21875 C 728.871094 533.710938 728.824219 534.195312 728.730469 534.675781 C 728.632812 535.15625 728.492188 535.621094 728.304688 536.074219 C 728.117188 536.527344 727.886719 536.957031 727.613281 537.363281 C 727.34375 537.769531 727.035156 538.148438 726.6875 538.496094 C 726.339844 538.839844 725.964844 539.148438 725.558594 539.421875 C 725.148438 539.695312 724.71875 539.921875 724.265625 540.109375 C 723.816406 540.296875 723.347656 540.441406 722.867188 540.535156 C 722.386719 540.632812 721.902344 540.679688 721.414062 540.679688 L 707.640625 540.679688 C 707.152344 540.679688 706.667969 540.632812 706.1875 540.535156 C 705.707031 540.441406 705.238281 540.296875 704.785156 540.109375 C 704.335938 539.921875 703.90625 539.695312 703.496094 539.421875 C 703.089844 539.148438 702.714844 538.839844 702.367188 538.496094 C 702.019531 538.148438 701.710938 537.769531 701.4375 537.363281 C 701.167969 536.957031 700.9375 536.527344 700.75 536.074219 C 700.5625 535.621094 700.421875 535.15625 700.324219 534.675781 C 700.230469 534.195312 700.183594 533.710938 700.183594 533.21875 L 700.183594 37.707031 C 700.183594 37.214844 700.230469 36.730469 700.324219 36.25 C 700.421875 35.769531 700.5625 35.304688 700.75 34.851562 C 700.9375 34.398438 701.167969 33.96875 701.4375 33.5625 C 701.710938 33.152344 702.019531 32.777344 702.367188 32.429688 C 702.714844 32.085938 703.089844 31.773438 703.496094 31.503906 C 703.90625 31.230469 704.335938 31 704.785156 30.8125 C 705.238281 30.625 705.707031 30.484375 706.1875 30.390625 C 706.667969 30.292969 707.152344 30.246094 707.640625 30.246094 Z M 707.640625 30.246094 " fill-opacity="1" fill-rule="nonzero"/></g></g></g><g fill="#000000" fill-opacity="1"><g transform="translate(313.668564, 684.509986)"><g><path d="M 6.328125 -20.09375 C 7.734375 -20.5625 9.21875 -20.707031 10.78125 -20.53125 C 12.5625 -20.363281 14.113281 -19.566406 15.4375 -18.140625 C 16.0625 -17.316406 16.414062 -16.535156 16.5 -15.796875 C 16.84375 -14.078125 16.453125 -12.28125 15.328125 -10.40625 C 13.796875 -7.925781 11.539062 -5.285156 8.5625 -2.484375 C 8.070312 -2.003906 8.070312 -1.765625 8.5625 -1.765625 L 16 -1.765625 C 16.601562 -1.765625 16.90625 -1.46875 16.90625 -0.875 L 16.90625 0.9375 C 16.90625 1.539062 16.613281 1.84375 16.03125 1.84375 L 3.140625 1.84375 C 2.535156 1.84375 2.234375 1.550781 2.234375 0.96875 L 2.234375 -0.53125 C 2.234375 -1.113281 2.523438 -1.679688 3.109375 -2.234375 C 7.710938 -6.328125 10.835938 -9.921875 12.484375 -13.015625 C 12.867188 -14.109375 12.835938 -15.046875 12.390625 -15.828125 C 12.078125 -16.410156 11.539062 -16.800781 10.78125 -17 C 9.726562 -17.1875 8.878906 -17.175781 8.234375 -16.96875 C 7.046875 -16.570312 6.441406 -15.660156 6.421875 -14.234375 C 6.421875 -13.535156 6.125 -13.1875 5.53125 -13.1875 L 3.375 -13.1875 C 2.78125 -13.1875 2.484375 -13.476562 2.484375 -14.0625 C 2.523438 -15.5625 3.046875 -17.023438 4.046875 -18.453125 C 4.648438 -19.203125 5.410156 -19.75 6.328125 -20.09375 Z M 6.328125 -20.09375 "/></g></g><g transform="translate(332.770126, 684.509986)"><g><path d="M 2.9375 -19.125 C 2.96875 -19.8125 3.257812 -20.15625 3.8125 -20.15625 L 15.265625 -20.15625 C 15.867188 -20.15625 16.171875 -19.863281 16.171875 -19.28125 L 16.171875 -17.609375 C 16.171875 -17.003906 15.878906 -16.703125 15.296875 -16.703125 L 7.265625 -16.703125 C 6.773438 -16.703125 6.53125 -16.46875 6.53125 -16 L 6.453125 -13.09375 C 6.453125 -12.625 6.742188 -12.519531 7.328125 -12.78125 C 8.753906 -13.382812 10.453125 -13.429688 12.421875 -12.921875 C 14.203125 -12.367188 15.5625 -11.117188 16.5 -9.171875 C 17.550781 -6.296875 17.441406 -3.6875 16.171875 -1.34375 C 15.078125 0.488281 13.59375 1.617188 11.71875 2.046875 C 8.90625 2.617188 6.414062 2.171875 4.25 0.703125 C 3 -0.472656 2.257812 -1.988281 2.03125 -3.84375 C 1.988281 -4.46875 2.25 -4.78125 2.8125 -4.78125 L 4.953125 -4.78125 C 5.535156 -4.78125 5.890625 -4.484375 6.015625 -3.890625 C 6.203125 -2.796875 6.753906 -2.015625 7.671875 -1.546875 C 8.492188 -1.222656 9.441406 -1.164062 10.515625 -1.375 C 12.179688 -1.957031 13.109375 -3.207031 13.296875 -5.125 C 13.398438 -6.039062 13.238281 -6.953125 12.8125 -7.859375 C 11.8125 -9.421875 10.316406 -9.957031 8.328125 -9.46875 C 7.578125 -9.269531 6.910156 -8.679688 6.328125 -7.703125 C 6.054688 -7.003906 5.628906 -6.65625 5.046875 -6.65625 L 3.3125 -6.65625 C 2.726562 -6.65625 2.4375 -6.992188 2.4375 -7.671875 Z M 2.9375 -19.125 "/></g></g><g transform="translate(351.871687, 684.509986)"><g><path d="M 11.84375 -22.390625 C 12.09375 -23.023438 12.507812 -23.34375 13.09375 -23.34375 L 14.53125 -23.34375 C 15.113281 -23.34375 15.300781 -23.050781 15.09375 -22.46875 L 4.59375 4.1875 C 4.320312 4.832031 3.894531 5.15625 3.3125 5.15625 L 1.875 5.15625 C 1.289062 5.15625 1.113281 4.863281 1.34375 4.28125 Z M 11.84375 -22.390625 "/></g></g><g transform="translate(367.809186, 684.509986)"><g><path d="M 8.375 -19.3125 C 8.945312 -19.875 9.503906 -20.15625 10.046875 -20.15625 L 10.84375 -20.15625 C 11.445312 -20.15625 11.75 -19.863281 11.75 -19.28125 L 11.75 0.96875 C 11.75 1.570312 11.457031 1.875 10.875 1.875 L 8.875 1.875 C 8.269531 1.875 7.96875 1.582031 7.96875 1 L 7.96875 -13.796875 C 7.96875 -14.285156 7.664062 -14.328125 7.0625 -13.921875 C 6.5 -13.585938 5.921875 -13.300781 5.328125 -13.0625 C 4.742188 -12.832031 4.453125 -13.007812 4.453125 -13.59375 L 4.453125 -15.875 C 4.453125 -16.46875 4.742188 -16.921875 5.328125 -17.234375 C 6.460938 -17.816406 7.476562 -18.507812 8.375 -19.3125 Z M 8.375 -19.3125 "/></g></g><g transform="translate(386.910748, 684.509986)"><g><path d="M 6.328125 -20.09375 C 7.734375 -20.5625 9.21875 -20.707031 10.78125 -20.53125 C 12.5625 -20.363281 14.113281 -19.566406 15.4375 -18.140625 C 16.0625 -17.316406 16.414062 -16.535156 16.5 -15.796875 C 16.84375 -14.078125 16.453125 -12.28125 15.328125 -10.40625 C 13.796875 -7.925781 11.539062 -5.285156 8.5625 -2.484375 C 8.070312 -2.003906 8.070312 -1.765625 8.5625 -1.765625 L 16 -1.765625 C 16.601562 -1.765625 16.90625 -1.46875 16.90625 -0.875 L 16.90625 0.9375 C 16.90625 1.539062 16.613281 1.84375 16.03125 1.84375 L 3.140625 1.84375 C 2.535156 1.84375 2.234375 1.550781 2.234375 0.96875 L 2.234375 -0.53125 C 2.234375 -1.113281 2.523438 -1.679688 3.109375 -2.234375 C 7.710938 -6.328125 10.835938 -9.921875 12.484375 -13.015625 C 12.867188 -14.109375 12.835938 -15.046875 12.390625 -15.828125 C 12.078125 -16.410156 11.539062 -16.800781 10.78125 -17 C 9.726562 -17.1875 8.878906 -17.175781 8.234375 -16.96875 C 7.046875 -16.570312 6.441406 -15.660156 6.421875 -14.234375 C 6.421875 -13.535156 6.125 -13.1875 5.53125 -13.1875 L 3.375 -13.1875 C 2.78125 -13.1875 2.484375 -13.476562 2.484375 -14.0625 C 2.523438 -15.5625 3.046875 -17.023438 4.046875 -18.453125 C 4.648438 -19.203125 5.410156 -19.75 6.328125 -20.09375 Z M 6.328125 -20.09375 "/></g></g><g transform="translate(406.012309, 684.509986)"><g><path d="M 11.84375 -22.390625 C 12.09375 -23.023438 12.507812 -23.34375 13.09375 -23.34375 L 14.53125 -23.34375 C 15.113281 -23.34375 15.300781 -23.050781 15.09375 -22.46875 L 4.59375 4.1875 C 4.320312 4.832031 3.894531 5.15625 3.3125 5.15625 L 1.875 5.15625 C 1.289062 5.15625 1.113281 4.863281 1.34375 4.28125 Z M 11.84375 -22.390625 "/></g></g><g transform="translate(421.949809, 684.509986)"><g><path d="M 3.90625 -18.84375 C 5.851562 -20.34375 8.125 -20.90625 10.71875 -20.53125 C 15.21875 -19.90625 17.378906 -17.640625 17.203125 -13.734375 C 17.222656 -12.722656 16.65625 -11.59375 15.5 -10.34375 C 14.96875 -9.9375 14.988281 -9.488281 15.5625 -9 C 16.300781 -8.332031 16.804688 -7.628906 17.078125 -6.890625 C 18.210938 -3.941406 17.429688 -1.367188 14.734375 0.828125 C 12.335938 2.265625 9.703125 2.660156 6.828125 2.015625 C 3.628906 1.160156 1.921875 -0.859375 1.703125 -4.046875 C 1.660156 -4.785156 1.929688 -5.15625 2.515625 -5.15625 L 4.65625 -5.15625 C 5.25 -5.15625 5.582031 -4.863281 5.65625 -4.28125 C 6.1875 -1.644531 8.015625 -0.726562 11.140625 -1.53125 C 13.191406 -2.3125 13.960938 -3.71875 13.453125 -5.75 C 13.023438 -6.695312 12.359375 -7.289062 11.453125 -7.53125 C 10.484375 -7.820312 9.476562 -7.921875 8.4375 -7.828125 C 7.832031 -7.742188 7.53125 -7.992188 7.53125 -8.578125 L 7.53125 -10.578125 C 7.53125 -11.160156 7.820312 -11.429688 8.40625 -11.390625 C 9.425781 -11.273438 10.335938 -11.351562 11.140625 -11.625 C 12.078125 -11.863281 12.75 -12.441406 13.15625 -13.359375 C 13.71875 -15.273438 12.890625 -16.488281 10.671875 -17 C 9.578125 -17.164062 8.640625 -17.132812 7.859375 -16.90625 C 6.765625 -16.550781 6.140625 -15.726562 5.984375 -14.4375 C 5.878906 -13.851562 5.535156 -13.5625 4.953125 -13.5625 L 2.90625 -13.5625 C 2.320312 -13.5625 2.03125 -13.851562 2.03125 -14.4375 C 2.101562 -16.101562 2.726562 -17.570312 3.90625 -18.84375 Z M 3.90625 -18.84375 "/></g></g></g><g fill="#000000" fill-opacity="1"><g transform="translate(501.926765, 684.509986)"><g><path d="M 8.375 -19.3125 C 8.945312 -19.875 9.503906 -20.15625 10.046875 -20.15625 L 10.84375 -20.15625 C 11.445312 -20.15625 11.75 -19.863281 11.75 -19.28125 L 11.75 0.96875 C 11.75 1.570312 11.457031 1.875 10.875 1.875 L 8.875 1.875 C 8.269531 1.875 7.96875 1.582031 7.96875 1 L 7.96875 -13.796875 C 7.96875 -14.285156 7.664062 -14.328125 7.0625 -13.921875 C 6.5 -13.585938 5.921875 -13.300781 5.328125 -13.0625 C 4.742188 -12.832031 4.453125 -13.007812 4.453125 -13.59375 L 4.453125 -15.875 C 4.453125 -16.46875 4.742188 -16.921875 5.328125 -17.234375 C 6.460938 -17.816406 7.476562 -18.507812 8.375 -19.3125 Z M 8.375 -19.3125 "/></g></g><g transform="translate(521.028327, 684.509986)"><g><path d="M 6.328125 -20.09375 C 7.734375 -20.5625 9.21875 -20.707031 10.78125 -20.53125 C 12.5625 -20.363281 14.113281 -19.566406 15.4375 -18.140625 C 16.0625 -17.316406 16.414062 -16.535156 16.5 -15.796875 C 16.84375 -14.078125 16.453125 -12.28125 15.328125 -10.40625 C 13.796875 -7.925781 11.539062 -5.285156 8.5625 -2.484375 C 8.070312 -2.003906 8.070312 -1.765625 8.5625 -1.765625 L 16 -1.765625 C 16.601562 -1.765625 16.90625 -1.46875 16.90625 -0.875 L 16.90625 0.9375 C 16.90625 1.539062 16.613281 1.84375 16.03125 1.84375 L 3.140625 1.84375 C 2.535156 1.84375 2.234375 1.550781 2.234375 0.96875 L 2.234375 -0.53125 C 2.234375 -1.113281 2.523438 -1.679688 3.109375 -2.234375 C 7.710938 -6.328125 10.835938 -9.921875 12.484375 -13.015625 C 12.867188 -14.109375 12.835938 -15.046875 12.390625 -15.828125 C 12.078125 -16.410156 11.539062 -16.800781 10.78125 -17 C 9.726562 -17.1875 8.878906 -17.175781 8.234375 -16.96875 C 7.046875 -16.570312 6.441406 -15.660156 6.421875 -14.234375 C 6.421875 -13.535156 6.125 -13.1875 5.53125 -13.1875 L 3.375 -13.1875 C 2.78125 -13.1875 2.484375 -13.476562 2.484375 -14.0625 C 2.523438 -15.5625 3.046875 -17.023438 4.046875 -18.453125 C 4.648438 -19.203125 5.410156 -19.75 6.328125 -20.09375 Z M 6.328125 -20.09375 "/></g></g><g transform="translate(540.129888, 684.509986)"><g><path d="M 11.84375 -22.390625 C 12.09375 -23.023438 12.507812 -23.34375 13.09375 -23.34375 L 14.53125 -23.34375 C 15.113281 -23.34375 15.300781 -23.050781 15.09375 -22.46875 L 4.59375 4.1875 C 4.320312 4.832031 3.894531 5.15625 3.3125 5.15625 L 1.875 5.15625 C 1.289062 5.15625 1.113281 4.863281 1.34375 4.28125 Z M 11.84375 -22.390625 "/></g></g><g transform="translate(556.067387, 684.509986)"><g><path d="M 8.375 -19.3125 C 8.945312 -19.875 9.503906 -20.15625 10.046875 -20.15625 L 10.84375 -20.15625 C 11.445312 -20.15625 11.75 -19.863281 11.75 -19.28125 L 11.75 0.96875 C 11.75 1.570312 11.457031 1.875 10.875 1.875 L 8.875 1.875 C 8.269531 1.875 7.96875 1.582031 7.96875 1 L 7.96875 -13.796875 C 7.96875 -14.285156 7.664062 -14.328125 7.0625 -13.921875 C 6.5 -13.585938 5.921875 -13.300781 5.328125 -13.0625 C 4.742188 -12.832031 4.453125 -13.007812 4.453125 -13.59375 L 4.453125 -15.875 C 4.453125 -16.46875 4.742188 -16.921875 5.328125 -17.234375 C 6.460938 -17.816406 7.476562 -18.507812 8.375 -19.3125 Z M 8.375 -19.3125 "/></g></g><g transform="translate(575.168949, 684.509986)"><g><path d="M 7.140625 -20.046875 C 8.335938 -20.515625 9.570312 -20.695312 10.84375 -20.59375 C 11.738281 -20.5 12.519531 -20.320312 13.1875 -20.0625 C 15.375 -19.070312 16.828125 -17.375 17.546875 -14.96875 C 18.484375 -11.457031 18.597656 -8.007812 17.890625 -4.625 C 17.546875 -2.875 16.84375 -1.351562 15.78125 -0.0625 C 13.769531 1.9375 11.457031 2.691406 8.84375 2.203125 C 7.082031 2.046875 5.5625 1.15625 4.28125 -0.46875 C 3.320312 -1.832031 2.6875 -3.394531 2.375 -5.15625 C 1.6875 -9.0625 1.976562 -12.695312 3.25 -16.0625 C 3.875 -17.738281 5.171875 -19.066406 7.140625 -20.046875 Z M 9.8125 -17.203125 C 8.382812 -17.046875 7.347656 -16.144531 6.703125 -14.5 C 5.847656 -11.789062 5.691406 -8.765625 6.234375 -5.421875 C 7.015625 -1.867188 8.851562 -0.570312 11.75 -1.53125 C 12.757812 -2.113281 13.382812 -2.804688 13.625 -3.609375 C 14.125 -4.796875 14.40625 -6.296875 14.46875 -8.109375 C 14.582031 -10.472656 14.347656 -12.523438 13.765625 -14.265625 C 12.984375 -16.410156 11.664062 -17.390625 9.8125 -17.203125 Z M 9.8125 -17.203125 "/></g></g></g><g fill="#000000" fill-opacity="1"><g transform="translate(669.539565, 684.509986)"><g><path d="M 8.375 -19.3125 C 8.945312 -19.875 9.503906 -20.15625 10.046875 -20.15625 L 10.84375 -20.15625 C 11.445312 -20.15625 11.75 -19.863281 11.75 -19.28125 L 11.75 0.96875 C 11.75 1.570312 11.457031 1.875 10.875 1.875 L 8.875 1.875 C 8.269531 1.875 7.96875 1.582031 7.96875 1 L 7.96875 -13.796875 C 7.96875 -14.285156 7.664062 -14.328125 7.0625 -13.921875 C 6.5 -13.585938 5.921875 -13.300781 5.328125 -13.0625 C 4.742188 -12.832031 4.453125 -13.007812 4.453125 -13.59375 L 4.453125 -15.875 C 4.453125 -16.46875 4.742188 -16.921875 5.328125 -17.234375 C 6.460938 -17.816406 7.476562 -18.507812 8.375 -19.3125 Z M 8.375 -19.3125 "/></g></g><g transform="translate(688.641126, 684.509986)"><g><path d="M 6.328125 -20.09375 C 7.734375 -20.5625 9.21875 -20.707031 10.78125 -20.53125 C 12.5625 -20.363281 14.113281 -19.566406 15.4375 -18.140625 C 16.0625 -17.316406 16.414062 -16.535156 16.5 -15.796875 C 16.84375 -14.078125 16.453125 -12.28125 15.328125 -10.40625 C 13.796875 -7.925781 11.539062 -5.285156 8.5625 -2.484375 C 8.070312 -2.003906 8.070312 -1.765625 8.5625 -1.765625 L 16 -1.765625 C 16.601562 -1.765625 16.90625 -1.46875 16.90625 -0.875 L 16.90625 0.9375 C 16.90625 1.539062 16.613281 1.84375 16.03125 1.84375 L 3.140625 1.84375 C 2.535156 1.84375 2.234375 1.550781 2.234375 0.96875 L 2.234375 -0.53125 C 2.234375 -1.113281 2.523438 -1.679688 3.109375 -2.234375 C 7.710938 -6.328125 10.835938 -9.921875 12.484375 -13.015625 C 12.867188 -14.109375 12.835938 -15.046875 12.390625 -15.828125 C 12.078125 -16.410156 11.539062 -16.800781 10.78125 -17 C 9.726562 -17.1875 8.878906 -17.175781 8.234375 -16.96875 C 7.046875 -16.570312 6.441406 -15.660156 6.421875 -14.234375 C 6.421875 -13.535156 6.125 -13.1875 5.53125 -13.1875 L 3.375 -13.1875 C 2.78125 -13.1875 2.484375 -13.476562 2.484375 -14.0625 C 2.523438 -15.5625 3.046875 -17.023438 4.046875 -18.453125 C 4.648438 -19.203125 5.410156 -19.75 6.328125 -20.09375 Z M 6.328125 -20.09375 "/></g></g><g transform="translate(707.742688, 684.509986)"><g><path d="M 11.84375 -22.390625 C 12.09375 -23.023438 12.507812 -23.34375 13.09375 -23.34375 L 14.53125 -23.34375 C 15.113281 -23.34375 15.300781 -23.050781 15.09375 -22.46875 L 4.59375 4.1875 C 4.320312 4.832031 3.894531 5.15625 3.3125 5.15625 L 1.875 5.15625 C 1.289062 5.15625 1.113281 4.863281 1.34375 4.28125 Z M 11.84375 -22.390625 "/></g></g><g transform="translate(723.680187, 684.509986)"><g><path d="M 8.375 -19.3125 C 8.945312 -19.875 9.503906 -20.15625 10.046875 -20.15625 L 10.84375 -20.15625 C 11.445312 -20.15625 11.75 -19.863281 11.75 -19.28125 L 11.75 0.96875 C 11.75 1.570312 11.457031 1.875 10.875 1.875 L 8.875 1.875 C 8.269531 1.875 7.96875 1.582031 7.96875 1 L 7.96875 -13.796875 C 7.96875 -14.285156 7.664062 -14.328125 7.0625 -13.921875 C 6.5 -13.585938 5.921875 -13.300781 5.328125 -13.0625 C 4.742188 -12.832031 4.453125 -13.007812 4.453125 -13.59375 L 4.453125 -15.875 C 4.453125 -16.46875 4.742188 -16.921875 5.328125 -17.234375 C 6.460938 -17.816406 7.476562 -18.507812 8.375 -19.3125 Z M 8.375 -19.3125 "/></g></g><g transform="translate(742.781748, 684.509986)"><g><path d="M 2.109375 -19.21875 C 2.109375 -19.84375 2.382812 -20.15625 2.9375 -20.15625 L 16.109375 -20.15625 C 16.710938 -20.15625 17.015625 -19.863281 17.015625 -19.28125 C 17.117188 -18.125 17.035156 -17.351562 16.765625 -16.96875 L 9.03125 0.9375 C 8.75 1.5625 8.328125 1.875 7.765625 1.875 L 5.296875 1.875 C 4.710938 1.875 4.539062 1.582031 4.78125 1 C 7.257812 -4.644531 9.769531 -10.300781 12.3125 -15.96875 C 12.476562 -16.4375 12.328125 -16.671875 11.859375 -16.671875 L 3.015625 -16.671875 C 2.410156 -16.671875 2.109375 -16.960938 2.109375 -17.546875 Z M 2.109375 -19.21875 "/></g></g></g><g fill="#000000" fill-opacity="1"><g transform="translate(841.4409, 684.509986)"><g><path d="M 8.375 -19.3125 C 8.945312 -19.875 9.503906 -20.15625 10.046875 -20.15625 L 10.84375 -20.15625 C 11.445312 -20.15625 11.75 -19.863281 11.75 -19.28125 L 11.75 0.96875 C 11.75 1.570312 11.457031 1.875 10.875 1.875 L 8.875 1.875 C 8.269531 1.875 7.96875 1.582031 7.96875 1 L 7.96875 -13.796875 C 7.96875 -14.285156 7.664062 -14.328125 7.0625 -13.921875 C 6.5 -13.585938 5.921875 -13.300781 5.328125 -13.0625 C 4.742188 -12.832031 4.453125 -13.007812 4.453125 -13.59375 L 4.453125 -15.875 C 4.453125 -16.46875 4.742188 -16.921875 5.328125 -17.234375 C 6.460938 -17.816406 7.476562 -18.507812 8.375 -19.3125 Z M 8.375 -19.3125 "/></g></g><g transform="translate(860.542461, 684.509986)"><g><path d="M 6.328125 -20.09375 C 7.734375 -20.5625 9.21875 -20.707031 10.78125 -20.53125 C 12.5625 -20.363281 14.113281 -19.566406 15.4375 -18.140625 C 16.0625 -17.316406 16.414062 -16.535156 16.5 -15.796875 C 16.84375 -14.078125 16.453125 -12.28125 15.328125 -10.40625 C 13.796875 -7.925781 11.539062 -5.285156 8.5625 -2.484375 C 8.070312 -2.003906 8.070312 -1.765625 8.5625 -1.765625 L 16 -1.765625 C 16.601562 -1.765625 16.90625 -1.46875 16.90625 -0.875 L 16.90625 0.9375 C 16.90625 1.539062 16.613281 1.84375 16.03125 1.84375 L 3.140625 1.84375 C 2.535156 1.84375 2.234375 1.550781 2.234375 0.96875 L 2.234375 -0.53125 C 2.234375 -1.113281 2.523438 -1.679688 3.109375 -2.234375 C 7.710938 -6.328125 10.835938 -9.921875 12.484375 -13.015625 C 12.867188 -14.109375 12.835938 -15.046875 12.390625 -15.828125 C 12.078125 -16.410156 11.539062 -16.800781 10.78125 -17 C 9.726562 -17.1875 8.878906 -17.175781 8.234375 -16.96875 C 7.046875 -16.570312 6.441406 -15.660156 6.421875 -14.234375 C 6.421875 -13.535156 6.125 -13.1875 5.53125 -13.1875 L 3.375 -13.1875 C 2.78125 -13.1875 2.484375 -13.476562 2.484375 -14.0625 C 2.523438 -15.5625 3.046875 -17.023438 4.046875 -18.453125 C 4.648438 -19.203125 5.410156 -19.75 6.328125 -20.09375 Z M 6.328125 -20.09375 "/></g></g><g transform="translate(879.644023, 684.509986)"><g><path d="M 11.84375 -22.390625 C 12.09375 -23.023438 12.507812 -23.34375 13.09375 -23.34375 L 14.53125 -23.34375 C 15.113281 -23.34375 15.300781 -23.050781 15.09375 -22.46875 L 4.59375 4.1875 C 4.320312 4.832031 3.894531 5.15625 3.3125 5.15625 L 1.875 5.15625 C 1.289062 5.15625 1.113281 4.863281 1.34375 4.28125 Z M 11.84375 -22.390625 "/></g></g><g transform="translate(895.581522, 684.509986)"><g><path d="M 6.328125 -20.09375 C 7.734375 -20.5625 9.21875 -20.707031 10.78125 -20.53125 C 12.5625 -20.363281 14.113281 -19.566406 15.4375 -18.140625 C 16.0625 -17.316406 16.414062 -16.535156 16.5 -15.796875 C 16.84375 -14.078125 16.453125 -12.28125 15.328125 -10.40625 C 13.796875 -7.925781 11.539062 -5.285156 8.5625 -2.484375 C 8.070312 -2.003906 8.070312 -1.765625 8.5625 -1.765625 L 16 -1.765625 C 16.601562 -1.765625 16.90625 -1.46875 16.90625 -0.875 L 16.90625 0.9375 C 16.90625 1.539062 16.613281 1.84375 16.03125 1.84375 L 3.140625 1.84375 C 2.535156 1.84375 2.234375 1.550781 2.234375 0.96875 L 2.234375 -0.53125 C 2.234375 -1.113281 2.523438 -1.679688 3.109375 -2.234375 C 7.710938 -6.328125 10.835938 -9.921875 12.484375 -13.015625 C 12.867188 -14.109375 12.835938 -15.046875 12.390625 -15.828125 C 12.078125 -16.410156 11.539062 -16.800781 10.78125 -17 C 9.726562 -17.1875 8.878906 -17.175781 8.234375 -16.96875 C 7.046875 -16.570312 6.441406 -15.660156 6.421875 -14.234375 C 6.421875 -13.535156 6.125 -13.1875 5.53125 -13.1875 L 3.375 -13.1875 C 2.78125 -13.1875 2.484375 -13.476562 2.484375 -14.0625 C 2.523438 -15.5625 3.046875 -17.023438 4.046875 -18.453125 C 4.648438 -19.203125 5.410156 -19.75 6.328125 -20.09375 Z M 6.328125 -20.09375 "/></g></g><g transform="translate(914.683084, 684.509986)"><g><path d="M 10.515625 -19.15625 C 10.984375 -19.820312 11.460938 -20.15625 11.953125 -20.15625 L 13.625 -20.15625 C 14.226562 -20.15625 14.53125 -19.863281 14.53125 -19.28125 L 14.53125 -6.890625 C 14.53125 -6.398438 14.765625 -6.15625 15.234375 -6.15625 L 16.96875 -6.15625 C 17.570312 -6.15625 17.875 -5.863281 17.875 -5.28125 L 17.875 -3.6875 C 17.875 -3.082031 17.582031 -2.78125 17 -2.78125 L 15.265625 -2.78125 C 14.773438 -2.78125 14.53125 -2.546875 14.53125 -2.078125 L 14.53125 0.96875 C 14.53125 1.570312 14.238281 1.875 13.65625 1.875 L 11.71875 1.875 C 11.113281 1.875 10.8125 1.582031 10.8125 1 L 10.8125 -2.046875 C 10.8125 -2.535156 10.578125 -2.78125 10.109375 -2.78125 L 2.109375 -2.78125 C 1.503906 -2.78125 1.203125 -3.070312 1.203125 -3.65625 L 1.203125 -4.484375 C 1.203125 -5.066406 1.335938 -5.554688 1.609375 -5.953125 C 4.535156 -10.347656 7.503906 -14.75 10.515625 -19.15625 Z M 10.8125 -12.421875 C 10.8125 -12.953125 10.632812 -12.953125 10.28125 -12.421875 L 6.5 -6.890625 C 6.15625 -6.398438 6.222656 -6.15625 6.703125 -6.15625 L 10.078125 -6.15625 C 10.566406 -6.15625 10.8125 -6.390625 10.8125 -6.859375 Z M 10.8125 -12.421875 "/></g></g></g><g fill="#000000" fill-opacity="1"><g transform="translate(1009.053699, 684.509986)"><g><path d="M 8.375 -19.3125 C 8.945312 -19.875 9.503906 -20.15625 10.046875 -20.15625 L 10.84375 -20.15625 C 11.445312 -20.15625 11.75 -19.863281 11.75 -19.28125 L 11.75 0.96875 C 11.75 1.570312 11.457031 1.875 10.875 1.875 L 8.875 1.875 C 8.269531 1.875 7.96875 1.582031 7.96875 1 L 7.96875 -13.796875 C 7.96875 -14.285156 7.664062 -14.328125 7.0625 -13.921875 C 6.5 -13.585938 5.921875 -13.300781 5.328125 -13.0625 C 4.742188 -12.832031 4.453125 -13.007812 4.453125 -13.59375 L 4.453125 -15.875 C 4.453125 -16.46875 4.742188 -16.921875 5.328125 -17.234375 C 6.460938 -17.816406 7.476562 -18.507812 8.375 -19.3125 Z M 8.375 -19.3125 "/></g></g><g transform="translate(1028.155261, 684.509986)"><g><path d="M 6.328125 -20.09375 C 7.734375 -20.5625 9.21875 -20.707031 10.78125 -20.53125 C 12.5625 -20.363281 14.113281 -19.566406 15.4375 -18.140625 C 16.0625 -17.316406 16.414062 -16.535156 16.5 -15.796875 C 16.84375 -14.078125 16.453125 -12.28125 15.328125 -10.40625 C 13.796875 -7.925781 11.539062 -5.285156 8.5625 -2.484375 C 8.070312 -2.003906 8.070312 -1.765625 8.5625 -1.765625 L 16 -1.765625 C 16.601562 -1.765625 16.90625 -1.46875 16.90625 -0.875 L 16.90625 0.9375 C 16.90625 1.539062 16.613281 1.84375 16.03125 1.84375 L 3.140625 1.84375 C 2.535156 1.84375 2.234375 1.550781 2.234375 0.96875 L 2.234375 -0.53125 C 2.234375 -1.113281 2.523438 -1.679688 3.109375 -2.234375 C 7.710938 -6.328125 10.835938 -9.921875 12.484375 -13.015625 C 12.867188 -14.109375 12.835938 -15.046875 12.390625 -15.828125 C 12.078125 -16.410156 11.539062 -16.800781 10.78125 -17 C 9.726562 -17.1875 8.878906 -17.175781 8.234375 -16.96875 C 7.046875 -16.570312 6.441406 -15.660156 6.421875 -14.234375 C 6.421875 -13.535156 6.125 -13.1875 5.53125 -13.1875 L 3.375 -13.1875 C 2.78125 -13.1875 2.484375 -13.476562 2.484375 -14.0625 C 2.523438 -15.5625 3.046875 -17.023438 4.046875 -18.453125 C 4.648438 -19.203125 5.410156 -19.75 6.328125 -20.09375 Z M 6.328125 -20.09375 "/></g></g><g transform="translate(1047.256823, 684.509986)"><g><path d="M 11.84375 -22.390625 C 12.09375 -23.023438 12.507812 -23.34375 13.09375 -23.34375 L 14.53125 -23.34375 C 15.113281 -23.34375 15.300781 -23.050781 15.09375 -22.46875 L 4.59375 4.1875 C 4.320312 4.832031 3.894531 5.15625 3.3125 5.15625 L 1.875 5.15625 C 1.289062 5.15625 1.113281 4.863281 1.34375 4.28125 Z M 11.84375 -22.390625 "/></g></g><g transform="translate(1063.194322, 684.509986)"><g><path d="M 3.90625 -18.84375 C 5.851562 -20.34375 8.125 -20.90625 10.71875 -20.53125 C 15.21875 -19.90625 17.378906 -17.640625 17.203125 -13.734375 C 17.222656 -12.722656 16.65625 -11.59375 15.5 -10.34375 C 14.96875 -9.9375 14.988281 -9.488281 15.5625 -9 C 16.300781 -8.332031 16.804688 -7.628906 17.078125 -6.890625 C 18.210938 -3.941406 17.429688 -1.367188 14.734375 0.828125 C 12.335938 2.265625 9.703125 2.660156 6.828125 2.015625 C 3.628906 1.160156 1.921875 -0.859375 1.703125 -4.046875 C 1.660156 -4.785156 1.929688 -5.15625 2.515625 -5.15625 L 4.65625 -5.15625 C 5.25 -5.15625 5.582031 -4.863281 5.65625 -4.28125 C 6.1875 -1.644531 8.015625 -0.726562 11.140625 -1.53125 C 13.191406 -2.3125 13.960938 -3.71875 13.453125 -5.75 C 13.023438 -6.695312 12.359375 -7.289062 11.453125 -7.53125 C 10.484375 -7.820312 9.476562 -7.921875 8.4375 -7.828125 C 7.832031 -7.742188 7.53125 -7.992188 7.53125 -8.578125 L 7.53125 -10.578125 C 7.53125 -11.160156 7.820312 -11.429688 8.40625 -11.390625 C 9.425781 -11.273438 10.335938 -11.351562 11.140625 -11.625 C 12.078125 -11.863281 12.75 -12.441406 13.15625 -13.359375 C 13.71875 -15.273438 12.890625 -16.488281 10.671875 -17 C 9.578125 -17.164062 8.640625 -17.132812 7.859375 -16.90625 C 6.765625 -16.550781 6.140625 -15.726562 5.984375 -14.4375 C 5.878906 -13.851562 5.535156 -13.5625 4.953125 -13.5625 L 2.90625 -13.5625 C 2.320312 -13.5625 2.03125 -13.851562 2.03125 -14.4375 C 2.101562 -16.101562 2.726562 -17.570312 3.90625 -18.84375 Z M 3.90625 -18.84375 "/></g></g><g transform="translate(1082.295883, 684.509986)"><g><path d="M 8.375 -19.3125 C 8.945312 -19.875 9.503906 -20.15625 10.046875 -20.15625 L 10.84375 -20.15625 C 11.445312 -20.15625 11.75 -19.863281 11.75 -19.28125 L 11.75 0.96875 C 11.75 1.570312 11.457031 1.875 10.875 1.875 L 8.875 1.875 C 8.269531 1.875 7.96875 1.582031 7.96875 1 L 7.96875 -13.796875 C 7.96875 -14.285156 7.664062 -14.328125 7.0625 -13.921875 C 6.5 -13.585938 5.921875 -13.300781 5.328125 -13.0625 C 4.742188 -12.832031 4.453125 -13.007812 4.453125 -13.59375 L 4.453125 -15.875 C 4.453125 -16.46875 4.742188 -16.921875 5.328125 -17.234375 C 6.460938 -17.816406 7.476562 -18.507812 8.375 -19.3125 Z M 8.375 -19.3125 "/></g></g></g><g fill="#000000" fill-opacity="1"><g transform="translate(345.522734, 207.330142)"><g><path d="M 3.25 -15.703125 C 4.882812 -16.953125 6.78125 -17.421875 8.9375 -17.109375 C 12.6875 -16.585938 14.488281 -14.703125 14.34375 -11.453125 C 14.351562 -10.609375 13.878906 -9.664062 12.921875 -8.625 C 12.484375 -8.28125 12.5 -7.90625 12.96875 -7.5 C 13.59375 -6.945312 14.015625 -6.359375 14.234375 -5.734375 C 15.179688 -3.273438 14.53125 -1.132812 12.28125 0.6875 C 10.28125 1.882812 8.085938 2.21875 5.703125 1.6875 C 3.023438 0.96875 1.597656 -0.71875 1.421875 -3.375 C 1.390625 -3.988281 1.617188 -4.296875 2.109375 -4.296875 L 3.890625 -4.296875 C 4.378906 -4.296875 4.65625 -4.050781 4.71875 -3.5625 C 5.15625 -1.363281 6.675781 -0.597656 9.28125 -1.265625 C 10.988281 -1.921875 11.632812 -3.09375 11.21875 -4.78125 C 10.851562 -5.582031 10.296875 -6.082031 9.546875 -6.28125 C 8.734375 -6.519531 7.894531 -6.597656 7.03125 -6.515625 C 6.53125 -6.453125 6.28125 -6.664062 6.28125 -7.15625 L 6.28125 -8.8125 C 6.28125 -9.300781 6.523438 -9.53125 7.015625 -9.5 C 7.859375 -9.394531 8.613281 -9.457031 9.28125 -9.6875 C 10.0625 -9.882812 10.625 -10.367188 10.96875 -11.140625 C 11.4375 -12.734375 10.742188 -13.738281 8.890625 -14.15625 C 7.984375 -14.300781 7.203125 -14.28125 6.546875 -14.09375 C 5.640625 -13.789062 5.117188 -13.101562 4.984375 -12.03125 C 4.898438 -11.539062 4.617188 -11.296875 4.140625 -11.296875 L 2.421875 -11.296875 C 1.929688 -11.296875 1.6875 -11.539062 1.6875 -12.03125 C 1.757812 -13.414062 2.28125 -14.640625 3.25 -15.703125 Z M 3.25 -15.703125 "/></g></g></g><g fill="#000000" fill-opacity="1"><g transform="translate(361.438215, 207.330142)"><g><path d="M 5.28125 -16.75 C 6.445312 -17.132812 7.679688 -17.253906 8.984375 -17.109375 C 10.460938 -16.960938 11.753906 -16.296875 12.859375 -15.109375 C 13.378906 -14.429688 13.675781 -13.78125 13.75 -13.15625 C 14.039062 -11.726562 13.710938 -10.234375 12.765625 -8.671875 C 11.492188 -6.597656 9.613281 -4.398438 7.125 -2.078125 C 6.71875 -1.671875 6.71875 -1.46875 7.125 -1.46875 L 13.328125 -1.46875 C 13.835938 -1.46875 14.09375 -1.222656 14.09375 -0.734375 L 14.09375 0.78125 C 14.09375 1.28125 13.847656 1.53125 13.359375 1.53125 L 2.609375 1.53125 C 2.109375 1.53125 1.859375 1.289062 1.859375 0.8125 L 1.859375 -0.4375 C 1.859375 -0.925781 2.101562 -1.398438 2.59375 -1.859375 C 6.425781 -5.273438 9.03125 -8.269531 10.40625 -10.84375 C 10.726562 -11.75 10.703125 -12.53125 10.328125 -13.1875 C 10.066406 -13.675781 9.617188 -14 8.984375 -14.15625 C 8.109375 -14.320312 7.398438 -14.316406 6.859375 -14.140625 C 5.867188 -13.804688 5.363281 -13.046875 5.34375 -11.859375 C 5.34375 -11.273438 5.097656 -10.984375 4.609375 -10.984375 L 2.8125 -10.984375 C 2.320312 -10.984375 2.078125 -11.226562 2.078125 -11.71875 C 2.109375 -12.96875 2.539062 -14.1875 3.375 -15.375 C 3.875 -16 4.507812 -16.457031 5.28125 -16.75 Z M 5.28125 -16.75 "/></g></g></g><g fill="#000000" fill-opacity="1"><g transform="translate(377.353695, 207.330142)"><g><path d="M 5.953125 -16.703125 C 6.941406 -17.085938 7.96875 -17.238281 9.03125 -17.15625 C 9.78125 -17.082031 10.429688 -16.9375 10.984375 -16.71875 C 12.804688 -15.894531 14.019531 -14.476562 14.625 -12.46875 C 15.40625 -9.539062 15.5 -6.671875 14.90625 -3.859375 C 14.613281 -2.390625 14.03125 -1.117188 13.15625 -0.046875 C 11.476562 1.609375 9.550781 2.234375 7.375 1.828125 C 5.90625 1.703125 4.632812 0.960938 3.5625 -0.390625 C 2.757812 -1.523438 2.226562 -2.828125 1.96875 -4.296875 C 1.40625 -7.554688 1.648438 -10.582031 2.703125 -13.375 C 3.222656 -14.78125 4.304688 -15.890625 5.953125 -16.703125 Z M 8.171875 -14.328125 C 6.984375 -14.203125 6.117188 -13.453125 5.578125 -12.078125 C 4.867188 -9.816406 4.738281 -7.296875 5.1875 -4.515625 C 5.84375 -1.554688 7.375 -0.472656 9.78125 -1.265625 C 10.625 -1.753906 11.144531 -2.332031 11.34375 -3 C 11.769531 -4 12.007812 -5.253906 12.0625 -6.765625 C 12.15625 -8.734375 11.957031 -10.441406 11.46875 -11.890625 C 10.820312 -13.679688 9.722656 -14.492188 8.171875 -14.328125 Z M 8.171875 -14.328125 "/></g></g></g><g fill="#000000" fill-opacity="1"><g transform="translate(393.269176, 207.330142)"><g><path d="M 5.953125 -16.703125 C 6.941406 -17.085938 7.96875 -17.238281 9.03125 -17.15625 C 9.78125 -17.082031 10.429688 -16.9375 10.984375 -16.71875 C 12.804688 -15.894531 14.019531 -14.476562 14.625 -12.46875 C 15.40625 -9.539062 15.5 -6.671875 14.90625 -3.859375 C 14.613281 -2.390625 14.03125 -1.117188 13.15625 -0.046875 C 11.476562 1.609375 9.550781 2.234375 7.375 1.828125 C 5.90625 1.703125 4.632812 0.960938 3.5625 -0.390625 C 2.757812 -1.523438 2.226562 -2.828125 1.96875 -4.296875 C 1.40625 -7.554688 1.648438 -10.582031 2.703125 -13.375 C 3.222656 -14.78125 4.304688 -15.890625 5.953125 -16.703125 Z M 8.171875 -14.328125 C 6.984375 -14.203125 6.117188 -13.453125 5.578125 -12.078125 C 4.867188 -9.816406 4.738281 -7.296875 5.1875 -4.515625 C 5.84375 -1.554688 7.375 -0.472656 9.78125 -1.265625 C 10.625 -1.753906 11.144531 -2.332031 11.34375 -3 C 11.769531 -4 12.007812 -5.253906 12.0625 -6.765625 C 12.15625 -8.734375 11.957031 -10.441406 11.46875 -11.890625 C 10.820312 -13.679688 9.722656 -14.492188 8.171875 -14.328125 Z M 8.171875 -14.328125 "/></g></g></g><g fill="#000000" fill-opacity="1"><g transform="translate(516.259032, 154.910285)"><g><path d="M 3.25 -15.703125 C 4.882812 -16.953125 6.78125 -17.421875 8.9375 -17.109375 C 12.6875 -16.585938 14.488281 -14.703125 14.34375 -11.453125 C 14.351562 -10.609375 13.878906 -9.664062 12.921875 -8.625 C 12.484375 -8.28125 12.5 -7.90625 12.96875 -7.5 C 13.59375 -6.945312 14.015625 -6.359375 14.234375 -5.734375 C 15.179688 -3.273438 14.53125 -1.132812 12.28125 0.6875 C 10.28125 1.882812 8.085938 2.21875 5.703125 1.6875 C 3.023438 0.96875 1.597656 -0.71875 1.421875 -3.375 C 1.390625 -3.988281 1.617188 -4.296875 2.109375 -4.296875 L 3.890625 -4.296875 C 4.378906 -4.296875 4.65625 -4.050781 4.71875 -3.5625 C 5.15625 -1.363281 6.675781 -0.597656 9.28125 -1.265625 C 10.988281 -1.921875 11.632812 -3.09375 11.21875 -4.78125 C 10.851562 -5.582031 10.296875 -6.082031 9.546875 -6.28125 C 8.734375 -6.519531 7.894531 -6.597656 7.03125 -6.515625 C 6.53125 -6.453125 6.28125 -6.664062 6.28125 -7.15625 L 6.28125 -8.8125 C 6.28125 -9.300781 6.523438 -9.53125 7.015625 -9.5 C 7.859375 -9.394531 8.613281 -9.457031 9.28125 -9.6875 C 10.0625 -9.882812 10.625 -10.367188 10.96875 -11.140625 C 11.4375 -12.734375 10.742188 -13.738281 8.890625 -14.15625 C 7.984375 -14.300781 7.203125 -14.28125 6.546875 -14.09375 C 5.640625 -13.789062 5.117188 -13.101562 4.984375 -12.03125 C 4.898438 -11.539062 4.617188 -11.296875 4.140625 -11.296875 L 2.421875 -11.296875 C 1.929688 -11.296875 1.6875 -11.539062 1.6875 -12.03125 C 1.757812 -13.414062 2.28125 -14.640625 3.25 -15.703125 Z M 3.25 -15.703125 "/></g></g></g><g fill="#000000" fill-opacity="1"><g transform="translate(532.174513, 154.910285)"><g><path d="M 5.921875 -16.65625 C 8.191406 -17.414062 10.300781 -17.332031 12.25 -16.40625 C 13.09375 -15.863281 13.65625 -15.285156 13.9375 -14.671875 C 14.3125 -13.953125 14.53125 -13.195312 14.59375 -12.40625 C 14.625 -11.863281 14.410156 -11.59375 13.953125 -11.59375 L 12.203125 -11.59375 C 11.710938 -11.59375 11.425781 -11.835938 11.34375 -12.328125 C 10.925781 -13.941406 9.820312 -14.566406 8.03125 -14.203125 C 7.363281 -14.109375 6.734375 -13.6875 6.140625 -12.9375 C 5.753906 -12.40625 5.429688 -11.609375 5.171875 -10.546875 C 5.085938 -10.117188 5.289062 -10.046875 5.78125 -10.328125 C 6.882812 -10.898438 8.195312 -11.113281 9.71875 -10.96875 C 12.070312 -10.6875 13.679688 -9.332031 14.546875 -6.90625 C 14.929688 -5.71875 14.960938 -4.265625 14.640625 -2.546875 C 14.179688 -0.960938 13.269531 0.257812 11.90625 1.125 C 10.164062 2.101562 8.078125 2.164062 5.640625 1.3125 C 4.953125 1.019531 4.300781 0.539062 3.6875 -0.125 C 2.789062 -1.289062 2.195312 -2.59375 1.90625 -4.03125 C 1.507812 -6.613281 1.582031 -9.0625 2.125 -11.375 C 2.539062 -13.78125 3.804688 -15.539062 5.921875 -16.65625 Z M 8.25 -8.109375 C 7.40625 -8.023438 6.6875 -7.648438 6.09375 -6.984375 C 5.101562 -5.648438 4.898438 -4.316406 5.484375 -2.984375 C 6.367188 -1.398438 7.578125 -0.765625 9.109375 -1.078125 C 10.628906 -1.546875 11.472656 -2.53125 11.640625 -4.03125 C 11.722656 -4.875 11.582031 -5.679688 11.21875 -6.453125 C 10.519531 -7.753906 9.53125 -8.304688 8.25 -8.109375 Z M 8.25 -8.109375 "/></g></g></g><g fill="#000000" fill-opacity="1"><g transform="translate(548.089994, 154.910285)"><g><path d="M 5.953125 -16.703125 C 6.941406 -17.085938 7.96875 -17.238281 9.03125 -17.15625 C 9.78125 -17.082031 10.429688 -16.9375 10.984375 -16.71875 C 12.804688 -15.894531 14.019531 -14.476562 14.625 -12.46875 C 15.40625 -9.539062 15.5 -6.671875 14.90625 -3.859375 C 14.613281 -2.390625 14.03125 -1.117188 13.15625 -0.046875 C 11.476562 1.609375 9.550781 2.234375 7.375 1.828125 C 5.90625 1.703125 4.632812 0.960938 3.5625 -0.390625 C 2.757812 -1.523438 2.226562 -2.828125 1.96875 -4.296875 C 1.40625 -7.554688 1.648438 -10.582031 2.703125 -13.375 C 3.222656 -14.78125 4.304688 -15.890625 5.953125 -16.703125 Z M 8.171875 -14.328125 C 6.984375 -14.203125 6.117188 -13.453125 5.578125 -12.078125 C 4.867188 -9.816406 4.738281 -7.296875 5.1875 -4.515625 C 5.84375 -1.554688 7.375 -0.472656 9.78125 -1.265625 C 10.625 -1.753906 11.144531 -2.332031 11.34375 -3 C 11.769531 -4 12.007812 -5.253906 12.0625 -6.765625 C 12.15625 -8.734375 11.957031 -10.441406 11.46875 -11.890625 C 10.820312 -13.679688 9.722656 -14.492188 8.171875 -14.328125 Z M 8.171875 -14.328125 "/></g></g></g><g fill="#000000" fill-opacity="1"><g transform="translate(564.005475, 154.910285)"><g><path d="M 5.953125 -16.703125 C 6.941406 -17.085938 7.96875 -17.238281 9.03125 -17.15625 C 9.78125 -17.082031 10.429688 -16.9375 10.984375 -16.71875 C 12.804688 -15.894531 14.019531 -14.476562 14.625 -12.46875 C 15.40625 -9.539062 15.5 -6.671875 14.90625 -3.859375 C 14.613281 -2.390625 14.03125 -1.117188 13.15625 -0.046875 C 11.476562 1.609375 9.550781 2.234375 7.375 1.828125 C 5.90625 1.703125 4.632812 0.960938 3.5625 -0.390625 C 2.757812 -1.523438 2.226562 -2.828125 1.96875 -4.296875 C 1.40625 -7.554688 1.648438 -10.582031 2.703125 -13.375 C 3.222656 -14.78125 4.304688 -15.890625 5.953125 -16.703125 Z M 8.171875 -14.328125 C 6.984375 -14.203125 6.117188 -13.453125 5.578125 -12.078125 C 4.867188 -9.816406 4.738281 -7.296875 5.1875 -4.515625 C 5.84375 -1.554688 7.375 -0.472656 9.78125 -1.265625 C 10.625 -1.753906 11.144531 -2.332031 11.34375 -3 C 11.769531 -4 12.007812 -5.253906 12.0625 -6.765625 C 12.15625 -8.734375 11.957031 -10.441406 11.46875 -11.890625 C 10.820312 -13.679688 9.722656 -14.492188 8.171875 -14.328125 Z M 8.171875 -14.328125 "/></g></g></g><g fill="#000000" fill-opacity="1"><g transform="translate(683.799648, 107.410284)"><g><path d="M 8.765625 -15.96875 C 9.148438 -16.519531 9.550781 -16.796875 9.96875 -16.796875 L 11.359375 -16.796875 C 11.859375 -16.796875 12.109375 -16.550781 12.109375 -16.0625 L 12.109375 -5.734375 C 12.109375 -5.328125 12.304688 -5.125 12.703125 -5.125 L 14.140625 -5.125 C 14.640625 -5.125 14.890625 -4.878906 14.890625 -4.390625 L 14.890625 -3.078125 C 14.890625 -2.566406 14.644531 -2.3125 14.15625 -2.3125 L 12.71875 -2.3125 C 12.3125 -2.3125 12.109375 -2.117188 12.109375 -1.734375 L 12.109375 0.8125 C 12.109375 1.3125 11.863281 1.5625 11.375 1.5625 L 9.765625 1.5625 C 9.265625 1.5625 9.015625 1.316406 9.015625 0.828125 L 9.015625 -1.703125 C 9.015625 -2.109375 8.816406 -2.3125 8.421875 -2.3125 L 1.765625 -2.3125 C 1.253906 -2.3125 1 -2.554688 1 -3.046875 L 1 -3.734375 C 1 -4.222656 1.113281 -4.628906 1.34375 -4.953125 C 3.78125 -8.617188 6.253906 -12.289062 8.765625 -15.96875 Z M 9.015625 -10.359375 C 9.015625 -10.796875 8.863281 -10.796875 8.5625 -10.359375 L 5.421875 -5.734375 C 5.128906 -5.328125 5.1875 -5.125 5.59375 -5.125 L 8.40625 -5.125 C 8.8125 -5.125 9.015625 -5.320312 9.015625 -5.71875 Z M 9.015625 -10.359375 "/></g></g></g><g fill="#000000" fill-opacity="1"><g transform="translate(699.715129, 107.410284)"><g><path d="M 5.953125 -16.703125 C 6.941406 -17.085938 7.96875 -17.238281 9.03125 -17.15625 C 9.78125 -17.082031 10.429688 -16.9375 10.984375 -16.71875 C 12.804688 -15.894531 14.019531 -14.476562 14.625 -12.46875 C 15.40625 -9.539062 15.5 -6.671875 14.90625 -3.859375 C 14.613281 -2.390625 14.03125 -1.117188 13.15625 -0.046875 C 11.476562 1.609375 9.550781 2.234375 7.375 1.828125 C 5.90625 1.703125 4.632812 0.960938 3.5625 -0.390625 C 2.757812 -1.523438 2.226562 -2.828125 1.96875 -4.296875 C 1.40625 -7.554688 1.648438 -10.582031 2.703125 -13.375 C 3.222656 -14.78125 4.304688 -15.890625 5.953125 -16.703125 Z M 8.171875 -14.328125 C 6.984375 -14.203125 6.117188 -13.453125 5.578125 -12.078125 C 4.867188 -9.816406 4.738281 -7.296875 5.1875 -4.515625 C 5.84375 -1.554688 7.375 -0.472656 9.78125 -1.265625 C 10.625 -1.753906 11.144531 -2.332031 11.34375 -3 C 11.769531 -4 12.007812 -5.253906 12.0625 -6.765625 C 12.15625 -8.734375 11.957031 -10.441406 11.46875 -11.890625 C 10.820312 -13.679688 9.722656 -14.492188 8.171875 -14.328125 Z M 8.171875 -14.328125 "/></g></g></g><g fill="#000000" fill-opacity="1"><g transform="translate(715.63061, 107.410284)"><g><path d="M 5.953125 -16.703125 C 6.941406 -17.085938 7.96875 -17.238281 9.03125 -17.15625 C 9.78125 -17.082031 10.429688 -16.9375 10.984375 -16.71875 C 12.804688 -15.894531 14.019531 -14.476562 14.625 -12.46875 C 15.40625 -9.539062 15.5 -6.671875 14.90625 -3.859375 C 14.613281 -2.390625 14.03125 -1.117188 13.15625 -0.046875 C 11.476562 1.609375 9.550781 2.234375 7.375 1.828125 C 5.90625 1.703125 4.632812 0.960938 3.5625 -0.390625 C 2.757812 -1.523438 2.226562 -2.828125 1.96875 -4.296875 C 1.40625 -7.554688 1.648438 -10.582031 2.703125 -13.375 C 3.222656 -14.78125 4.304688 -15.890625 5.953125 -16.703125 Z M 8.171875 -14.328125 C 6.984375 -14.203125 6.117188 -13.453125 5.578125 -12.078125 C 4.867188 -9.816406 4.738281 -7.296875 5.1875 -4.515625 C 5.84375 -1.554688 7.375 -0.472656 9.78125 -1.265625 C 10.625 -1.753906 11.144531 -2.332031 11.34375 -3 C 11.769531 -4 12.007812 -5.253906 12.0625 -6.765625 C 12.15625 -8.734375 11.957031 -10.441406 11.46875 -11.890625 C 10.820312 -13.679688 9.722656 -14.492188 8.171875 -14.328125 Z M 8.171875 -14.328125 "/></g></g></g><g fill="#000000" fill-opacity="1"><g transform="translate(731.54609, 107.410284)"><g><path d="M 5.953125 -16.703125 C 6.941406 -17.085938 7.96875 -17.238281 9.03125 -17.15625 C 9.78125 -17.082031 10.429688 -16.9375 10.984375 -16.71875 C 12.804688 -15.894531 14.019531 -14.476562 14.625 -12.46875 C 15.40625 -9.539062 15.5 -6.671875 14.90625 -3.859375 C 14.613281 -2.390625 14.03125 -1.117188 13.15625 -0.046875 C 11.476562 1.609375 9.550781 2.234375 7.375 1.828125 C 5.90625 1.703125 4.632812 0.960938 3.5625 -0.390625 C 2.757812 -1.523438 2.226562 -2.828125 1.96875 -4.296875 C 1.40625 -7.554688 1.648438 -10.582031 2.703125 -13.375 C 3.222656 -14.78125 4.304688 -15.890625 5.953125 -16.703125 Z M 8.171875 -14.328125 C 6.984375 -14.203125 6.117188 -13.453125 5.578125 -12.078125 C 4.867188 -9.816406 4.738281 -7.296875 5.1875 -4.515625 C 5.84375 -1.554688 7.375 -0.472656 9.78125 -1.265625 C 10.625 -1.753906 11.144531 -2.332031 11.34375 -3 C 11.769531 -4 12.007812 -5.253906 12.0625 -6.765625 C 12.15625 -8.734375 11.957031 -10.441406 11.46875 -11.890625 C 10.820312 -13.679688 9.722656 -14.492188 8.171875 -14.328125 Z M 8.171875 -14.328125 "/></g></g></g><g fill="#000000" fill-opacity="1"><g transform="translate(848.890224, 169.660281)"><g><path d="M 3.25 -15.703125 C 4.882812 -16.953125 6.78125 -17.421875 8.9375 -17.109375 C 12.6875 -16.585938 14.488281 -14.703125 14.34375 -11.453125 C 14.351562 -10.609375 13.878906 -9.664062 12.921875 -8.625 C 12.484375 -8.28125 12.5 -7.90625 12.96875 -7.5 C 13.59375 -6.945312 14.015625 -6.359375 14.234375 -5.734375 C 15.179688 -3.273438 14.53125 -1.132812 12.28125 0.6875 C 10.28125 1.882812 8.085938 2.21875 5.703125 1.6875 C 3.023438 0.96875 1.597656 -0.71875 1.421875 -3.375 C 1.390625 -3.988281 1.617188 -4.296875 2.109375 -4.296875 L 3.890625 -4.296875 C 4.378906 -4.296875 4.65625 -4.050781 4.71875 -3.5625 C 5.15625 -1.363281 6.675781 -0.597656 9.28125 -1.265625 C 10.988281 -1.921875 11.632812 -3.09375 11.21875 -4.78125 C 10.851562 -5.582031 10.296875 -6.082031 9.546875 -6.28125 C 8.734375 -6.519531 7.894531 -6.597656 7.03125 -6.515625 C 6.53125 -6.453125 6.28125 -6.664062 6.28125 -7.15625 L 6.28125 -8.8125 C 6.28125 -9.300781 6.523438 -9.53125 7.015625 -9.5 C 7.859375 -9.394531 8.613281 -9.457031 9.28125 -9.6875 C 10.0625 -9.882812 10.625 -10.367188 10.96875 -11.140625 C 11.4375 -12.734375 10.742188 -13.738281 8.890625 -14.15625 C 7.984375 -14.300781 7.203125 -14.28125 6.546875 -14.09375 C 5.640625 -13.789062 5.117188 -13.101562 4.984375 -12.03125 C 4.898438 -11.539062 4.617188 -11.296875 4.140625 -11.296875 L 2.421875 -11.296875 C 1.929688 -11.296875 1.6875 -11.539062 1.6875 -12.03125 C 1.757812 -13.414062 2.28125 -14.640625 3.25 -15.703125 Z M 3.25 -15.703125 "/></g></g></g><g fill="#000000" fill-opacity="1"><g transform="translate(864.805705, 169.660281)"><g><path d="M 2.453125 -15.9375 C 2.484375 -16.507812 2.726562 -16.796875 3.1875 -16.796875 L 12.734375 -16.796875 C 13.234375 -16.796875 13.484375 -16.550781 13.484375 -16.0625 L 13.484375 -14.671875 C 13.484375 -14.171875 13.238281 -13.921875 12.75 -13.921875 L 6.0625 -13.921875 C 5.65625 -13.921875 5.453125 -13.722656 5.453125 -13.328125 L 5.375 -10.90625 C 5.375 -10.519531 5.617188 -10.429688 6.109375 -10.640625 C 7.296875 -11.148438 8.710938 -11.191406 10.359375 -10.765625 C 11.835938 -10.304688 12.96875 -9.265625 13.75 -7.640625 C 14.632812 -5.242188 14.546875 -3.070312 13.484375 -1.125 C 12.566406 0.40625 11.328125 1.347656 9.765625 1.703125 C 7.421875 2.179688 5.347656 1.8125 3.546875 0.59375 C 2.503906 -0.382812 1.882812 -1.648438 1.6875 -3.203125 C 1.65625 -3.722656 1.875 -3.984375 2.34375 -3.984375 L 4.140625 -3.984375 C 4.617188 -3.984375 4.910156 -3.738281 5.015625 -3.25 C 5.171875 -2.332031 5.632812 -1.679688 6.40625 -1.296875 C 7.082031 -1.015625 7.867188 -0.960938 8.765625 -1.140625 C 10.148438 -1.628906 10.925781 -2.671875 11.09375 -4.265625 C 11.175781 -5.035156 11.035156 -5.796875 10.671875 -6.546875 C 9.847656 -7.847656 8.601562 -8.296875 6.9375 -7.890625 C 6.320312 -7.722656 5.769531 -7.234375 5.28125 -6.421875 C 5.050781 -5.835938 4.691406 -5.546875 4.203125 -5.546875 L 2.765625 -5.546875 C 2.273438 -5.546875 2.03125 -5.828125 2.03125 -6.390625 Z M 2.453125 -15.9375 "/></g></g></g><g fill="#000000" fill-opacity="1"><g transform="translate(880.721186, 169.660281)"><g><path d="M 5.28125 -16.75 C 6.445312 -17.132812 7.679688 -17.253906 8.984375 -17.109375 C 10.460938 -16.960938 11.753906 -16.296875 12.859375 -15.109375 C 13.378906 -14.429688 13.675781 -13.78125 13.75 -13.15625 C 14.039062 -11.726562 13.710938 -10.234375 12.765625 -8.671875 C 11.492188 -6.597656 9.613281 -4.398438 7.125 -2.078125 C 6.71875 -1.671875 6.71875 -1.46875 7.125 -1.46875 L 13.328125 -1.46875 C 13.835938 -1.46875 14.09375 -1.222656 14.09375 -0.734375 L 14.09375 0.78125 C 14.09375 1.28125 13.847656 1.53125 13.359375 1.53125 L 2.609375 1.53125 C 2.109375 1.53125 1.859375 1.289062 1.859375 0.8125 L 1.859375 -0.4375 C 1.859375 -0.925781 2.101562 -1.398438 2.59375 -1.859375 C 6.425781 -5.273438 9.03125 -8.269531 10.40625 -10.84375 C 10.726562 -11.75 10.703125 -12.53125 10.328125 -13.1875 C 10.066406 -13.675781 9.617188 -14 8.984375 -14.15625 C 8.109375 -14.320312 7.398438 -14.316406 6.859375 -14.140625 C 5.867188 -13.804688 5.363281 -13.046875 5.34375 -11.859375 C 5.34375 -11.273438 5.097656 -10.984375 4.609375 -10.984375 L 2.8125 -10.984375 C 2.320312 -10.984375 2.078125 -11.226562 2.078125 -11.71875 C 2.109375 -12.96875 2.539062 -14.1875 3.375 -15.375 C 3.875 -16 4.507812 -16.457031 5.28125 -16.75 Z M 5.28125 -16.75 "/></g></g></g><g fill="#000000" fill-opacity="1"><g transform="translate(896.636666, 169.660281)"><g><path d="M 5.953125 -16.703125 C 6.941406 -17.085938 7.96875 -17.238281 9.03125 -17.15625 C 9.78125 -17.082031 10.429688 -16.9375 10.984375 -16.71875 C 12.804688 -15.894531 14.019531 -14.476562 14.625 -12.46875 C 15.40625 -9.539062 15.5 -6.671875 14.90625 -3.859375 C 14.613281 -2.390625 14.03125 -1.117188 13.15625 -0.046875 C 11.476562 1.609375 9.550781 2.234375 7.375 1.828125 C 5.90625 1.703125 4.632812 0.960938 3.5625 -0.390625 C 2.757812 -1.523438 2.226562 -2.828125 1.96875 -4.296875 C 1.40625 -7.554688 1.648438 -10.582031 2.703125 -13.375 C 3.222656 -14.78125 4.304688 -15.890625 5.953125 -16.703125 Z M 8.171875 -14.328125 C 6.984375 -14.203125 6.117188 -13.453125 5.578125 -12.078125 C 4.867188 -9.816406 4.738281 -7.296875 5.1875 -4.515625 C 5.84375 -1.554688 7.375 -0.472656 9.78125 -1.265625 C 10.625 -1.753906 11.144531 -2.332031 11.34375 -3 C 11.769531 -4 12.007812 -5.253906 12.0625 -6.765625 C 12.15625 -8.734375 11.957031 -10.441406 11.46875 -11.890625 C 10.820312 -13.679688 9.722656 -14.492188 8.171875 -14.328125 Z M 8.171875 -14.328125 "/></g></g></g><g fill="#000000" fill-opacity="1"><g transform="translate(1018.955455, 114.915189)"><g><path d="M 3.25 -15.703125 C 4.882812 -16.953125 6.78125 -17.421875 8.9375 -17.109375 C 12.6875 -16.585938 14.488281 -14.703125 14.34375 -11.453125 C 14.351562 -10.609375 13.878906 -9.664062 12.921875 -8.625 C 12.484375 -8.28125 12.5 -7.90625 12.96875 -7.5 C 13.59375 -6.945312 14.015625 -6.359375 14.234375 -5.734375 C 15.179688 -3.273438 14.53125 -1.132812 12.28125 0.6875 C 10.28125 1.882812 8.085938 2.21875 5.703125 1.6875 C 3.023438 0.96875 1.597656 -0.71875 1.421875 -3.375 C 1.390625 -3.988281 1.617188 -4.296875 2.109375 -4.296875 L 3.890625 -4.296875 C 4.378906 -4.296875 4.65625 -4.050781 4.71875 -3.5625 C 5.15625 -1.363281 6.675781 -0.597656 9.28125 -1.265625 C 10.988281 -1.921875 11.632812 -3.09375 11.21875 -4.78125 C 10.851562 -5.582031 10.296875 -6.082031 9.546875 -6.28125 C 8.734375 -6.519531 7.894531 -6.597656 7.03125 -6.515625 C 6.53125 -6.453125 6.28125 -6.664062 6.28125 -7.15625 L 6.28125 -8.8125 C 6.28125 -9.300781 6.523438 -9.53125 7.015625 -9.5 C 7.859375 -9.394531 8.613281 -9.457031 9.28125 -9.6875 C 10.0625 -9.882812 10.625 -10.367188 10.96875 -11.140625 C 11.4375 -12.734375 10.742188 -13.738281 8.890625 -14.15625 C 7.984375 -14.300781 7.203125 -14.28125 6.546875 -14.09375 C 5.640625 -13.789062 5.117188 -13.101562 4.984375 -12.03125 C 4.898438 -11.539062 4.617188 -11.296875 4.140625 -11.296875 L 2.421875 -11.296875 C 1.929688 -11.296875 1.6875 -11.539062 1.6875 -12.03125 C 1.757812 -13.414062 2.28125 -14.640625 3.25 -15.703125 Z M 3.25 -15.703125 "/></g></g></g><g fill="#000000" fill-opacity="1"><g transform="translate(1034.870936, 114.915189)"><g><path d="M 3.59375 -15.71875 C 5.675781 -17.21875 7.984375 -17.566406 10.515625 -16.765625 C 11.867188 -16.328125 12.960938 -15.304688 13.796875 -13.703125 C 14.847656 -11.015625 15.097656 -7.992188 14.546875 -4.640625 C 14.421875 -3.984375 14.257812 -3.332031 14.0625 -2.6875 C 13.539062 -1.101562 12.601562 0.125 11.25 1 C 10.0625 1.6875 8.585938 1.988281 6.828125 1.90625 C 3.816406 1.789062 2.078125 0.0859375 1.609375 -3.203125 C 1.578125 -3.691406 1.804688 -3.9375 2.296875 -3.9375 L 4.03125 -3.9375 C 4.519531 -3.9375 4.785156 -3.691406 4.828125 -3.203125 C 5.023438 -1.765625 5.785156 -1.039062 7.109375 -1.03125 C 9.453125 -0.75 10.882812 -2.164062 11.40625 -5.28125 C 11.46875 -5.664062 11.253906 -5.738281 10.765625 -5.5 C 8.304688 -4.457031 6.082031 -4.546875 4.09375 -5.765625 C 3.300781 -6.296875 2.734375 -6.890625 2.390625 -7.546875 C 1.660156 -8.710938 1.394531 -10.132812 1.59375 -11.8125 C 1.769531 -13.3125 2.4375 -14.613281 3.59375 -15.71875 Z M 7.609375 -14.265625 C 6.648438 -14.191406 5.863281 -13.691406 5.25 -12.765625 C 4.851562 -12.015625 4.695312 -11.226562 4.78125 -10.40625 C 4.863281 -9.175781 5.566406 -8.300781 6.890625 -7.78125 C 7.628906 -7.601562 8.28125 -7.613281 8.84375 -7.8125 C 10.675781 -8.53125 11.515625 -9.691406 11.359375 -11.296875 C 10.878906 -13.304688 9.628906 -14.296875 7.609375 -14.265625 Z M 7.609375 -14.265625 "/></g></g></g><g fill="#000000" fill-opacity="1"><g transform="translate(1050.786417, 114.915189)"><g><path d="M 5.921875 -16.65625 C 8.191406 -17.414062 10.300781 -17.332031 12.25 -16.40625 C 13.09375 -15.863281 13.65625 -15.285156 13.9375 -14.671875 C 14.3125 -13.953125 14.53125 -13.195312 14.59375 -12.40625 C 14.625 -11.863281 14.410156 -11.59375 13.953125 -11.59375 L 12.203125 -11.59375 C 11.710938 -11.59375 11.425781 -11.835938 11.34375 -12.328125 C 10.925781 -13.941406 9.820312 -14.566406 8.03125 -14.203125 C 7.363281 -14.109375 6.734375 -13.6875 6.140625 -12.9375 C 5.753906 -12.40625 5.429688 -11.609375 5.171875 -10.546875 C 5.085938 -10.117188 5.289062 -10.046875 5.78125 -10.328125 C 6.882812 -10.898438 8.195312 -11.113281 9.71875 -10.96875 C 12.070312 -10.6875 13.679688 -9.332031 14.546875 -6.90625 C 14.929688 -5.71875 14.960938 -4.265625 14.640625 -2.546875 C 14.179688 -0.960938 13.269531 0.257812 11.90625 1.125 C 10.164062 2.101562 8.078125 2.164062 5.640625 1.3125 C 4.953125 1.019531 4.300781 0.539062 3.6875 -0.125 C 2.789062 -1.289062 2.195312 -2.59375 1.90625 -4.03125 C 1.507812 -6.613281 1.582031 -9.0625 2.125 -11.375 C 2.539062 -13.78125 3.804688 -15.539062 5.921875 -16.65625 Z M 8.25 -8.109375 C 7.40625 -8.023438 6.6875 -7.648438 6.09375 -6.984375 C 5.101562 -5.648438 4.898438 -4.316406 5.484375 -2.984375 C 6.367188 -1.398438 7.578125 -0.765625 9.109375 -1.078125 C 10.628906 -1.546875 11.472656 -2.53125 11.640625 -4.03125 C 11.722656 -4.875 11.582031 -5.679688 11.21875 -6.453125 C 10.519531 -7.753906 9.53125 -8.304688 8.25 -8.109375 Z M 8.25 -8.109375 "/></g></g></g><g fill="#000000" fill-opacity="1"><g transform="translate(1066.701898, 114.915189)"><g><path d="M 5.953125 -16.703125 C 6.941406 -17.085938 7.96875 -17.238281 9.03125 -17.15625 C 9.78125 -17.082031 10.429688 -16.9375 10.984375 -16.71875 C 12.804688 -15.894531 14.019531 -14.476562 14.625 -12.46875 C 15.40625 -9.539062 15.5 -6.671875 14.90625 -3.859375 C 14.613281 -2.390625 14.03125 -1.117188 13.15625 -0.046875 C 11.476562 1.609375 9.550781 2.234375 7.375 1.828125 C 5.90625 1.703125 4.632812 0.960938 3.5625 -0.390625 C 2.757812 -1.523438 2.226562 -2.828125 1.96875 -4.296875 C 1.40625 -7.554688 1.648438 -10.582031 2.703125 -13.375 C 3.222656 -14.78125 4.304688 -15.890625 5.953125 -16.703125 Z M 8.171875 -14.328125 C 6.984375 -14.203125 6.117188 -13.453125 5.578125 -12.078125 C 4.867188 -9.816406 4.738281 -7.296875 5.1875 -4.515625 C 5.84375 -1.554688 7.375 -0.472656 9.78125 -1.265625 C 10.625 -1.753906 11.144531 -2.332031 11.34375 -3 C 11.769531 -4 12.007812 -5.253906 12.0625 -6.765625 C 12.15625 -8.734375 11.957031 -10.441406 11.46875 -11.890625 C 10.820312 -13.679688 9.722656 -14.492188 8.171875 -14.328125 Z M 8.171875 -14.328125 "/></g></g></g><g fill="#000000" fill-opacity="1"><g transform="translate(188.874678, 380.442423)"><g><path d="M 6.328125 -20.09375 C 7.734375 -20.5625 9.21875 -20.707031 10.78125 -20.53125 C 12.5625 -20.363281 14.113281 -19.566406 15.4375 -18.140625 C 16.0625 -17.316406 16.414062 -16.535156 16.5 -15.796875 C 16.84375 -14.078125 16.453125 -12.28125 15.328125 -10.40625 C 13.796875 -7.925781 11.539062 -5.285156 8.5625 -2.484375 C 8.070312 -2.003906 8.070312 -1.765625 8.5625 -1.765625 L 16 -1.765625 C 16.601562 -1.765625 16.90625 -1.46875 16.90625 -0.875 L 16.90625 0.9375 C 16.90625 1.539062 16.613281 1.84375 16.03125 1.84375 L 3.140625 1.84375 C 2.535156 1.84375 2.234375 1.550781 2.234375 0.96875 L 2.234375 -0.53125 C 2.234375 -1.113281 2.523438 -1.679688 3.109375 -2.234375 C 7.710938 -6.328125 10.835938 -9.921875 12.484375 -13.015625 C 12.867188 -14.109375 12.835938 -15.046875 12.390625 -15.828125 C 12.078125 -16.410156 11.539062 -16.800781 10.78125 -17 C 9.726562 -17.1875 8.878906 -17.175781 8.234375 -16.96875 C 7.046875 -16.570312 6.441406 -15.660156 6.421875 -14.234375 C 6.421875 -13.535156 6.125 -13.1875 5.53125 -13.1875 L 3.375 -13.1875 C 2.78125 -13.1875 2.484375 -13.476562 2.484375 -14.0625 C 2.523438 -15.5625 3.046875 -17.023438 4.046875 -18.453125 C 4.648438 -19.203125 5.410156 -19.75 6.328125 -20.09375 Z M 6.328125 -20.09375 "/></g></g><g transform="translate(207.97624, 380.442423)"><g><path d="M 7.140625 -20.046875 C 8.335938 -20.515625 9.570312 -20.695312 10.84375 -20.59375 C 11.738281 -20.5 12.519531 -20.320312 13.1875 -20.0625 C 15.375 -19.070312 16.828125 -17.375 17.546875 -14.96875 C 18.484375 -11.457031 18.597656 -8.007812 17.890625 -4.625 C 17.546875 -2.875 16.84375 -1.351562 15.78125 -0.0625 C 13.769531 1.9375 11.457031 2.691406 8.84375 2.203125 C 7.082031 2.046875 5.5625 1.15625 4.28125 -0.46875 C 3.320312 -1.832031 2.6875 -3.394531 2.375 -5.15625 C 1.6875 -9.0625 1.976562 -12.695312 3.25 -16.0625 C 3.875 -17.738281 5.171875 -19.066406 7.140625 -20.046875 Z M 9.8125 -17.203125 C 8.382812 -17.046875 7.347656 -16.144531 6.703125 -14.5 C 5.847656 -11.789062 5.691406 -8.765625 6.234375 -5.421875 C 7.015625 -1.867188 8.851562 -0.570312 11.75 -1.53125 C 12.757812 -2.113281 13.382812 -2.804688 13.625 -3.609375 C 14.125 -4.796875 14.40625 -6.296875 14.46875 -8.109375 C 14.582031 -10.472656 14.347656 -12.523438 13.765625 -14.265625 C 12.984375 -16.410156 11.664062 -17.390625 9.8125 -17.203125 Z M 9.8125 -17.203125 "/></g></g><g transform="translate(227.077801, 380.442423)"><g><path d="M 7.140625 -20.046875 C 8.335938 -20.515625 9.570312 -20.695312 10.84375 -20.59375 C 11.738281 -20.5 12.519531 -20.320312 13.1875 -20.0625 C 15.375 -19.070312 16.828125 -17.375 17.546875 -14.96875 C 18.484375 -11.457031 18.597656 -8.007812 17.890625 -4.625 C 17.546875 -2.875 16.84375 -1.351562 15.78125 -0.0625 C 13.769531 1.9375 11.457031 2.691406 8.84375 2.203125 C 7.082031 2.046875 5.5625 1.15625 4.28125 -0.46875 C 3.320312 -1.832031 2.6875 -3.394531 2.375 -5.15625 C 1.6875 -9.0625 1.976562 -12.695312 3.25 -16.0625 C 3.875 -17.738281 5.171875 -19.066406 7.140625 -20.046875 Z M 9.8125 -17.203125 C 8.382812 -17.046875 7.347656 -16.144531 6.703125 -14.5 C 5.847656 -11.789062 5.691406 -8.765625 6.234375 -5.421875 C 7.015625 -1.867188 8.851562 -0.570312 11.75 -1.53125 C 12.757812 -2.113281 13.382812 -2.804688 13.625 -3.609375 C 14.125 -4.796875 14.40625 -6.296875 14.46875 -8.109375 C 14.582031 -10.472656 14.347656 -12.523438 13.765625 -14.265625 C 12.984375 -16.410156 11.664062 -17.390625 9.8125 -17.203125 Z M 9.8125 -17.203125 "/></g></g><g transform="translate(246.179363, 380.442423)"><g><path d="M 7.140625 -20.046875 C 8.335938 -20.515625 9.570312 -20.695312 10.84375 -20.59375 C 11.738281 -20.5 12.519531 -20.320312 13.1875 -20.0625 C 15.375 -19.070312 16.828125 -17.375 17.546875 -14.96875 C 18.484375 -11.457031 18.597656 -8.007812 17.890625 -4.625 C 17.546875 -2.875 16.84375 -1.351562 15.78125 -0.0625 C 13.769531 1.9375 11.457031 2.691406 8.84375 2.203125 C 7.082031 2.046875 5.5625 1.15625 4.28125 -0.46875 C 3.320312 -1.832031 2.6875 -3.394531 2.375 -5.15625 C 1.6875 -9.0625 1.976562 -12.695312 3.25 -16.0625 C 3.875 -17.738281 5.171875 -19.066406 7.140625 -20.046875 Z M 9.8125 -17.203125 C 8.382812 -17.046875 7.347656 -16.144531 6.703125 -14.5 C 5.847656 -11.789062 5.691406 -8.765625 6.234375 -5.421875 C 7.015625 -1.867188 8.851562 -0.570312 11.75 -1.53125 C 12.757812 -2.113281 13.382812 -2.804688 13.625 -3.609375 C 14.125 -4.796875 14.40625 -6.296875 14.46875 -8.109375 C 14.582031 -10.472656 14.347656 -12.523438 13.765625 -14.265625 C 12.984375 -16.410156 11.664062 -17.390625 9.8125 -17.203125 Z M 9.8125 -17.203125 "/></g></g><g transform="translate(265.280924, 380.442423)"><g><path d="M 1.5 -19.21875 C 1.5 -19.84375 1.769531 -20.15625 2.3125 -20.15625 L 4.34375 -20.15625 C 4.945312 -20.15625 5.25 -19.863281 5.25 -19.28125 L 5.25 -13.484375 C 5.25 -12.972656 5.484375 -12.953125 5.953125 -13.421875 L 11.921875 -19.28125 C 12.503906 -19.863281 13.09375 -20.15625 13.6875 -20.15625 L 17.078125 -20.15625 C 17.660156 -20.15625 17.582031 -19.785156 16.84375 -19.046875 L 8.734375 -11.21875 C 8.265625 -10.75 8.273438 -10.222656 8.765625 -9.640625 L 17.8125 0.9375 C 18.363281 1.5625 18.34375 1.875 17.75 1.875 L 14.421875 1.875 C 13.828125 1.875 13.269531 1.582031 12.75 1 L 6.125 -6.921875 C 5.539062 -7.617188 5.25 -7.734375 5.25 -7.265625 L 5.25 0.96875 C 5.25 1.570312 4.953125 1.875 4.359375 1.875 L 2.40625 1.875 C 1.800781 1.875 1.5 1.582031 1.5 1 Z M 1.5 -19.21875 "/></g></g><g transform="translate(284.646158, 380.442423)"><g><path d="M 7.90625 -20.09375 C 9.351562 -20.5625 10.914062 -20.707031 12.59375 -20.53125 C 14.25 -20.363281 15.722656 -19.789062 17.015625 -18.8125 C 18.378906 -17.519531 19.160156 -15.90625 19.359375 -13.96875 C 19.378906 -13.3125 19.097656 -12.984375 18.515625 -12.984375 L 16.375 -12.984375 C 15.789062 -12.984375 15.445312 -13.273438 15.34375 -13.859375 C 14.875 -15.910156 13.675781 -16.945312 11.75 -16.96875 C 10.789062 -17.039062 9.867188 -16.882812 8.984375 -16.5 C 8.035156 -15.96875 7.316406 -15.320312 6.828125 -14.5625 C 5.441406 -12.175781 5.066406 -9.441406 5.703125 -6.359375 C 6.035156 -4.347656 7.125 -2.875 8.96875 -1.9375 C 10.695312 -1.195312 12.675781 -1.117188 14.90625 -1.703125 C 15.375 -1.878906 15.609375 -2.203125 15.609375 -2.671875 L 15.609375 -5.859375 C 15.609375 -6.347656 15.375 -6.59375 14.90625 -6.59375 L 11.28125 -6.59375 C 10.675781 -6.59375 10.375 -6.882812 10.375 -7.46875 L 10.375 -9.28125 C 10.375 -9.894531 10.664062 -10.203125 11.25 -10.203125 L 18.578125 -10.203125 C 19.179688 -10.203125 19.484375 -9.90625 19.484375 -9.3125 L 19.484375 -0.375 C 19.484375 0.207031 19.1875 0.65625 18.59375 0.96875 C 17.332031 1.550781 15.867188 1.941406 14.203125 2.140625 C 11.765625 2.429688 9.753906 2.332031 8.171875 1.84375 C 5.609375 1.082031 3.6875 -0.722656 2.40625 -3.578125 C 1.851562 -4.960938 1.507812 -6.492188 1.375 -8.171875 C 1.21875 -10.160156 1.488281 -12.179688 2.1875 -14.234375 C 3.070312 -16.929688 4.976562 -18.882812 7.90625 -20.09375 Z M 7.90625 -20.09375 "/></g></g></g><g fill="#000000" fill-opacity="1"><g transform="translate(198.425461, 503.849995)"><g><path d="M 8.375 -19.3125 C 8.945312 -19.875 9.503906 -20.15625 10.046875 -20.15625 L 10.84375 -20.15625 C 11.445312 -20.15625 11.75 -19.863281 11.75 -19.28125 L 11.75 0.96875 C 11.75 1.570312 11.457031 1.875 10.875 1.875 L 8.875 1.875 C 8.269531 1.875 7.96875 1.582031 7.96875 1 L 7.96875 -13.796875 C 7.96875 -14.285156 7.664062 -14.328125 7.0625 -13.921875 C 6.5 -13.585938 5.921875 -13.300781 5.328125 -13.0625 C 4.742188 -12.832031 4.453125 -13.007812 4.453125 -13.59375 L 4.453125 -15.875 C 4.453125 -16.46875 4.742188 -16.921875 5.328125 -17.234375 C 6.460938 -17.816406 7.476562 -18.507812 8.375 -19.3125 Z M 8.375 -19.3125 "/></g></g><g transform="translate(217.527023, 503.849995)"><g><path d="M 7.140625 -20.046875 C 8.335938 -20.515625 9.570312 -20.695312 10.84375 -20.59375 C 11.738281 -20.5 12.519531 -20.320312 13.1875 -20.0625 C 15.375 -19.070312 16.828125 -17.375 17.546875 -14.96875 C 18.484375 -11.457031 18.597656 -8.007812 17.890625 -4.625 C 17.546875 -2.875 16.84375 -1.351562 15.78125 -0.0625 C 13.769531 1.9375 11.457031 2.691406 8.84375 2.203125 C 7.082031 2.046875 5.5625 1.15625 4.28125 -0.46875 C 3.320312 -1.832031 2.6875 -3.394531 2.375 -5.15625 C 1.6875 -9.0625 1.976562 -12.695312 3.25 -16.0625 C 3.875 -17.738281 5.171875 -19.066406 7.140625 -20.046875 Z M 9.8125 -17.203125 C 8.382812 -17.046875 7.347656 -16.144531 6.703125 -14.5 C 5.847656 -11.789062 5.691406 -8.765625 6.234375 -5.421875 C 7.015625 -1.867188 8.851562 -0.570312 11.75 -1.53125 C 12.757812 -2.113281 13.382812 -2.804688 13.625 -3.609375 C 14.125 -4.796875 14.40625 -6.296875 14.46875 -8.109375 C 14.582031 -10.472656 14.347656 -12.523438 13.765625 -14.265625 C 12.984375 -16.410156 11.664062 -17.390625 9.8125 -17.203125 Z M 9.8125 -17.203125 "/></g></g><g transform="translate(236.628584, 503.849995)"><g><path d="M 7.140625 -20.046875 C 8.335938 -20.515625 9.570312 -20.695312 10.84375 -20.59375 C 11.738281 -20.5 12.519531 -20.320312 13.1875 -20.0625 C 15.375 -19.070312 16.828125 -17.375 17.546875 -14.96875 C 18.484375 -11.457031 18.597656 -8.007812 17.890625 -4.625 C 17.546875 -2.875 16.84375 -1.351562 15.78125 -0.0625 C 13.769531 1.9375 11.457031 2.691406 8.84375 2.203125 C 7.082031 2.046875 5.5625 1.15625 4.28125 -0.46875 C 3.320312 -1.832031 2.6875 -3.394531 2.375 -5.15625 C 1.6875 -9.0625 1.976562 -12.695312 3.25 -16.0625 C 3.875 -17.738281 5.171875 -19.066406 7.140625 -20.046875 Z M 9.8125 -17.203125 C 8.382812 -17.046875 7.347656 -16.144531 6.703125 -14.5 C 5.847656 -11.789062 5.691406 -8.765625 6.234375 -5.421875 C 7.015625 -1.867188 8.851562 -0.570312 11.75 -1.53125 C 12.757812 -2.113281 13.382812 -2.804688 13.625 -3.609375 C 14.125 -4.796875 14.40625 -6.296875 14.46875 -8.109375 C 14.582031 -10.472656 14.347656 -12.523438 13.765625 -14.265625 C 12.984375 -16.410156 11.664062 -17.390625 9.8125 -17.203125 Z M 9.8125 -17.203125 "/></g></g><g transform="translate(255.730146, 503.849995)"><g><path d="M 7.140625 -20.046875 C 8.335938 -20.515625 9.570312 -20.695312 10.84375 -20.59375 C 11.738281 -20.5 12.519531 -20.320312 13.1875 -20.0625 C 15.375 -19.070312 16.828125 -17.375 17.546875 -14.96875 C 18.484375 -11.457031 18.597656 -8.007812 17.890625 -4.625 C 17.546875 -2.875 16.84375 -1.351562 15.78125 -0.0625 C 13.769531 1.9375 11.457031 2.691406 8.84375 2.203125 C 7.082031 2.046875 5.5625 1.15625 4.28125 -0.46875 C 3.320312 -1.832031 2.6875 -3.394531 2.375 -5.15625 C 1.6875 -9.0625 1.976562 -12.695312 3.25 -16.0625 C 3.875 -17.738281 5.171875 -19.066406 7.140625 -20.046875 Z M 9.8125 -17.203125 C 8.382812 -17.046875 7.347656 -16.144531 6.703125 -14.5 C 5.847656 -11.789062 5.691406 -8.765625 6.234375 -5.421875 C 7.015625 -1.867188 8.851562 -0.570312 11.75 -1.53125 C 12.757812 -2.113281 13.382812 -2.804688 13.625 -3.609375 C 14.125 -4.796875 14.40625 -6.296875 14.46875 -8.109375 C 14.582031 -10.472656 14.347656 -12.523438 13.765625 -14.265625 C 12.984375 -16.410156 11.664062 -17.390625 9.8125 -17.203125 Z M 9.8125 -17.203125 "/></g></g><g transform="translate(274.831707, 503.849995)"><g><path d="M 1.5 -19.21875 C 1.5 -19.84375 1.769531 -20.15625 2.3125 -20.15625 L 4.34375 -20.15625 C 4.945312 -20.15625 5.25 -19.863281 5.25 -19.28125 L 5.25 -13.484375 C 5.25 -12.972656 5.484375 -12.953125 5.953125 -13.421875 L 11.921875 -19.28125 C 12.503906 -19.863281 13.09375 -20.15625 13.6875 -20.15625 L 17.078125 -20.15625 C 17.660156 -20.15625 17.582031 -19.785156 16.84375 -19.046875 L 8.734375 -11.21875 C 8.265625 -10.75 8.273438 -10.222656 8.765625 -9.640625 L 17.8125 0.9375 C 18.363281 1.5625 18.34375 1.875 17.75 1.875 L 14.421875 1.875 C 13.828125 1.875 13.269531 1.582031 12.75 1 L 6.125 -6.921875 C 5.539062 -7.617188 5.25 -7.734375 5.25 -7.265625 L 5.25 0.96875 C 5.25 1.570312 4.953125 1.875 4.359375 1.875 L 2.40625 1.875 C 1.800781 1.875 1.5 1.582031 1.5 1 Z M 1.5 -19.21875 "/></g></g><g transform="translate(294.196941, 503.849995)"><g><path d="M 7.90625 -20.09375 C 9.351562 -20.5625 10.914062 -20.707031 12.59375 -20.53125 C 14.25 -20.363281 15.722656 -19.789062 17.015625 -18.8125 C 18.378906 -17.519531 19.160156 -15.90625 19.359375 -13.96875 C 19.378906 -13.3125 19.097656 -12.984375 18.515625 -12.984375 L 16.375 -12.984375 C 15.789062 -12.984375 15.445312 -13.273438 15.34375 -13.859375 C 14.875 -15.910156 13.675781 -16.945312 11.75 -16.96875 C 10.789062 -17.039062 9.867188 -16.882812 8.984375 -16.5 C 8.035156 -15.96875 7.316406 -15.320312 6.828125 -14.5625 C 5.441406 -12.175781 5.066406 -9.441406 5.703125 -6.359375 C 6.035156 -4.347656 7.125 -2.875 8.96875 -1.9375 C 10.695312 -1.195312 12.675781 -1.117188 14.90625 -1.703125 C 15.375 -1.878906 15.609375 -2.203125 15.609375 -2.671875 L 15.609375 -5.859375 C 15.609375 -6.347656 15.375 -6.59375 14.90625 -6.59375 L 11.28125 -6.59375 C 10.675781 -6.59375 10.375 -6.882812 10.375 -7.46875 L 10.375 -9.28125 C 10.375 -9.894531 10.664062 -10.203125 11.25 -10.203125 L 18.578125 -10.203125 C 19.179688 -10.203125 19.484375 -9.90625 19.484375 -9.3125 L 19.484375 -0.375 C 19.484375 0.207031 19.1875 0.65625 18.59375 0.96875 C 17.332031 1.550781 15.867188 1.941406 14.203125 2.140625 C 11.765625 2.429688 9.753906 2.332031 8.171875 1.84375 C 5.609375 1.082031 3.6875 -0.722656 2.40625 -3.578125 C 1.851562 -4.960938 1.507812 -6.492188 1.375 -8.171875 C 1.21875 -10.160156 1.488281 -12.179688 2.1875 -14.234375 C 3.070312 -16.929688 4.976562 -18.882812 7.90625 -20.09375 Z M 7.90625 -20.09375 "/></g></g></g><g fill="#000000" fill-opacity="1"><g transform="translate(188.874678, 241.580134)"><g><path d="M 3.90625 -18.84375 C 5.851562 -20.34375 8.125 -20.90625 10.71875 -20.53125 C 15.21875 -19.90625 17.378906 -17.640625 17.203125 -13.734375 C 17.222656 -12.722656 16.65625 -11.59375 15.5 -10.34375 C 14.96875 -9.9375 14.988281 -9.488281 15.5625 -9 C 16.300781 -8.332031 16.804688 -7.628906 17.078125 -6.890625 C 18.210938 -3.941406 17.429688 -1.367188 14.734375 0.828125 C 12.335938 2.265625 9.703125 2.660156 6.828125 2.015625 C 3.628906 1.160156 1.921875 -0.859375 1.703125 -4.046875 C 1.660156 -4.785156 1.929688 -5.15625 2.515625 -5.15625 L 4.65625 -5.15625 C 5.25 -5.15625 5.582031 -4.863281 5.65625 -4.28125 C 6.1875 -1.644531 8.015625 -0.726562 11.140625 -1.53125 C 13.191406 -2.3125 13.960938 -3.71875 13.453125 -5.75 C 13.023438 -6.695312 12.359375 -7.289062 11.453125 -7.53125 C 10.484375 -7.820312 9.476562 -7.921875 8.4375 -7.828125 C 7.832031 -7.742188 7.53125 -7.992188 7.53125 -8.578125 L 7.53125 -10.578125 C 7.53125 -11.160156 7.820312 -11.429688 8.40625 -11.390625 C 9.425781 -11.273438 10.335938 -11.351562 11.140625 -11.625 C 12.078125 -11.863281 12.75 -12.441406 13.15625 -13.359375 C 13.71875 -15.273438 12.890625 -16.488281 10.671875 -17 C 9.578125 -17.164062 8.640625 -17.132812 7.859375 -16.90625 C 6.765625 -16.550781 6.140625 -15.726562 5.984375 -14.4375 C 5.878906 -13.851562 5.535156 -13.5625 4.953125 -13.5625 L 2.90625 -13.5625 C 2.320312 -13.5625 2.03125 -13.851562 2.03125 -14.4375 C 2.101562 -16.101562 2.726562 -17.570312 3.90625 -18.84375 Z M 3.90625 -18.84375 "/></g></g><g transform="translate(207.97624, 241.580134)"><g><path d="M 7.140625 -20.046875 C 8.335938 -20.515625 9.570312 -20.695312 10.84375 -20.59375 C 11.738281 -20.5 12.519531 -20.320312 13.1875 -20.0625 C 15.375 -19.070312 16.828125 -17.375 17.546875 -14.96875 C 18.484375 -11.457031 18.597656 -8.007812 17.890625 -4.625 C 17.546875 -2.875 16.84375 -1.351562 15.78125 -0.0625 C 13.769531 1.9375 11.457031 2.691406 8.84375 2.203125 C 7.082031 2.046875 5.5625 1.15625 4.28125 -0.46875 C 3.320312 -1.832031 2.6875 -3.394531 2.375 -5.15625 C 1.6875 -9.0625 1.976562 -12.695312 3.25 -16.0625 C 3.875 -17.738281 5.171875 -19.066406 7.140625 -20.046875 Z M 9.8125 -17.203125 C 8.382812 -17.046875 7.347656 -16.144531 6.703125 -14.5 C 5.847656 -11.789062 5.691406 -8.765625 6.234375 -5.421875 C 7.015625 -1.867188 8.851562 -0.570312 11.75 -1.53125 C 12.757812 -2.113281 13.382812 -2.804688 13.625 -3.609375 C 14.125 -4.796875 14.40625 -6.296875 14.46875 -8.109375 C 14.582031 -10.472656 14.347656 -12.523438 13.765625 -14.265625 C 12.984375 -16.410156 11.664062 -17.390625 9.8125 -17.203125 Z M 9.8125 -17.203125 "/></g></g><g transform="translate(227.077801, 241.580134)"><g><path d="M 7.140625 -20.046875 C 8.335938 -20.515625 9.570312 -20.695312 10.84375 -20.59375 C 11.738281 -20.5 12.519531 -20.320312 13.1875 -20.0625 C 15.375 -19.070312 16.828125 -17.375 17.546875 -14.96875 C 18.484375 -11.457031 18.597656 -8.007812 17.890625 -4.625 C 17.546875 -2.875 16.84375 -1.351562 15.78125 -0.0625 C 13.769531 1.9375 11.457031 2.691406 8.84375 2.203125 C 7.082031 2.046875 5.5625 1.15625 4.28125 -0.46875 C 3.320312 -1.832031 2.6875 -3.394531 2.375 -5.15625 C 1.6875 -9.0625 1.976562 -12.695312 3.25 -16.0625 C 3.875 -17.738281 5.171875 -19.066406 7.140625 -20.046875 Z M 9.8125 -17.203125 C 8.382812 -17.046875 7.347656 -16.144531 6.703125 -14.5 C 5.847656 -11.789062 5.691406 -8.765625 6.234375 -5.421875 C 7.015625 -1.867188 8.851562 -0.570312 11.75 -1.53125 C 12.757812 -2.113281 13.382812 -2.804688 13.625 -3.609375 C 14.125 -4.796875 14.40625 -6.296875 14.46875 -8.109375 C 14.582031 -10.472656 14.347656 -12.523438 13.765625 -14.265625 C 12.984375 -16.410156 11.664062 -17.390625 9.8125 -17.203125 Z M 9.8125 -17.203125 "/></g></g><g transform="translate(246.179363, 241.580134)"><g><path d="M 7.140625 -20.046875 C 8.335938 -20.515625 9.570312 -20.695312 10.84375 -20.59375 C 11.738281 -20.5 12.519531 -20.320312 13.1875 -20.0625 C 15.375 -19.070312 16.828125 -17.375 17.546875 -14.96875 C 18.484375 -11.457031 18.597656 -8.007812 17.890625 -4.625 C 17.546875 -2.875 16.84375 -1.351562 15.78125 -0.0625 C 13.769531 1.9375 11.457031 2.691406 8.84375 2.203125 C 7.082031 2.046875 5.5625 1.15625 4.28125 -0.46875 C 3.320312 -1.832031 2.6875 -3.394531 2.375 -5.15625 C 1.6875 -9.0625 1.976562 -12.695312 3.25 -16.0625 C 3.875 -17.738281 5.171875 -19.066406 7.140625 -20.046875 Z M 9.8125 -17.203125 C 8.382812 -17.046875 7.347656 -16.144531 6.703125 -14.5 C 5.847656 -11.789062 5.691406 -8.765625 6.234375 -5.421875 C 7.015625 -1.867188 8.851562 -0.570312 11.75 -1.53125 C 12.757812 -2.113281 13.382812 -2.804688 13.625 -3.609375 C 14.125 -4.796875 14.40625 -6.296875 14.46875 -8.109375 C 14.582031 -10.472656 14.347656 -12.523438 13.765625 -14.265625 C 12.984375 -16.410156 11.664062 -17.390625 9.8125 -17.203125 Z M 9.8125 -17.203125 "/></g></g><g transform="translate(265.280924, 241.580134)"><g><path d="M 1.5 -19.21875 C 1.5 -19.84375 1.769531 -20.15625 2.3125 -20.15625 L 4.34375 -20.15625 C 4.945312 -20.15625 5.25 -19.863281 5.25 -19.28125 L 5.25 -13.484375 C 5.25 -12.972656 5.484375 -12.953125 5.953125 -13.421875 L 11.921875 -19.28125 C 12.503906 -19.863281 13.09375 -20.15625 13.6875 -20.15625 L 17.078125 -20.15625 C 17.660156 -20.15625 17.582031 -19.785156 16.84375 -19.046875 L 8.734375 -11.21875 C 8.265625 -10.75 8.273438 -10.222656 8.765625 -9.640625 L 17.8125 0.9375 C 18.363281 1.5625 18.34375 1.875 17.75 1.875 L 14.421875 1.875 C 13.828125 1.875 13.269531 1.582031 12.75 1 L 6.125 -6.921875 C 5.539062 -7.617188 5.25 -7.734375 5.25 -7.265625 L 5.25 0.96875 C 5.25 1.570312 4.953125 1.875 4.359375 1.875 L 2.40625 1.875 C 1.800781 1.875 1.5 1.582031 1.5 1 Z M 1.5 -19.21875 "/></g></g><g transform="translate(284.646158, 241.580134)"><g><path d="M 7.90625 -20.09375 C 9.351562 -20.5625 10.914062 -20.707031 12.59375 -20.53125 C 14.25 -20.363281 15.722656 -19.789062 17.015625 -18.8125 C 18.378906 -17.519531 19.160156 -15.90625 19.359375 -13.96875 C 19.378906 -13.3125 19.097656 -12.984375 18.515625 -12.984375 L 16.375 -12.984375 C 15.789062 -12.984375 15.445312 -13.273438 15.34375 -13.859375 C 14.875 -15.910156 13.675781 -16.945312 11.75 -16.96875 C 10.789062 -17.039062 9.867188 -16.882812 8.984375 -16.5 C 8.035156 -15.96875 7.316406 -15.320312 6.828125 -14.5625 C 5.441406 -12.175781 5.066406 -9.441406 5.703125 -6.359375 C 6.035156 -4.347656 7.125 -2.875 8.96875 -1.9375 C 10.695312 -1.195312 12.675781 -1.117188 14.90625 -1.703125 C 15.375 -1.878906 15.609375 -2.203125 15.609375 -2.671875 L 15.609375 -5.859375 C 15.609375 -6.347656 15.375 -6.59375 14.90625 -6.59375 L 11.28125 -6.59375 C 10.675781 -6.59375 10.375 -6.882812 10.375 -7.46875 L 10.375 -9.28125 C 10.375 -9.894531 10.664062 -10.203125 11.25 -10.203125 L 18.578125 -10.203125 C 19.179688 -10.203125 19.484375 -9.90625 19.484375 -9.3125 L 19.484375 -0.375 C 19.484375 0.207031 19.1875 0.65625 18.59375 0.96875 C 17.332031 1.550781 15.867188 1.941406 14.203125 2.140625 C 11.765625 2.429688 9.753906 2.332031 8.171875 1.84375 C 5.609375 1.082031 3.6875 -0.722656 2.40625 -3.578125 C 1.851562 -4.960938 1.507812 -6.492188 1.375 -8.171875 C 1.21875 -10.160156 1.488281 -12.179688 2.1875 -14.234375 C 3.070312 -16.929688 4.976562 -18.882812 7.90625 -20.09375 Z M 7.90625 -20.09375 "/></g></g></g><g fill="#000000" fill-opacity="1"><g transform="translate(188.874678, 123.660285)"><g><path d="M 10.515625 -19.15625 C 10.984375 -19.820312 11.460938 -20.15625 11.953125 -20.15625 L 13.625 -20.15625 C 14.226562 -20.15625 14.53125 -19.863281 14.53125 -19.28125 L 14.53125 -6.890625 C 14.53125 -6.398438 14.765625 -6.15625 15.234375 -6.15625 L 16.96875 -6.15625 C 17.570312 -6.15625 17.875 -5.863281 17.875 -5.28125 L 17.875 -3.6875 C 17.875 -3.082031 17.582031 -2.78125 17 -2.78125 L 15.265625 -2.78125 C 14.773438 -2.78125 14.53125 -2.546875 14.53125 -2.078125 L 14.53125 0.96875 C 14.53125 1.570312 14.238281 1.875 13.65625 1.875 L 11.71875 1.875 C 11.113281 1.875 10.8125 1.582031 10.8125 1 L 10.8125 -2.046875 C 10.8125 -2.535156 10.578125 -2.78125 10.109375 -2.78125 L 2.109375 -2.78125 C 1.503906 -2.78125 1.203125 -3.070312 1.203125 -3.65625 L 1.203125 -4.484375 C 1.203125 -5.066406 1.335938 -5.554688 1.609375 -5.953125 C 4.535156 -10.347656 7.503906 -14.75 10.515625 -19.15625 Z M 10.8125 -12.421875 C 10.8125 -12.953125 10.632812 -12.953125 10.28125 -12.421875 L 6.5 -6.890625 C 6.15625 -6.398438 6.222656 -6.15625 6.703125 -6.15625 L 10.078125 -6.15625 C 10.566406 -6.15625 10.8125 -6.390625 10.8125 -6.859375 Z M 10.8125 -12.421875 "/></g></g><g transform="translate(207.97624, 123.660285)"><g><path d="M 7.140625 -20.046875 C 8.335938 -20.515625 9.570312 -20.695312 10.84375 -20.59375 C 11.738281 -20.5 12.519531 -20.320312 13.1875 -20.0625 C 15.375 -19.070312 16.828125 -17.375 17.546875 -14.96875 C 18.484375 -11.457031 18.597656 -8.007812 17.890625 -4.625 C 17.546875 -2.875 16.84375 -1.351562 15.78125 -0.0625 C 13.769531 1.9375 11.457031 2.691406 8.84375 2.203125 C 7.082031 2.046875 5.5625 1.15625 4.28125 -0.46875 C 3.320312 -1.832031 2.6875 -3.394531 2.375 -5.15625 C 1.6875 -9.0625 1.976562 -12.695312 3.25 -16.0625 C 3.875 -17.738281 5.171875 -19.066406 7.140625 -20.046875 Z M 9.8125 -17.203125 C 8.382812 -17.046875 7.347656 -16.144531 6.703125 -14.5 C 5.847656 -11.789062 5.691406 -8.765625 6.234375 -5.421875 C 7.015625 -1.867188 8.851562 -0.570312 11.75 -1.53125 C 12.757812 -2.113281 13.382812 -2.804688 13.625 -3.609375 C 14.125 -4.796875 14.40625 -6.296875 14.46875 -8.109375 C 14.582031 -10.472656 14.347656 -12.523438 13.765625 -14.265625 C 12.984375 -16.410156 11.664062 -17.390625 9.8125 -17.203125 Z M 9.8125 -17.203125 "/></g></g><g transform="translate(227.077801, 123.660285)"><g><path d="M 7.140625 -20.046875 C 8.335938 -20.515625 9.570312 -20.695312 10.84375 -20.59375 C 11.738281 -20.5 12.519531 -20.320312 13.1875 -20.0625 C 15.375 -19.070312 16.828125 -17.375 17.546875 -14.96875 C 18.484375 -11.457031 18.597656 -8.007812 17.890625 -4.625 C 17.546875 -2.875 16.84375 -1.351562 15.78125 -0.0625 C 13.769531 1.9375 11.457031 2.691406 8.84375 2.203125 C 7.082031 2.046875 5.5625 1.15625 4.28125 -0.46875 C 3.320312 -1.832031 2.6875 -3.394531 2.375 -5.15625 C 1.6875 -9.0625 1.976562 -12.695312 3.25 -16.0625 C 3.875 -17.738281 5.171875 -19.066406 7.140625 -20.046875 Z M 9.8125 -17.203125 C 8.382812 -17.046875 7.347656 -16.144531 6.703125 -14.5 C 5.847656 -11.789062 5.691406 -8.765625 6.234375 -5.421875 C 7.015625 -1.867188 8.851562 -0.570312 11.75 -1.53125 C 12.757812 -2.113281 13.382812 -2.804688 13.625 -3.609375 C 14.125 -4.796875 14.40625 -6.296875 14.46875 -8.109375 C 14.582031 -10.472656 14.347656 -12.523438 13.765625 -14.265625 C 12.984375 -16.410156 11.664062 -17.390625 9.8125 -17.203125 Z M 9.8125 -17.203125 "/></g></g><g transform="translate(246.179363, 123.660285)"><g><path d="M 7.140625 -20.046875 C 8.335938 -20.515625 9.570312 -20.695312 10.84375 -20.59375 C 11.738281 -20.5 12.519531 -20.320312 13.1875 -20.0625 C 15.375 -19.070312 16.828125 -17.375 17.546875 -14.96875 C 18.484375 -11.457031 18.597656 -8.007812 17.890625 -4.625 C 17.546875 -2.875 16.84375 -1.351562 15.78125 -0.0625 C 13.769531 1.9375 11.457031 2.691406 8.84375 2.203125 C 7.082031 2.046875 5.5625 1.15625 4.28125 -0.46875 C 3.320312 -1.832031 2.6875 -3.394531 2.375 -5.15625 C 1.6875 -9.0625 1.976562 -12.695312 3.25 -16.0625 C 3.875 -17.738281 5.171875 -19.066406 7.140625 -20.046875 Z M 9.8125 -17.203125 C 8.382812 -17.046875 7.347656 -16.144531 6.703125 -14.5 C 5.847656 -11.789062 5.691406 -8.765625 6.234375 -5.421875 C 7.015625 -1.867188 8.851562 -0.570312 11.75 -1.53125 C 12.757812 -2.113281 13.382812 -2.804688 13.625 -3.609375 C 14.125 -4.796875 14.40625 -6.296875 14.46875 -8.109375 C 14.582031 -10.472656 14.347656 -12.523438 13.765625 -14.265625 C 12.984375 -16.410156 11.664062 -17.390625 9.8125 -17.203125 Z M 9.8125 -17.203125 "/></g></g><g transform="translate(265.280924, 123.660285)"><g><path d="M 1.5 -19.21875 C 1.5 -19.84375 1.769531 -20.15625 2.3125 -20.15625 L 4.34375 -20.15625 C 4.945312 -20.15625 5.25 -19.863281 5.25 -19.28125 L 5.25 -13.484375 C 5.25 -12.972656 5.484375 -12.953125 5.953125 -13.421875 L 11.921875 -19.28125 C 12.503906 -19.863281 13.09375 -20.15625 13.6875 -20.15625 L 17.078125 -20.15625 C 17.660156 -20.15625 17.582031 -19.785156 16.84375 -19.046875 L 8.734375 -11.21875 C 8.265625 -10.75 8.273438 -10.222656 8.765625 -9.640625 L 17.8125 0.9375 C 18.363281 1.5625 18.34375 1.875 17.75 1.875 L 14.421875 1.875 C 13.828125 1.875 13.269531 1.582031 12.75 1 L 6.125 -6.921875 C 5.539062 -7.617188 5.25 -7.734375 5.25 -7.265625 L 5.25 0.96875 C 5.25 1.570312 4.953125 1.875 4.359375 1.875 L 2.40625 1.875 C 1.800781 1.875 1.5 1.582031 1.5 1 Z M 1.5 -19.21875 "/></g></g><g transform="translate(284.646158, 123.660285)"><g><path d="M 7.90625 -20.09375 C 9.351562 -20.5625 10.914062 -20.707031 12.59375 -20.53125 C 14.25 -20.363281 15.722656 -19.789062 17.015625 -18.8125 C 18.378906 -17.519531 19.160156 -15.90625 19.359375 -13.96875 C 19.378906 -13.3125 19.097656 -12.984375 18.515625 -12.984375 L 16.375 -12.984375 C 15.789062 -12.984375 15.445312 -13.273438 15.34375 -13.859375 C 14.875 -15.910156 13.675781 -16.945312 11.75 -16.96875 C 10.789062 -17.039062 9.867188 -16.882812 8.984375 -16.5 C 8.035156 -15.96875 7.316406 -15.320312 6.828125 -14.5625 C 5.441406 -12.175781 5.066406 -9.441406 5.703125 -6.359375 C 6.035156 -4.347656 7.125 -2.875 8.96875 -1.9375 C 10.695312 -1.195312 12.675781 -1.117188 14.90625 -1.703125 C 15.375 -1.878906 15.609375 -2.203125 15.609375 -2.671875 L 15.609375 -5.859375 C 15.609375 -6.347656 15.375 -6.59375 14.90625 -6.59375 L 11.28125 -6.59375 C 10.675781 -6.59375 10.375 -6.882812 10.375 -7.46875 L 10.375 -9.28125 C 10.375 -9.894531 10.664062 -10.203125 11.25 -10.203125 L 18.578125 -10.203125 C 19.179688 -10.203125 19.484375 -9.90625 19.484375 -9.3125 L 19.484375 -0.375 C 19.484375 0.207031 19.1875 0.65625 18.59375 0.96875 C 17.332031 1.550781 15.867188 1.941406 14.203125 2.140625 C 11.765625 2.429688 9.753906 2.332031 8.171875 1.84375 C 5.609375 1.082031 3.6875 -0.722656 2.40625 -3.578125 C 1.851562 -4.960938 1.507812 -6.492188 1.375 -8.171875 C 1.21875 -10.160156 1.488281 -12.179688 2.1875 -14.234375 C 3.070312 -16.929688 4.976562 -18.882812 7.90625 -20.09375 Z M 7.90625 -20.09375 "/></g></g></g></svg>