<svg xmlns="http://www.w3.org/2000/svg" xmlns:xlink="http://www.w3.org/1999/xlink" width="1920" zoomAndPan="magnify" viewBox="0 0 1440 809.999993" height="1080" preserveAspectRatio="xMidYMid meet" version="1.0"><defs><g/><clipPath id="1c9564a000"><path d="M 23.128906 595 L 726.871094 595 L 726.871094 595.910156 L 23.128906 595.910156 Z M 23.128906 595 " clip-rule="nonzero"/></clipPath><clipPath id="fd86d97771"><path d="M 23.128906 453 L 726.871094 453 L 726.871094 455 L 23.128906 455 Z M 23.128906 453 " clip-rule="nonzero"/></clipPath><clipPath id="a37583133b"><path d="M 23.128906 312 L 726.871094 312 L 726.871094 314 L 23.128906 314 Z M 23.128906 312 " clip-rule="nonzero"/></clipPath><clipPath id="c84216d50c"><path d="M 23.128906 170 L 726.871094 170 L 726.871094 172 L 23.128906 172 Z M 23.128906 170 " clip-rule="nonzero"/></clipPath><clipPath id="4f268bf493"><path d="M 23.128906 29 L 726.871094 29 L 726.871094 31 L 23.128906 31 Z M 23.128906 29 " clip-rule="nonzero"/></clipPath><clipPath id="9249437fc6"><rect x="0" width="751" y="0" height="619"/></clipPath></defs><g transform="matrix(1, 0, 0, 1, 345, 130)"><g clip-path="url(#9249437fc6)"><g clip-path="url(#1c9564a000)"><path stroke-linecap="butt" transform="matrix(0.86882, 0, 0, 0.86882, 23.12782, 29.629719)" fill="none" stroke-linejoin="miter" d="M 0.00125051 651.780992 L 809.998826 651.780992 " stroke="#000000" stroke-width="1" stroke-opacity="0.6" stroke-miterlimit="4"/></g><g clip-path="url(#fd86d97771)"><path stroke-linecap="butt" transform="matrix(0.86882, 0, 0, 0.86882, 23.12782, 29.629719)" fill="none" stroke-linejoin="miter" d="M 0.00125051 488.83551 L 809.998826 488.83551 " stroke="#000000" stroke-width="1" stroke-opacity="0.251" stroke-miterlimit="4"/></g><g clip-path="url(#a37583133b)"><path stroke-linecap="butt" transform="matrix(0.86882, 0, 0, 0.86882, 23.12782, 29.629719)" fill="none" stroke-linejoin="miter" d="M 0.00125051 325.890028 L 809.998826 325.890028 " stroke="#000000" stroke-width="1" stroke-opacity="0.251" stroke-miterlimit="4"/></g><g clip-path="url(#c84216d50c)"><path stroke-linecap="butt" transform="matrix(0.86882, 0, 0, 0.86882, 23.12782, 29.629719)" fill="none" stroke-linejoin="miter" d="M 0.00125051 162.944546 L 809.998826 162.944546 " stroke="#000000" stroke-width="1" stroke-opacity="0.251" stroke-miterlimit="4"/></g><g clip-path="url(#4f268bf493)"><path stroke-linecap="butt" transform="matrix(0.86882, 0, 0, 0.86882, 23.12782, 29.629719)" fill="none" stroke-linejoin="miter" d="M 0.00125051 -0.000935383 L 809.998826 -0.000935383 " stroke="#000000" stroke-width="1" stroke-opacity="0.251" stroke-miterlimit="4"/></g><path fill="#00bf63" d="M 93.625 31.820312 L 177.03125 34.753906 L 234.375 36.773438 C 234.832031 36.789062 235.273438 36.894531 235.691406 37.085938 C 236.113281 37.277344 236.480469 37.539062 236.792969 37.878906 C 237.109375 38.214844 237.34375 38.597656 237.507812 39.03125 C 237.667969 39.464844 237.742188 39.910156 237.722656 40.371094 C 237.707031 40.832031 237.605469 41.269531 237.414062 41.691406 C 237.222656 42.109375 236.957031 42.476562 236.621094 42.789062 C 236.285156 43.105469 235.898438 43.339844 235.46875 43.503906 C 235.035156 43.664062 234.589844 43.738281 234.128906 43.71875 L 176.785156 41.703125 L 93.378906 38.765625 C 92.917969 38.75 92.480469 38.644531 92.058594 38.453125 C 91.640625 38.261719 91.273438 38 90.960938 37.660156 C 90.644531 37.324219 90.40625 36.941406 90.246094 36.507812 C 90.085938 36.078125 90.011719 35.628906 90.027344 35.171875 C 90.046875 34.710938 90.148438 34.269531 90.339844 33.851562 C 90.53125 33.429688 90.796875 33.0625 91.132812 32.75 C 91.46875 32.4375 91.855469 32.199219 92.285156 32.035156 C 92.71875 31.875 93.164062 31.804688 93.625 31.820312 Z M 93.625 31.820312 " fill-opacity="1" fill-rule="nonzero"/><path fill="#00bf63" d="M 234.371094 36.773438 L 281.289062 38.398438 L 375.125 41.730469 C 375.582031 41.746094 376.023438 41.847656 376.441406 42.039062 C 376.863281 42.230469 377.230469 42.496094 377.542969 42.832031 C 377.855469 43.171875 378.09375 43.554688 378.253906 43.988281 C 378.417969 44.417969 378.488281 44.863281 378.472656 45.324219 C 378.457031 45.785156 378.351562 46.226562 378.160156 46.644531 C 377.96875 47.066406 377.707031 47.429688 377.367188 47.746094 C 377.03125 48.058594 376.648438 48.296875 376.214844 48.457031 C 375.785156 48.621094 375.335938 48.691406 374.875 48.675781 L 281.046875 45.347656 L 234.128906 43.71875 C 233.671875 43.703125 233.230469 43.601562 232.8125 43.410156 C 232.390625 43.21875 232.023438 42.957031 231.710938 42.617188 C 231.394531 42.28125 231.15625 41.898438 230.996094 41.464844 C 230.835938 41.035156 230.761719 40.585938 230.777344 40.128906 C 230.792969 39.667969 230.898438 39.226562 231.089844 38.808594 C 231.28125 38.386719 231.542969 38.019531 231.878906 37.707031 C 232.21875 37.390625 232.601562 37.152344 233.03125 36.992188 C 233.464844 36.832031 233.910156 36.757812 234.371094 36.773438 Z M 234.371094 36.773438 " fill-opacity="1" fill-rule="nonzero"/><path fill="#00bf63" d="M 375.140625 41.730469 L 468.972656 45.480469 L 515.890625 47.394531 C 516.351562 47.410156 516.789062 47.519531 517.207031 47.710938 C 517.625 47.90625 517.992188 48.171875 518.304688 48.511719 C 518.617188 48.847656 518.851562 49.234375 519.011719 49.667969 C 519.171875 50.101562 519.238281 50.546875 519.222656 51.007812 C 519.203125 51.46875 519.097656 51.90625 518.902344 52.324219 C 518.710938 52.742188 518.441406 53.109375 518.105469 53.421875 C 517.765625 53.734375 517.378906 53.96875 516.945312 54.128906 C 516.515625 54.285156 516.066406 54.355469 515.605469 54.335938 L 468.695312 52.425781 L 374.859375 48.675781 C 374.402344 48.65625 373.960938 48.550781 373.542969 48.359375 C 373.125 48.164062 372.757812 47.898438 372.445312 47.558594 C 372.132812 47.222656 371.898438 46.835938 371.738281 46.402344 C 371.578125 45.96875 371.507812 45.523438 371.527344 45.0625 C 371.546875 44.601562 371.652344 44.164062 371.84375 43.746094 C 372.039062 43.328125 372.304688 42.960938 372.644531 42.648438 C 372.980469 42.335938 373.367188 42.101562 373.800781 41.941406 C 374.230469 41.78125 374.679688 41.710938 375.140625 41.730469 Z M 375.140625 41.730469 " fill-opacity="1" fill-rule="nonzero"/><path fill="#00bf63" d="M 515.886719 47.394531 L 573.230469 49.699219 L 656.636719 53.054688 C 657.097656 53.074219 657.539062 53.179688 657.957031 53.375 C 658.375 53.566406 658.738281 53.832031 659.050781 54.171875 C 659.363281 54.511719 659.601562 54.894531 659.757812 55.328125 C 659.917969 55.761719 659.988281 56.207031 659.96875 56.667969 C 659.953125 57.128906 659.84375 57.566406 659.652344 57.984375 C 659.457031 58.402344 659.191406 58.769531 658.855469 59.082031 C 658.515625 59.394531 658.128906 59.628906 657.699219 59.789062 C 657.265625 59.949219 656.820312 60.019531 656.359375 60 L 572.953125 56.644531 L 515.609375 54.335938 C 515.148438 54.320312 514.710938 54.214844 514.289062 54.019531 C 513.871094 53.828125 513.507812 53.558594 513.195312 53.222656 C 512.882812 52.882812 512.644531 52.496094 512.488281 52.066406 C 512.328125 51.632812 512.257812 51.1875 512.277344 50.726562 C 512.292969 50.265625 512.402344 49.824219 512.59375 49.40625 C 512.789062 48.988281 513.054688 48.625 513.390625 48.3125 C 513.730469 48 514.117188 47.761719 514.550781 47.605469 C 514.980469 47.445312 515.429688 47.375 515.886719 47.394531 Z M 659.972656 56.527344 C 659.972656 56.988281 659.882812 57.433594 659.707031 57.859375 C 659.53125 58.285156 659.28125 58.660156 658.957031 58.984375 C 658.628906 59.3125 658.253906 59.5625 657.828125 59.738281 C 657.402344 59.914062 656.957031 60.003906 656.496094 60.003906 C 656.035156 60.003906 655.59375 59.914062 655.167969 59.738281 C 654.742188 59.5625 654.367188 59.3125 654.039062 58.984375 C 653.714844 58.660156 653.464844 58.285156 653.285156 57.859375 C 653.109375 57.433594 653.023438 56.988281 653.023438 56.527344 C 653.023438 56.066406 653.109375 55.625 653.285156 55.199219 C 653.464844 54.773438 653.714844 54.394531 654.039062 54.070312 C 654.367188 53.746094 654.742188 53.492188 655.167969 53.316406 C 655.59375 53.140625 656.035156 53.050781 656.496094 53.050781 C 656.957031 53.050781 657.402344 53.140625 657.828125 53.316406 C 658.253906 53.492188 658.628906 53.746094 658.957031 54.070312 C 659.28125 54.394531 659.53125 54.773438 659.707031 55.199219 C 659.882812 55.625 659.972656 56.066406 659.972656 56.527344 Z M 659.972656 56.527344 " fill-opacity="1" fill-rule="nonzero"/><path fill="#00bf63" d="M 102.191406 43.980469 L 102.191406 26.605469 L 84.8125 26.605469 L 84.8125 43.980469 Z M 102.191406 43.980469 " fill-opacity="1" fill-rule="nonzero"/><path fill="#00bf63" d="M 242.9375 48.9375 L 242.9375 31.558594 L 225.5625 31.558594 L 225.5625 48.9375 Z M 242.9375 48.9375 " fill-opacity="1" fill-rule="nonzero"/><path fill="#00bf63" d="M 383.6875 53.890625 L 383.6875 36.515625 L 366.3125 36.515625 L 366.3125 53.890625 Z M 383.6875 53.890625 " fill-opacity="1" fill-rule="nonzero"/><path fill="#00bf63" d="M 524.4375 59.554688 L 524.4375 42.175781 L 507.0625 42.175781 L 507.0625 59.554688 Z M 524.4375 59.554688 " fill-opacity="1" fill-rule="nonzero"/><path fill="#00bf63" d="M 665.1875 65.214844 L 665.1875 47.839844 L 647.808594 47.839844 L 647.808594 65.214844 Z M 665.1875 65.214844 " fill-opacity="1" fill-rule="nonzero"/></g></g><g fill="#000000" fill-opacity="1"><g transform="translate(373.918377, 767.416277)"><g><path d="M 6.328125 -20.09375 C 7.734375 -20.5625 9.21875 -20.707031 10.78125 -20.53125 C 12.5625 -20.363281 14.113281 -19.566406 15.4375 -18.140625 C 16.0625 -17.316406 16.414062 -16.535156 16.5 -15.796875 C 16.84375 -14.078125 16.453125 -12.28125 15.328125 -10.40625 C 13.796875 -7.925781 11.539062 -5.285156 8.5625 -2.484375 C 8.070312 -2.003906 8.070312 -1.765625 8.5625 -1.765625 L 16 -1.765625 C 16.601562 -1.765625 16.90625 -1.46875 16.90625 -0.875 L 16.90625 0.9375 C 16.90625 1.539062 16.613281 1.84375 16.03125 1.84375 L 3.140625 1.84375 C 2.535156 1.84375 2.234375 1.550781 2.234375 0.96875 L 2.234375 -0.53125 C 2.234375 -1.113281 2.523438 -1.679688 3.109375 -2.234375 C 7.710938 -6.328125 10.835938 -9.921875 12.484375 -13.015625 C 12.867188 -14.109375 12.835938 -15.046875 12.390625 -15.828125 C 12.078125 -16.410156 11.539062 -16.800781 10.78125 -17 C 9.726562 -17.1875 8.878906 -17.175781 8.234375 -16.96875 C 7.046875 -16.570312 6.441406 -15.660156 6.421875 -14.234375 C 6.421875 -13.535156 6.125 -13.1875 5.53125 -13.1875 L 3.375 -13.1875 C 2.78125 -13.1875 2.484375 -13.476562 2.484375 -14.0625 C 2.523438 -15.5625 3.046875 -17.023438 4.046875 -18.453125 C 4.648438 -19.203125 5.410156 -19.75 6.328125 -20.09375 Z M 6.328125 -20.09375 "/></g></g><g transform="translate(393.019939, 767.416277)"><g><path d="M 2.9375 -19.125 C 2.96875 -19.8125 3.257812 -20.15625 3.8125 -20.15625 L 15.265625 -20.15625 C 15.867188 -20.15625 16.171875 -19.863281 16.171875 -19.28125 L 16.171875 -17.609375 C 16.171875 -17.003906 15.878906 -16.703125 15.296875 -16.703125 L 7.265625 -16.703125 C 6.773438 -16.703125 6.53125 -16.46875 6.53125 -16 L 6.453125 -13.09375 C 6.453125 -12.625 6.742188 -12.519531 7.328125 -12.78125 C 8.753906 -13.382812 10.453125 -13.429688 12.421875 -12.921875 C 14.203125 -12.367188 15.5625 -11.117188 16.5 -9.171875 C 17.550781 -6.296875 17.441406 -3.6875 16.171875 -1.34375 C 15.078125 0.488281 13.59375 1.617188 11.71875 2.046875 C 8.90625 2.617188 6.414062 2.171875 4.25 0.703125 C 3 -0.472656 2.257812 -1.988281 2.03125 -3.84375 C 1.988281 -4.46875 2.25 -4.78125 2.8125 -4.78125 L 4.953125 -4.78125 C 5.535156 -4.78125 5.890625 -4.484375 6.015625 -3.890625 C 6.203125 -2.796875 6.753906 -2.015625 7.671875 -1.546875 C 8.492188 -1.222656 9.441406 -1.164062 10.515625 -1.375 C 12.179688 -1.957031 13.109375 -3.207031 13.296875 -5.125 C 13.398438 -6.039062 13.238281 -6.953125 12.8125 -7.859375 C 11.8125 -9.421875 10.316406 -9.957031 8.328125 -9.46875 C 7.578125 -9.269531 6.910156 -8.679688 6.328125 -7.703125 C 6.054688 -7.003906 5.628906 -6.65625 5.046875 -6.65625 L 3.3125 -6.65625 C 2.726562 -6.65625 2.4375 -6.992188 2.4375 -7.671875 Z M 2.9375 -19.125 "/></g></g><g transform="translate(412.1215, 767.416277)"><g><path d="M 11.84375 -22.390625 C 12.09375 -23.023438 12.507812 -23.34375 13.09375 -23.34375 L 14.53125 -23.34375 C 15.113281 -23.34375 15.300781 -23.050781 15.09375 -22.46875 L 4.59375 4.1875 C 4.320312 4.832031 3.894531 5.15625 3.3125 5.15625 L 1.875 5.15625 C 1.289062 5.15625 1.113281 4.863281 1.34375 4.28125 Z M 11.84375 -22.390625 "/></g></g><g transform="translate(428.058999, 767.416277)"><g><path d="M 8.375 -19.3125 C 8.945312 -19.875 9.503906 -20.15625 10.046875 -20.15625 L 10.84375 -20.15625 C 11.445312 -20.15625 11.75 -19.863281 11.75 -19.28125 L 11.75 0.96875 C 11.75 1.570312 11.457031 1.875 10.875 1.875 L 8.875 1.875 C 8.269531 1.875 7.96875 1.582031 7.96875 1 L 7.96875 -13.796875 C 7.96875 -14.285156 7.664062 -14.328125 7.0625 -13.921875 C 6.5 -13.585938 5.921875 -13.300781 5.328125 -13.0625 C 4.742188 -12.832031 4.453125 -13.007812 4.453125 -13.59375 L 4.453125 -15.875 C 4.453125 -16.46875 4.742188 -16.921875 5.328125 -17.234375 C 6.460938 -17.816406 7.476562 -18.507812 8.375 -19.3125 Z M 8.375 -19.3125 "/></g></g><g transform="translate(447.160561, 767.416277)"><g><path d="M 6.328125 -20.09375 C 7.734375 -20.5625 9.21875 -20.707031 10.78125 -20.53125 C 12.5625 -20.363281 14.113281 -19.566406 15.4375 -18.140625 C 16.0625 -17.316406 16.414062 -16.535156 16.5 -15.796875 C 16.84375 -14.078125 16.453125 -12.28125 15.328125 -10.40625 C 13.796875 -7.925781 11.539062 -5.285156 8.5625 -2.484375 C 8.070312 -2.003906 8.070312 -1.765625 8.5625 -1.765625 L 16 -1.765625 C 16.601562 -1.765625 16.90625 -1.46875 16.90625 -0.875 L 16.90625 0.9375 C 16.90625 1.539062 16.613281 1.84375 16.03125 1.84375 L 3.140625 1.84375 C 2.535156 1.84375 2.234375 1.550781 2.234375 0.96875 L 2.234375 -0.53125 C 2.234375 -1.113281 2.523438 -1.679688 3.109375 -2.234375 C 7.710938 -6.328125 10.835938 -9.921875 12.484375 -13.015625 C 12.867188 -14.109375 12.835938 -15.046875 12.390625 -15.828125 C 12.078125 -16.410156 11.539062 -16.800781 10.78125 -17 C 9.726562 -17.1875 8.878906 -17.175781 8.234375 -16.96875 C 7.046875 -16.570312 6.441406 -15.660156 6.421875 -14.234375 C 6.421875 -13.535156 6.125 -13.1875 5.53125 -13.1875 L 3.375 -13.1875 C 2.78125 -13.1875 2.484375 -13.476562 2.484375 -14.0625 C 2.523438 -15.5625 3.046875 -17.023438 4.046875 -18.453125 C 4.648438 -19.203125 5.410156 -19.75 6.328125 -20.09375 Z M 6.328125 -20.09375 "/></g></g><g transform="translate(466.262122, 767.416277)"><g><path d="M 11.84375 -22.390625 C 12.09375 -23.023438 12.507812 -23.34375 13.09375 -23.34375 L 14.53125 -23.34375 C 15.113281 -23.34375 15.300781 -23.050781 15.09375 -22.46875 L 4.59375 4.1875 C 4.320312 4.832031 3.894531 5.15625 3.3125 5.15625 L 1.875 5.15625 C 1.289062 5.15625 1.113281 4.863281 1.34375 4.28125 Z M 11.84375 -22.390625 "/></g></g><g transform="translate(482.199622, 767.416277)"><g><path d="M 3.90625 -18.84375 C 5.851562 -20.34375 8.125 -20.90625 10.71875 -20.53125 C 15.21875 -19.90625 17.378906 -17.640625 17.203125 -13.734375 C 17.222656 -12.722656 16.65625 -11.59375 15.5 -10.34375 C 14.96875 -9.9375 14.988281 -9.488281 15.5625 -9 C 16.300781 -8.332031 16.804688 -7.628906 17.078125 -6.890625 C 18.210938 -3.941406 17.429688 -1.367188 14.734375 0.828125 C 12.335938 2.265625 9.703125 2.660156 6.828125 2.015625 C 3.628906 1.160156 1.921875 -0.859375 1.703125 -4.046875 C 1.660156 -4.785156 1.929688 -5.15625 2.515625 -5.15625 L 4.65625 -5.15625 C 5.25 -5.15625 5.582031 -4.863281 5.65625 -4.28125 C 6.1875 -1.644531 8.015625 -0.726562 11.140625 -1.53125 C 13.191406 -2.3125 13.960938 -3.71875 13.453125 -5.75 C 13.023438 -6.695312 12.359375 -7.289062 11.453125 -7.53125 C 10.484375 -7.820312 9.476562 -7.921875 8.4375 -7.828125 C 7.832031 -7.742188 7.53125 -7.992188 7.53125 -8.578125 L 7.53125 -10.578125 C 7.53125 -11.160156 7.820312 -11.429688 8.40625 -11.390625 C 9.425781 -11.273438 10.335938 -11.351562 11.140625 -11.625 C 12.078125 -11.863281 12.75 -12.441406 13.15625 -13.359375 C 13.71875 -15.273438 12.890625 -16.488281 10.671875 -17 C 9.578125 -17.164062 8.640625 -17.132812 7.859375 -16.90625 C 6.765625 -16.550781 6.140625 -15.726562 5.984375 -14.4375 C 5.878906 -13.851562 5.535156 -13.5625 4.953125 -13.5625 L 2.90625 -13.5625 C 2.320312 -13.5625 2.03125 -13.851562 2.03125 -14.4375 C 2.101562 -16.101562 2.726562 -17.570312 3.90625 -18.84375 Z M 3.90625 -18.84375 "/></g></g></g><g fill="#000000" fill-opacity="1"><g transform="translate(533.872707, 767.416277)"><g><path d="M 8.375 -19.3125 C 8.945312 -19.875 9.503906 -20.15625 10.046875 -20.15625 L 10.84375 -20.15625 C 11.445312 -20.15625 11.75 -19.863281 11.75 -19.28125 L 11.75 0.96875 C 11.75 1.570312 11.457031 1.875 10.875 1.875 L 8.875 1.875 C 8.269531 1.875 7.96875 1.582031 7.96875 1 L 7.96875 -13.796875 C 7.96875 -14.285156 7.664062 -14.328125 7.0625 -13.921875 C 6.5 -13.585938 5.921875 -13.300781 5.328125 -13.0625 C 4.742188 -12.832031 4.453125 -13.007812 4.453125 -13.59375 L 4.453125 -15.875 C 4.453125 -16.46875 4.742188 -16.921875 5.328125 -17.234375 C 6.460938 -17.816406 7.476562 -18.507812 8.375 -19.3125 Z M 8.375 -19.3125 "/></g></g><g transform="translate(552.974269, 767.416277)"><g><path d="M 6.328125 -20.09375 C 7.734375 -20.5625 9.21875 -20.707031 10.78125 -20.53125 C 12.5625 -20.363281 14.113281 -19.566406 15.4375 -18.140625 C 16.0625 -17.316406 16.414062 -16.535156 16.5 -15.796875 C 16.84375 -14.078125 16.453125 -12.28125 15.328125 -10.40625 C 13.796875 -7.925781 11.539062 -5.285156 8.5625 -2.484375 C 8.070312 -2.003906 8.070312 -1.765625 8.5625 -1.765625 L 16 -1.765625 C 16.601562 -1.765625 16.90625 -1.46875 16.90625 -0.875 L 16.90625 0.9375 C 16.90625 1.539062 16.613281 1.84375 16.03125 1.84375 L 3.140625 1.84375 C 2.535156 1.84375 2.234375 1.550781 2.234375 0.96875 L 2.234375 -0.53125 C 2.234375 -1.113281 2.523438 -1.679688 3.109375 -2.234375 C 7.710938 -6.328125 10.835938 -9.921875 12.484375 -13.015625 C 12.867188 -14.109375 12.835938 -15.046875 12.390625 -15.828125 C 12.078125 -16.410156 11.539062 -16.800781 10.78125 -17 C 9.726562 -17.1875 8.878906 -17.175781 8.234375 -16.96875 C 7.046875 -16.570312 6.441406 -15.660156 6.421875 -14.234375 C 6.421875 -13.535156 6.125 -13.1875 5.53125 -13.1875 L 3.375 -13.1875 C 2.78125 -13.1875 2.484375 -13.476562 2.484375 -14.0625 C 2.523438 -15.5625 3.046875 -17.023438 4.046875 -18.453125 C 4.648438 -19.203125 5.410156 -19.75 6.328125 -20.09375 Z M 6.328125 -20.09375 "/></g></g><g transform="translate(572.07583, 767.416277)"><g><path d="M 11.84375 -22.390625 C 12.09375 -23.023438 12.507812 -23.34375 13.09375 -23.34375 L 14.53125 -23.34375 C 15.113281 -23.34375 15.300781 -23.050781 15.09375 -22.46875 L 4.59375 4.1875 C 4.320312 4.832031 3.894531 5.15625 3.3125 5.15625 L 1.875 5.15625 C 1.289062 5.15625 1.113281 4.863281 1.34375 4.28125 Z M 11.84375 -22.390625 "/></g></g><g transform="translate(588.01333, 767.416277)"><g><path d="M 8.375 -19.3125 C 8.945312 -19.875 9.503906 -20.15625 10.046875 -20.15625 L 10.84375 -20.15625 C 11.445312 -20.15625 11.75 -19.863281 11.75 -19.28125 L 11.75 0.96875 C 11.75 1.570312 11.457031 1.875 10.875 1.875 L 8.875 1.875 C 8.269531 1.875 7.96875 1.582031 7.96875 1 L 7.96875 -13.796875 C 7.96875 -14.285156 7.664062 -14.328125 7.0625 -13.921875 C 6.5 -13.585938 5.921875 -13.300781 5.328125 -13.0625 C 4.742188 -12.832031 4.453125 -13.007812 4.453125 -13.59375 L 4.453125 -15.875 C 4.453125 -16.46875 4.742188 -16.921875 5.328125 -17.234375 C 6.460938 -17.816406 7.476562 -18.507812 8.375 -19.3125 Z M 8.375 -19.3125 "/></g></g><g transform="translate(607.114891, 767.416277)"><g><path d="M 7.140625 -20.046875 C 8.335938 -20.515625 9.570312 -20.695312 10.84375 -20.59375 C 11.738281 -20.5 12.519531 -20.320312 13.1875 -20.0625 C 15.375 -19.070312 16.828125 -17.375 17.546875 -14.96875 C 18.484375 -11.457031 18.597656 -8.007812 17.890625 -4.625 C 17.546875 -2.875 16.84375 -1.351562 15.78125 -0.0625 C 13.769531 1.9375 11.457031 2.691406 8.84375 2.203125 C 7.082031 2.046875 5.5625 1.15625 4.28125 -0.46875 C 3.320312 -1.832031 2.6875 -3.394531 2.375 -5.15625 C 1.6875 -9.0625 1.976562 -12.695312 3.25 -16.0625 C 3.875 -17.738281 5.171875 -19.066406 7.140625 -20.046875 Z M 9.8125 -17.203125 C 8.382812 -17.046875 7.347656 -16.144531 6.703125 -14.5 C 5.847656 -11.789062 5.691406 -8.765625 6.234375 -5.421875 C 7.015625 -1.867188 8.851562 -0.570312 11.75 -1.53125 C 12.757812 -2.113281 13.382812 -2.804688 13.625 -3.609375 C 14.125 -4.796875 14.40625 -6.296875 14.46875 -8.109375 C 14.582031 -10.472656 14.347656 -12.523438 13.765625 -14.265625 C 12.984375 -16.410156 11.664062 -17.390625 9.8125 -17.203125 Z M 9.8125 -17.203125 "/></g></g></g><g fill="#000000" fill-opacity="1"><g transform="translate(676.653956, 767.416277)"><g><path d="M 8.375 -19.3125 C 8.945312 -19.875 9.503906 -20.15625 10.046875 -20.15625 L 10.84375 -20.15625 C 11.445312 -20.15625 11.75 -19.863281 11.75 -19.28125 L 11.75 0.96875 C 11.75 1.570312 11.457031 1.875 10.875 1.875 L 8.875 1.875 C 8.269531 1.875 7.96875 1.582031 7.96875 1 L 7.96875 -13.796875 C 7.96875 -14.285156 7.664062 -14.328125 7.0625 -13.921875 C 6.5 -13.585938 5.921875 -13.300781 5.328125 -13.0625 C 4.742188 -12.832031 4.453125 -13.007812 4.453125 -13.59375 L 4.453125 -15.875 C 4.453125 -16.46875 4.742188 -16.921875 5.328125 -17.234375 C 6.460938 -17.816406 7.476562 -18.507812 8.375 -19.3125 Z M 8.375 -19.3125 "/></g></g><g transform="translate(695.755518, 767.416277)"><g><path d="M 6.328125 -20.09375 C 7.734375 -20.5625 9.21875 -20.707031 10.78125 -20.53125 C 12.5625 -20.363281 14.113281 -19.566406 15.4375 -18.140625 C 16.0625 -17.316406 16.414062 -16.535156 16.5 -15.796875 C 16.84375 -14.078125 16.453125 -12.28125 15.328125 -10.40625 C 13.796875 -7.925781 11.539062 -5.285156 8.5625 -2.484375 C 8.070312 -2.003906 8.070312 -1.765625 8.5625 -1.765625 L 16 -1.765625 C 16.601562 -1.765625 16.90625 -1.46875 16.90625 -0.875 L 16.90625 0.9375 C 16.90625 1.539062 16.613281 1.84375 16.03125 1.84375 L 3.140625 1.84375 C 2.535156 1.84375 2.234375 1.550781 2.234375 0.96875 L 2.234375 -0.53125 C 2.234375 -1.113281 2.523438 -1.679688 3.109375 -2.234375 C 7.710938 -6.328125 10.835938 -9.921875 12.484375 -13.015625 C 12.867188 -14.109375 12.835938 -15.046875 12.390625 -15.828125 C 12.078125 -16.410156 11.539062 -16.800781 10.78125 -17 C 9.726562 -17.1875 8.878906 -17.175781 8.234375 -16.96875 C 7.046875 -16.570312 6.441406 -15.660156 6.421875 -14.234375 C 6.421875 -13.535156 6.125 -13.1875 5.53125 -13.1875 L 3.375 -13.1875 C 2.78125 -13.1875 2.484375 -13.476562 2.484375 -14.0625 C 2.523438 -15.5625 3.046875 -17.023438 4.046875 -18.453125 C 4.648438 -19.203125 5.410156 -19.75 6.328125 -20.09375 Z M 6.328125 -20.09375 "/></g></g><g transform="translate(714.857079, 767.416277)"><g><path d="M 11.84375 -22.390625 C 12.09375 -23.023438 12.507812 -23.34375 13.09375 -23.34375 L 14.53125 -23.34375 C 15.113281 -23.34375 15.300781 -23.050781 15.09375 -22.46875 L 4.59375 4.1875 C 4.320312 4.832031 3.894531 5.15625 3.3125 5.15625 L 1.875 5.15625 C 1.289062 5.15625 1.113281 4.863281 1.34375 4.28125 Z M 11.84375 -22.390625 "/></g></g><g transform="translate(730.794578, 767.416277)"><g><path d="M 8.375 -19.3125 C 8.945312 -19.875 9.503906 -20.15625 10.046875 -20.15625 L 10.84375 -20.15625 C 11.445312 -20.15625 11.75 -19.863281 11.75 -19.28125 L 11.75 0.96875 C 11.75 1.570312 11.457031 1.875 10.875 1.875 L 8.875 1.875 C 8.269531 1.875 7.96875 1.582031 7.96875 1 L 7.96875 -13.796875 C 7.96875 -14.285156 7.664062 -14.328125 7.0625 -13.921875 C 6.5 -13.585938 5.921875 -13.300781 5.328125 -13.0625 C 4.742188 -12.832031 4.453125 -13.007812 4.453125 -13.59375 L 4.453125 -15.875 C 4.453125 -16.46875 4.742188 -16.921875 5.328125 -17.234375 C 6.460938 -17.816406 7.476562 -18.507812 8.375 -19.3125 Z M 8.375 -19.3125 "/></g></g><g transform="translate(749.89614, 767.416277)"><g><path d="M 2.109375 -19.21875 C 2.109375 -19.84375 2.382812 -20.15625 2.9375 -20.15625 L 16.109375 -20.15625 C 16.710938 -20.15625 17.015625 -19.863281 17.015625 -19.28125 C 17.117188 -18.125 17.035156 -17.351562 16.765625 -16.96875 L 9.03125 0.9375 C 8.75 1.5625 8.328125 1.875 7.765625 1.875 L 5.296875 1.875 C 4.710938 1.875 4.539062 1.582031 4.78125 1 C 7.257812 -4.644531 9.769531 -10.300781 12.3125 -15.96875 C 12.476562 -16.4375 12.328125 -16.671875 11.859375 -16.671875 L 3.015625 -16.671875 C 2.410156 -16.671875 2.109375 -16.960938 2.109375 -17.546875 Z M 2.109375 -19.21875 "/></g></g></g><g fill="#000000" fill-opacity="1"><g transform="translate(819.435205, 767.416277)"><g><path d="M 8.375 -19.3125 C 8.945312 -19.875 9.503906 -20.15625 10.046875 -20.15625 L 10.84375 -20.15625 C 11.445312 -20.15625 11.75 -19.863281 11.75 -19.28125 L 11.75 0.96875 C 11.75 1.570312 11.457031 1.875 10.875 1.875 L 8.875 1.875 C 8.269531 1.875 7.96875 1.582031 7.96875 1 L 7.96875 -13.796875 C 7.96875 -14.285156 7.664062 -14.328125 7.0625 -13.921875 C 6.5 -13.585938 5.921875 -13.300781 5.328125 -13.0625 C 4.742188 -12.832031 4.453125 -13.007812 4.453125 -13.59375 L 4.453125 -15.875 C 4.453125 -16.46875 4.742188 -16.921875 5.328125 -17.234375 C 6.460938 -17.816406 7.476562 -18.507812 8.375 -19.3125 Z M 8.375 -19.3125 "/></g></g><g transform="translate(838.536767, 767.416277)"><g><path d="M 6.328125 -20.09375 C 7.734375 -20.5625 9.21875 -20.707031 10.78125 -20.53125 C 12.5625 -20.363281 14.113281 -19.566406 15.4375 -18.140625 C 16.0625 -17.316406 16.414062 -16.535156 16.5 -15.796875 C 16.84375 -14.078125 16.453125 -12.28125 15.328125 -10.40625 C 13.796875 -7.925781 11.539062 -5.285156 8.5625 -2.484375 C 8.070312 -2.003906 8.070312 -1.765625 8.5625 -1.765625 L 16 -1.765625 C 16.601562 -1.765625 16.90625 -1.46875 16.90625 -0.875 L 16.90625 0.9375 C 16.90625 1.539062 16.613281 1.84375 16.03125 1.84375 L 3.140625 1.84375 C 2.535156 1.84375 2.234375 1.550781 2.234375 0.96875 L 2.234375 -0.53125 C 2.234375 -1.113281 2.523438 -1.679688 3.109375 -2.234375 C 7.710938 -6.328125 10.835938 -9.921875 12.484375 -13.015625 C 12.867188 -14.109375 12.835938 -15.046875 12.390625 -15.828125 C 12.078125 -16.410156 11.539062 -16.800781 10.78125 -17 C 9.726562 -17.1875 8.878906 -17.175781 8.234375 -16.96875 C 7.046875 -16.570312 6.441406 -15.660156 6.421875 -14.234375 C 6.421875 -13.535156 6.125 -13.1875 5.53125 -13.1875 L 3.375 -13.1875 C 2.78125 -13.1875 2.484375 -13.476562 2.484375 -14.0625 C 2.523438 -15.5625 3.046875 -17.023438 4.046875 -18.453125 C 4.648438 -19.203125 5.410156 -19.75 6.328125 -20.09375 Z M 6.328125 -20.09375 "/></g></g><g transform="translate(857.638328, 767.416277)"><g><path d="M 11.84375 -22.390625 C 12.09375 -23.023438 12.507812 -23.34375 13.09375 -23.34375 L 14.53125 -23.34375 C 15.113281 -23.34375 15.300781 -23.050781 15.09375 -22.46875 L 4.59375 4.1875 C 4.320312 4.832031 3.894531 5.15625 3.3125 5.15625 L 1.875 5.15625 C 1.289062 5.15625 1.113281 4.863281 1.34375 4.28125 Z M 11.84375 -22.390625 "/></g></g><g transform="translate(873.575827, 767.416277)"><g><path d="M 6.328125 -20.09375 C 7.734375 -20.5625 9.21875 -20.707031 10.78125 -20.53125 C 12.5625 -20.363281 14.113281 -19.566406 15.4375 -18.140625 C 16.0625 -17.316406 16.414062 -16.535156 16.5 -15.796875 C 16.84375 -14.078125 16.453125 -12.28125 15.328125 -10.40625 C 13.796875 -7.925781 11.539062 -5.285156 8.5625 -2.484375 C 8.070312 -2.003906 8.070312 -1.765625 8.5625 -1.765625 L 16 -1.765625 C 16.601562 -1.765625 16.90625 -1.46875 16.90625 -0.875 L 16.90625 0.9375 C 16.90625 1.539062 16.613281 1.84375 16.03125 1.84375 L 3.140625 1.84375 C 2.535156 1.84375 2.234375 1.550781 2.234375 0.96875 L 2.234375 -0.53125 C 2.234375 -1.113281 2.523438 -1.679688 3.109375 -2.234375 C 7.710938 -6.328125 10.835938 -9.921875 12.484375 -13.015625 C 12.867188 -14.109375 12.835938 -15.046875 12.390625 -15.828125 C 12.078125 -16.410156 11.539062 -16.800781 10.78125 -17 C 9.726562 -17.1875 8.878906 -17.175781 8.234375 -16.96875 C 7.046875 -16.570312 6.441406 -15.660156 6.421875 -14.234375 C 6.421875 -13.535156 6.125 -13.1875 5.53125 -13.1875 L 3.375 -13.1875 C 2.78125 -13.1875 2.484375 -13.476562 2.484375 -14.0625 C 2.523438 -15.5625 3.046875 -17.023438 4.046875 -18.453125 C 4.648438 -19.203125 5.410156 -19.75 6.328125 -20.09375 Z M 6.328125 -20.09375 "/></g></g><g transform="translate(892.677389, 767.416277)"><g><path d="M 10.515625 -19.15625 C 10.984375 -19.820312 11.460938 -20.15625 11.953125 -20.15625 L 13.625 -20.15625 C 14.226562 -20.15625 14.53125 -19.863281 14.53125 -19.28125 L 14.53125 -6.890625 C 14.53125 -6.398438 14.765625 -6.15625 15.234375 -6.15625 L 16.96875 -6.15625 C 17.570312 -6.15625 17.875 -5.863281 17.875 -5.28125 L 17.875 -3.6875 C 17.875 -3.082031 17.582031 -2.78125 17 -2.78125 L 15.265625 -2.78125 C 14.773438 -2.78125 14.53125 -2.546875 14.53125 -2.078125 L 14.53125 0.96875 C 14.53125 1.570312 14.238281 1.875 13.65625 1.875 L 11.71875 1.875 C 11.113281 1.875 10.8125 1.582031 10.8125 1 L 10.8125 -2.046875 C 10.8125 -2.535156 10.578125 -2.78125 10.109375 -2.78125 L 2.109375 -2.78125 C 1.503906 -2.78125 1.203125 -3.070312 1.203125 -3.65625 L 1.203125 -4.484375 C 1.203125 -5.066406 1.335938 -5.554688 1.609375 -5.953125 C 4.535156 -10.347656 7.503906 -14.75 10.515625 -19.15625 Z M 10.8125 -12.421875 C 10.8125 -12.953125 10.632812 -12.953125 10.28125 -12.421875 L 6.5 -6.890625 C 6.15625 -6.398438 6.222656 -6.15625 6.703125 -6.15625 L 10.078125 -6.15625 C 10.566406 -6.15625 10.8125 -6.390625 10.8125 -6.859375 Z M 10.8125 -12.421875 "/></g></g></g><g fill="#000000" fill-opacity="1"><g transform="translate(962.216454, 767.416277)"><g><path d="M 8.375 -19.3125 C 8.945312 -19.875 9.503906 -20.15625 10.046875 -20.15625 L 10.84375 -20.15625 C 11.445312 -20.15625 11.75 -19.863281 11.75 -19.28125 L 11.75 0.96875 C 11.75 1.570312 11.457031 1.875 10.875 1.875 L 8.875 1.875 C 8.269531 1.875 7.96875 1.582031 7.96875 1 L 7.96875 -13.796875 C 7.96875 -14.285156 7.664062 -14.328125 7.0625 -13.921875 C 6.5 -13.585938 5.921875 -13.300781 5.328125 -13.0625 C 4.742188 -12.832031 4.453125 -13.007812 4.453125 -13.59375 L 4.453125 -15.875 C 4.453125 -16.46875 4.742188 -16.921875 5.328125 -17.234375 C 6.460938 -17.816406 7.476562 -18.507812 8.375 -19.3125 Z M 8.375 -19.3125 "/></g></g><g transform="translate(981.318015, 767.416277)"><g><path d="M 6.328125 -20.09375 C 7.734375 -20.5625 9.21875 -20.707031 10.78125 -20.53125 C 12.5625 -20.363281 14.113281 -19.566406 15.4375 -18.140625 C 16.0625 -17.316406 16.414062 -16.535156 16.5 -15.796875 C 16.84375 -14.078125 16.453125 -12.28125 15.328125 -10.40625 C 13.796875 -7.925781 11.539062 -5.285156 8.5625 -2.484375 C 8.070312 -2.003906 8.070312 -1.765625 8.5625 -1.765625 L 16 -1.765625 C 16.601562 -1.765625 16.90625 -1.46875 16.90625 -0.875 L 16.90625 0.9375 C 16.90625 1.539062 16.613281 1.84375 16.03125 1.84375 L 3.140625 1.84375 C 2.535156 1.84375 2.234375 1.550781 2.234375 0.96875 L 2.234375 -0.53125 C 2.234375 -1.113281 2.523438 -1.679688 3.109375 -2.234375 C 7.710938 -6.328125 10.835938 -9.921875 12.484375 -13.015625 C 12.867188 -14.109375 12.835938 -15.046875 12.390625 -15.828125 C 12.078125 -16.410156 11.539062 -16.800781 10.78125 -17 C 9.726562 -17.1875 8.878906 -17.175781 8.234375 -16.96875 C 7.046875 -16.570312 6.441406 -15.660156 6.421875 -14.234375 C 6.421875 -13.535156 6.125 -13.1875 5.53125 -13.1875 L 3.375 -13.1875 C 2.78125 -13.1875 2.484375 -13.476562 2.484375 -14.0625 C 2.523438 -15.5625 3.046875 -17.023438 4.046875 -18.453125 C 4.648438 -19.203125 5.410156 -19.75 6.328125 -20.09375 Z M 6.328125 -20.09375 "/></g></g><g transform="translate(1000.419577, 767.416277)"><g><path d="M 11.84375 -22.390625 C 12.09375 -23.023438 12.507812 -23.34375 13.09375 -23.34375 L 14.53125 -23.34375 C 15.113281 -23.34375 15.300781 -23.050781 15.09375 -22.46875 L 4.59375 4.1875 C 4.320312 4.832031 3.894531 5.15625 3.3125 5.15625 L 1.875 5.15625 C 1.289062 5.15625 1.113281 4.863281 1.34375 4.28125 Z M 11.84375 -22.390625 "/></g></g><g transform="translate(1016.357076, 767.416277)"><g><path d="M 3.90625 -18.84375 C 5.851562 -20.34375 8.125 -20.90625 10.71875 -20.53125 C 15.21875 -19.90625 17.378906 -17.640625 17.203125 -13.734375 C 17.222656 -12.722656 16.65625 -11.59375 15.5 -10.34375 C 14.96875 -9.9375 14.988281 -9.488281 15.5625 -9 C 16.300781 -8.332031 16.804688 -7.628906 17.078125 -6.890625 C 18.210938 -3.941406 17.429688 -1.367188 14.734375 0.828125 C 12.335938 2.265625 9.703125 2.660156 6.828125 2.015625 C 3.628906 1.160156 1.921875 -0.859375 1.703125 -4.046875 C 1.660156 -4.785156 1.929688 -5.15625 2.515625 -5.15625 L 4.65625 -5.15625 C 5.25 -5.15625 5.582031 -4.863281 5.65625 -4.28125 C 6.1875 -1.644531 8.015625 -0.726562 11.140625 -1.53125 C 13.191406 -2.3125 13.960938 -3.71875 13.453125 -5.75 C 13.023438 -6.695312 12.359375 -7.289062 11.453125 -7.53125 C 10.484375 -7.820312 9.476562 -7.921875 8.4375 -7.828125 C 7.832031 -7.742188 7.53125 -7.992188 7.53125 -8.578125 L 7.53125 -10.578125 C 7.53125 -11.160156 7.820312 -11.429688 8.40625 -11.390625 C 9.425781 -11.273438 10.335938 -11.351562 11.140625 -11.625 C 12.078125 -11.863281 12.75 -12.441406 13.15625 -13.359375 C 13.71875 -15.273438 12.890625 -16.488281 10.671875 -17 C 9.578125 -17.164062 8.640625 -17.132812 7.859375 -16.90625 C 6.765625 -16.550781 6.140625 -15.726562 5.984375 -14.4375 C 5.878906 -13.851562 5.535156 -13.5625 4.953125 -13.5625 L 2.90625 -13.5625 C 2.320312 -13.5625 2.03125 -13.851562 2.03125 -14.4375 C 2.101562 -16.101562 2.726562 -17.570312 3.90625 -18.84375 Z M 3.90625 -18.84375 "/></g></g><g transform="translate(1035.458638, 767.416277)"><g><path d="M 8.375 -19.3125 C 8.945312 -19.875 9.503906 -20.15625 10.046875 -20.15625 L 10.84375 -20.15625 C 11.445312 -20.15625 11.75 -19.863281 11.75 -19.28125 L 11.75 0.96875 C 11.75 1.570312 11.457031 1.875 10.875 1.875 L 8.875 1.875 C 8.269531 1.875 7.96875 1.582031 7.96875 1 L 7.96875 -13.796875 C 7.96875 -14.285156 7.664062 -14.328125 7.0625 -13.921875 C 6.5 -13.585938 5.921875 -13.300781 5.328125 -13.0625 C 4.742188 -12.832031 4.453125 -13.007812 4.453125 -13.59375 L 4.453125 -15.875 C 4.453125 -16.46875 4.742188 -16.921875 5.328125 -17.234375 C 6.460938 -17.816406 7.476562 -18.507812 8.375 -19.3125 Z M 8.375 -19.3125 "/></g></g></g><g fill="#000000" fill-opacity="1"><g transform="translate(411.06476, 145.715674)"><g><path d="M 1.765625 -16.015625 C 1.765625 -16.535156 1.988281 -16.796875 2.4375 -16.796875 L 13.421875 -16.796875 C 13.929688 -16.796875 14.1875 -16.550781 14.1875 -16.0625 C 14.269531 -15.101562 14.195312 -14.460938 13.96875 -14.140625 L 7.515625 0.78125 C 7.285156 1.300781 6.9375 1.5625 6.46875 1.5625 L 4.421875 1.5625 C 3.929688 1.5625 3.785156 1.316406 3.984375 0.828125 C 6.046875 -3.867188 8.132812 -8.582031 10.25 -13.3125 C 10.394531 -13.695312 10.273438 -13.890625 9.890625 -13.890625 L 2.515625 -13.890625 C 2.015625 -13.890625 1.765625 -14.132812 1.765625 -14.625 Z M 1.765625 -16.015625 "/></g></g></g><g fill="#000000" fill-opacity="1"><g transform="translate(426.980241, 145.715674)"><g><path d="M 3.59375 -15.71875 C 5.675781 -17.21875 7.984375 -17.566406 10.515625 -16.765625 C 11.867188 -16.328125 12.960938 -15.304688 13.796875 -13.703125 C 14.847656 -11.015625 15.097656 -7.992188 14.546875 -4.640625 C 14.421875 -3.984375 14.257812 -3.332031 14.0625 -2.6875 C 13.539062 -1.101562 12.601562 0.125 11.25 1 C 10.0625 1.6875 8.585938 1.988281 6.828125 1.90625 C 3.816406 1.789062 2.078125 0.0859375 1.609375 -3.203125 C 1.578125 -3.691406 1.804688 -3.9375 2.296875 -3.9375 L 4.03125 -3.9375 C 4.519531 -3.9375 4.785156 -3.691406 4.828125 -3.203125 C 5.023438 -1.765625 5.785156 -1.039062 7.109375 -1.03125 C 9.453125 -0.75 10.882812 -2.164062 11.40625 -5.28125 C 11.46875 -5.664062 11.253906 -5.738281 10.765625 -5.5 C 8.304688 -4.457031 6.082031 -4.546875 4.09375 -5.765625 C 3.300781 -6.296875 2.734375 -6.890625 2.390625 -7.546875 C 1.660156 -8.710938 1.394531 -10.132812 1.59375 -11.8125 C 1.769531 -13.3125 2.4375 -14.613281 3.59375 -15.71875 Z M 7.609375 -14.265625 C 6.648438 -14.191406 5.863281 -13.691406 5.25 -12.765625 C 4.851562 -12.015625 4.695312 -11.226562 4.78125 -10.40625 C 4.863281 -9.175781 5.566406 -8.300781 6.890625 -7.78125 C 7.628906 -7.601562 8.28125 -7.613281 8.84375 -7.8125 C 10.675781 -8.53125 11.515625 -9.691406 11.359375 -11.296875 C 10.878906 -13.304688 9.628906 -14.296875 7.609375 -14.265625 Z M 7.609375 -14.265625 "/></g></g></g><g fill="#000000" fill-opacity="1"><g transform="translate(442.895722, 145.715674)"><g><path d="M 0.75 -1.609375 C 0.75 -2.117188 0.992188 -2.375 1.484375 -2.375 L 3.78125 -2.375 C 4.289062 -2.375 4.546875 -2.128906 4.546875 -1.640625 L 4.546875 0.6875 C 4.546875 1.1875 4.300781 1.4375 3.8125 1.4375 L 1.484375 1.4375 C 0.992188 1.4375 0.75 1.191406 0.75 0.703125 Z M 0.75 -1.609375 "/></g></g></g><g fill="#000000" fill-opacity="1"><g transform="translate(448.217156, 145.715674)"><g><path d="M 5.28125 -16.75 C 6.445312 -17.132812 7.679688 -17.253906 8.984375 -17.109375 C 10.460938 -16.960938 11.753906 -16.296875 12.859375 -15.109375 C 13.378906 -14.429688 13.675781 -13.78125 13.75 -13.15625 C 14.039062 -11.726562 13.710938 -10.234375 12.765625 -8.671875 C 11.492188 -6.597656 9.613281 -4.398438 7.125 -2.078125 C 6.71875 -1.671875 6.71875 -1.46875 7.125 -1.46875 L 13.328125 -1.46875 C 13.835938 -1.46875 14.09375 -1.222656 14.09375 -0.734375 L 14.09375 0.78125 C 14.09375 1.28125 13.847656 1.53125 13.359375 1.53125 L 2.609375 1.53125 C 2.109375 1.53125 1.859375 1.289062 1.859375 0.8125 L 1.859375 -0.4375 C 1.859375 -0.925781 2.101562 -1.398438 2.59375 -1.859375 C 6.425781 -5.273438 9.03125 -8.269531 10.40625 -10.84375 C 10.726562 -11.75 10.703125 -12.53125 10.328125 -13.1875 C 10.066406 -13.675781 9.617188 -14 8.984375 -14.15625 C 8.109375 -14.320312 7.398438 -14.316406 6.859375 -14.140625 C 5.867188 -13.804688 5.363281 -13.046875 5.34375 -11.859375 C 5.34375 -11.273438 5.097656 -10.984375 4.609375 -10.984375 L 2.8125 -10.984375 C 2.320312 -10.984375 2.078125 -11.226562 2.078125 -11.71875 C 2.109375 -12.96875 2.539062 -14.1875 3.375 -15.375 C 3.875 -16 4.507812 -16.457031 5.28125 -16.75 Z M 5.28125 -16.75 "/></g></g></g><g fill="#000000" fill-opacity="1"><g transform="translate(553.497162, 154.316571)"><g><path d="M 1.765625 -16.015625 C 1.765625 -16.535156 1.988281 -16.796875 2.4375 -16.796875 L 13.421875 -16.796875 C 13.929688 -16.796875 14.1875 -16.550781 14.1875 -16.0625 C 14.269531 -15.101562 14.195312 -14.460938 13.96875 -14.140625 L 7.515625 0.78125 C 7.285156 1.300781 6.9375 1.5625 6.46875 1.5625 L 4.421875 1.5625 C 3.929688 1.5625 3.785156 1.316406 3.984375 0.828125 C 6.046875 -3.867188 8.132812 -8.582031 10.25 -13.3125 C 10.394531 -13.695312 10.273438 -13.890625 9.890625 -13.890625 L 2.515625 -13.890625 C 2.015625 -13.890625 1.765625 -14.132812 1.765625 -14.625 Z M 1.765625 -16.015625 "/></g></g></g><g fill="#000000" fill-opacity="1"><g transform="translate(569.412643, 154.316571)"><g><path d="M 4.65625 -16.265625 C 6.757812 -17.335938 9.019531 -17.46875 11.4375 -16.65625 C 13.039062 -16.03125 14.117188 -14.988281 14.671875 -13.53125 C 15.335938 -11.6875 14.960938 -10 13.546875 -8.46875 C 13.148438 -8.113281 13.207031 -7.734375 13.71875 -7.328125 C 15.34375 -5.660156 15.707031 -3.726562 14.8125 -1.53125 C 14.125 -0.0507812 12.992188 0.945312 11.421875 1.46875 C 10.023438 1.957031 8.46875 2.0625 6.75 1.78125 C 3.039062 0.882812 1.390625 -1.3125 1.796875 -4.8125 C 1.992188 -5.820312 2.554688 -6.722656 3.484375 -7.515625 C 3.835938 -7.796875 3.804688 -8.109375 3.390625 -8.453125 C 2.234375 -9.640625 1.789062 -11.046875 2.0625 -12.671875 C 2.25 -14.140625 3.113281 -15.335938 4.65625 -16.265625 Z M 9.046875 -14.203125 C 8.316406 -14.253906 7.550781 -14.164062 6.75 -13.9375 C 5.488281 -13.320312 5.046875 -12.304688 5.421875 -10.890625 C 5.546875 -10.398438 5.941406 -10 6.609375 -9.6875 C 7.453125 -9.3125 8.566406 -9.265625 9.953125 -9.546875 C 11.046875 -9.859375 11.625 -10.484375 11.6875 -11.421875 C 11.75 -13.066406 10.867188 -13.992188 9.046875 -14.203125 Z M 7.984375 -6.5 C 7.210938 -6.445312 6.550781 -6.257812 6 -5.9375 C 5.332031 -5.425781 5 -4.789062 5 -4.03125 C 4.9375 -2.582031 5.617188 -1.644531 7.046875 -1.21875 C 7.648438 -0.988281 8.457031 -0.945312 9.46875 -1.09375 C 11.207031 -1.457031 12.035156 -2.492188 11.953125 -4.203125 C 11.890625 -4.753906 11.664062 -5.242188 11.28125 -5.671875 C 10.59375 -6.265625 9.492188 -6.539062 7.984375 -6.5 Z M 7.984375 -6.5 "/></g></g></g><g fill="#000000" fill-opacity="1"><g transform="translate(585.328124, 154.316571)"><g><path d="M 0.75 -1.609375 C 0.75 -2.117188 0.992188 -2.375 1.484375 -2.375 L 3.78125 -2.375 C 4.289062 -2.375 4.546875 -2.128906 4.546875 -1.640625 L 4.546875 0.6875 C 4.546875 1.1875 4.300781 1.4375 3.8125 1.4375 L 1.484375 1.4375 C 0.992188 1.4375 0.75 1.191406 0.75 0.703125 Z M 0.75 -1.609375 "/></g></g></g><g fill="#000000" fill-opacity="1"><g transform="translate(590.649557, 154.316571)"><g><path d="M 2.453125 -15.9375 C 2.484375 -16.507812 2.726562 -16.796875 3.1875 -16.796875 L 12.734375 -16.796875 C 13.234375 -16.796875 13.484375 -16.550781 13.484375 -16.0625 L 13.484375 -14.671875 C 13.484375 -14.171875 13.238281 -13.921875 12.75 -13.921875 L 6.0625 -13.921875 C 5.65625 -13.921875 5.453125 -13.722656 5.453125 -13.328125 L 5.375 -10.90625 C 5.375 -10.519531 5.617188 -10.429688 6.109375 -10.640625 C 7.296875 -11.148438 8.710938 -11.191406 10.359375 -10.765625 C 11.835938 -10.304688 12.96875 -9.265625 13.75 -7.640625 C 14.632812 -5.242188 14.546875 -3.070312 13.484375 -1.125 C 12.566406 0.40625 11.328125 1.347656 9.765625 1.703125 C 7.421875 2.179688 5.347656 1.8125 3.546875 0.59375 C 2.503906 -0.382812 1.882812 -1.648438 1.6875 -3.203125 C 1.65625 -3.722656 1.875 -3.984375 2.34375 -3.984375 L 4.140625 -3.984375 C 4.617188 -3.984375 4.910156 -3.738281 5.015625 -3.25 C 5.171875 -2.332031 5.632812 -1.679688 6.40625 -1.296875 C 7.082031 -1.015625 7.867188 -0.960938 8.765625 -1.140625 C 10.148438 -1.628906 10.925781 -2.671875 11.09375 -4.265625 C 11.175781 -5.035156 11.035156 -5.796875 10.671875 -6.546875 C 9.847656 -7.847656 8.601562 -8.296875 6.9375 -7.890625 C 6.320312 -7.722656 5.769531 -7.234375 5.28125 -6.421875 C 5.050781 -5.835938 4.691406 -5.546875 4.203125 -5.546875 L 2.765625 -5.546875 C 2.273438 -5.546875 2.03125 -5.828125 2.03125 -6.390625 Z M 2.453125 -15.9375 "/></g></g></g><g fill="#000000" fill-opacity="1"><g transform="translate(693.452555, 157.566574)"><g><path d="M 1.765625 -16.015625 C 1.765625 -16.535156 1.988281 -16.796875 2.4375 -16.796875 L 13.421875 -16.796875 C 13.929688 -16.796875 14.1875 -16.550781 14.1875 -16.0625 C 14.269531 -15.101562 14.195312 -14.460938 13.96875 -14.140625 L 7.515625 0.78125 C 7.285156 1.300781 6.9375 1.5625 6.46875 1.5625 L 4.421875 1.5625 C 3.929688 1.5625 3.785156 1.316406 3.984375 0.828125 C 6.046875 -3.867188 8.132812 -8.582031 10.25 -13.3125 C 10.394531 -13.695312 10.273438 -13.890625 9.890625 -13.890625 L 2.515625 -13.890625 C 2.015625 -13.890625 1.765625 -14.132812 1.765625 -14.625 Z M 1.765625 -16.015625 "/></g></g></g><g fill="#000000" fill-opacity="1"><g transform="translate(709.368036, 157.566574)"><g><path d="M 1.765625 -16.015625 C 1.765625 -16.535156 1.988281 -16.796875 2.4375 -16.796875 L 13.421875 -16.796875 C 13.929688 -16.796875 14.1875 -16.550781 14.1875 -16.0625 C 14.269531 -15.101562 14.195312 -14.460938 13.96875 -14.140625 L 7.515625 0.78125 C 7.285156 1.300781 6.9375 1.5625 6.46875 1.5625 L 4.421875 1.5625 C 3.929688 1.5625 3.785156 1.316406 3.984375 0.828125 C 6.046875 -3.867188 8.132812 -8.582031 10.25 -13.3125 C 10.394531 -13.695312 10.273438 -13.890625 9.890625 -13.890625 L 2.515625 -13.890625 C 2.015625 -13.890625 1.765625 -14.132812 1.765625 -14.625 Z M 1.765625 -16.015625 "/></g></g></g><g fill="#000000" fill-opacity="1"><g transform="translate(725.283516, 157.566574)"><g><path d="M 0.75 -1.609375 C 0.75 -2.117188 0.992188 -2.375 1.484375 -2.375 L 3.78125 -2.375 C 4.289062 -2.375 4.546875 -2.128906 4.546875 -1.640625 L 4.546875 0.6875 C 4.546875 1.1875 4.300781 1.4375 3.8125 1.4375 L 1.484375 1.4375 C 0.992188 1.4375 0.75 1.191406 0.75 0.703125 Z M 0.75 -1.609375 "/></g></g></g><g fill="#000000" fill-opacity="1"><g transform="translate(730.60495, 157.566574)"><g><path d="M 4.65625 -16.265625 C 6.757812 -17.335938 9.019531 -17.46875 11.4375 -16.65625 C 13.039062 -16.03125 14.117188 -14.988281 14.671875 -13.53125 C 15.335938 -11.6875 14.960938 -10 13.546875 -8.46875 C 13.148438 -8.113281 13.207031 -7.734375 13.71875 -7.328125 C 15.34375 -5.660156 15.707031 -3.726562 14.8125 -1.53125 C 14.125 -0.0507812 12.992188 0.945312 11.421875 1.46875 C 10.023438 1.957031 8.46875 2.0625 6.75 1.78125 C 3.039062 0.882812 1.390625 -1.3125 1.796875 -4.8125 C 1.992188 -5.820312 2.554688 -6.722656 3.484375 -7.515625 C 3.835938 -7.796875 3.804688 -8.109375 3.390625 -8.453125 C 2.234375 -9.640625 1.789062 -11.046875 2.0625 -12.671875 C 2.25 -14.140625 3.113281 -15.335938 4.65625 -16.265625 Z M 9.046875 -14.203125 C 8.316406 -14.253906 7.550781 -14.164062 6.75 -13.9375 C 5.488281 -13.320312 5.046875 -12.304688 5.421875 -10.890625 C 5.546875 -10.398438 5.941406 -10 6.609375 -9.6875 C 7.453125 -9.3125 8.566406 -9.265625 9.953125 -9.546875 C 11.046875 -9.859375 11.625 -10.484375 11.6875 -11.421875 C 11.75 -13.066406 10.867188 -13.992188 9.046875 -14.203125 Z M 7.984375 -6.5 C 7.210938 -6.445312 6.550781 -6.257812 6 -5.9375 C 5.332031 -5.425781 5 -4.789062 5 -4.03125 C 4.9375 -2.582031 5.617188 -1.644531 7.046875 -1.21875 C 7.648438 -0.988281 8.457031 -0.945312 9.46875 -1.09375 C 11.207031 -1.457031 12.035156 -2.492188 11.953125 -4.203125 C 11.890625 -4.753906 11.664062 -5.242188 11.28125 -5.671875 C 10.59375 -6.265625 9.492188 -6.539062 7.984375 -6.5 Z M 7.984375 -6.5 "/></g></g></g><g fill="#000000" fill-opacity="1"><g transform="translate(830.743804, 160.465675)"><g><path d="M 1.765625 -16.015625 C 1.765625 -16.535156 1.988281 -16.796875 2.4375 -16.796875 L 13.421875 -16.796875 C 13.929688 -16.796875 14.1875 -16.550781 14.1875 -16.0625 C 14.269531 -15.101562 14.195312 -14.460938 13.96875 -14.140625 L 7.515625 0.78125 C 7.285156 1.300781 6.9375 1.5625 6.46875 1.5625 L 4.421875 1.5625 C 3.929688 1.5625 3.785156 1.316406 3.984375 0.828125 C 6.046875 -3.867188 8.132812 -8.582031 10.25 -13.3125 C 10.394531 -13.695312 10.273438 -13.890625 9.890625 -13.890625 L 2.515625 -13.890625 C 2.015625 -13.890625 1.765625 -14.132812 1.765625 -14.625 Z M 1.765625 -16.015625 "/></g></g></g><g fill="#000000" fill-opacity="1"><g transform="translate(846.659285, 160.465675)"><g><path d="M 1.765625 -16.015625 C 1.765625 -16.535156 1.988281 -16.796875 2.4375 -16.796875 L 13.421875 -16.796875 C 13.929688 -16.796875 14.1875 -16.550781 14.1875 -16.0625 C 14.269531 -15.101562 14.195312 -14.460938 13.96875 -14.140625 L 7.515625 0.78125 C 7.285156 1.300781 6.9375 1.5625 6.46875 1.5625 L 4.421875 1.5625 C 3.929688 1.5625 3.785156 1.316406 3.984375 0.828125 C 6.046875 -3.867188 8.132812 -8.582031 10.25 -13.3125 C 10.394531 -13.695312 10.273438 -13.890625 9.890625 -13.890625 L 2.515625 -13.890625 C 2.015625 -13.890625 1.765625 -14.132812 1.765625 -14.625 Z M 1.765625 -16.015625 "/></g></g></g><g fill="#000000" fill-opacity="1"><g transform="translate(862.574766, 160.465675)"><g><path d="M 0.75 -1.609375 C 0.75 -2.117188 0.992188 -2.375 1.484375 -2.375 L 3.78125 -2.375 C 4.289062 -2.375 4.546875 -2.128906 4.546875 -1.640625 L 4.546875 0.6875 C 4.546875 1.1875 4.300781 1.4375 3.8125 1.4375 L 1.484375 1.4375 C 0.992188 1.4375 0.75 1.191406 0.75 0.703125 Z M 0.75 -1.609375 "/></g></g></g><g fill="#000000" fill-opacity="1"><g transform="translate(867.896199, 160.465675)"><g><path d="M 5.953125 -16.703125 C 6.941406 -17.085938 7.96875 -17.238281 9.03125 -17.15625 C 9.78125 -17.082031 10.429688 -16.9375 10.984375 -16.71875 C 12.804688 -15.894531 14.019531 -14.476562 14.625 -12.46875 C 15.40625 -9.539062 15.5 -6.671875 14.90625 -3.859375 C 14.613281 -2.390625 14.03125 -1.117188 13.15625 -0.046875 C 11.476562 1.609375 9.550781 2.234375 7.375 1.828125 C 5.90625 1.703125 4.632812 0.960938 3.5625 -0.390625 C 2.757812 -1.523438 2.226562 -2.828125 1.96875 -4.296875 C 1.40625 -7.554688 1.648438 -10.582031 2.703125 -13.375 C 3.222656 -14.78125 4.304688 -15.890625 5.953125 -16.703125 Z M 8.171875 -14.328125 C 6.984375 -14.203125 6.117188 -13.453125 5.578125 -12.078125 C 4.867188 -9.816406 4.738281 -7.296875 5.1875 -4.515625 C 5.84375 -1.554688 7.375 -0.472656 9.78125 -1.265625 C 10.625 -1.753906 11.144531 -2.332031 11.34375 -3 C 11.769531 -4 12.007812 -5.253906 12.0625 -6.765625 C 12.15625 -8.734375 11.957031 -10.441406 11.46875 -11.890625 C 10.820312 -13.679688 9.722656 -14.492188 8.171875 -14.328125 Z M 8.171875 -14.328125 "/></g></g></g><g fill="#000000" fill-opacity="1"><g transform="translate(973.525029, 175.566573)"><g><path d="M 1.765625 -16.015625 C 1.765625 -16.535156 1.988281 -16.796875 2.4375 -16.796875 L 13.421875 -16.796875 C 13.929688 -16.796875 14.1875 -16.550781 14.1875 -16.0625 C 14.269531 -15.101562 14.195312 -14.460938 13.96875 -14.140625 L 7.515625 0.78125 C 7.285156 1.300781 6.9375 1.5625 6.46875 1.5625 L 4.421875 1.5625 C 3.929688 1.5625 3.785156 1.316406 3.984375 0.828125 C 6.046875 -3.867188 8.132812 -8.582031 10.25 -13.3125 C 10.394531 -13.695312 10.273438 -13.890625 9.890625 -13.890625 L 2.515625 -13.890625 C 2.015625 -13.890625 1.765625 -14.132812 1.765625 -14.625 Z M 1.765625 -16.015625 "/></g></g></g><g fill="#000000" fill-opacity="1"><g transform="translate(989.44051, 175.566573)"><g><path d="M 5.921875 -16.65625 C 8.191406 -17.414062 10.300781 -17.332031 12.25 -16.40625 C 13.09375 -15.863281 13.65625 -15.285156 13.9375 -14.671875 C 14.3125 -13.953125 14.53125 -13.195312 14.59375 -12.40625 C 14.625 -11.863281 14.410156 -11.59375 13.953125 -11.59375 L 12.203125 -11.59375 C 11.710938 -11.59375 11.425781 -11.835938 11.34375 -12.328125 C 10.925781 -13.941406 9.820312 -14.566406 8.03125 -14.203125 C 7.363281 -14.109375 6.734375 -13.6875 6.140625 -12.9375 C 5.753906 -12.40625 5.429688 -11.609375 5.171875 -10.546875 C 5.085938 -10.117188 5.289062 -10.046875 5.78125 -10.328125 C 6.882812 -10.898438 8.195312 -11.113281 9.71875 -10.96875 C 12.070312 -10.6875 13.679688 -9.332031 14.546875 -6.90625 C 14.929688 -5.71875 14.960938 -4.265625 14.640625 -2.546875 C 14.179688 -0.960938 13.269531 0.257812 11.90625 1.125 C 10.164062 2.101562 8.078125 2.164062 5.640625 1.3125 C 4.953125 1.019531 4.300781 0.539062 3.6875 -0.125 C 2.789062 -1.289062 2.195312 -2.59375 1.90625 -4.03125 C 1.507812 -6.613281 1.582031 -9.0625 2.125 -11.375 C 2.539062 -13.78125 3.804688 -15.539062 5.921875 -16.65625 Z M 8.25 -8.109375 C 7.40625 -8.023438 6.6875 -7.648438 6.09375 -6.984375 C 5.101562 -5.648438 4.898438 -4.316406 5.484375 -2.984375 C 6.367188 -1.398438 7.578125 -0.765625 9.109375 -1.078125 C 10.628906 -1.546875 11.472656 -2.53125 11.640625 -4.03125 C 11.722656 -4.875 11.582031 -5.679688 11.21875 -6.453125 C 10.519531 -7.753906 9.53125 -8.304688 8.25 -8.109375 Z M 8.25 -8.109375 "/></g></g></g><g fill="#000000" fill-opacity="1"><g transform="translate(1005.35599, 175.566573)"><g><path d="M 0.75 -1.609375 C 0.75 -2.117188 0.992188 -2.375 1.484375 -2.375 L 3.78125 -2.375 C 4.289062 -2.375 4.546875 -2.128906 4.546875 -1.640625 L 4.546875 0.6875 C 4.546875 1.1875 4.300781 1.4375 3.8125 1.4375 L 1.484375 1.4375 C 0.992188 1.4375 0.75 1.191406 0.75 0.703125 Z M 0.75 -1.609375 "/></g></g></g><g fill="#000000" fill-opacity="1"><g transform="translate(1010.677424, 175.566573)"><g><path d="M 5.28125 -16.75 C 6.445312 -17.132812 7.679688 -17.253906 8.984375 -17.109375 C 10.460938 -16.960938 11.753906 -16.296875 12.859375 -15.109375 C 13.378906 -14.429688 13.675781 -13.78125 13.75 -13.15625 C 14.039062 -11.726562 13.710938 -10.234375 12.765625 -8.671875 C 11.492188 -6.597656 9.613281 -4.398438 7.125 -2.078125 C 6.71875 -1.671875 6.71875 -1.46875 7.125 -1.46875 L 13.328125 -1.46875 C 13.835938 -1.46875 14.09375 -1.222656 14.09375 -0.734375 L 14.09375 0.78125 C 14.09375 1.28125 13.847656 1.53125 13.359375 1.53125 L 2.609375 1.53125 C 2.109375 1.53125 1.859375 1.289062 1.859375 0.8125 L 1.859375 -0.4375 C 1.859375 -0.925781 2.101562 -1.398438 2.59375 -1.859375 C 6.425781 -5.273438 9.03125 -8.269531 10.40625 -10.84375 C 10.726562 -11.75 10.703125 -12.53125 10.328125 -13.1875 C 10.066406 -13.675781 9.617188 -14 8.984375 -14.15625 C 8.109375 -14.320312 7.398438 -14.316406 6.859375 -14.140625 C 5.867188 -13.804688 5.363281 -13.046875 5.34375 -11.859375 C 5.34375 -11.273438 5.097656 -10.984375 4.609375 -10.984375 L 2.8125 -10.984375 C 2.320312 -10.984375 2.078125 -11.226562 2.078125 -11.71875 C 2.109375 -12.96875 2.539062 -14.1875 3.375 -15.375 C 3.875 -16 4.507812 -16.457031 5.28125 -16.75 Z M 5.28125 -16.75 "/></g></g></g><g fill="#000000" fill-opacity="1"><g transform="translate(267.857191, 594.60023)"><g><path d="M 6.328125 -20.09375 C 7.734375 -20.5625 9.21875 -20.707031 10.78125 -20.53125 C 12.5625 -20.363281 14.113281 -19.566406 15.4375 -18.140625 C 16.0625 -17.316406 16.414062 -16.535156 16.5 -15.796875 C 16.84375 -14.078125 16.453125 -12.28125 15.328125 -10.40625 C 13.796875 -7.925781 11.539062 -5.285156 8.5625 -2.484375 C 8.070312 -2.003906 8.070312 -1.765625 8.5625 -1.765625 L 16 -1.765625 C 16.601562 -1.765625 16.90625 -1.46875 16.90625 -0.875 L 16.90625 0.9375 C 16.90625 1.539062 16.613281 1.84375 16.03125 1.84375 L 3.140625 1.84375 C 2.535156 1.84375 2.234375 1.550781 2.234375 0.96875 L 2.234375 -0.53125 C 2.234375 -1.113281 2.523438 -1.679688 3.109375 -2.234375 C 7.710938 -6.328125 10.835938 -9.921875 12.484375 -13.015625 C 12.867188 -14.109375 12.835938 -15.046875 12.390625 -15.828125 C 12.078125 -16.410156 11.539062 -16.800781 10.78125 -17 C 9.726562 -17.1875 8.878906 -17.175781 8.234375 -16.96875 C 7.046875 -16.570312 6.441406 -15.660156 6.421875 -14.234375 C 6.421875 -13.535156 6.125 -13.1875 5.53125 -13.1875 L 3.375 -13.1875 C 2.78125 -13.1875 2.484375 -13.476562 2.484375 -14.0625 C 2.523438 -15.5625 3.046875 -17.023438 4.046875 -18.453125 C 4.648438 -19.203125 5.410156 -19.75 6.328125 -20.09375 Z M 6.328125 -20.09375 "/></g></g><g transform="translate(286.958753, 594.60023)"><g><path d="M 7.140625 -20.046875 C 8.335938 -20.515625 9.570312 -20.695312 10.84375 -20.59375 C 11.738281 -20.5 12.519531 -20.320312 13.1875 -20.0625 C 15.375 -19.070312 16.828125 -17.375 17.546875 -14.96875 C 18.484375 -11.457031 18.597656 -8.007812 17.890625 -4.625 C 17.546875 -2.875 16.84375 -1.351562 15.78125 -0.0625 C 13.769531 1.9375 11.457031 2.691406 8.84375 2.203125 C 7.082031 2.046875 5.5625 1.15625 4.28125 -0.46875 C 3.320312 -1.832031 2.6875 -3.394531 2.375 -5.15625 C 1.6875 -9.0625 1.976562 -12.695312 3.25 -16.0625 C 3.875 -17.738281 5.171875 -19.066406 7.140625 -20.046875 Z M 9.8125 -17.203125 C 8.382812 -17.046875 7.347656 -16.144531 6.703125 -14.5 C 5.847656 -11.789062 5.691406 -8.765625 6.234375 -5.421875 C 7.015625 -1.867188 8.851562 -0.570312 11.75 -1.53125 C 12.757812 -2.113281 13.382812 -2.804688 13.625 -3.609375 C 14.125 -4.796875 14.40625 -6.296875 14.46875 -8.109375 C 14.582031 -10.472656 14.347656 -12.523438 13.765625 -14.265625 C 12.984375 -16.410156 11.664062 -17.390625 9.8125 -17.203125 Z M 9.8125 -17.203125 "/></g></g><g transform="translate(306.060314, 594.60023)"><g><path d="M 1.5 -19.21875 C 1.5 -19.84375 1.769531 -20.15625 2.3125 -20.15625 L 4.34375 -20.15625 C 4.945312 -20.15625 5.25 -19.863281 5.25 -19.28125 L 5.25 -13.484375 C 5.25 -12.972656 5.484375 -12.953125 5.953125 -13.421875 L 11.921875 -19.28125 C 12.503906 -19.863281 13.09375 -20.15625 13.6875 -20.15625 L 17.078125 -20.15625 C 17.660156 -20.15625 17.582031 -19.785156 16.84375 -19.046875 L 8.734375 -11.21875 C 8.265625 -10.75 8.273438 -10.222656 8.765625 -9.640625 L 17.8125 0.9375 C 18.363281 1.5625 18.34375 1.875 17.75 1.875 L 14.421875 1.875 C 13.828125 1.875 13.269531 1.582031 12.75 1 L 6.125 -6.921875 C 5.539062 -7.617188 5.25 -7.734375 5.25 -7.265625 L 5.25 0.96875 C 5.25 1.570312 4.953125 1.875 4.359375 1.875 L 2.40625 1.875 C 1.800781 1.875 1.5 1.582031 1.5 1 Z M 1.5 -19.21875 "/></g></g><g transform="translate(325.425548, 594.60023)"><g><path d="M 7.90625 -20.09375 C 9.351562 -20.5625 10.914062 -20.707031 12.59375 -20.53125 C 14.25 -20.363281 15.722656 -19.789062 17.015625 -18.8125 C 18.378906 -17.519531 19.160156 -15.90625 19.359375 -13.96875 C 19.378906 -13.3125 19.097656 -12.984375 18.515625 -12.984375 L 16.375 -12.984375 C 15.789062 -12.984375 15.445312 -13.273438 15.34375 -13.859375 C 14.875 -15.910156 13.675781 -16.945312 11.75 -16.96875 C 10.789062 -17.039062 9.867188 -16.882812 8.984375 -16.5 C 8.035156 -15.96875 7.316406 -15.320312 6.828125 -14.5625 C 5.441406 -12.175781 5.066406 -9.441406 5.703125 -6.359375 C 6.035156 -4.347656 7.125 -2.875 8.96875 -1.9375 C 10.695312 -1.195312 12.675781 -1.117188 14.90625 -1.703125 C 15.375 -1.878906 15.609375 -2.203125 15.609375 -2.671875 L 15.609375 -5.859375 C 15.609375 -6.347656 15.375 -6.59375 14.90625 -6.59375 L 11.28125 -6.59375 C 10.675781 -6.59375 10.375 -6.882812 10.375 -7.46875 L 10.375 -9.28125 C 10.375 -9.894531 10.664062 -10.203125 11.25 -10.203125 L 18.578125 -10.203125 C 19.179688 -10.203125 19.484375 -9.90625 19.484375 -9.3125 L 19.484375 -0.375 C 19.484375 0.207031 19.1875 0.65625 18.59375 0.96875 C 17.332031 1.550781 15.867188 1.941406 14.203125 2.140625 C 11.765625 2.429688 9.753906 2.332031 8.171875 1.84375 C 5.609375 1.082031 3.6875 -0.722656 2.40625 -3.578125 C 1.851562 -4.960938 1.507812 -6.492188 1.375 -8.171875 C 1.21875 -10.160156 1.488281 -12.179688 2.1875 -14.234375 C 3.070312 -16.929688 4.976562 -18.882812 7.90625 -20.09375 Z M 7.90625 -20.09375 "/></g></g></g><g fill="#000000" fill-opacity="1"><g transform="translate(267.857191, 453.406317)"><g><path d="M 10.515625 -19.15625 C 10.984375 -19.820312 11.460938 -20.15625 11.953125 -20.15625 L 13.625 -20.15625 C 14.226562 -20.15625 14.53125 -19.863281 14.53125 -19.28125 L 14.53125 -6.890625 C 14.53125 -6.398438 14.765625 -6.15625 15.234375 -6.15625 L 16.96875 -6.15625 C 17.570312 -6.15625 17.875 -5.863281 17.875 -5.28125 L 17.875 -3.6875 C 17.875 -3.082031 17.582031 -2.78125 17 -2.78125 L 15.265625 -2.78125 C 14.773438 -2.78125 14.53125 -2.546875 14.53125 -2.078125 L 14.53125 0.96875 C 14.53125 1.570312 14.238281 1.875 13.65625 1.875 L 11.71875 1.875 C 11.113281 1.875 10.8125 1.582031 10.8125 1 L 10.8125 -2.046875 C 10.8125 -2.535156 10.578125 -2.78125 10.109375 -2.78125 L 2.109375 -2.78125 C 1.503906 -2.78125 1.203125 -3.070312 1.203125 -3.65625 L 1.203125 -4.484375 C 1.203125 -5.066406 1.335938 -5.554688 1.609375 -5.953125 C 4.535156 -10.347656 7.503906 -14.75 10.515625 -19.15625 Z M 10.8125 -12.421875 C 10.8125 -12.953125 10.632812 -12.953125 10.28125 -12.421875 L 6.5 -6.890625 C 6.15625 -6.398438 6.222656 -6.15625 6.703125 -6.15625 L 10.078125 -6.15625 C 10.566406 -6.15625 10.8125 -6.390625 10.8125 -6.859375 Z M 10.8125 -12.421875 "/></g></g><g transform="translate(286.958753, 453.406317)"><g><path d="M 7.140625 -20.046875 C 8.335938 -20.515625 9.570312 -20.695312 10.84375 -20.59375 C 11.738281 -20.5 12.519531 -20.320312 13.1875 -20.0625 C 15.375 -19.070312 16.828125 -17.375 17.546875 -14.96875 C 18.484375 -11.457031 18.597656 -8.007812 17.890625 -4.625 C 17.546875 -2.875 16.84375 -1.351562 15.78125 -0.0625 C 13.769531 1.9375 11.457031 2.691406 8.84375 2.203125 C 7.082031 2.046875 5.5625 1.15625 4.28125 -0.46875 C 3.320312 -1.832031 2.6875 -3.394531 2.375 -5.15625 C 1.6875 -9.0625 1.976562 -12.695312 3.25 -16.0625 C 3.875 -17.738281 5.171875 -19.066406 7.140625 -20.046875 Z M 9.8125 -17.203125 C 8.382812 -17.046875 7.347656 -16.144531 6.703125 -14.5 C 5.847656 -11.789062 5.691406 -8.765625 6.234375 -5.421875 C 7.015625 -1.867188 8.851562 -0.570312 11.75 -1.53125 C 12.757812 -2.113281 13.382812 -2.804688 13.625 -3.609375 C 14.125 -4.796875 14.40625 -6.296875 14.46875 -8.109375 C 14.582031 -10.472656 14.347656 -12.523438 13.765625 -14.265625 C 12.984375 -16.410156 11.664062 -17.390625 9.8125 -17.203125 Z M 9.8125 -17.203125 "/></g></g><g transform="translate(306.060314, 453.406317)"><g><path d="M 1.5 -19.21875 C 1.5 -19.84375 1.769531 -20.15625 2.3125 -20.15625 L 4.34375 -20.15625 C 4.945312 -20.15625 5.25 -19.863281 5.25 -19.28125 L 5.25 -13.484375 C 5.25 -12.972656 5.484375 -12.953125 5.953125 -13.421875 L 11.921875 -19.28125 C 12.503906 -19.863281 13.09375 -20.15625 13.6875 -20.15625 L 17.078125 -20.15625 C 17.660156 -20.15625 17.582031 -19.785156 16.84375 -19.046875 L 8.734375 -11.21875 C 8.265625 -10.75 8.273438 -10.222656 8.765625 -9.640625 L 17.8125 0.9375 C 18.363281 1.5625 18.34375 1.875 17.75 1.875 L 14.421875 1.875 C 13.828125 1.875 13.269531 1.582031 12.75 1 L 6.125 -6.921875 C 5.539062 -7.617188 5.25 -7.734375 5.25 -7.265625 L 5.25 0.96875 C 5.25 1.570312 4.953125 1.875 4.359375 1.875 L 2.40625 1.875 C 1.800781 1.875 1.5 1.582031 1.5 1 Z M 1.5 -19.21875 "/></g></g><g transform="translate(325.425548, 453.406317)"><g><path d="M 7.90625 -20.09375 C 9.351562 -20.5625 10.914062 -20.707031 12.59375 -20.53125 C 14.25 -20.363281 15.722656 -19.789062 17.015625 -18.8125 C 18.378906 -17.519531 19.160156 -15.90625 19.359375 -13.96875 C 19.378906 -13.3125 19.097656 -12.984375 18.515625 -12.984375 L 16.375 -12.984375 C 15.789062 -12.984375 15.445312 -13.273438 15.34375 -13.859375 C 14.875 -15.910156 13.675781 -16.945312 11.75 -16.96875 C 10.789062 -17.039062 9.867188 -16.882812 8.984375 -16.5 C 8.035156 -15.96875 7.316406 -15.320312 6.828125 -14.5625 C 5.441406 -12.175781 5.066406 -9.441406 5.703125 -6.359375 C 6.035156 -4.347656 7.125 -2.875 8.96875 -1.9375 C 10.695312 -1.195312 12.675781 -1.117188 14.90625 -1.703125 C 15.375 -1.878906 15.609375 -2.203125 15.609375 -2.671875 L 15.609375 -5.859375 C 15.609375 -6.347656 15.375 -6.59375 14.90625 -6.59375 L 11.28125 -6.59375 C 10.675781 -6.59375 10.375 -6.882812 10.375 -7.46875 L 10.375 -9.28125 C 10.375 -9.894531 10.664062 -10.203125 11.25 -10.203125 L 18.578125 -10.203125 C 19.179688 -10.203125 19.484375 -9.90625 19.484375 -9.3125 L 19.484375 -0.375 C 19.484375 0.207031 19.1875 0.65625 18.59375 0.96875 C 17.332031 1.550781 15.867188 1.941406 14.203125 2.140625 C 11.765625 2.429688 9.753906 2.332031 8.171875 1.84375 C 5.609375 1.082031 3.6875 -0.722656 2.40625 -3.578125 C 1.851562 -4.960938 1.507812 -6.492188 1.375 -8.171875 C 1.21875 -10.160156 1.488281 -12.179688 2.1875 -14.234375 C 3.070312 -16.929688 4.976562 -18.882812 7.90625 -20.09375 Z M 7.90625 -20.09375 "/></g></g></g><g fill="#000000" fill-opacity="1"><g transform="translate(267.857191, 312.406293)"><g><path d="M 7.109375 -19.984375 C 9.828125 -20.898438 12.359375 -20.800781 14.703125 -19.6875 C 15.710938 -19.039062 16.382812 -18.347656 16.71875 -17.609375 C 17.164062 -16.742188 17.429688 -15.835938 17.515625 -14.890625 C 17.554688 -14.242188 17.300781 -13.921875 16.75 -13.921875 L 14.640625 -13.921875 C 14.054688 -13.921875 13.71875 -14.210938 13.625 -14.796875 C 13.113281 -16.734375 11.785156 -17.484375 9.640625 -17.046875 C 8.835938 -16.929688 8.082031 -16.425781 7.375 -15.53125 C 6.90625 -14.882812 6.515625 -13.925781 6.203125 -12.65625 C 6.109375 -12.144531 6.351562 -12.054688 6.9375 -12.390625 C 8.269531 -13.078125 9.84375 -13.332031 11.65625 -13.15625 C 14.488281 -12.820312 16.421875 -11.203125 17.453125 -8.296875 C 17.921875 -6.867188 17.960938 -5.117188 17.578125 -3.046875 C 17.023438 -1.148438 15.929688 0.3125 14.296875 1.34375 C 12.203125 2.519531 9.691406 2.597656 6.765625 1.578125 C 5.941406 1.234375 5.160156 0.660156 4.421875 -0.140625 C 3.347656 -1.546875 2.632812 -3.109375 2.28125 -4.828125 C 1.8125 -7.941406 1.898438 -10.882812 2.546875 -13.65625 C 3.054688 -16.539062 4.578125 -18.648438 7.109375 -19.984375 Z M 9.890625 -9.734375 C 8.878906 -9.628906 8.019531 -9.175781 7.3125 -8.375 C 6.125 -6.78125 5.882812 -5.179688 6.59375 -3.578125 C 7.644531 -1.679688 9.085938 -0.921875 10.921875 -1.296875 C 12.753906 -1.859375 13.769531 -3.035156 13.96875 -4.828125 C 14.0625 -5.847656 13.894531 -6.816406 13.46875 -7.734375 C 12.632812 -9.296875 11.441406 -9.960938 9.890625 -9.734375 Z M 9.890625 -9.734375 "/></g></g><g transform="translate(286.958753, 312.406293)"><g><path d="M 7.140625 -20.046875 C 8.335938 -20.515625 9.570312 -20.695312 10.84375 -20.59375 C 11.738281 -20.5 12.519531 -20.320312 13.1875 -20.0625 C 15.375 -19.070312 16.828125 -17.375 17.546875 -14.96875 C 18.484375 -11.457031 18.597656 -8.007812 17.890625 -4.625 C 17.546875 -2.875 16.84375 -1.351562 15.78125 -0.0625 C 13.769531 1.9375 11.457031 2.691406 8.84375 2.203125 C 7.082031 2.046875 5.5625 1.15625 4.28125 -0.46875 C 3.320312 -1.832031 2.6875 -3.394531 2.375 -5.15625 C 1.6875 -9.0625 1.976562 -12.695312 3.25 -16.0625 C 3.875 -17.738281 5.171875 -19.066406 7.140625 -20.046875 Z M 9.8125 -17.203125 C 8.382812 -17.046875 7.347656 -16.144531 6.703125 -14.5 C 5.847656 -11.789062 5.691406 -8.765625 6.234375 -5.421875 C 7.015625 -1.867188 8.851562 -0.570312 11.75 -1.53125 C 12.757812 -2.113281 13.382812 -2.804688 13.625 -3.609375 C 14.125 -4.796875 14.40625 -6.296875 14.46875 -8.109375 C 14.582031 -10.472656 14.347656 -12.523438 13.765625 -14.265625 C 12.984375 -16.410156 11.664062 -17.390625 9.8125 -17.203125 Z M 9.8125 -17.203125 "/></g></g><g transform="translate(306.060314, 312.406293)"><g><path d="M 1.5 -19.21875 C 1.5 -19.84375 1.769531 -20.15625 2.3125 -20.15625 L 4.34375 -20.15625 C 4.945312 -20.15625 5.25 -19.863281 5.25 -19.28125 L 5.25 -13.484375 C 5.25 -12.972656 5.484375 -12.953125 5.953125 -13.421875 L 11.921875 -19.28125 C 12.503906 -19.863281 13.09375 -20.15625 13.6875 -20.15625 L 17.078125 -20.15625 C 17.660156 -20.15625 17.582031 -19.785156 16.84375 -19.046875 L 8.734375 -11.21875 C 8.265625 -10.75 8.273438 -10.222656 8.765625 -9.640625 L 17.8125 0.9375 C 18.363281 1.5625 18.34375 1.875 17.75 1.875 L 14.421875 1.875 C 13.828125 1.875 13.269531 1.582031 12.75 1 L 6.125 -6.921875 C 5.539062 -7.617188 5.25 -7.734375 5.25 -7.265625 L 5.25 0.96875 C 5.25 1.570312 4.953125 1.875 4.359375 1.875 L 2.40625 1.875 C 1.800781 1.875 1.5 1.582031 1.5 1 Z M 1.5 -19.21875 "/></g></g><g transform="translate(325.425548, 312.406293)"><g><path d="M 7.90625 -20.09375 C 9.351562 -20.5625 10.914062 -20.707031 12.59375 -20.53125 C 14.25 -20.363281 15.722656 -19.789062 17.015625 -18.8125 C 18.378906 -17.519531 19.160156 -15.90625 19.359375 -13.96875 C 19.378906 -13.3125 19.097656 -12.984375 18.515625 -12.984375 L 16.375 -12.984375 C 15.789062 -12.984375 15.445312 -13.273438 15.34375 -13.859375 C 14.875 -15.910156 13.675781 -16.945312 11.75 -16.96875 C 10.789062 -17.039062 9.867188 -16.882812 8.984375 -16.5 C 8.035156 -15.96875 7.316406 -15.320312 6.828125 -14.5625 C 5.441406 -12.175781 5.066406 -9.441406 5.703125 -6.359375 C 6.035156 -4.347656 7.125 -2.875 8.96875 -1.9375 C 10.695312 -1.195312 12.675781 -1.117188 14.90625 -1.703125 C 15.375 -1.878906 15.609375 -2.203125 15.609375 -2.671875 L 15.609375 -5.859375 C 15.609375 -6.347656 15.375 -6.59375 14.90625 -6.59375 L 11.28125 -6.59375 C 10.675781 -6.59375 10.375 -6.882812 10.375 -7.46875 L 10.375 -9.28125 C 10.375 -9.894531 10.664062 -10.203125 11.25 -10.203125 L 18.578125 -10.203125 C 19.179688 -10.203125 19.484375 -9.90625 19.484375 -9.3125 L 19.484375 -0.375 C 19.484375 0.207031 19.1875 0.65625 18.59375 0.96875 C 17.332031 1.550781 15.867188 1.941406 14.203125 2.140625 C 11.765625 2.429688 9.753906 2.332031 8.171875 1.84375 C 5.609375 1.082031 3.6875 -0.722656 2.40625 -3.578125 C 1.851562 -4.960938 1.507812 -6.492188 1.375 -8.171875 C 1.21875 -10.160156 1.488281 -12.179688 2.1875 -14.234375 C 3.070312 -16.929688 4.976562 -18.882812 7.90625 -20.09375 Z M 7.90625 -20.09375 "/></g></g></g><g fill="#000000" fill-opacity="1"><g transform="translate(267.857191, 173.81657)"><g><path d="M 5.59375 -19.515625 C 8.113281 -20.804688 10.828125 -20.960938 13.734375 -19.984375 C 15.648438 -19.242188 16.941406 -17.992188 17.609375 -16.234375 C 18.410156 -14.023438 17.957031 -12.003906 16.25 -10.171875 C 15.78125 -9.734375 15.851562 -9.273438 16.46875 -8.796875 C 18.414062 -6.796875 18.851562 -4.476562 17.78125 -1.84375 C 16.957031 -0.0625 15.597656 1.140625 13.703125 1.765625 C 12.023438 2.347656 10.160156 2.472656 8.109375 2.140625 C 3.660156 1.066406 1.679688 -1.566406 2.171875 -5.765625 C 2.398438 -6.984375 3.070312 -8.070312 4.1875 -9.03125 C 4.613281 -9.351562 4.570312 -9.722656 4.0625 -10.140625 C 2.675781 -11.566406 2.148438 -13.253906 2.484375 -15.203125 C 2.703125 -16.960938 3.738281 -18.398438 5.59375 -19.515625 Z M 10.859375 -17.046875 C 9.984375 -17.109375 9.066406 -17.003906 8.109375 -16.734375 C 6.585938 -15.984375 6.050781 -14.757812 6.5 -13.0625 C 6.65625 -12.476562 7.132812 -12 7.9375 -11.625 C 8.945312 -11.175781 10.285156 -11.117188 11.953125 -11.453125 C 13.253906 -11.828125 13.945312 -12.582031 14.03125 -13.71875 C 14.101562 -15.6875 13.046875 -16.796875 10.859375 -17.046875 Z M 9.578125 -7.796875 C 8.660156 -7.734375 7.867188 -7.507812 7.203125 -7.125 C 6.398438 -6.519531 6 -5.753906 6 -4.828125 C 5.925781 -3.097656 6.75 -1.976562 8.46875 -1.46875 C 9.1875 -1.195312 10.148438 -1.144531 11.359375 -1.3125 C 13.453125 -1.75 14.453125 -2.992188 14.359375 -5.046875 C 14.273438 -5.703125 14 -6.285156 13.53125 -6.796875 C 12.707031 -7.515625 11.390625 -7.847656 9.578125 -7.796875 Z M 9.578125 -7.796875 "/></g></g><g transform="translate(286.958753, 173.81657)"><g><path d="M 7.140625 -20.046875 C 8.335938 -20.515625 9.570312 -20.695312 10.84375 -20.59375 C 11.738281 -20.5 12.519531 -20.320312 13.1875 -20.0625 C 15.375 -19.070312 16.828125 -17.375 17.546875 -14.96875 C 18.484375 -11.457031 18.597656 -8.007812 17.890625 -4.625 C 17.546875 -2.875 16.84375 -1.351562 15.78125 -0.0625 C 13.769531 1.9375 11.457031 2.691406 8.84375 2.203125 C 7.082031 2.046875 5.5625 1.15625 4.28125 -0.46875 C 3.320312 -1.832031 2.6875 -3.394531 2.375 -5.15625 C 1.6875 -9.0625 1.976562 -12.695312 3.25 -16.0625 C 3.875 -17.738281 5.171875 -19.066406 7.140625 -20.046875 Z M 9.8125 -17.203125 C 8.382812 -17.046875 7.347656 -16.144531 6.703125 -14.5 C 5.847656 -11.789062 5.691406 -8.765625 6.234375 -5.421875 C 7.015625 -1.867188 8.851562 -0.570312 11.75 -1.53125 C 12.757812 -2.113281 13.382812 -2.804688 13.625 -3.609375 C 14.125 -4.796875 14.40625 -6.296875 14.46875 -8.109375 C 14.582031 -10.472656 14.347656 -12.523438 13.765625 -14.265625 C 12.984375 -16.410156 11.664062 -17.390625 9.8125 -17.203125 Z M 9.8125 -17.203125 "/></g></g><g transform="translate(306.060314, 173.81657)"><g><path d="M 1.5 -19.21875 C 1.5 -19.84375 1.769531 -20.15625 2.3125 -20.15625 L 4.34375 -20.15625 C 4.945312 -20.15625 5.25 -19.863281 5.25 -19.28125 L 5.25 -13.484375 C 5.25 -12.972656 5.484375 -12.953125 5.953125 -13.421875 L 11.921875 -19.28125 C 12.503906 -19.863281 13.09375 -20.15625 13.6875 -20.15625 L 17.078125 -20.15625 C 17.660156 -20.15625 17.582031 -19.785156 16.84375 -19.046875 L 8.734375 -11.21875 C 8.265625 -10.75 8.273438 -10.222656 8.765625 -9.640625 L 17.8125 0.9375 C 18.363281 1.5625 18.34375 1.875 17.75 1.875 L 14.421875 1.875 C 13.828125 1.875 13.269531 1.582031 12.75 1 L 6.125 -6.921875 C 5.539062 -7.617188 5.25 -7.734375 5.25 -7.265625 L 5.25 0.96875 C 5.25 1.570312 4.953125 1.875 4.359375 1.875 L 2.40625 1.875 C 1.800781 1.875 1.5 1.582031 1.5 1 Z M 1.5 -19.21875 "/></g></g><g transform="translate(325.425548, 173.81657)"><g><path d="M 7.90625 -20.09375 C 9.351562 -20.5625 10.914062 -20.707031 12.59375 -20.53125 C 14.25 -20.363281 15.722656 -19.789062 17.015625 -18.8125 C 18.378906 -17.519531 19.160156 -15.90625 19.359375 -13.96875 C 19.378906 -13.3125 19.097656 -12.984375 18.515625 -12.984375 L 16.375 -12.984375 C 15.789062 -12.984375 15.445312 -13.273438 15.34375 -13.859375 C 14.875 -15.910156 13.675781 -16.945312 11.75 -16.96875 C 10.789062 -17.039062 9.867188 -16.882812 8.984375 -16.5 C 8.035156 -15.96875 7.316406 -15.320312 6.828125 -14.5625 C 5.441406 -12.175781 5.066406 -9.441406 5.703125 -6.359375 C 6.035156 -4.347656 7.125 -2.875 8.96875 -1.9375 C 10.695312 -1.195312 12.675781 -1.117188 14.90625 -1.703125 C 15.375 -1.878906 15.609375 -2.203125 15.609375 -2.671875 L 15.609375 -5.859375 C 15.609375 -6.347656 15.375 -6.59375 14.90625 -6.59375 L 11.28125 -6.59375 C 10.675781 -6.59375 10.375 -6.882812 10.375 -7.46875 L 10.375 -9.28125 C 10.375 -9.894531 10.664062 -10.203125 11.25 -10.203125 L 18.578125 -10.203125 C 19.179688 -10.203125 19.484375 -9.90625 19.484375 -9.3125 L 19.484375 -0.375 C 19.484375 0.207031 19.1875 0.65625 18.59375 0.96875 C 17.332031 1.550781 15.867188 1.941406 14.203125 2.140625 C 11.765625 2.429688 9.753906 2.332031 8.171875 1.84375 C 5.609375 1.082031 3.6875 -0.722656 2.40625 -3.578125 C 1.851562 -4.960938 1.507812 -6.492188 1.375 -8.171875 C 1.21875 -10.160156 1.488281 -12.179688 2.1875 -14.234375 C 3.070312 -16.929688 4.976562 -18.882812 7.90625 -20.09375 Z M 7.90625 -20.09375 "/></g></g></g></svg>